<svg version="1.1" id="Layer_1" xmlns="http://www.w3.org/2000/svg" xmlns:xlink="http://www.w3.org/1999/xlink" x="0px" y="0px"
	 width="100%" viewBox="0 0 384 320" enable-background="new 0 0 384 320" xml:space="preserve">
<path fill="#000000" opacity="1.000000" stroke="none" 
	d="
M314.331665,198.936386 
	C310.329803,214.722427 298.088898,223.430496 285.958313,232.154465 
	C281.193207,235.581375 275.668976,237.606430 270.085419,239.327347 
	C266.334320,240.483459 265.979919,242.210297 268.037445,245.513229 
	C271.819702,251.584869 278.336670,254.962814 282.376160,261.372955 
	C285.491516,258.084045 288.247742,255.089737 291.099548,252.189392 
	C293.550629,249.696609 296.197693,247.505310 299.306213,245.748306 
	C313.907684,237.495239 328.256531,250.486633 329.192657,262.966553 
	C329.476135,266.745667 329.837158,270.618866 328.368378,274.333160 
	C327.363800,276.873596 326.020233,279.143768 322.901917,277.814056 
	C319.438721,276.337280 320.763336,272.557312 321.497345,270.799164 
	C324.270508,264.156738 323.147949,258.294128 316.842255,252.265945 
	C312.726074,248.330872 307.614227,247.935959 301.682220,251.323410 
	C295.604797,254.793900 291.362061,260.237976 287.292877,265.697845 
	C285.012451,268.757660 287.899475,273.167664 291.867432,273.259888 
	C298.357025,273.410767 304.848236,273.508728 311.335571,273.724915 
	C313.008240,273.780640 315.495819,273.130920 315.379242,276.017059 
	C315.269379,278.736328 312.870789,278.217529 311.154663,278.226593 
	C297.659088,278.298035 284.163086,278.327637 270.667328,278.307953 
	C267.962067,278.304016 265.379791,278.452423 263.006348,279.990234 
	C258.642365,282.817780 253.426987,281.768555 248.893555,281.761414 
	C241.564941,281.749847 234.249939,282.689209 226.606369,279.431061 
	C219.479279,276.393097 210.701401,276.515259 202.522202,277.687988 
	C201.205078,277.876862 199.853714,278.330017 198.572205,278.184631 
	C188.247681,277.013550 178.879044,279.744781 170.070190,284.916168 
	C169.927444,284.999969 169.760147,285.123260 169.615036,285.110046 
	C159.936554,284.228546 149.136505,290.687195 140.837921,280.704224 
	C139.812134,279.470184 138.307800,279.214752 136.762711,279.135559 
	C122.800438,278.419800 108.856819,278.203644 94.864594,278.881439 
	C85.255035,279.346893 75.586555,278.547546 65.943138,278.393066 
	C63.118542,278.347809 60.287880,278.542084 57.463219,278.688690 
	C55.567341,278.787079 53.437962,278.960083 53.201561,276.482971 
	C52.945789,273.802917 55.213684,273.928070 57.046028,273.829529 
	C61.605217,273.584473 66.243324,274.305634 71.718750,272.769989 
	C64.415787,267.165680 59.172123,260.806152 55.430061,253.282166 
	C49.641476,241.643326 45.951298,229.855835 51.573780,216.904556 
	C57.677780,202.844131 71.622154,200.261230 81.806572,211.790909 
	C87.770462,218.542557 92.609337,226.204514 96.676758,234.228638 
	C99.554398,239.905594 103.869148,244.215775 108.357018,248.395706 
	C112.983810,252.705032 118.786606,252.349579 122.564499,247.182388 
	C125.781235,242.782715 128.976593,238.335693 132.647568,233.601013 
	C127.782791,230.461395 123.240021,227.531235 118.698906,224.598541 
	C106.356827,216.627960 96.050987,206.693146 88.925591,193.698196 
	C88.286522,192.532700 87.249176,191.342041 87.204483,190.133194 
	C86.881340,181.392349 80.318489,180.993698 74.094406,180.063141 
	C72.204292,179.780548 70.015053,180.321274 68.743225,178.225876 
	C68.701286,176.396927 70.103951,176.048721 71.344666,175.666000 
	C81.192604,172.628265 87.829041,165.835236 94.248856,158.024857 
	C100.479385,150.444763 102.438469,144.813522 95.634758,135.982346 
	C88.998756,127.368874 87.903038,115.861557 87.038155,105.063850 
	C85.221901,82.388557 89.831917,60.349384 94.647240,38.378563 
	C94.898064,37.234119 95.287544,36.127239 96.369408,35.452202 
	C97.544853,35.191219 98.364746,35.838093 98.855598,36.709881 
	C104.504044,46.741989 114.138664,52.330204 123.273911,58.368904 
	C132.154938,64.239548 142.342606,68.731842 148.865036,77.238274 
	C154.566910,84.674545 159.857178,84.517151 167.772552,81.633865 
	C180.226608,77.097313 193.505783,77.207626 206.775040,77.611252 
	C199.751572,74.463768 192.282104,73.003571 185.143433,71.662300 
	C184.776657,70.256699 185.136993,69.582947 185.758865,69.389328 
	C199.967667,64.965508 213.623703,65.005447 226.038727,74.563240 
	C226.960464,75.272850 228.121796,75.930275 228.615402,76.896248 
	C232.852158,85.187416 241.433121,87.455902 248.705597,91.486488 
	C256.888458,96.021652 257.023560,96.023209 264.156952,90.081902 
	C275.579956,80.567863 289.506378,76.291573 303.069519,71.286667 
	C311.812836,68.060310 321.045929,65.760559 325.399231,56.385929 
	C328.206329,56.918747 327.827393,58.891537 327.882599,60.417194 
	C328.654205,81.738159 329.480682,103.114296 323.656403,123.944496 
	C319.643219,138.297424 314.481628,152.213394 302.190002,161.961151 
	C299.997955,163.699524 300.852692,165.270432 301.798920,167.171478 
	C307.999908,179.629745 314.798065,191.612473 326.685181,199.722336 
	C326.911926,199.877045 326.952454,200.304718 327.364777,201.276489 
	C322.611053,202.457596 318.707214,199.989182 314.331665,198.936386 
M140.614059,230.800171 
	C143.200546,233.048569 147.856644,232.670258 149.264557,238.451965 
	C141.920059,236.596756 135.281891,236.274231 132.932861,245.596176 
	C139.295364,243.326447 145.427872,242.681946 151.546692,242.399780 
	C160.531754,241.985458 169.224533,243.044113 176.071411,249.888977 
	C182.422165,256.237854 185.205582,263.934204 184.514999,273.045349 
	C189.521500,274.066284 194.295990,273.813660 199.075867,273.252686 
	C205.051849,272.551361 211.097519,272.036774 216.990860,273.251282 
	C221.607834,274.202698 222.831360,272.919281 222.746170,268.338654 
	C222.554337,258.022400 227.206741,250.505035 236.863022,246.336945 
	C242.619843,243.852036 248.482849,241.500763 254.340485,239.418045 
	C269.476379,234.036316 284.656403,228.783829 296.423279,217.387939 
	C301.115509,212.843643 308.102478,208.611526 305.084290,199.829819 
	C304.469299,198.040482 305.945770,196.796646 307.072174,195.527390 
	C308.136963,194.327576 310.200134,194.148315 310.579926,191.796844 
	C304.017151,184.199387 300.470978,174.551651 295.277039,165.855377 
	C293.847992,163.462708 293.807587,161.813049 296.399078,160.042831 
	C307.750916,152.288559 313.095886,140.346634 317.507874,128.077103 
	C322.761475,113.467163 322.801208,97.978958 323.489746,82.703659 
	C323.680450,78.473335 323.590240,73.906662 322.239899,69.623810 
	C313.028015,72.942162 304.416199,76.018509 295.822906,79.145828 
	C282.404694,84.029053 269.682983,90.058670 260.210785,101.281517 
	C258.294769,103.551628 256.630066,103.370964 254.252365,101.691849 
	C248.197845,97.416183 242.957443,91.197861 234.263931,92.516663 
	C233.684464,92.604576 232.822815,91.732079 232.298355,91.127609 
	C230.009613,88.489731 227.547318,85.953362 225.611786,83.068939 
	C222.205124,77.992119 217.717773,74.751640 211.132874,73.303734 
	C215.360519,78.049301 221.343964,80.009712 224.698425,84.806488 
	C222.974518,86.700996 221.417908,86.345253 220.081039,85.797256 
	C216.140915,84.182121 211.951508,84.001671 207.834045,83.558380 
	C190.528671,81.695305 173.595139,82.601562 157.857010,91.108681 
	C155.194550,92.547844 153.948105,91.155998 152.584122,89.216988 
	C146.466385,80.520164 138.896805,73.469215 129.680710,68.008522 
	C121.959518,63.433598 114.583374,58.261898 107.181953,53.169151 
	C104.385284,51.244835 101.946205,48.800827 99.047211,46.341869 
	C98.388130,47.760780 97.820305,48.597294 97.598625,49.517220 
	C92.772942,69.542450 90.380051,89.790382 92.863564,110.356575 
	C94.323288,122.444702 98.069588,133.735229 106.344238,143.081665 
	C108.171417,145.145523 108.071053,147.017532 106.517761,149.346954 
	C100.272392,158.712952 94.094048,168.111847 85.322578,175.893494 
	C87.394371,177.103592 89.060562,177.861847 90.463852,178.956955 
	C91.863258,180.049057 93.762978,181.402832 92.679207,183.460449 
	C91.210068,186.249725 92.562408,188.445953 93.850609,190.431641 
	C97.230339,195.641312 100.491173,200.807526 104.793900,205.541504 
	C114.789276,216.538681 126.860130,224.091537 140.614059,230.800171 
M70.426331,263.104706 
	C75.453201,267.243591 80.723297,271.017273 86.993797,273.037537 
	C93.696426,275.197021 96.090065,273.965881 98.897072,267.698700 
	C99.692345,265.923096 101.040939,264.358459 102.305321,262.838043 
	C104.507591,260.189911 106.841599,257.651337 109.292389,254.871765 
	C106.188568,252.333496 102.464630,251.535919 100.090454,248.530533 
	C96.065826,243.435944 92.033478,238.389191 88.751411,232.753967 
	C84.907158,226.153488 81.344559,219.329468 75.858437,213.850128 
	C71.135468,209.132996 66.336601,209.114426 61.319530,213.498352 
	C56.965641,217.302811 55.467228,222.304428 55.250984,227.757874 
	C54.700943,241.629623 60.745644,252.784439 70.426331,263.104706 
M153.262970,280.802887 
	C161.354340,279.349396 159.196548,272.377289 159.927490,266.616333 
	C165.201813,270.521851 164.223267,275.465088 163.990173,280.442230 
	C172.028534,277.742889 173.999374,272.036560 172.598053,264.259369 
	C177.244385,266.149902 176.685913,270.127075 178.613358,273.452301 
	C179.897186,263.809631 177.392944,256.476471 169.745544,251.552383 
	C162.848221,247.111252 155.024445,246.485382 147.128983,247.684357 
	C136.193375,249.344955 125.970314,253.347229 116.127541,258.244995 
	C111.485306,260.554993 107.278992,263.485687 105.747383,269.049500 
	C104.857697,272.281464 105.451187,273.777374 109.046761,273.733551 
	C116.368469,273.644257 123.692741,273.667664 131.014740,273.750763 
	C133.711624,273.781372 136.306107,273.780212 138.047043,271.290802 
	C140.702454,272.473145 142.270432,274.458252 143.999390,276.218903 
	C146.369247,278.632172 148.808304,280.851318 153.262970,280.802887 
M234.629562,275.262634 
	C233.362854,271.642426 232.885315,268.165375 236.144592,264.576904 
	C239.648575,275.406586 240.270264,276.071899 246.743744,276.266174 
	C247.606796,273.211823 245.360184,269.343018 248.757721,266.645905 
	C254.401337,279.370911 254.863663,279.329742 268.306549,270.463684 
	C271.689850,273.880890 275.212708,274.425415 281.594299,272.486877 
	C281.816742,269.997009 280.377716,268.068939 279.256653,266.078857 
	C273.093170,255.137665 263.070343,250.108215 251.158539,248.673096 
	C240.102066,247.341019 230.862335,253.764267 227.879929,264.052216 
	C226.090866,270.223663 229.155426,275.533173 234.629562,275.262634 
z"/>
<path fill="#000000" opacity="1.000000" stroke="none" 
	d="
M285.942810,168.498215 
	C288.152771,185.032471 275.134430,195.907837 257.037354,196.097672 
	C245.966003,196.213821 236.649765,192.057800 229.238586,183.665390 
	C222.132233,175.618164 221.549683,165.694687 227.731247,153.853302 
	C234.078217,141.695114 244.221664,135.778229 256.865601,136.858627 
	C269.164581,137.909531 280.150238,147.510941 284.132446,160.781937 
	C284.848206,163.167267 285.286560,165.635864 285.942810,168.498215 
M271.290649,147.197296 
	C260.686859,136.855927 241.241394,139.729156 235.741959,149.597900 
	C247.470627,140.652145 258.639740,140.540771 269.339294,149.785629 
	C276.923309,156.338577 279.903076,168.606857 275.770996,177.668457 
	C269.847504,190.658600 257.685059,190.246857 246.414703,190.739777 
	C252.252731,192.985947 260.025391,193.332642 266.557251,191.511169 
	C276.351685,188.779907 282.659149,181.770248 282.708679,173.008621 
	C282.764984,163.050537 279.118744,154.535736 271.290649,147.197296 
M240.172699,165.274460 
	C244.103012,166.278397 246.436676,164.438599 246.636154,160.727982 
	C246.803528,157.614288 244.526443,156.060730 241.398544,156.179977 
	C239.594376,156.248779 238.227753,157.232285 237.608734,158.903244 
	C236.707901,161.334900 237.240921,163.439331 240.172699,165.274460 
z"/>
<path fill="#000000" opacity="1.000000" stroke="none" 
	d="
M165.168396,125.539215 
	C181.612915,132.912872 190.370743,152.441360 184.809860,168.933929 
	C182.138077,176.858017 175.861786,181.292770 168.399475,183.808273 
	C157.365494,187.527771 146.438156,186.797073 136.088715,181.151520 
	C125.625000,175.443573 121.936760,166.263458 122.959358,154.793777 
	C124.224686,140.601654 136.613342,126.910942 150.524734,124.261696 
	C155.397461,123.333733 160.119812,123.963707 165.168396,125.539215 
M147.721512,181.876007 
	C153.016602,183.246765 158.371872,183.004852 163.540375,181.629578 
	C171.868378,179.413651 179.535065,175.598145 181.781464,166.478241 
	C184.514618,155.382187 182.385559,144.900742 174.428894,136.288879 
	C163.849243,124.838013 141.351410,123.880348 130.606094,143.256332 
	C120.998169,160.581345 127.587418,176.903458 147.721512,181.876007 
z"/>
<path fill="#000000" opacity="1.000000" stroke="none" 
	d="
M300.275452,95.240845 
	C294.829224,97.461365 290.195740,100.167946 285.697754,103.452904 
	C280.212219,107.459114 273.438690,107.621170 266.852844,107.268837 
	C266.540527,106.838196 266.228180,106.407547 265.915863,105.976898 
	C270.941193,101.400505 275.682587,96.452209 281.064819,92.343254 
	C287.574219,87.373779 295.046051,84.056831 303.154572,82.400398 
	C306.536133,81.709610 310.728271,79.908264 312.901245,83.278801 
	C315.463928,87.253845 317.460541,92.066772 314.674011,98.327438 
	C310.913086,90.836212 305.853149,92.375381 300.275452,95.240845 
z"/>
<path fill="#000000" opacity="1.000000" stroke="none" 
	d="
M196.595337,186.957062 
	C199.113159,186.707260 201.018326,186.150360 201.603195,183.802063 
	C202.260452,181.163055 200.103348,180.478638 198.455139,179.395447 
	C195.175064,177.239807 192.730591,174.337753 194.157425,170.269058 
	C195.527847,166.361282 199.377518,166.630264 202.683975,166.814240 
	C204.803665,166.932220 206.908173,167.609344 208.983231,168.169937 
	C211.480194,168.844528 213.829453,169.904373 214.066818,172.906204 
	C214.287811,175.700974 212.553238,177.572998 210.417358,179.023178 
	C208.444321,180.362793 205.357071,180.886200 206.335327,184.319611 
	C207.229492,187.457855 210.073593,187.775009 212.732086,188.148163 
	C218.976959,189.024765 225.241425,189.772797 231.468552,190.758591 
	C233.493866,191.079193 235.862976,191.359467 236.383163,194.038193 
	C235.737183,195.547623 234.608002,195.392120 233.404617,195.197769 
	C213.381470,191.963867 193.333252,189.801788 173.139771,193.806015 
	C171.591385,194.113068 169.490280,195.020111 169.071716,192.596344 
	C168.690887,190.391068 170.850754,190.100494 172.440842,189.756104 
	C180.257828,188.063110 188.211319,187.500381 196.595337,186.957062 
z"/>
<path fill="#000000" opacity="1.000000" stroke="none" 
	d="
M164.356506,106.528839 
	C155.719833,101.071510 149.557724,106.439682 143.131546,111.527191 
	C143.229996,104.295525 151.275925,98.725662 158.542496,100.002861 
	C161.333298,100.493385 164.076843,101.353409 165.953110,103.665314 
	C167.213913,105.218826 167.633148,106.742035 164.356506,106.528839 
z"/>
<path fill="#000000" opacity="1.000000" stroke="none" 
	d="
M252.008331,113.408844 
	C263.515442,111.114471 272.945099,116.387306 272.514496,125.726944 
	C265.705811,119.425072 259.383667,112.604225 249.684708,118.067909 
	C248.512604,115.042130 250.283279,114.437622 252.008331,113.408844 
z"/>
<path fill="#000000" opacity="1.000000" stroke="none" 
	d="
M137.389740,170.669189 
	C130.560226,165.119400 128.783035,158.231430 130.843384,150.311569 
	C133.311707,140.823380 138.789948,133.747772 148.550446,131.123550 
	C163.892868,126.998550 177.751022,137.659073 179.376755,153.709885 
	C181.503296,174.705231 163.097137,182.295990 147.284546,176.140961 
	C143.878922,174.815308 140.611252,173.130493 137.389740,170.669189 
M166.665497,146.231812 
	C163.882065,147.216675 162.795853,149.251434 163.268417,152.069199 
	C163.600189,154.047501 164.848007,155.344208 166.869781,155.703308 
	C169.109406,156.101089 170.980270,155.202103 171.829025,153.221283 
	C173.659592,148.949265 171.074707,147.159821 166.665497,146.231812 
z"/>
</svg>