<svg version="1.1" id="Layer_1" xmlns="http://www.w3.org/2000/svg" xmlns:xlink="http://www.w3.org/1999/xlink" x="0px" y="0px"
	 width="100%" viewBox="0 0 384 320" enable-background="new 0 0 384 320" xml:space="preserve">
<path fill="#000000" opacity="1.000000" stroke="none" 
	d="
M326.563934,221.078568 
	C323.004639,219.789398 319.792938,218.591492 316.370575,217.315018 
	C311.879120,233.051727 300.023438,241.877243 287.152679,249.680328 
	C290.201660,254.552078 291.073242,254.702087 295.779968,251.378693 
	C302.962280,246.307297 312.692902,245.260773 318.311676,248.955383 
	C326.393005,254.269257 331.426605,264.602722 329.886169,272.716705 
	C328.810822,278.380890 328.424316,278.592102 323.132263,276.432251 
	C322.381805,276.125946 321.620819,275.845520 320.596344,275.449341 
	C320.748932,270.833679 321.357819,266.351135 319.708954,261.826050 
	C318.098236,257.405609 316.015045,254.008102 311.163116,253.109558 
	C305.884888,252.132065 301.814270,254.622711 298.081360,257.933838 
	C297.958618,258.042694 297.844360,258.175323 297.766968,258.318939 
	C296.503998,260.661560 303.226685,272.844910 305.952881,273.010254 
	C308.109833,273.141083 310.284393,273.080353 312.446747,272.994110 
	C314.452301,272.914185 315.779083,273.683563 315.741638,275.762665 
	C315.707489,277.658478 314.246063,278.185425 312.595917,278.199402 
	C307.930054,278.238922 303.264038,278.266327 298.598022,278.274994 
	C291.265503,278.288635 283.933014,278.284637 276.600494,278.285156 
	C271.304443,278.285553 266.151245,279.670441 261.038330,280.280853 
	C249.769836,281.626099 238.339676,284.552979 226.752304,279.326080 
	C220.619812,276.559814 213.064545,276.633850 206.094040,277.332062 
	C197.281036,278.214844 188.451202,278.591919 179.647369,278.203125 
	C172.718033,277.897034 167.620316,283.141632 161.287430,283.539764 
	C153.569977,284.024963 144.819717,287.943512 138.238861,283.329651 
	C129.158844,276.963623 119.703285,278.570465 110.159943,278.445404 
	C94.848282,278.244751 79.532379,278.367401 64.218269,278.353424 
	C63.051739,278.352386 61.765682,278.026184 60.738216,278.403687 
	C54.363705,280.745728 52.418808,276.818298 50.506451,271.880920 
	C46.383724,261.236816 46.162292,250.690628 51.202988,240.461792 
	C54.121048,234.540314 59.154602,230.354538 66.023880,229.934387 
	C74.002274,229.446411 79.349052,234.271301 83.718033,240.303589 
	C88.888458,247.442459 93.017776,255.233978 97.728241,263.660461 
	C104.207344,252.841629 114.216728,247.949249 125.071579,244.482391 
	C124.996078,241.654617 122.930305,240.969574 121.346100,239.917358 
	C114.127220,235.122696 107.110970,230.078522 101.662506,223.217987 
	C95.731056,215.749268 88.431030,209.107285 87.482529,198.672150 
	C87.166550,195.195770 84.110077,194.146164 81.144997,193.194687 
	C77.430695,192.002808 73.224266,192.609436 69.384163,190.053741 
	C72.327950,187.254135 75.999001,186.601837 79.099319,184.964767 
	C89.935951,179.242691 95.933121,169.186798 102.281761,159.441589 
	C103.198677,158.034103 102.421906,156.555756 101.591705,155.236313 
	C89.049850,135.303665 88.895721,113.417908 91.212463,91.038162 
	C92.675911,76.901283 96.783447,63.360710 99.746834,49.561134 
	C100.030899,48.238338 100.260513,46.837669 101.800049,46.429462 
	C103.236000,46.048714 103.760582,47.210133 104.456924,48.180855 
	C112.810799,59.826519 123.780510,68.682533 135.902664,75.905540 
	C144.208740,80.854736 151.459625,86.720284 157.397583,94.199493 
	C159.123032,96.372803 160.999680,97.493996 163.305038,96.594025 
	C177.951523,90.876411 193.318436,91.547798 210.104935,91.557922 
	C205.046890,88.330368 200.617325,88.164948 196.507156,86.971031 
	C194.324493,86.337021 190.377396,87.143967 190.378876,84.053711 
	C190.380478,80.718658 194.326797,81.701080 196.483475,81.400429 
	C213.157440,79.076050 228.044006,81.886436 238.390350,96.887398 
	C239.818268,98.957718 241.777283,100.455673 244.103500,101.582001 
	C248.746628,103.830177 253.275772,106.293655 257.357056,109.517899 
	C259.590424,111.282280 262.154022,112.295654 264.554077,109.939720 
	C274.378143,100.296280 287.032593,96.185165 299.585846,91.904282 
	C306.488037,89.550507 313.627747,87.832031 320.387573,85.141678 
	C325.527985,83.095825 330.816559,80.717857 332.810089,75.044731 
	C335.500916,75.530098 335.502075,76.972366 335.439331,78.577721 
	C334.893890,92.531372 335.284607,106.526901 333.218903,120.408562 
	C330.502197,138.664856 325.808441,156.194595 314.824738,171.440979 
	C312.388275,174.823029 309.506165,177.861084 305.797729,179.934967 
	C303.578644,181.175964 303.332916,182.641327 304.607056,184.843109 
	C309.173401,192.734177 313.461914,200.788864 318.144257,208.608780 
	C320.391663,212.362167 324.401520,214.516846 327.575317,217.436829 
	C329.094696,218.834686 330.756561,220.578308 326.563934,221.078568 
M268.083130,243.978149 
	C269.209198,244.282089 270.452148,244.375732 271.441528,244.925598 
	C276.272369,247.610397 280.220428,246.258423 284.882202,243.657761 
	C289.948944,240.831131 294.417389,237.116989 298.849884,233.732407 
	C303.616577,230.092590 309.740997,225.353287 306.797913,217.125076 
	C306.108276,215.197052 307.920349,213.958725 309.386719,213.325989 
	C313.471832,211.563217 312.876709,209.500534 310.577942,206.492523 
	C304.876343,199.031769 301.500580,190.293335 297.644287,181.831482 
	C296.877502,180.148895 296.839691,178.896652 298.690796,177.615570 
	C309.636200,170.040634 316.814453,159.625320 321.390289,147.225220 
	C327.736633,130.027374 329.764557,112.077942 330.775055,93.966881 
	C331.097046,88.196220 328.731415,86.782150 323.361176,89.259499 
	C319.741119,90.929466 316.304596,93.044914 312.299744,93.668335 
	C304.675201,94.855202 297.631592,97.895981 290.522003,100.613663 
	C282.262604,103.770866 274.089752,107.435287 267.988281,114.100128 
	C262.608734,119.976372 263.289398,119.550056 256.844421,115.241531 
	C251.281296,111.522514 246.254440,105.246048 238.082382,107.655449 
	C227.405151,92.238869 223.326614,88.571419 216.897980,88.187057 
	C220.503601,92.734581 227.526352,93.988678 230.466812,99.820465 
	C229.050018,101.638130 227.785095,101.093987 226.490646,100.750412 
	C219.916260,99.005363 213.366409,97.472572 206.499939,96.843094 
	C191.584137,95.475700 177.261047,97.657768 163.370255,102.754341 
	C159.556702,104.153542 157.606537,103.296974 155.431625,100.346786 
	C149.956772,92.920357 143.513489,86.386475 135.688400,81.445320 
	C128.632385,76.989784 122.085899,71.901955 115.619141,66.667809 
	C112.042862,63.773201 108.291275,61.095184 104.770599,58.434326 
	C102.772514,59.005421 102.132256,60.466587 101.800163,61.885983 
	C99.989090,69.626801 97.934113,77.298973 97.238037,85.289604 
	C96.064651,98.759651 96.158218,112.192284 97.284828,125.649063 
	C98.207237,136.666733 101.610703,146.660156 109.328583,154.792984 
	C111.224052,156.790359 110.703873,158.366196 109.491219,160.067383 
	C105.841232,165.187790 102.273003,170.383301 98.330238,175.273224 
	C94.746597,179.717728 90.714119,183.800323 86.800377,188.130005 
	C90.316292,190.708344 94.662964,191.629715 95.954834,196.234726 
	C94.647797,197.485428 92.191132,198.357544 93.570427,200.840408 
	C96.461655,206.044907 98.624428,211.989899 102.620232,216.161560 
	C107.840317,221.611343 112.766556,227.586411 119.425079,231.616196 
	C127.966179,236.785309 135.732742,243.998581 147.080429,240.794785 
	C148.621033,240.359833 150.408875,240.624680 152.060349,240.787552 
	C161.355148,241.704193 171.582962,248.073502 174.881058,257.555481 
	C176.649124,262.638672 175.667267,267.744171 176.656769,273.394348 
	C183.528503,273.394348 190.315109,273.714722 197.057648,273.306763 
	C204.200333,272.874634 211.285492,271.943726 218.415817,273.460541 
	C220.875870,273.983856 222.489059,273.465149 222.286362,270.123566 
	C221.524048,257.556519 227.652573,248.959274 239.519775,244.677719 
	C248.735565,241.352737 257.967651,243.236160 268.083130,243.978149 
M166.274887,254.294083 
	C163.554733,250.980606 160.137115,248.489975 156.037323,247.481659 
	C142.541519,244.162506 130.212326,248.086960 118.033501,253.649689 
	C113.458603,255.739334 110.749184,259.791199 106.713875,262.307465 
	C104.084846,263.946838 103.282448,266.579712 102.378632,269.318054 
	C101.319450,272.527100 102.445442,273.672943 105.545647,273.655243 
	C111.209290,273.622925 116.876389,273.506683 122.535599,273.661316 
	C125.648880,273.746429 128.356506,273.276764 130.239822,270.098938 
	C134.948547,273.607391 138.030365,279.314240 144.544952,278.834625 
	C152.992630,278.212738 150.920166,270.755859 152.494385,265.286652 
	C157.134155,269.120270 156.529984,273.706879 155.644318,278.606323 
	C159.775986,277.929138 161.671326,275.456146 163.546143,272.645660 
	C165.640808,269.505707 162.281601,265.860443 164.582535,262.712402 
	C168.915070,264.439819 168.045975,268.692444 169.436905,272.441467 
	C172.292664,265.419922 170.221268,260.024170 166.274887,254.294083 
M287.141632,259.531921 
	C282.540070,256.327545 278.255859,253.023499 272.385254,251.637085 
	C262.792358,249.371582 253.448364,246.992828 243.520630,249.259918 
	C235.015900,251.202026 229.962173,256.534668 227.636154,264.669342 
	C226.299088,269.345306 229.009018,274.007629 233.874741,275.884369 
	C233.376297,266.400330 233.376297,266.400330 237.328415,264.923248 
	C237.265350,268.366699 237.509720,271.693665 240.237366,274.063568 
	C241.687347,275.323364 243.321396,276.252808 245.233627,275.599701 
	C247.428680,274.850006 246.718613,272.882416 246.525360,271.322357 
	C246.213013,268.800903 246.611847,266.783661 249.086426,265.790344 
	C250.221893,266.455139 250.235870,267.322021 250.274185,268.126801 
	C250.594727,274.863220 256.584076,278.486908 262.578339,273.525635 
	C264.723907,271.749847 267.368317,271.741608 270.488495,272.322357 
	C278.606628,273.833344 286.866730,272.903259 295.262238,272.631134 
	C295.010254,266.374664 292.593079,262.371582 287.141632,259.531921 
M71.117607,237.198517 
	C64.848534,235.263901 59.197418,238.375122 56.423374,244.677658 
	C52.617706,253.323959 54.340591,261.717407 56.830727,270.178528 
	C57.385891,272.064880 58.187817,273.114502 60.569019,273.263733 
	C70.359200,273.877380 80.149620,273.659637 89.938957,273.659698 
	C95.014984,273.659729 95.822937,272.073303 93.186073,267.607666 
	C89.225349,260.899994 85.269569,254.187057 81.159294,247.571030 
	C78.715088,243.636749 76.303719,239.579224 71.117607,237.198517 
z"/>
<path fill="#000000" opacity="1.000000" stroke="none" 
	d="
M306.650879,99.440674 
	C310.399292,98.409775 313.764984,97.508148 317.138031,96.635017 
	C320.948212,95.648735 323.240570,96.536369 323.305023,101.062950 
	C323.447998,111.108559 321.052094,120.506363 318.301453,130.170517 
	C315.404877,140.347549 311.253418,149.594299 305.818237,158.426285 
	C303.376282,162.394394 299.694611,165.334091 295.999451,168.136276 
	C293.635345,169.929031 291.901611,168.790939 290.768951,166.561844 
	C289.402832,163.873352 288.530548,160.913055 288.743408,157.934464 
	C289.400024,148.746857 284.873077,138.178604 296.862305,131.815735 
	C289.148529,128.192291 284.200745,137.030029 276.859680,133.533981 
	C280.434082,130.850189 283.362335,128.623489 286.323608,126.441612 
	C287.548065,125.539429 289.055634,124.696266 288.185638,122.895760 
	C287.380432,121.229248 285.669128,121.442680 284.205627,121.769325 
	C280.970978,122.491272 277.778778,123.402702 274.545776,124.132874 
	C273.453308,124.379608 272.160278,124.685883 271.442841,123.339226 
	C270.756165,122.050301 271.503906,120.910599 272.359497,120.236954 
	C279.091766,114.936577 285.198242,108.797989 292.873077,104.749779 
	C297.135010,102.501762 301.671600,100.958336 306.650879,99.440674 
z"/>
<path fill="#000000" opacity="1.000000" stroke="none" 
	d="
M108.000877,134.792480 
	C104.669044,126.287666 103.887001,118.080368 106.677032,109.605888 
	C107.847862,106.049614 106.150696,102.762245 104.751678,99.537544 
	C101.220093,91.397316 102.778152,83.459358 106.080246,75.752350 
	C107.443459,72.570663 109.496063,72.256058 112.155746,75.122643 
	C115.457123,78.680832 118.727142,82.121407 123.863571,83.756973 
	C127.521500,84.921753 130.549881,88.317139 133.625412,90.986450 
	C136.734558,93.684959 139.414276,96.859108 142.815842,99.258354 
	C145.807953,101.368797 145.595673,105.886337 149.110413,107.753128 
	C149.953659,108.201012 149.728714,109.634560 148.945862,110.427147 
	C147.910614,111.475266 146.654694,111.476395 145.250534,111.089165 
	C141.149414,109.958191 138.193970,106.738274 134.352631,105.207954 
	C132.079041,104.302193 129.874039,100.686073 127.390671,103.340103 
	C125.103783,105.784142 123.661209,109.299026 124.350365,113.003143 
	C125.019279,116.598495 125.851517,120.167084 126.720665,123.720848 
	C128.744125,131.994354 126.233414,139.110291 121.211494,145.578217 
	C118.260086,149.379456 115.583191,149.176788 113.168800,144.902573 
	C111.371620,141.721024 109.798912,138.412674 108.000877,134.792480 
z"/>
<path fill="#000000" opacity="1.000000" stroke="none" 
	d="
M170.688080,167.191620 
	C175.097137,169.226532 179.097382,171.276566 183.264038,172.899277 
	C189.200333,175.211182 193.315628,172.545578 194.084610,166.212494 
	C194.277832,164.621078 193.993240,162.841522 195.639603,161.741714 
	C201.605225,167.863419 200.200195,175.124512 192.412186,177.592926 
	C189.464813,178.527084 188.744370,180.552475 188.174057,183.074677 
	C186.328766,191.235397 182.889359,193.298248 174.966751,191.110672 
	C163.438217,187.927444 151.881805,184.881165 140.120758,182.623886 
	C136.013184,181.835541 131.839600,182.496216 127.746819,181.379730 
	C124.195984,180.411087 122.453461,178.940323 122.635071,174.858887 
	C123.079620,164.868912 128.133209,160.081833 139.876282,158.968735 
	C149.398727,158.066101 157.819244,161.636658 166.286453,165.114151 
	C167.669281,165.682068 168.999207,166.378738 170.688080,167.191620 
M126.665726,172.093964 
	C127.045898,176.855606 127.904617,177.371872 133.076401,175.731598 
	C132.554382,173.336258 134.003387,170.153076 131.014679,168.736923 
	C129.091522,167.825684 127.786049,169.718384 126.665726,172.093964 
z"/>
<path fill="#000000" opacity="1.000000" stroke="none" 
	d="
M223.426620,175.708054 
	C225.574539,180.560715 229.514069,181.212341 235.596817,180.185699 
	C251.098557,177.569290 266.719971,174.136841 282.024963,181.586823 
	C286.939240,183.978943 290.746490,192.131042 288.708710,197.089142 
	C287.743835,199.436646 285.838715,200.449371 283.506012,200.047134 
	C267.807922,197.340256 252.047272,199.089706 236.307358,199.201935 
	C228.953827,199.254364 225.963852,196.826996 224.863022,189.584442 
	C224.365341,186.310165 223.131882,183.644836 221.237198,181.031418 
	C218.619507,177.420761 219.164825,172.027557 222.223694,169.013794 
	C224.982178,170.683441 223.028748,173.232162 223.426620,175.708054 
M233.085709,187.564819 
	C231.644470,185.619522 229.928116,183.906128 228.582260,187.374268 
	C227.805054,189.377014 228.617188,191.668213 230.349823,193.149826 
	C231.376404,194.027695 232.945038,194.159683 233.962891,193.110062 
	C235.617218,191.404053 234.023087,189.790588 233.085709,187.564819 
z"/>
<path fill="#000000" opacity="1.000000" stroke="none" 
	d="
M209.444550,183.003723 
	C213.033524,183.670807 215.703156,184.944977 216.065826,188.553848 
	C216.439301,192.270386 213.798508,194.194534 211.138565,196.007584 
	C209.739960,196.960876 207.170425,196.821075 207.473083,199.384384 
	C207.763336,201.842651 209.736435,203.078064 211.869125,203.649261 
	C216.841660,204.981110 221.782959,206.368317 226.316772,208.864853 
	C231.528717,211.734756 233.666794,215.748550 232.143448,221.533310 
	C229.302948,215.993713 225.360168,212.844955 220.574188,210.441833 
	C215.766815,208.028000 210.002914,205.247833 205.676834,205.631134 
	C196.441727,206.449402 185.537842,205.126770 179.198044,215.006119 
	C178.367432,216.300491 177.482056,217.891876 175.773987,216.475937 
	C174.333191,215.281555 175.051498,213.715088 176.072372,212.488190 
	C180.482010,207.188583 185.840942,203.564194 192.913849,202.863571 
	C195.552917,202.602158 198.183426,202.151749 200.780106,201.607513 
	C202.131958,201.324173 203.102219,200.372559 203.423355,198.911545 
	C203.788513,197.250290 202.845337,196.476379 201.496521,195.906799 
	C199.243729,194.955475 197.921844,193.056900 196.575836,191.132950 
	C193.861557,187.253296 195.261703,183.638412 200.056549,183.025757 
	C202.998535,182.649857 206.025299,182.937332 209.444550,183.003723 
z"/>
<path fill="#000000" opacity="1.000000" stroke="none" 
	d="
M132.912384,115.991737 
	C132.014954,114.296135 130.150024,113.689148 129.864853,111.478516 
	C134.367889,111.981346 135.255783,115.380615 136.741760,118.611000 
	C134.426987,118.965172 134.067596,117.192497 132.912384,115.991737 
z"/>
</svg>