<svg xmlns="http://www.w3.org/2000/svg" width="384" height="320" fill="#000" xmlns:v="https://vecta.io/nano"><path d="M100.005 221.017c-1.865.255-3.304-.572-4.292-2.014-3.758-5.485-7.96-10.782-9.527-17.409-.561-2.373-1.668-3.334-3.918-3.68-4.652-.714-9.279-1.585-13.848-2.38.142-2.047 1.359-2.34 2.399-2.779 13.832-5.841 20.792-18.156 28.27-29.984 1.031-1.631.144-2.865-.878-4.014-10.823-12.162-14.61-27.154-16.267-42.669-2.28-21.344.591-42.495 3.972-63.554.159-.989.366-1.981 1.366-2.531 1.154-.134 1.905.605 2.523 1.349 9.845 11.857 23.399 18.451 36.4 25.881 8.244 4.711 16.144 9.985 22.809 16.874 1.181 1.221 2.14 2.356 4.223 1.326 14.83-7.333 30.761-9.127 47.125-9.345-7.328-3.261-15.094-4.565-24.366-5.081 5.377-4.042 10.623-5.065 15.633-5.758 14.811-2.046 27.21 2.653 36.501 14.666.939 1.214 1.832 2.395 3.375 2.804 6.675 1.771 12.665 5.039 18.537 8.535 1.752 1.044 3.072.84 4.387-.629 12.502-13.969 29.725-19.754 46.307-26.624 4.624-1.916 9.095-3.969 13.238-6.889 3.056-2.154 2.962-6.23 6.484-8.955.937 5.383 2.203 10.136 2.528 14.952 1.382 20.474 1.682 40.933-3.836 60.967-3.219 11.687-8.063 22.601-16.961 31.211-2.338 2.261-1.862 4.273-.438 6.643 6.958 11.583 13.794 23.255 25.868 30.504.372.224.544.782 1.224 1.814-5.418 1.293-9.828-2.174-15.053-1.938 1.212 2.105 1.349 3.826.102 6.212-8.134 15.572-19.611 27.525-35.795 34.72-.601.268-1.161.652-1.688 1.052-.238.181-.347.532-.899 1.433 5.115 2.622 10.131 5.354 15.301 7.757 1.872.87 3.408-.911 4.924-1.86 7.772-4.866 15.863-6.535 23.916-1.142 7.888 5.284 10.605 13.365 10.421 22.549-.043 2.136-.052 4.693-3.364 4.319-2.968-.335-3.484-2.023-3.177-4.936.662-6.281-3.039-11.185-6.34-15.971-2.149-3.118-5.777-3.568-9.46-3.362-2.269.127-4.138 1.119-6.086 2.052-3.59 1.718-5.49 3.653-1.966 7.445 1.41 1.517 2.579 3.727 2.836 5.751.618 4.861 3.348 5.986 7.603 5.373.981-.141 1.997-.037 2.995-.072 1.317-.047 2.347.351 2.502 1.814.174 1.645-.763 2.492-2.299 2.641-1.323.128-2.661.125-3.992.129-10.33.026-20.66-.02-30.989.08-5.922.057-11.703-.227-17.564 2.35-4.006 1.762-9.186 1.547-13.755 1.171-7.059-.581-13.95.194-21.26-2.757-7.09-2.862-15.959-2.729-24.143-1.361-1.96.328-4.004.741-5.943.524-9.555-1.07-18.401.934-26.756 5.56-2.416 1.338-5.053 1.619-7.757.909-.323-.084-.666-.278-.967-.227-8.513 1.451-16.431.895-23.079-5.685-.975-.965-3.529-.436-5.351-.429l-75.415.354c-1.879.013-3.382-.334-3.994-2.195-3.179-9.67-6.426-19.322-3.582-29.751 1.12-4.108 2.929-7.801 5.748-10.949 8.372-9.348 20.598-8.122 28.826 3.411 4.525 6.342 8.048 13.4 12 20.148 1.18 2.014 2.363 4.011 4.527 5.764 3.886-4.619 6.471-10.326 12.17-13.362 5.443-2.899 11.387-4.578 17.275-7.421-1.569-2.364-3.906-2.975-5.853-3.972-7.168-3.672-13.539-8.49-19.743-13.536-1.627-1.323-3.397-2.765-3.373-5.611 3.744-2.557 5.981-.351 8.183 1.728 5.855 5.529 12.43 10.107 19.625 13.588 5.89 2.85 11.684 6.866 18.859 5.101 4.85-1.193 9.657-.504 14.383.343 11.699 2.097 21.656 13.285 21.822 24.145.116 7.599.116 7.626 7.796 7.532 1.992-.024 3.989-.205 5.971-.426 6.312-.701 12.656-.954 18.953-.254 6.788.754 6.791.963 6.689-5.545-.107-6.71 2.228-12.307 7.221-16.862 8.048-7.343 17.594-8.909 27.935-7.391 1.99.292 3.953.881 5.906.172 17.941-6.516 33.526-16.123 43.359-33.226.58-1.009 1.587-2.245.872-3.215-4.053-5.497.291-7.901 4.169-10.527-6.963-8.4-12.046-17.573-17.436-26.552-1.229-2.047-2.091-3.759.49-5.482 7.382-4.93 11.17-12.5 14.959-20.173 6.053-12.259 7.55-25.503 8.399-38.774.705-11.032.684-22.159-1.281-33.835-9.329 5.517-19.18 8.566-28.551 12.734-12.216 5.432-24.207 11.297-32.396 22.515-2.143 2.937-3.902 1.693-6.291.319-6.083-3.498-11.382-9.27-19.568-7.317-.552.132-1.478-.666-2.018-1.234-2.864-3.009-5.955-5.863-8.414-9.182-4.512-6.092-10.905-7.913-18.424-9.357 6.316 4.577 13.44 6.744 18.175 12.66-2.472 1.653-4.185.428-5.903.131-18.458-3.191-36.696-2.244-53.857 5.358-6.927 3.069-11.134 4.34-16.813-2.358-9.081-10.71-22.336-15.986-34.315-22.81-6.319-3.6-12.117-7.963-17.786-12.607-.545.643-.856.858-.947 1.144-.354 1.101-.74 2.207-.932 3.341-3.181 18.808-4.496 37.745-1.469 56.631 1.845 11.507 5.351 22.675 12.871 32.084 5.442 6.809 5.507 6.906 1.25 14.33-5.087 8.872-10.086 17.85-19.833 24.439 6.449.373 9.823 3.456 13.346 7.112-3.443 1.423-3.395 3.464-1.547 5.983 2.162 2.947 3.915 6.236 6.335 8.939 2.25 2.515 2.539 4.433-.13 6.582zm19.462 52.675c5.869-.726 12.258 1.948 17.646-2.873 3.429 2.065 5.51 5.746 9.121 7.572 3 1.516 5.891 2.217 8.951.218 3.014-1.968 3.842-4.818 3.571-8.207-.105-1.324-1.384-2.946.773-3.833 3.438 3.377 3.438 3.377 3.884 12.84 7.403-3.022 9.267-8.567 6.895-16.589 4.684 2.464 4.619 6.345 6.221 9.843 1.666-3.235 1.562-6.137.908-9.037-2.326-10.316-12.114-17.801-23.944-17.152-11.608.637-23.109 2.754-33.878 7.411-6.066 2.623-11.196 6.71-13.785 13.092-1.912 4.714-.596 6.641 4.168 6.718 2.829.046 5.659 0 9.469-.003zm120.754.622c1.974 1.566 4.01 2.883 6.681 1.954.054-7.793.054-7.793 2.213-9.87 4.514 12.176 4.729 12.258 16.151 6.027 1.008-.55 2.105-1.595 3.192-.796 3.969 2.92 8.384 1.138 12.55 1.217 5.376.102 10.841.558 16.314-.403.041-4.388-2.325-6.961-4.358-9.779-7.567-10.487-39.153-17.787-52.066-12.784-7.412 2.871-11.771 7.869-13.228 15.476-1.054 5.507 1.186 8.983 6.657 10.991-1.215-7.723-.967-8.933 2.534-11.303.875 2.997.308 6.433 3.36 9.27zM90.382 263.037l-5.729-10.525c-2.623-4.635-5.245-9.287-9.212-12.97-6.121-5.682-11.34-5.408-16.525 1.018-6.996 8.671-5.834 18.157-2.721 27.886 1.191 3.721 3.322 5.351 7.297 5.282 9.321-.161 18.648.004 27.972-.052 1.555-.01 3.361.601 4.785-1.24l-5.867-9.399zm185.022-110.421c5.983 7.08 9.254 14.956 10.363 23.762 1.17 9.292-4.38 18.292-14.211 23.049-13.133 6.355-31.974 2.666-42.091-7.826-8.119-8.42-7.829-17.728-4.01-27.734 8.424-22.073 32.366-27.632 49.95-11.251zm-6.425 38.942c-5.922 4.144-12.62 6.117-20.381 7.079 8.625 1.995 16.211.861 23.197-3.204 6.553-3.813 11.611-9.61 10.643-17.347-2.49-19.91-14.399-34.607-37.68-29.607-3.464.744-6.307 2.643-8.373 5.481 15.291-7.396 26.481-5.562 35.176 6.074 6.981 9.343 6.107 23.007-2.583 31.524zm-25.062-25.916c-2.113-2.605-4.611-3.344-7.294-1.034-2.129 1.834-1.725 4.186-.409 6.329 1.105 1.799 2.742 3.176 4.96 2.214 2.968-1.287 4.176-3.644 2.743-7.51zm16.781 20.272c-1.799-.79-2.94-.163-3.134 1.727-.112 1.089.719 2.017 1.817 1.86 1.747-.249 2.598-1.316 1.316-3.587zm-130.996-38.127c8.966-10.617 19.947-14.332 32.868-10.254 12.766 4.029 20.48 15.634 21.814 29.469 1.835 19.024-9.399 27.856-26.437 31.055-17.948 3.37-34.362-7.316-36.593-23.896-1.303-9.686 2.747-18.22 8.347-26.374zm31.806 46.379c15.881-5.612 21.164-13.283 19.302-28.025-2.551-20.19-21.126-31.623-38.89-23.685-10.034 4.484-14.312 13.481-16.677 23.52-2.201 9.34.826 17.054 8.213 23.011 8.109 6.539 17.343 7.877 28.052 5.179zm18.969 13.289c-1.905 3.207-1.905 3.207-4.412 4.694-2.144-1.949-.545-3.671.496-5.208 3.862-5.703 9.572-8.558 16.097-10.034 1.132-.256 2.34-.222 3.444-.553 2.108-.632 4.998-.125 5.659-3.156.683-3.135-2.107-3.864-3.998-4.959-3.21-1.858-5.326-4.477-4.32-8.107.978-3.527 4.552-3.382 7.519-3.548 1.985-.111 3.988.048 5.981.141 2.897.134 5.349 1.313 6.221 4.148.932 3.033-.504 5.391-2.995 7.316-1.557 1.203-4.714 1.321-4.052 4.299.671 3.017 3.522 3.175 5.989 3.53 6.503.934 12.778 2.431 17.719 7.169 1.873 1.796 3.975 3.564 3.292 6.882-16.981-13.505-34.301-15.928-52.64-2.614zm86.938-76.461c-6.061-7.493-13.116-10.281-21.674-5.696-1.285-1.569-.682-2.397.065-3.088 6.35-5.869 20.363-2.411 23.273 5.751.499 1.401 1.156 3.025-1.664 3.033zm-123.578-15.548c8.259-3.54 15.303-2.238 18.854 4.123-4.858-.917-8.888-3.209-13.375-2.1-4.359 1.078-7.027 4.569-10.771 7.593-1.329-5.531 2.383-7.149 5.292-9.617zm-8.012 68.864c-13.189-11.429-8.498-33.456 8.213-40.187 16.395-6.604 31.505 3.481 33.34 21.562 1.666 16.413-13.088 29.552-32.191 22.962-3.123-1.077-6.047-2.732-9.362-4.336zm29.59-27.012c-3.745.012-5.06 2.407-4.662 5.558.319 2.521 2.231 4.035 4.987 3.931 2.086-.079 3.456-1.216 3.938-3.204.752-3.107-.547-5.151-4.263-6.284z"/></svg>