<?xml version="1.0" encoding="utf-8"?>
<svg width="384" height="320" viewBox="0 0 384 320" fill="none" xmlns="http://www.w3.org/2000/svg">
  <g>
    <path d="M279.148 174.723C275.589 173.434 272.377 172.236 268.954 170.96C264.463 186.696 252.607 195.522 239.737 203.325C242.786 208.197 243.657 208.347 248.364 205.023C255.546 199.952 265.277 198.905 270.896 202.6C278.977 207.914 284.01 218.247 282.47 226.361C281.395 232.026 281.008 232.237 275.716 230.077C274.966 229.771 274.205 229.49 273.18 229.094C273.333 224.478 273.942 219.996 272.293 215.471C270.682 211.05 268.599 207.653 263.747 206.754C258.469 205.777 254.398 208.267 250.665 211.579C250.542 211.687 250.428 211.82 250.351 211.964C249.088 214.306 255.811 226.49 258.537 226.655C260.694 226.786 262.868 226.725 265.031 226.639C267.036 226.559 268.363 227.328 268.326 229.407C268.291 231.303 266.83 231.83 265.18 231.844C260.514 231.884 255.848 231.911 251.182 231.92C243.849 231.933 236.517 231.929 229.184 231.93C223.888 231.93 218.735 233.315 213.622 233.926C202.354 235.271 190.924 238.198 179.336 232.971C173.204 230.205 165.648 230.279 158.678 230.977C149.865 231.86 141.035 232.237 132.231 231.848C125.302 231.542 120.204 236.786 113.871 237.184C106.154 237.67 97.4036 241.588 90.8227 236.974C81.7427 230.608 72.2872 232.215 62.7438 232.09C47.4322 231.889 32.1163 232.012 16.8021 231.998C15.6356 231.997 14.3496 231.671 13.3221 232.048C6.94758 234.39 5.00269 230.463 3.09033 225.526C-1.0324 214.882 -1.25383 204.335 3.78687 194.106C6.70493 188.185 11.7385 183.999 18.6078 183.579C26.5862 183.091 31.9329 187.916 36.3019 193.948C41.4723 201.087 45.6017 208.879 50.3121 217.305C56.7912 206.486 66.8006 201.594 77.6555 198.127C77.5799 195.299 75.5142 194.614 73.93 193.562C66.7111 188.767 59.6948 183.723 54.2464 176.863C48.3149 169.394 41.0149 162.752 40.0664 152.317C39.7504 148.84 36.694 147.791 33.7289 146.839C30.0146 145.648 25.8081 146.254 21.968 143.698C24.9118 140.899 28.5829 140.247 31.6832 138.609C42.5198 132.887 48.517 122.831 54.8656 113.086C55.7826 111.679 55.0058 110.2 54.1756 108.881C41.6337 88.9484 41.4796 67.0626 43.7963 44.6829C45.2598 30.546 49.3673 17.0054 52.3307 3.20583C52.6148 1.88303 52.8444 0.482365 54.3839 0.0741577C55.8199 -0.306591 56.3445 0.854828 57.0408 1.82555C65.3947 13.4712 76.3644 22.3272 88.4865 29.5502C96.7926 34.4994 104.044 40.365 109.981 47.8442C111.707 50.0175 113.584 51.1387 115.889 50.2387C130.535 44.5211 145.902 45.1925 162.689 45.2026C157.631 41.9751 153.201 41.8096 149.091 40.6157C146.908 39.9817 142.961 40.7887 142.963 37.6984C142.964 34.3634 146.911 35.3458 149.067 35.0451C165.741 32.7207 180.628 35.5311 190.974 50.5321C192.402 52.6024 194.361 54.1004 196.687 55.2267C201.331 57.4749 205.86 59.9384 209.941 63.1626C212.174 64.927 214.738 65.9404 217.138 63.5844C226.962 53.941 239.616 49.8299 252.17 45.549C259.072 43.1952 266.212 41.4767 272.971 38.7864C278.112 36.7405 283.4 34.3626 285.394 28.6894C288.085 29.1748 288.086 30.6171 288.023 32.2224C287.478 46.1761 287.868 60.1716 285.803 74.0533C283.086 92.3096 278.392 109.839 267.409 125.086C264.972 128.468 262.09 131.506 258.382 133.58C256.163 134.821 255.917 136.286 257.191 138.488C261.757 146.379 266.046 154.434 270.728 162.253C272.976 166.007 276.985 168.162 280.159 171.082C281.679 172.479 283.34 174.223 279.148 174.723C279.148 174.723 279.148 174.723 279.148 174.723ZM220.667 197.623C221.793 197.927 223.036 198.02 224.025 198.57C228.856 201.255 232.804 199.903 237.466 197.302C242.533 194.476 247.001 190.762 251.434 187.377C256.2 183.737 262.325 178.998 259.382 170.77C258.692 168.842 260.504 167.603 261.971 166.971C266.056 165.208 265.461 163.145 263.162 160.137C257.46 152.676 254.084 143.938 250.228 135.476C249.461 133.794 249.424 132.541 251.275 131.26C262.22 123.685 269.398 113.27 273.974 100.87C280.32 83.6721 282.348 65.7226 283.359 47.6116C283.681 41.8409 281.315 40.4268 275.945 42.9042C272.325 44.5742 268.888 46.6896 264.884 47.313C257.259 48.4999 250.215 51.5407 243.106 54.2584C234.846 57.4156 226.674 61.08 220.572 67.7448C215.193 73.6211 215.873 73.1947 209.428 68.8862C203.865 65.1672 198.838 58.8907 190.666 61.3001C179.989 45.8836 175.91 42.2161 169.482 41.8318C173.087 46.3793 180.11 47.6334 183.051 53.4652C181.634 55.2828 180.369 54.7387 179.075 54.3951C172.5 52.6501 165.95 51.1173 159.084 50.4878C144.168 49.1204 129.845 51.3025 115.954 56.399C112.141 57.7982 110.19 56.9417 108.016 53.9915C102.541 46.565 96.0974 40.0312 88.2723 35.09C81.2163 30.6345 74.6698 25.5466 68.203 20.3125C64.6267 17.4179 60.8752 14.7399 57.3545 12.079C55.3564 12.6501 54.7161 14.1113 54.384 15.5307C52.573 23.2715 50.518 30.9437 49.8219 38.9343C48.6485 52.4043 48.7421 65.837 49.8687 79.2938C50.7911 90.3114 54.1946 100.305 61.9125 108.438C63.8079 110.435 63.2878 112.011 62.0751 113.712C58.4251 118.832 54.8569 124.028 50.9141 128.918C47.3305 133.362 43.298 137.445 39.3843 141.775C42.9002 144.353 47.2468 145.274 48.5387 149.879C47.2317 151.13 44.775 152.002 46.1543 154.485C49.0455 159.69 51.2083 165.635 55.2041 169.806C60.4242 175.256 65.3504 181.231 72.009 185.261C80.5501 190.43 88.3166 197.643 99.6643 194.439C101.205 194.005 102.993 194.269 104.644 194.432C113.939 195.349 124.167 201.718 127.465 211.2C129.233 216.283 128.251 221.389 129.241 227.039C136.112 227.039 142.899 227.359 149.642 226.951C156.784 226.519 163.869 225.588 171 227.105C173.46 227.629 175.073 227.11 174.87 223.768C174.108 211.201 180.236 202.604 192.104 198.322C201.319 194.997 210.552 196.881 220.667 197.623C220.667 197.623 220.667 197.623 220.667 197.623ZM118.859 207.939C116.139 204.625 112.721 202.135 108.621 201.126C95.1254 197.807 82.7962 201.732 70.6174 207.294C66.0425 209.384 63.3331 213.436 59.2978 215.952C56.6687 217.592 55.8663 220.224 54.9625 222.963C53.9033 226.172 55.0293 227.318 58.1295 227.3C63.7932 227.268 69.4603 227.151 75.1195 227.306C78.2328 227.391 80.9404 226.921 82.8237 223.744C87.5324 227.252 90.6142 232.959 97.1288 232.479C105.577 231.857 103.504 224.401 105.078 218.931C109.718 222.765 109.114 227.352 108.228 232.251C112.36 231.574 114.255 229.101 116.13 226.29C118.225 223.15 114.865 219.505 117.166 216.357C121.499 218.085 120.63 222.337 122.021 226.086C124.877 219.065 122.805 213.669 118.859 207.939C118.859 207.939 118.859 207.939 118.859 207.939ZM239.726 213.177C235.124 209.972 230.84 206.668 224.969 205.282C215.376 203.016 206.032 200.638 196.105 202.905C187.6 204.847 182.546 210.179 180.22 218.314C178.883 222.99 181.593 227.652 186.459 229.529C185.96 220.045 185.96 220.045 189.912 218.568C189.849 222.011 190.094 225.338 192.821 227.708C194.271 228.968 195.905 229.898 197.818 229.244C200.013 228.495 199.302 226.527 199.109 224.967C198.797 222.446 199.196 220.428 201.67 219.435C202.806 220.1 202.82 220.967 202.858 221.771C203.179 228.508 209.168 232.132 215.162 227.17C217.308 225.395 219.952 225.386 223.072 225.967C231.191 227.478 239.451 226.548 247.846 226.276C247.594 220.019 245.177 216.016 239.726 213.177C239.726 213.177 239.726 213.177 239.726 213.177ZM23.7015 190.843C17.4324 188.909 11.7813 192.02 9.00725 198.322C5.20158 206.969 6.92447 215.362 9.4146 223.823C9.96977 225.71 10.7717 226.759 13.1529 226.908C22.9431 227.522 32.7335 227.304 42.5228 227.304C47.5989 227.304 48.4068 225.718 45.7699 221.252C41.8092 214.545 37.8534 207.832 33.7432 201.216C31.299 197.281 28.8876 193.224 23.7015 190.843C23.7015 190.843 23.7015 190.843 23.7015 190.843Z" fill="#000000" transform="translate(47.416 46.355)" />
    <path d="M43 7.6447C41.6715 9.42484 39.2675 9.24197 37.4014 8.29425C28.9638 4.00891 18.8721 2.05688 5.37129 4.13258C3.64975 4.39725 1.63594 4.1198 0 3.12196C1.88312 0.0849609 8.62659 0.00764465 14.489 7.62939e-05C27.9201 -0.0172882 40.0223 3.26164 43 7.6447C43 7.6447 43 7.6447 43 7.6447Z" fill="#000000" transform="translate(246 148)" />
    <path d="M51.9522 1.45351C55.1069 2.36488 58.1296 3.04146 56.5824 4.43007C55.3533 5.53322 52.4544 5.65131 50.0118 5.15462C33.1699 1.72997 19.5006 3.83308 7.22433 8.64542C5.38005 9.36839 3.12645 9.87053 0.273056 9.45541C-3.04384 1.96628 24.4221 -2.45779 51.9522 1.45351C51.9522 1.45351 51.9522 1.45351 51.9522 1.45351Z" fill="#000000" transform="matrix(0.985 0.174 -0.174 0.985 128.267 133.124)" />
    <path d="M48.0659 8.36458C52.4749 10.3995 56.4752 12.4495 60.6418 14.0722C66.5781 16.3841 70.6934 13.7185 71.4624 7.38545C71.6556 5.79404 71.371 4.01448 73.0174 2.91467C78.983 9.03638 77.578 16.2975 69.79 18.7659C66.8426 19.7 66.1222 21.7254 65.5519 24.2476C63.7066 32.4084 60.2672 34.4712 52.3446 32.2836C40.816 29.1004 29.2596 26.0541 17.4986 23.7968C13.391 23.0085 9.2174 23.6692 5.12462 22.5527C1.57378 21.584 -0.168739 20.1133 0.0128708 16.0318C0.45742 6.04187 5.51101 1.25479 17.2541 0.141693C26.7765 -0.760941 35.197 2.80962 43.6643 6.28711C45.0471 6.85503 46.377 7.5517 48.0659 8.36458C48.0659 8.36458 48.0659 8.36458 48.0659 8.36458ZM4.04353 13.2669C4.4237 18.0286 5.28242 18.5448 10.4542 16.9046C9.93218 14.5092 11.3812 11.326 8.39248 9.90988C6.46932 8.99864 5.16385 10.8913 4.04353 13.2669C4.04353 13.2669 4.04353 13.2669 4.04353 13.2669Z" fill="#000000" transform="translate(122.622 158.827)" />
    <path d="M3.86343 6.69426C6.01135 11.5469 9.95088 12.1985 16.0336 11.1719C31.5354 8.5555 47.1568 5.12305 62.4618 12.573C67.3761 14.9651 71.1833 23.1172 69.1455 28.0753C68.1806 30.4229 66.2755 31.4356 63.9428 31.0333C48.2447 28.3265 32.4841 30.0759 16.7442 30.1881C9.39064 30.2406 6.40067 27.8132 5.29984 20.5706C4.80215 17.2964 3.5687 14.631 1.67401 12.0176C-0.94368 8.40697 -0.398361 3.01376 2.66051 0C5.41899 1.66965 3.46556 4.21837 3.86343 6.69426C3.86343 6.69426 3.86343 6.69426 3.86343 6.69426ZM13.5225 18.551C12.0813 16.6057 10.3649 14.8923 9.01907 18.3605C8.24187 20.3632 9.054 22.6544 10.7866 24.136C11.8132 25.0139 13.3819 25.1459 14.3997 24.0963C16.054 22.3903 14.4599 20.7768 13.5225 18.551C13.5225 18.551 13.5225 18.551 13.5225 18.551Z" fill="#000000" transform="translate(219.563 169.014)" />
    <path d="M34.482 0.167648C38.071 0.834732 40.7406 2.1089 41.1033 5.71777C41.4768 9.43431 38.836 11.3585 36.176 13.1715C34.7774 14.1248 32.2079 13.985 32.5106 16.5483C32.8008 19.0066 34.7739 20.242 36.9066 20.8132C41.8791 22.145 46.8204 23.5322 51.3542 26.0288C56.5662 28.8987 58.7043 32.9125 57.1809 38.6972C54.3404 33.1576 50.3976 30.0089 45.6117 27.6058C40.8043 25.1919 35.0404 22.4118 30.7143 22.7951C21.4792 23.6133 10.5753 22.2907 4.23552 32.17C3.40491 33.4644 2.51953 35.0558 0.811462 33.6399C-0.629333 32.4455 0.088974 30.879 1.10985 29.6521C5.51949 24.3525 10.8784 20.7281 17.9513 20.0275C20.5904 19.7661 23.2209 19.3157 25.8176 18.7714C27.1694 18.4881 28.1397 17.5365 28.4608 16.0755C28.826 14.4142 27.8828 13.6403 26.534 13.0707C24.2812 12.1194 22.9593 10.2208 21.6133 8.29688C18.899 4.41722 20.2992 0.802338 25.094 0.189682C28.036 -0.186218 31.0628 0.101257 34.482 0.167648C34.482 0.167648 34.482 0.167648 34.482 0.167648Z" fill="#000000" transform="translate(174.963 182.836)" />
  </g>
</svg>
