<svg xmlns="http://www.w3.org/2000/svg" width="384" height="320" fill="#000" xmlns:v="https://vecta.io/nano"><path d="M68.128 194.739c15.011-5.863 22.893-18.152 30.152-31.075.833-1.483 1.102-2.653-.099-4.044-12.923-14.975-16.213-33.246-17.234-52.081-1.004-18.518 1.779-36.816 4.511-55.074.112-.751.672-1.435.975-2.053 2.295-.201 3.256 1.484 4.225 2.632 8.493 10.066 20.012 15.931 31.128 22.218 10.471 5.922 20.624 12.129 29.307 21.295 14.516-8.326 30.787-9.519 47.12-11.142-6.713-2.692-13.654-4.104-20.789-4.295-.395-1.945 1.04-2.105 1.991-2.565 16.638-8.051 37.197-3.43 48.784 10.974.854 1.062 1.723 1.955 3.044 2.455 6.236 2.361 12.234 5.246 18.051 8.491 1.999 1.115 3.563 1.252 5.247-.655 11.235-12.72 26.736-18.265 41.745-24.605 3.979-1.681 8.032-3.14 11.947-5.026 5.212-2.511 8.657-6.412 11.031-11.896 2.681 4.851 3.221 9.985 3.553 14.798 1.314 19.104 1.679 38.258-2.817 57.08-3.008 12.593-7.574 24.546-17.04 33.902-3.053 3.017-2.414 5.81-.425 8.852 6.824 10.432 13.174 21.265 24.011 28.3.932.606 2.098 1.165 1.852 3.088-4.822.484-9.108-2.222-14.334-2.684 1.276 2.402.913 4.348-.237 6.735-7.545 15.66-19.492 26.691-34.832 34.375-1.131.567-2.612.763-3.178 2.803l14.692 7.764c1.871.95 3.046-.818 4.412-1.638 8.652-5.2 17.304-6.653 26.165-.383 6.646 4.703 10.556 15.777 8.369 23.619-.576 2.065-1.609 2.811-3.529 2.522-1.907-.286-2.47-1.335-2.691-3.414-.59-5.54-1.26-11.182-4.743-15.888-4.617-6.236-14.337-6.747-19.738-1.2-1.551 1.592-1.174 2.796-.055 4.335 2.157 2.964 4.13 5.994 4.714 9.79.521 3.376 3.464 2.215 5.608 2.647 2.312.466 6.529-1.944 6.53 2.033.001 4.102-4.379 2.393-6.861 2.437l-31.989.103c-5.291.01-10.331.398-15.589 2.19-5.117 1.743-11.275.175-16.679 1.386-9.663 2.165-17.834-3.594-27.043-4.08-7.38-.389-14.611.805-21.84.366-9.392-.57-18.042 1.096-26.24 5.536-2.775 1.503-5.647 1.913-8.675.898-.158-.053-.332-.156-.479-.129-8.502 1.581-16.513 1.336-22.906-5.718-.479-.528-1.912-.25-2.901-.249l-77.933.191c-1.985.012-3.201-.43-3.978-2.14-5.155-11.357-7.153-22.936-1.572-34.701 6.623-13.963 20.101-15.811 30.595-4.293 5.888 6.463 9.427 14.456 13.849 21.871 1.341 2.249 2.052 4.94 4.805 6.735 2.983-5.61 5.861-11.364 11.879-14.22 5.519-2.62 11.174-4.953 17.289-7.641l-17.172-10.705c-11.848-7.855-21.634-17.473-25.768-31.624-.613-2.1-2.006-2.975-3.924-3.278l-10.851-1.595c-1.447-.226-3.619.715-3.438-2.332zm28.318 15.297c2.081 3.569 6.035 5.968 6.558 10.509 5.325-.148 7.153 4.913 10.762 7.324 12.318 8.231 24.216 17.412 40.564 13.248.934-.238 1.994-.038 2.99.032 13.957.983 26.161 13.086 25.941 25.712-.119 6.815-.115 6.975 6.967 6.777 9.789-.275 19.539-1.929 29.377-.151 3.09.558 3.332-2.017 2.988-4.389-.537-3.701-.208-7.263 1.436-10.677 5.473-11.365 17.378-17.427 32.35-15.452 4.956.654 9.098-.024 13.388-2.081 14.739-7.069 28.206-15.644 36.671-30.293.741-1.283 2.25-2.804 1.427-4.052-3.681-5.579-.611-8.458 4.393-10.67-7.438-8.211-12.309-17.542-17.806-26.462-1.267-2.055-1.936-3.759.463-5.57 10.779-8.138 15.89-19.733 19.529-32.236 3.772-12.964 3.775-26.331 4.108-39.621.167-6.676-.791-13.38-1.276-20.593-9.695 5.254-19.482 8.152-28.677 12.428-11.631 5.409-23.439 10.712-31.405 21.424-2.691 3.618-4.687 4.127-8.363 1.056-3.122-2.608-7.211-4.063-10.885-6.003-2.687-1.419-5.422-2.492-8.136-.478-8.103-7.604-13.579-18.276-27.425-19.17 6.513 3.962 12.591 6.704 17.284 11.68-2.605 1.995-4.544.737-6.41.445-20.235-3.168-39.96-1.795-58.312 7.887-4.329 2.284-6.167 1.707-8.913-1.66-3.241-3.975-7.209-7.302-11.434-10.299-10.619-7.533-22.664-12.659-33.427-19.935-3.764-2.544-7.425-5.241-11.225-7.934-.357.833-.546 1.124-.608 1.44-3.149 16.261-3.813 32.587-2.737 49.155 1.134 17.466 5.515 33.386 17.196 46.806 1.676 1.925 1.392 3.784.259 5.95-5.413 10.341-11.083 20.468-20.912 27.992 2.259.853 4.126 1.433 5.882 2.251 2.341 1.091 5.076 3.142 4.425 5.392-1.189 4.105.921 6.656 2.995 10.218zm59.837 67.802c3.374-3.157 1.974-7.598 2.543-12.072 5.415 3.755 4.306 8.776 4.211 13.429 4.516-.118 5.709-3.445 7.577-6.133 2.147-3.088-.999-6.394.4-9.517 2.558.271 3.064 2.18 3.673 3.827.641 1.732.997 3.57 1.618 5.888 2.243-6.295 1.784-10.629-1.113-15.338-5.64-9.17-14.383-12.365-24.389-11.392-10.049.977-20.049 3.02-29.544 6.676-6.88 2.65-12.554 7.004-15.383 14.109-1.811 4.55-.565 6.329 4.043 6.376l17.983.021c3.332.036 6.665.283 8.743-2.861 2.798.792 3.753 3.18 5.527 4.613 4.033 3.258 8.147 6.013 14.111 2.374zm80.89-26.284c-6.005 3.176-8.596 8.603-9.631 14.938-.751 4.601 1.562 7.808 6.798 9.57-.486-3.943-1.74-8.05 2.176-11.6 2.32 10.055 3.476 11.399 9.611 11.627 2.121-2.681-1.229-7.035 2.282-9.244 1.192.138 1.507.731 1.635 1.395 1.639 8.516 6.299 10.492 13.425 5.157 2.593-1.942 4.906-4.226 7.844-.437.389.503 1.875.207 2.852.193l13.984-.262c3.044-.099 6.236.754 9.108-.963-.221-4.007-2.389-6.74-4.62-9.448-7.096-8.617-17.449-10.668-27.414-12.988-9.129-2.126-18.479-2.472-28.05 2.062zM86.09 255.432c-2.526-4.687-5.385-9.163-8.739-13.296-7.331-9.033-16.86-7.408-21.189 3.424-3.259 8.154-2.903 16.101.228 24.185 1.053 2.718 2.453 3.922 5.426 3.894l30.388.037c1.12.001 2.379.197 3.229-1.301-1.945-5.892-6.825-10.365-9.344-16.943zm157.162-55.392c-5.119-1.895-9.388-4.515-13-8-8.183-7.895-8.786-17.108-5.144-27.504 9.224-26.33 35.706-25.685 48.652-13.685 9.647 8.941 14.487 20.703 11.007 34.393-2.039 8.02-12.795 15.793-22.905 16.832-6.201.637-12.302.109-18.61-2.035zm7.454-1.308c3.821.268 7.638.552 11.466.03 11.723-1.598 21.675-11.928 20.335-22.043-1.054-7.957-3.8-15.483-9.673-21.484-12.068-12.333-33.323-9.992-40.307 3.092l2.742-2.396c12.166-10.647 28.203-8.608 37.035 4.864 7 10.678 6.492 29.885-12.469 35.247-3.169.896-6.366 1.689-9.129 2.69zm-13.629-34.821c-2.582 2.383-2.43 4.967-.245 7.398 1.458 1.623 3.405 2.047 5.356.677 1.916-1.346 3.131-3.205 2.142-5.519-1.242-2.907-3.398-4.434-7.254-2.556zM126.49 152.66c10.925-21.534 40.854-21.089 52.205-2.452 10.534 17.294 9.817 40.971-17.794 47.257-10.332 2.352-20.153 1.446-28.853-5.238-10.084-7.746-13.449-19.002-9.244-30.994.987-2.816 2.308-5.515 3.687-8.572zm50.851 31.102c4.597-5.388 4.124-11.814 3.308-18.095-2.714-20.89-23.49-31.614-41.808-21.501-7.865 4.342-10.715 12.436-13.36 20.375-2.916 8.751.459 18.949 7.833 24.533 13.568 10.275 32.053 8.277 44.028-5.313zm33.455 15.757c-14.186-1.99-26.167.834-34.571 13.642-2.282-3.671-.164-5.931 1.553-7.883 4.442-5.053 10.119-7.895 16.829-8.918 3.116-.475 6.944-.463 7.629-5.083-1.384-2.014-3.905-2.369-5.695-3.794-2.236-1.781-3.669-3.956-3.179-6.855.507-3.005 2.978-3.494 5.543-4.127 3.397-.839 6.63-.245 9.888.344 2.475.447 4.287 1.959 4.831 4.488.541 2.521-.531 4.541-2.55 6.065-.664.501-1.408.896-2.058 1.412-1.22.968-3.443 1.263-2.937 3.499.569 2.512 2.677 3.308 4.936 3.466 6.119.429 11.807 2.116 16.782 5.746 2.58 1.882 5.633 3.629 5.022 8.899-6.518-6.109-13.149-10.527-22.02-10.9zm55.927-75.285c1.675 2.032 3.497 3.694 1.708 7.009-6.655-6.747-13.978-11.236-24.038-5.381 3.035-8.654 13.202-8.917 22.329-1.628zm-127.816-4.171c4.78-6.553 11.057-7.427 17.992-5.653 2.026.518 4.746 1.019 3.855 5.205-8.68-4.574-15.681-1.695-21.448 4.927-2.263-1.523-1.07-2.863-.399-4.479zm17.554 22.328c15.423 1.909 22.078 16.006 20.647 30.1-1.138 11.212-13.803 20.599-25.803 18.215-15.207-3.021-24.486-9.464-23.253-25.758 1.026-13.57 13.531-23.508 28.409-22.556zm13.192 20.821c.223-3.024-.779-5.273-4.03-5.808-2.533-.417-4.022.879-4.808 3.263-.811 2.462-.02 4.25 2.137 5.411 2.847 1.531 5.099.853 6.701-2.866z"/></svg>