<?xml version="1.0" encoding="utf-8"?>
<svg width="384" height="320" viewBox="0 0 384 320" fill="none" xmlns="http://www.w3.org/2000/svg">
  <g>
    <path d="M98.4482 238.351C67.4557 238.349 36.9631 238.345 6.4706 238.34C5.80409 238.34 5.13375 238.383 4.47181 238.328C2.58741 238.169 -0.131748 238.829 0.00495911 235.836C0.121754 233.279 2.68005 233.727 4.37962 233.808C18.5241 234.488 32.6524 232.205 46.8109 233.664C49.6478 233.956 52.7674 234.513 55.4603 232.624C55.3185 230.486 53.7483 229.581 52.3973 228.807C36.4919 219.693 29.756 204.444 25.4631 187.846C23.0582 178.548 21.8817 168.987 17.2129 160.312C14.2777 154.859 14.0114 149.129 18.6957 144.1C19.0144 143.758 19.1499 143.217 19.2849 142.743C19.3716 142.439 19.3011 142.09 19.3011 141.651C17.2187 139.092 13.1676 140.659 10.8465 137.919C12.2318 135.508 14.6637 135.145 16.8088 134.693C25.1014 132.948 30.2421 127.001 35.1409 120.913C37.6299 117.819 39.5145 114.274 42.7222 111.73C44.3234 110.459 45.8288 108.544 43.9155 106.621C36.9629 99.6359 35.6947 90.3922 34.3904 81.4854C30.3929 54.1857 36.1262 27.8379 43.3325 1.72117C43.4886 1.15562 44.0328 0.697174 44.5308 0C47.4188 1.83342 47.9042 5.04944 49.7137 7.31656C56.9266 16.3537 66.3223 22.5876 75.9829 28.5646C85.6772 34.5624 94.5378 41.5503 100.774 51.2962C102.394 53.8275 104.001 54.0856 106.572 52.9426C113.355 49.9274 120.487 48.4762 127.94 48.7893C134.269 49.0552 140.501 48.1737 147.005 47.3732C146.052 45.093 143.027 46.067 142.306 43.4458C145.559 40.7852 149.448 41.1911 152.726 42.7619C156.531 44.5858 160.939 45.6637 163.714 49.3318C164.083 49.8189 164.873 50.4579 165.307 50.3539C172.913 48.5329 177.126 54.556 182.026 58.1187C188.327 62.7002 195.786 65.6124 201.18 71.5056C202.599 73.0556 204.454 72.5898 206.132 71.3038C219.853 60.7902 235.973 56.2219 252.488 52.5828C258.01 51.3659 263.365 49.5918 268.614 47.3871C272.009 45.9608 273.083 42.1315 276.06 40.7774C277.683 41.2174 277.735 42.2543 277.731 43.2592C277.631 69.5481 273.781 95.0828 261.326 118.616C256.823 127.123 251.579 135.339 243.027 140.636C240.136 142.427 240.339 144.987 241.373 147.664C245.924 159.447 249.693 171.665 259.547 180.529C260.244 181.156 261.024 181.941 260.649 183.572C257.726 183.7 255.728 181.326 253.196 180.495C251.664 179.992 249.958 178.738 248.851 180.919C245.572 187.376 241.245 192.995 235.989 197.964C230.843 202.83 224.696 206.041 218.422 208.592C218.124 210.663 219.424 211.401 220.346 212.254C224.858 216.429 228.169 221.461 229.839 227.291C231.208 232.07 233.878 233.441 238.583 233.127C244.222 232.751 249.909 232.969 255.57 233.127C257.671 233.186 260.961 232.264 260.853 235.855C260.757 239.04 257.706 238.181 255.72 238.198C245.391 238.287 235.035 238.699 224.736 238.124C215.812 237.626 207.327 240.425 198.577 240.502C189.948 240.578 181.554 243.641 172.53 239.123C167.115 236.412 159.538 236.709 152.874 237.357C134.918 239.1 116.918 237.804 98.4482 238.351C98.4482 238.351 98.4482 238.351 98.4482 238.351ZM160.676 56.4079C141.64 51.4 122.845 51.6228 104.433 59.143C102.02 60.1285 100.418 60.7381 98.8485 57.6467C93.4165 46.9459 84.7311 39.335 74.5827 33.2424C65.867 28.01 57.3819 22.4689 50.0873 15.2847C48.8627 14.0786 47.8111 12.3067 45.3477 12.7615C43.0094 16.7078 43.4146 21.3794 42.5326 25.6901C38.3072 46.3427 35.7955 67.1575 42.0594 87.8038C43.7942 93.5218 44.9421 99.8843 49.5345 104.418C52.816 107.657 52.3716 110.248 49.5948 113.837C46.337 118.048 42.2642 121.809 40.026 126.771C42.7799 129.217 45.4902 128.51 47.9611 127.732C52.7506 126.222 56.9195 127.263 61.4141 129.265C68.5013 132.422 71.4419 140.062 79.2998 143.199C86.1259 145.925 92.3986 148.333 99.5944 147.922C113.75 147.114 128.679 135.712 123.583 115.779C122.088 109.929 120.314 104.072 114.565 100.801C108.692 97.4595 102.36 95.4714 95.5486 95.3557C80.9606 95.108 67.5027 110.759 69.9619 125.057C70.152 126.163 70.7161 127.374 69.1298 128.122C67.0175 127.526 66.8315 125.556 66.3129 123.887C63.7342 115.587 68.1573 109.399 72.7734 103.415C81.2382 92.4431 96.768 87.2645 107.764 92.4039C119.271 97.7823 125.96 106.187 127.732 118.947C130.592 139.54 113.981 151.417 99.5884 151.4C92.758 151.392 86.1323 150.282 78.5378 148.113C79.9667 154.912 77.6203 160.079 74.2143 164.933C73.7852 165.544 73.6393 166.596 73.8047 167.346C76.1395 177.939 76.4007 189.291 85.1807 197.511C87.424 199.611 88.4086 202.302 85.4039 204.805C83.3625 206.506 83.2288 208.58 83.5199 211.101C84.3809 218.554 81.2451 224.337 75.4411 228.842C73.9401 230.007 71.7641 230.544 71.4448 232.903C72.5286 234.184 73.9596 233.741 75.215 233.734C87.8648 233.664 100.534 233.935 113.157 233.301C122.685 232.823 132.152 234.185 141.618 233.554C149.597 233.023 157.523 232.031 165.496 233.504C168.469 234.053 169.094 232.425 169.168 229.738C169.593 214.22 177.391 205.756 192.761 203.53C197.498 202.844 202.058 203.342 206.609 204.414C211.515 205.57 215.841 205.382 218.886 200.534C219.84 199.016 221.269 197.684 223.211 197.384C231.012 196.179 236.098 191.056 240.773 185.318C241.684 184.201 242.162 183.079 241.186 181.716C238.612 178.123 240.791 176.078 243.802 174.735C247.107 173.26 247.339 171.586 245.496 168.581C241.048 161.328 238.082 153.361 234.881 145.502C233.334 141.705 234.551 139.485 237.672 137.628C247.461 131.805 253.997 122.985 258.957 113.123C265.758 99.5999 268.906 84.8786 270.929 69.9872C271.687 64.4102 273.466 58.6828 271.434 52.6336C266.454 53.8794 261.816 55.1487 257.128 56.193C238.823 60.2705 220.861 65.1271 206.152 77.7112C204.797 78.8711 203.453 79.6259 201.75 78.1803C195.91 73.224 188.993 69.8403 182.783 65.5895C176.032 60.9689 168.945 58.7038 160.676 56.4079C160.676 56.4079 160.676 56.4079 160.676 56.4079ZM32.3822 134.494C30.3701 136.529 28.4686 138.59 28.647 141.783C28.7271 143.216 27.8979 144.188 26.7209 145.044C21.3572 148.946 19.5551 154.698 23.3275 160.321C27.8613 167.078 28.1167 174.69 29.7011 182.094C33.3262 199.035 38.4752 215.049 55.7358 223.372C61.3192 226.064 67.2464 228.904 73.2375 225.383C79.1941 221.883 78.5555 215.563 78.172 209.682C78.0967 208.526 77.9038 207.367 77.6481 206.235C75.305 195.868 73.1458 185.452 70.4946 175.164C68.9409 169.134 67.2667 163.234 61.4232 159.139C58.0365 156.765 57.0702 151.849 55.983 147.654C55.3791 145.325 57.0626 145.078 58.7764 144.516C61.3668 143.666 64.0255 145.413 66.5442 144.179C64.6887 135.788 55.8403 130.653 48.0481 133.468C45.8344 134.267 43.6991 134.477 41.8502 133.153C38.5088 130.76 35.6722 131.441 32.3822 134.494C32.3822 134.494 32.3822 134.494 32.3822 134.494ZM199.995 233.929C206.796 238.31 209.761 231.092 214.694 228.757C216.887 234.392 221.086 233.281 225.569 232.338C225.413 231.177 225.395 230.193 225.14 229.274C221.606 216.508 210.16 208.055 196.892 208.373C185.15 208.656 177.021 214.434 174.299 224.434C172.713 230.257 175.52 235.059 181.693 236.375C180.401 232.387 179.002 228.424 182.487 224.733C187.314 235.274 188.287 236.12 193.814 234.815C194.837 232.033 192.576 228.602 195.694 225.672C197.246 228.379 197.516 231.37 199.995 233.929C199.995 233.929 199.995 233.929 199.995 233.929ZM69.7506 157.916C70.4045 158.534 70.5286 159.872 72.1087 159.475C72.8366 156.992 73.3245 154.407 73.1217 151.723C73.0011 150.125 72.4697 148.739 70.6745 148.429C68.9582 148.132 67.9639 149.173 67.0217 150.475C64.5094 153.947 67.4345 155.48 69.7506 157.916C69.7506 157.916 69.7506 157.916 69.7506 157.916Z" fill="#000000" transform="translate(53.553 39.963)" />
    <path d="M59.252 20.8439C61.7235 28.9315 63.1993 36.4392 60.2493 44.5936C57.489 52.2236 51.956 56.1064 44.9963 58.3129C28.5257 63.5348 9.37968 52.1154 2.98575 42.1822C-1.37128 35.4135 -0.299484 28.782 2.02802 22.1376C7.69989 5.94591 22.2377 -2.7195 39.033 0.762924C49.468 2.92661 55.4935 10.7713 59.252 20.8439C59.252 20.8439 59.252 20.8439 59.252 20.8439ZM8.48552 16.7652C6.89149 19.2751 5.65164 21.8915 5.75615 24.9218C6.42424 24.4632 6.70326 23.8792 6.95642 23.2842C11.5684 12.4458 22.6631 5.97032 33.8309 7.60208C44.9357 9.22462 52.8042 18.193 53.9109 30.4889C54.7896 40.2517 50.3593 47.7119 42.2043 50.8509C36.0922 53.2036 29.7649 52.9561 22.2805 52.6544C31.6496 57.9554 40.2751 57.0712 48.1581 53.232C58.3234 48.2811 59.1372 38.7524 57.7701 28.7302C56.2574 17.6406 47.4869 5.83383 37.929 4.77916C27.0197 3.57536 16.0711 3.6004 8.48552 16.7652C8.48552 16.7652 8.48552 16.7652 8.48552 16.7652ZM24.9197 22.2193C24.7215 19.3439 22.8243 18.6809 20.4199 18.9334C17.379 19.2528 16.5265 21.6132 15.9017 24.1151C15.5394 25.5654 15.7557 26.8618 17.3195 27.3387C19.9407 28.1381 22.2484 27.5364 23.8908 25.227C24.3525 24.5777 24.5517 23.7416 24.9197 22.2193C24.9197 22.2193 24.9197 22.2193 24.9197 22.2193Z" fill="#000000" transform="translate(216.96 152.222)" />
    <path d="M47.1481 17.2763C48.6399 22.6144 48.4513 27.4657 46.7372 32.3449C43.6964 41 36.2297 46.2168 27.1293 46.2863C18.5725 46.3517 11.4368 42.638 5.66238 37.1408C-4.8678 27.1162 0.0658722 8.29501 14.0509 1.92448C24.9737 -3.05112 42.0988 1.46754 47.1481 17.2763C47.1481 17.2763 47.1481 17.2763 47.1481 17.2763ZM38.669 25.8176C41.0892 24.237 42.8166 22.2572 41.1111 19.2916C39.9716 17.3103 37.9235 16.3305 35.6214 16.8561C32.729 17.5165 33.1464 19.9982 33.2967 22.0833C33.5016 24.9241 34.7409 26.8045 38.669 25.8176C38.669 25.8176 38.669 25.8176 38.669 25.8176Z" fill="#000000" transform="translate(126.814 138.134)" />
    <path d="M2.56102 28.5588C1.62498 23.7711 0.770844 19.3785 0.0146027 14.9691C-0.0823669 14.4036 0.329758 13.7509 0.485626 13.2095C2.4769 12.4781 3.44516 13.9096 4.50821 14.8004C6.52676 16.4919 8.89621 17.2009 11.3932 17.3915C13.5381 17.5552 16.1081 17.6251 17.151 15.3938C18.295 12.9462 16.0377 11.5576 14.4765 10.0842C12.4795 8.19972 9.4185 6.57719 11.0851 3.15707C12.7534 -0.266495 15.9438 -0.317947 19.302 0.307892C21.083 0.639832 22.9531 0.466599 24.7768 0.602753C27.7412 0.824036 29.766 2.45166 30.747 5.17145C31.8354 8.18889 29.1876 9.15926 27.4618 10.5937C25.3329 12.363 20.8933 12.7603 22.2652 16.7599C23.7266 21.0202 27.866 20.7633 31.6223 20.4637C33.0465 20.3501 34.4811 19.2818 36.7741 21.1801C31.3478 27.0403 30.8527 36.2924 22.8926 40.5646C16.4982 43.9965 10.0194 41.7964 5.45616 34.7817C4.29156 32.9915 3.58833 30.9011 2.56102 28.5588C2.56102 28.5588 2.56102 28.5588 2.56102 28.5588Z" fill="#000000" transform="translate(176.282 178.222)" />
    <path d="M0 1.24802C3.9834 -1.33173 7.61148 0.734421 11.129 1.70024C13.9423 2.4727 16.6476 3.06311 19.4359 2.33797C29.0549 -0.163544 36.8898 4.77701 45.0367 8.36809C46.7796 9.13634 47.1987 10.8072 46.7547 12.6164C46.1864 14.9322 44.8886 16.5976 42.3284 16.6011C35.5069 16.6104 28.5148 16.8651 22.556 12.8922C17.7661 9.69868 12.7924 8.36345 7.06425 8.57339C1.46832 8.77847 0.236191 7.27199 0 1.24802C0 1.24802 0 1.24802 0 1.24802Z" fill="#000000" transform="translate(153.935 245.242)" />
    <path d="M23.2921 11.6046C21.8734 14.7134 20.4343 15.7685 18.4233 12.4511C17.5674 11.039 16.4756 9.77009 15.6171 8.35944C12.9877 4.03915 9.2395 2.9092 4.50357 4.20396C3.15704 4.57209 1.7921 5.71601 0 4.23689C0.984055 -0.319237 4.80286 0.17244 8.04956 0.0144119C14.5572 -0.302353 21.1618 4.63441 23.2921 11.6046C23.2921 11.6046 23.2921 11.6046 23.2921 11.6046Z" fill="#000000" transform="translate(249.043 126.77)" />
    <path d="M8.43184 0.529655C14.0292 -1.33163 17.9828 2.18355 22.3561 3.81738C23.8958 4.39262 24.1382 6.17554 23.3846 7.69698C22.836 8.8045 21.5986 8.89628 20.8277 8.21906C13.6006 1.87006 7.17882 4.83864 0.879196 9.79331C0.791183 9.86252 0.565033 9.7561 0.403366 9.73167C-0.721939 5.48685 0.076767 4.54318 8.43184 0.529655C8.43184 0.529655 8.43184 0.529655 8.43184 0.529655Z" fill="#000000" transform="translate(145.467 105.943)" />
    <path d="M6.39202 12.0706C10.7049 12.8605 11.7834 10.0951 12.5326 7.065C12.9132 5.52596 12.2675 3.66646 14.0029 2.56966C17.9431 5.95122 18.0188 7.54224 14.2423 13.2677C19.3838 15.2144 16.8298 17.77 14.7074 20.3115C13.9607 21.2055 13.102 22.0252 12.4738 22.995C10.9403 25.3621 7.72446 27.241 9.90249 30.8055C12.223 34.6031 14.0768 38.9469 19.8173 38.4675C22.6266 38.2329 25.475 38.5134 28.3007 38.4171C33.2395 38.2487 35.1704 35.2283 32.9445 30.6908C30.7558 26.2291 28.7205 21.5904 25.0742 18.0343C21.8437 14.8836 21.2021 10.7306 20.7119 6.64441C20.4132 4.15462 21.4022 1.65169 23.7628 0.249329C24.9011 -0.42691 25.9764 0.391663 26.8294 1.2831C28.7681 3.30893 28.5068 5.55392 27.2822 7.72795C25.6813 10.5702 26.2367 13.1149 27.8733 15.6877C30.4569 19.749 32.4874 24.1674 35.7747 27.7726C38.3835 30.6335 38.1115 33.7685 36.6776 37.0658C35.2164 40.4258 32.7588 42.4914 29.1008 42.6579C24.7842 42.8544 20.447 42.8974 16.1308 42.7172C11.682 42.5314 7.57841 38.5683 6.64377 33.8544C5.86726 29.9381 5.03555 26.3557 1.69508 23.3501C-1.10926 20.827 0.203522 16.7124 1.13045 13.4244C1.7808 11.1174 3.9642 10.903 6.39202 12.0706C6.39202 12.0706 6.39202 12.0706 6.39202 12.0706Z" fill="#000000" transform="translate(80.153 177.471)" />
  </g>
</svg>