<svg version="1.1" id="Layer_1" xmlns="http://www.w3.org/2000/svg" xmlns:xlink="http://www.w3.org/1999/xlink" x="0px" y="0px"
	 width="100%" viewBox="0 0 384 320" enable-background="new 0 0 384 320" xml:space="preserve">
<path fill="#000000" opacity="1.000000" stroke="none" 
	d="
M182.997711,278.028503 
	C142.017563,278.075745 101.536926,278.150208 61.056419,278.107849 
	C58.698540,278.105377 54.583836,279.515564 54.572739,275.747070 
	C54.562340,272.216675 58.747108,273.317657 61.111565,273.172485 
	C66.923668,272.815521 72.766312,272.899628 78.596405,272.914307 
	C81.819931,272.922424 83.049614,271.834320 82.390396,268.361176 
	C80.527550,258.546600 79.213730,248.646851 78.745453,238.650024 
	C78.691734,237.503281 78.651588,236.175903 78.078522,235.262787 
	C74.445869,229.474670 72.445114,223.278793 72.652435,216.390808 
	C72.720085,214.143158 70.814728,213.494095 69.187119,212.605972 
	C64.887566,210.259888 60.768242,207.655716 57.462910,204.179459 
	C57.884113,203.472382 57.966221,203.217178 58.045475,203.218079 
	C73.949066,203.395187 80.233429,190.501541 88.708054,180.616287 
	C90.042892,179.059265 89.918968,177.283844 88.815567,175.518875 
	C76.266449,155.445602 75.642815,133.360794 78.038361,110.809502 
	C79.339592,98.559944 81.190613,86.395477 84.615089,74.521149 
	C84.978920,73.259575 84.925453,71.844368 86.169495,71.061707 
	C87.183815,70.725182 87.894753,71.165970 88.342445,71.904907 
	C94.947174,82.806313 105.036041,89.843674 115.551727,96.373024 
	C126.294930,103.043640 137.539078,109.073128 144.546677,120.270386 
	C145.710449,122.129929 147.231522,121.544998 148.930893,120.982788 
	C183.196777,109.646301 215.163284,114.084396 244.624329,135.151901 
	C246.773438,136.688721 248.695831,137.428055 250.915176,135.631744 
	C265.074127,124.171753 282.256531,119.846359 299.253265,115.045677 
	C302.768799,114.052727 306.142914,112.566330 309.644440,111.514648 
	C314.270325,110.125282 316.137054,105.803276 318.752838,102.416618 
	C319.513611,103.021484 319.968903,103.209595 319.976318,103.413971 
	C320.977905,131.001678 318.230438,157.957535 305.713745,183.088928 
	C301.547760,191.453461 296.647919,199.440750 288.837646,205.069580 
	C285.945923,207.153656 286.101593,209.528214 287.364960,212.487198 
	C292.343536,224.147568 297.659210,235.608856 305.411530,245.758453 
	C306.000946,246.530182 306.839020,247.231506 306.072205,248.738693 
	C302.478760,248.957962 300.800262,244.314987 296.547943,244.826416 
	C293.054077,250.578918 288.876221,256.322449 283.909393,261.484009 
	C281.085083,264.419006 283.890472,267.453217 284.436981,270.389709 
	C284.938202,273.083038 287.311920,272.751282 289.267914,272.760742 
	C295.764740,272.792145 302.262146,272.715790 308.758789,272.760864 
	C310.836517,272.775269 313.653931,272.280731 313.547913,275.539093 
	C313.452728,278.464783 310.768677,277.884308 308.894104,277.890411 
	C294.912964,277.936005 280.882721,277.193176 266.966919,278.145294 
	C257.181610,278.814850 247.169052,278.728058 237.591431,281.603729 
	C235.547501,282.217468 233.474960,281.871674 231.726746,281.049255 
	C221.172455,276.084351 210.078613,277.081360 198.974808,277.697449 
	C193.825317,277.983124 188.657028,277.929749 182.997711,278.028503 
M163.621979,206.738617 
	C168.873505,203.689560 169.912140,198.459610 170.609100,193.097748 
	C173.117935,173.796402 161.265305,162.928146 145.972977,161.384842 
	C130.951111,159.868805 114.994110,174.932480 114.988548,189.750137 
	C114.986427,195.402176 116.434616,197.218872 121.873405,198.130035 
	C121.399162,196.654343 120.908379,195.283600 120.517036,193.885010 
	C117.042198,181.466599 126.848213,166.415787 139.638611,164.707047 
	C149.372177,163.406693 157.429367,166.565140 163.183746,174.624710 
	C169.373932,183.294769 169.636841,192.545593 165.068298,202.020370 
	C164.280975,203.653229 162.943420,205.041290 162.304474,207.207779 
	C151.350174,212.333191 140.543961,210.871933 129.409912,206.281906 
	C130.482819,209.469910 132.684479,210.398468 135.416870,210.999161 
	C142.916534,212.647873 150.302444,211.120316 157.707703,210.390778 
	C159.884476,210.176331 161.756500,208.931168 163.621979,206.738617 
M216.098785,125.416069 
	C193.153488,118.207047 170.368271,116.825340 148.029999,127.594215 
	C144.991486,129.059036 143.577820,128.211884 142.144791,125.504944 
	C138.812271,119.209930 133.954590,114.286392 128.091721,110.224419 
	C114.987305,101.145248 100.661789,93.746277 89.320427,82.219994 
	C89.172417,82.069572 88.707954,82.230507 88.107300,82.260109 
	C87.840012,83.085304 87.510864,83.994225 87.250290,84.922401 
	C84.401985,95.068100 83.193581,105.508064 82.522896,115.945915 
	C81.196693,136.585526 81.275810,157.054230 95.024284,174.561310 
	C96.948334,177.011353 97.307739,179.825500 95.029800,182.323608 
	C91.780487,185.886948 88.915916,189.761963 85.424126,193.148300 
	C80.731697,197.699051 76.570724,202.792053 71.014069,206.752380 
	C76.968498,210.925125 78.733139,210.583084 81.539505,205.460358 
	C86.884178,195.704193 89.987480,194.285339 100.745422,196.536407 
	C102.860085,196.978912 105.017845,197.313950 107.171341,197.448303 
	C110.100220,197.631073 112.017273,196.644394 111.599060,193.141632 
	C110.124542,180.791687 117.016724,172.320374 125.254280,164.685959 
	C129.196960,161.031982 134.017593,158.488541 139.459930,157.851074 
	C158.309204,155.643234 173.882645,168.561432 174.431366,187.564423 
	C174.903107,203.901810 167.575897,213.993607 149.871933,215.143082 
	C146.883499,215.337128 143.869263,215.430664 140.882370,215.274933 
	C137.380524,215.092361 136.019958,216.514160 136.345200,219.988037 
	C136.934464,226.281723 135.171982,231.881683 130.790329,236.499344 
	C129.325775,238.042786 129.230545,239.670944 129.608643,241.557373 
	C131.341095,250.200806 133.283524,258.812164 134.661835,267.512451 
	C135.374069,272.008240 137.552704,273.113586 141.723434,273.013611 
	C161.364731,272.542786 181.013550,272.382812 200.654373,271.896942 
	C205.650436,271.773346 210.622925,271.798767 215.613525,271.885071 
	C218.939774,271.942596 222.263077,271.591492 222.737137,266.842834 
	C224.006943,254.123550 231.405121,245.978912 243.929947,243.802017 
	C256.281921,241.655182 266.932922,245.158920 275.580261,254.436325 
	C276.826111,255.772964 277.682190,258.081390 280.349976,257.097565 
	C282.721283,256.223022 289.069489,248.178635 288.220612,246.106857 
	C286.105865,240.945694 288.662384,238.671616 292.841919,237.309952 
	C293.067474,234.794968 291.745789,233.202103 290.832031,231.453506 
	C287.049805,224.215591 283.882782,216.701431 280.730347,209.175110 
	C279.500488,206.238937 279.821716,204.066498 282.691193,202.431351 
	C291.935577,197.163513 297.239807,188.521179 302.182983,179.579056 
	C309.514893,166.315781 311.671753,151.658554 313.763458,136.960785 
	C314.742920,130.078445 315.204376,123.231880 314.631592,115.757324 
	C311.614685,116.626190 309.239136,117.282974 306.880280,117.994957 
	C300.512512,119.916954 294.108887,121.726677 287.730072,123.591499 
	C274.124786,127.568932 260.568939,131.965851 250.879684,143.362015 
	C248.965164,145.613831 247.024872,145.216873 245.414795,143.272430 
	C237.866364,134.156281 227.461411,129.753693 216.098785,125.416069 
M84.101456,234.963562 
	C84.757782,245.246292 85.207588,255.538300 87.549271,265.648346 
	C89.246193,272.974701 89.506905,273.561066 97.058174,273.572998 
	C106.203789,273.587463 115.352295,273.036530 124.494942,273.139618 
	C129.282852,273.193573 130.184692,271.038452 129.468018,266.984192 
	C127.879242,257.996277 126.440514,248.981552 124.812431,240.000992 
	C124.242493,236.857208 124.378242,234.556839 127.342148,232.218094 
	C133.303391,227.514236 133.084793,220.535721 127.164909,215.918808 
	C125.007820,214.236481 124.581367,212.073669 124.391579,209.808212 
	C123.977974,204.870789 120.843193,203.019318 116.528038,202.260727 
	C112.539352,201.559509 108.933136,202.212341 106.161125,205.300629 
	C95.696167,197.930984 90.528488,199.708893 87.152672,211.667404 
	C86.809593,212.882721 86.310478,213.633667 85.103287,214.199860 
	C78.502335,217.295776 76.992271,223.476562 81.374702,229.398041 
	C82.469254,230.876984 83.696686,232.232193 84.101456,234.963562 
M227.445816,265.889587 
	C227.660477,272.612305 229.585907,275.131409 235.172684,275.739014 
	C233.713440,271.940399 232.856018,268.208771 236.137772,264.419128 
	C237.439713,267.191986 238.310883,269.671478 239.693726,271.821930 
	C241.159790,274.101776 243.773117,275.013184 246.274277,274.374268 
	C248.672119,273.761719 247.376556,271.280518 247.670395,269.608704 
	C247.905228,268.272522 247.069916,266.542145 248.966675,265.794495 
	C250.688782,266.335327 250.301224,267.998718 250.844101,269.114014 
	C253.365799,274.294708 257.545410,275.392761 262.215424,271.901276 
	C263.248352,271.128967 264.042664,270.011475 264.861725,268.984955 
	C266.247437,267.248199 268.247040,267.123016 268.798279,269.020569 
	C270.515472,274.931427 274.322021,272.369049 277.749756,272.118103 
	C277.710571,261.537292 271.456818,253.898575 259.293488,249.906906 
	C247.585678,246.064728 231.119766,249.167358 227.445816,265.889587 
M160.660934,182.798309 
	C156.822998,180.621307 154.158371,181.216904 153.365570,184.544037 
	C152.889374,186.542511 153.081055,188.508072 154.952408,189.865143 
	C156.416245,190.926697 158.168991,191.267090 159.536072,190.117996 
	C161.602005,188.381485 162.127747,186.016907 160.660934,182.798309 
z"/>
<path fill="#000000" opacity="1.000000" stroke="none" 
	d="
M224.525391,230.556854 
	C209.106674,221.426071 205.942184,208.643723 214.963577,193.010147 
	C223.059799,178.979828 240.719849,173.962341 254.255844,181.560303 
	C268.741333,189.691223 272.937378,206.093674 272.006287,217.699280 
	C270.967407,230.648148 258.256378,239.026443 243.580963,237.158401 
	C236.928101,236.311539 230.536850,234.489868 224.525391,230.556854 
M251.241913,232.880997 
	C260.675964,232.116287 268.709625,225.012787 268.752594,216.218323 
	C268.803284,205.849075 266.382324,196.165100 258.144501,188.682892 
	C245.272659,176.991760 224.668579,180.749985 217.345383,196.413055 
	C216.012161,199.264603 215.140686,202.331406 214.044403,205.294510 
	C212.401672,209.734665 213.290390,213.666412 216.734451,217.910599 
	C216.403214,215.846558 216.154877,214.560852 215.995377,213.264206 
	C214.580246,201.759506 220.716919,191.212875 232.199356,186.946320 
	C241.364487,183.540802 252.764404,185.071564 259.884308,194.890656 
	C265.584473,202.751816 266.210571,211.569595 262.447693,220.010361 
	C258.602814,228.634979 250.613388,231.117538 241.547577,230.321869 
	C238.663681,230.068756 235.782166,229.788757 232.899551,229.521057 
	C238.548843,231.728394 244.301071,233.135452 251.241913,232.880997 
M234.311020,199.995575 
	C233.580215,198.359665 232.369690,197.353378 230.552155,197.177155 
	C228.367233,196.965332 226.570328,197.671509 225.672409,199.748154 
	C224.764404,201.848022 225.518677,203.676849 227.251373,204.996246 
	C229.122467,206.421021 231.002716,205.901901 232.694473,204.555740 
	C233.910065,203.588470 234.650635,202.332962 234.311020,199.995575 
z"/>
<path fill="#000000" opacity="1.000000" stroke="none" 
	d="
M184.544220,243.005890 
	C177.377823,241.193497 173.968658,236.139664 172.141861,230.019058 
	C170.984558,226.141510 170.802658,221.972824 169.958740,216.470718 
	C176.678741,221.403900 182.634018,222.933472 189.055756,217.552414 
	C192.548981,223.516144 197.167496,226.660919 204.484482,223.472534 
	C200.506210,228.900986 199.645111,235.266006 195.428329,239.806671 
	C192.577850,242.876114 189.019180,243.827499 184.544220,243.005890 
z"/>
<path fill="#000000" opacity="1.000000" stroke="none" 
	d="
M258.733521,148.928635 
	C258.953247,145.085800 262.025360,143.554047 264.189423,141.413361 
	C270.353333,135.316025 277.475677,130.975174 286.299805,129.783661 
	C289.582001,129.340469 292.885132,128.614243 296.004272,127.519951 
	C299.395874,126.330086 303.016144,124.610558 305.724609,127.733170 
	C308.454132,130.880035 307.401672,134.885208 305.941772,138.992935 
	C301.507355,137.793930 297.246155,136.633209 292.979797,135.491745 
	C290.773773,134.901520 288.551666,134.891479 286.921387,136.671677 
	C283.159851,140.779068 278.392548,143.531891 273.923126,146.694443 
	C269.328705,149.945419 264.385101,151.028641 258.733521,148.928635 
z"/>
<path fill="#000000" opacity="1.000000" stroke="none" 
	d="
M184.633987,214.510147 
	C183.216599,213.057892 181.875717,211.983154 180.999725,210.611526 
	C179.011505,207.498306 180.028687,204.661423 183.581436,203.617966 
	C188.487305,202.177048 193.220795,203.075668 197.419479,205.842209 
	C200.688583,207.996231 200.727005,211.120209 197.932831,213.826782 
	C194.107803,217.531906 189.383698,217.868134 184.633987,214.510147 
z"/>
<path fill="#000000" opacity="1.000000" stroke="none" 
	d="
M258.537781,154.369461 
	C259.996368,156.423065 261.187836,158.222305 262.502411,159.926590 
	C263.574860,161.316925 263.842834,162.777084 262.449005,163.874359 
	C260.704956,165.247360 259.611603,163.618332 258.920044,162.404953 
	C256.466858,158.100555 253.712982,154.165649 248.292801,153.613419 
	C245.583679,153.337387 242.823196,153.565338 240.052139,153.565338 
	C241.813339,147.796768 250.673889,148.104904 258.537781,154.369461 
z"/>
<path fill="#000000" opacity="1.000000" stroke="none" 
	d="
M139.890152,140.816727 
	C138.756638,141.808426 137.933945,142.701050 136.587524,142.270981 
	C136.430069,136.275818 143.051941,131.628571 151.267410,131.965744 
	C156.694244,132.188461 160.045975,135.222519 159.727570,140.269119 
	C153.026566,135.696854 146.373123,133.583130 139.890152,140.816727 
z"/>
<path fill="#000000" opacity="1.000000" stroke="none" 
	d="
M271.994934,153.761658 
	C274.790985,155.107925 273.517456,156.510147 272.207642,157.610901 
	C270.448212,159.089478 268.489075,160.328705 265.556671,160.191971 
	C266.534912,156.771042 268.602692,154.812790 271.994934,153.761658 
z"/>
<path fill="#000000" opacity="1.000000" stroke="none" 
	d="
M120.255463,231.424911 
	C118.972435,231.338577 118.009308,231.234665 116.923584,231.117508 
	C122.573456,238.970078 121.260765,245.966660 113.331146,247.288147 
	C107.472687,248.264465 101.089661,248.039185 95.271019,246.798492 
	C88.531807,245.361465 87.113380,238.965576 91.460503,233.602386 
	C92.546120,232.263031 94.360573,231.299469 93.946075,228.637726 
	C89.955406,231.749252 86.391754,231.360687 83.831352,227.220688 
	C81.736847,223.834000 84.060753,218.108826 88.314018,216.045578 
	C90.553970,214.958969 91.906242,213.201355 93.305321,211.323090 
	C95.735695,208.060303 98.863129,207.210724 102.487495,209.217300 
	C104.117935,210.119965 105.539078,211.158676 107.546707,210.142532 
	C112.294395,207.739563 115.110954,210.197327 117.113403,214.227997 
	C117.770561,215.550781 117.882782,217.187424 119.951347,217.112228 
	C125.151306,216.923187 125.650162,220.876068 126.145401,224.518539 
	C126.699371,228.592896 124.339622,230.650024 120.255463,231.424911 
M108.600159,222.600250 
	C106.904778,221.116150 105.399422,217.924713 102.119316,222.343140 
	C104.860229,222.644394 106.700928,222.846695 108.600159,222.600250 
z"/>
</svg>