<svg version="1.1" id="Layer_1" xmlns="http://www.w3.org/2000/svg" xmlns:xlink="http://www.w3.org/1999/xlink" x="0px" y="0px"
	 width="100%" viewBox="0 0 384 320" enable-background="new 0 0 384 320" xml:space="preserve">
<path fill="#000000" opacity="1.000000" stroke="none" 
	d="
M67.916908,195.900177 
	C70.132668,191.885452 74.603546,191.440033 77.947578,189.180038 
	C87.772705,182.539856 92.864769,172.359390 98.884834,162.821518 
	C99.977531,161.090302 98.786224,160.017471 97.834900,158.886444 
	C86.948540,145.943771 83.330612,130.505524 81.633217,114.121948 
	C79.390846,92.478188 83.019875,71.405899 86.064842,49.921917 
	C87.115196,50.139507 87.984695,50.049774 88.286316,50.421192 
	C98.451767,62.939201 112.638084,69.802536 126.198997,77.575920 
	C134.435211,82.297081 142.406296,87.448807 148.954468,94.452202 
	C150.333542,95.927155 151.478195,96.094032 153.289856,95.232559 
	C168.190292,88.147232 184.178909,86.533867 200.444824,85.834473 
	C193.011719,83.110733 185.394165,81.282188 177.214417,80.629234 
	C181.155594,77.267776 186.103256,75.941521 190.878555,75.283470 
	C205.778030,73.230278 218.508347,77.482452 227.935074,89.778648 
	C228.975708,91.136032 230.185425,92.238029 231.854126,92.732773 
	C237.957077,94.542213 243.596313,97.378029 249.120346,100.479134 
	C250.766647,101.403336 252.372574,102.133896 254.059784,100.350128 
	C266.736115,86.948532 283.464600,80.625977 300.045929,74.014198 
	C303.742767,72.540077 307.189331,70.446747 310.860077,68.896523 
	C315.505585,66.934631 316.983124,62.315193 319.914307,57.347382 
	C322.126709,64.297028 322.750458,70.195351 323.129456,75.983604 
	C324.196014,92.271805 324.393280,108.564781 321.206726,124.720139 
	C318.227631,139.823700 313.292389,154.005432 302.123169,165.166656 
	C299.673706,167.614349 300.463989,169.655991 301.795319,171.805405 
	C308.721832,182.987976 315.416016,194.387909 326.940369,201.712875 
	C327.646301,202.161545 328.308014,202.654968 328.306458,204.026764 
	C323.437531,205.652267 319.244110,201.688751 314.007294,202.158310 
	C315.528015,204.488953 314.700287,206.406845 313.611542,208.735931 
	C306.374512,224.217896 294.396606,234.749695 279.531403,242.451431 
	C278.255829,243.112320 276.634338,243.364700 275.799011,245.263336 
	C280.179230,248.778687 285.742676,250.259323 290.460175,253.225845 
	C292.220581,254.332809 293.566589,252.750717 294.973267,251.957199 
	C300.099518,249.065414 305.338623,246.385712 311.478394,247.284531 
	C323.325470,249.018875 332.394806,262.292786 329.885529,274.034454 
	C328.975281,278.293823 326.996765,278.557068 321.830933,274.825348 
	C323.533813,272.647644 324.862000,270.536560 321.962494,267.883484 
	C320.612183,266.647949 320.457733,263.953186 320.056549,261.863190 
	C319.121887,256.994202 316.049408,254.247086 311.444763,253.291840 
	C306.531769,252.272644 302.256531,253.935623 298.636780,257.317993 
	C297.203949,258.656860 297.795624,259.810791 298.821136,261.209381 
	C300.288757,263.210876 302.197815,265.338806 302.546753,267.622314 
	C303.436493,273.444519 306.940430,274.273163 311.759979,273.659454 
	C313.419189,273.448181 315.399017,273.254608 315.468903,275.720886 
	C315.547394,278.489777 313.347534,278.212158 311.531921,278.217224 
	C297.867798,278.255341 284.203552,278.303040 270.539490,278.274078 
	C267.822144,278.268311 265.328949,278.576660 262.911896,280.051941 
	C258.495605,282.747467 253.343582,281.382111 248.707993,281.437622 
	C243.346725,281.501801 237.676743,283.675262 232.578156,281.377960 
	C227.299286,278.999451 221.879364,278.318665 216.292221,277.689636 
	C204.454254,276.356781 192.730270,278.782623 180.911407,278.656555 
	C177.171265,278.616669 173.394562,281.798859 169.640106,283.518555 
	C169.036438,283.795105 168.417725,284.467407 167.880264,284.396149 
	C158.359970,283.134155 147.691223,289.307739 139.396820,280.032440 
	C138.064896,278.543030 136.228561,278.359863 134.341278,278.378632 
	C108.360756,278.636871 82.373749,277.791656 56.398987,278.833374 
	C54.569180,278.906769 53.013889,278.740875 52.253330,276.893066 
	C47.902054,266.321442 45.597980,255.565308 49.767467,244.355484 
	C52.418816,237.227249 56.843903,231.726028 64.839363,230.738998 
	C73.069473,229.722992 78.968857,234.461014 83.324951,240.534698 
	C88.157745,247.273071 92.047684,254.692261 96.262932,261.865082 
	C97.112396,263.310547 97.699310,264.880890 100.118706,265.837921 
	C105.168648,252.953690 117.001740,248.709641 128.961670,244.786942 
	C128.328125,242.091568 126.180435,242.086670 124.720009,241.241394 
	C115.690155,236.015091 107.287659,230.328949 99.748573,222.704529 
	C93.229881,216.112015 88.786697,209.098267 85.788315,200.709579 
	C85.024025,198.571304 83.137024,198.510132 81.293793,198.247299 
	C76.885910,197.618835 72.491478,196.895950 67.916908,195.900177 
M140.156830,241.753647 
	C147.107208,242.493942 153.992294,240.575287 161.040939,241.777008 
	C172.838165,243.788300 183.483353,255.508163 183.266006,267.132172 
	C183.144104,273.651886 183.144669,273.722229 190.020813,273.666565 
	C199.806885,273.587402 209.565689,271.501038 219.389603,273.514984 
	C222.527603,274.158234 223.121017,271.901489 222.600754,269.460724 
	C221.760666,265.519623 222.430649,261.915314 224.187836,258.346710 
	C229.779205,246.991272 241.123047,240.899979 256.031708,243.027573 
	C263.007812,244.023117 268.222198,241.385193 273.905792,238.840637 
	C284.013885,234.315186 292.806458,227.897049 300.282349,219.816910 
	C303.741241,216.078445 308.813232,211.280334 307.474304,206.785995 
	C305.731537,200.936127 307.296234,198.499023 312.146057,196.129608 
	C305.709808,188.619781 301.101959,180.337814 296.094055,172.308807 
	C293.507324,168.161667 291.939117,164.700562 297.848999,162.029037 
	C299.413849,161.321640 300.698181,159.698013 301.769501,158.243347 
	C307.852417,149.983734 312.263031,140.922272 314.736725,130.920898 
	C316.943726,121.997856 318.120544,112.912491 318.525574,103.781326 
	C318.994080,93.219345 319.147278,82.611122 317.156921,71.546638 
	C309.621735,75.670769 302.010773,78.469276 294.562317,81.643867 
	C280.179413,87.774010 265.557678,93.684517 255.801407,106.964005 
	C253.936111,109.502884 252.253632,108.574440 249.907883,107.185768 
	C243.872314,103.612724 238.564407,97.806946 230.346497,99.829163 
	C229.794495,99.965004 228.856567,99.172729 228.315170,98.605110 
	C225.339951,95.485840 222.105621,92.541557 219.573776,89.087486 
	C215.145340,83.045975 208.684326,81.751389 202.095840,80.439095 
	C208.177109,84.049751 214.463486,87.302681 219.782135,92.644661 
	C216.978256,94.067856 215.057251,93.110069 213.136917,92.812943 
	C192.044510,89.549477 171.638260,90.963341 152.676514,101.824265 
	C150.597443,103.015099 149.380188,102.578178 148.001190,100.943871 
	C139.800751,91.225128 129.309952,84.543495 118.265549,78.592384 
	C108.505104,73.333092 98.798843,67.979668 90.025497,60.126881 
	C86.580521,76.136185 85.572372,91.496620 86.191353,106.991005 
	C86.916847,125.151840 90.873047,142.291901 102.768692,156.675003 
	C105.394737,159.850174 105.086273,162.472168 103.278160,165.688950 
	C97.826912,175.387238 92.512321,185.163345 82.641571,192.268417 
	C87.790543,193.437546 91.549141,195.647446 94.535118,199.607712 
	C91.737572,201.712555 92.423996,204.090973 94.255096,206.693588 
	C98.118217,212.184372 102.232857,217.285248 107.196838,221.990295 
	C116.610382,230.912827 127.537994,236.837585 140.156830,241.753647 
M125.148834,251.575867 
	C123.597778,252.181946 121.995079,252.682571 120.504601,253.412369 
	C114.101341,256.547607 108.248817,260.372284 105.790253,267.535583 
	C104.191025,272.195099 105.330185,273.645782 110.154747,273.694702 
	C114.986916,273.743683 119.820374,273.733582 124.652603,273.684479 
	C127.644218,273.654114 131.801895,274.713684 133.400803,273.172455 
	C137.733917,268.995728 139.332245,272.604401 141.705460,274.888428 
	C142.665054,275.811920 143.556564,276.883423 144.680969,277.543762 
	C147.902115,279.435516 151.322891,280.995300 154.977219,278.762512 
	C158.371384,276.688721 159.285294,273.455994 158.549515,269.658875 
	C158.301941,268.381409 157.767944,266.977600 159.926620,266.331085 
	C163.837555,269.799469 163.524109,274.416473 162.651825,279.760895 
	C171.239151,276.658478 172.101105,270.482056 170.490662,262.641266 
	C175.219193,265.102631 174.520874,269.473877 176.473755,272.512787 
	C178.076584,270.089508 177.920578,267.719513 177.722855,265.431183 
	C176.935806,256.322571 169.588486,249.062057 159.280579,247.114990 
	C147.706238,244.928711 136.949707,249.323990 125.148834,251.575867 
M263.200806,273.738373 
	C264.901276,272.901550 266.332642,270.190643 268.343201,271.596741 
	C271.944580,274.115356 275.735870,272.847107 279.432800,272.964661 
	C285.330231,273.152069 291.237976,273.014771 297.717926,273.014771 
	C296.484924,265.063507 292.341095,260.331848 286.774200,257.244446 
	C274.926666,250.673843 262.088989,247.487640 248.465729,248.327866 
	C236.927811,249.039490 228.726852,256.162079 227.602264,266.088806 
	C227.000931,271.396667 229.079041,274.491638 234.198318,275.815826 
	C234.187744,272.190887 232.132919,268.116882 236.258621,264.979279 
	C239.519379,275.039581 241.295975,276.795959 247.031494,275.882507 
	C247.471939,272.803528 245.492752,269.300842 248.431335,266.494019 
	C256.008179,277.712738 256.008179,277.712738 263.200806,273.738373 
M88.314880,260.154297 
	C84.294426,253.282028 80.933098,245.950684 75.079842,240.325684 
	C70.632515,236.051849 64.711891,235.311584 61.171406,238.759430 
	C51.454575,248.222031 52.016811,261.277344 57.638622,272.318787 
	C58.382786,273.780365 59.845852,273.525574 61.169361,273.532623 
	C70.805923,273.583832 80.442581,273.689606 90.078842,273.659515 
	C91.762741,273.654266 93.748772,274.421997 95.330109,272.350372 
	C93.134789,268.531677 90.908928,264.659821 88.314880,260.154297 
z"/>
<path fill="#000000" opacity="1.000000" stroke="none" 
	d="
M280.610474,192.546997 
	C266.659729,206.639313 244.708344,203.624115 234.053802,195.222778 
	C220.008713,184.147888 221.044998,175.913147 226.121552,162.325897 
	C230.513962,150.569763 239.257294,143.387070 252.153290,143.254395 
	C264.689026,143.125427 274.566711,148.396835 280.583496,159.965393 
	C286.189087,170.743362 288.667023,181.441162 280.610474,192.546997 
M265.595825,153.764832 
	C267.652924,155.940277 269.881378,157.979477 271.738068,160.314270 
	C280.811127,171.723434 276.189484,189.790482 262.801727,194.960373 
	C258.822601,196.496948 254.581924,197.356201 249.755356,198.726120 
	C254.333359,198.726120 258.197479,199.094376 261.967621,198.655334 
	C272.244049,197.458679 281.485779,189.391678 282.420135,180.326202 
	C283.220123,172.564880 279.970337,165.521713 275.889221,159.239792 
	C265.239197,142.846664 239.748459,143.873550 233.097504,157.606323 
	C244.223312,148.441696 254.589752,147.039276 265.595825,153.764832 
M236.848419,164.325073 
	C234.617844,166.386963 234.843536,168.672028 236.326416,170.995605 
	C237.316635,172.547241 238.848434,173.055389 240.620499,172.773376 
	C242.615234,172.455917 243.865631,171.193283 244.443588,169.333710 
	C245.664658,165.404892 242.443253,162.914108 236.848419,164.325073 
z"/>
<path fill="#000000" opacity="1.000000" stroke="none" 
	d="
M124.178658,183.532135 
	C115.466019,166.860825 128.207809,144.693817 139.175323,139.598923 
	C157.987793,130.859650 177.952942,140.487656 183.099136,160.925552 
	C185.025925,168.577698 185.770706,176.336823 181.479965,183.673447 
	C176.444427,192.283554 168.332581,196.044449 159.075546,197.876587 
	C144.864899,200.689148 131.149124,195.087036 124.178658,183.532135 
M169.995071,190.572189 
	C178.448608,185.239395 181.799057,177.626572 181.034134,167.672760 
	C179.481537,147.468933 160.198608,134.760132 142.060654,142.405289 
	C132.596176,146.394592 128.501801,154.778702 125.638672,163.897125 
	C122.378738,174.279282 126.019073,184.563995 135.214737,190.445969 
	C146.418961,197.612732 157.889877,196.960373 169.995071,190.572189 
z"/>
<path fill="#000000" opacity="1.000000" stroke="none" 
	d="
M277.773315,96.769119 
	C284.488251,91.522949 291.257904,87.173630 299.680054,86.455986 
	C302.301147,86.232643 304.984589,86.248833 307.595642,86.543747 
	C310.010834,86.816544 310.016479,88.957161 310.001465,90.812866 
	C309.989594,92.276253 310.056396,94.601295 308.196991,94.313522 
	C300.507782,93.123520 295.808990,99.326180 289.505859,101.494987 
	C285.841095,102.755989 283.069275,105.552673 280.095428,108.285583 
	C275.430298,112.572800 268.605774,113.199188 260.672699,112.879433 
	C265.718048,105.714996 272.014923,101.746582 277.773315,96.769119 
z"/>
<path fill="#000000" opacity="1.000000" stroke="none" 
	d="
M178.920563,203.947433 
	C183.751953,199.895477 188.747726,197.114761 194.822769,196.539124 
	C196.614014,196.369415 198.576569,195.977127 200.058395,195.046417 
	C202.306000,193.634796 203.377701,191.628494 200.336487,189.685745 
	C200.196701,189.596466 200.041412,189.531570 199.893860,189.454330 
	C195.884995,187.355499 191.629944,184.797058 193.931747,179.596573 
	C195.941666,175.055573 200.854691,176.013977 204.980225,176.264603 
	C205.476288,176.294739 205.964554,176.436081 206.459854,176.498962 
	C209.547455,176.891113 212.576447,177.562469 213.345001,181.156219 
	C214.131577,184.834244 211.976334,187.073868 209.023666,188.799011 
	C207.670059,189.589890 205.587509,189.928589 205.972183,192.182068 
	C206.370636,194.516174 208.234833,195.407440 210.307526,195.691116 
	C217.294571,196.647430 224.159302,197.877655 229.578522,202.954025 
	C231.566650,204.816391 233.928375,206.551178 232.359406,210.979660 
	C224.978897,200.464569 213.796463,198.510864 203.378723,198.751221 
	C193.109116,198.988159 181.899628,201.200577 176.629730,213.831833 
	C173.794418,208.791611 176.973679,206.699860 178.920563,203.947433 
z"/>
<path fill="#000000" opacity="1.000000" stroke="none" 
	d="
M248.092072,124.646973 
	C246.904190,125.297966 245.961960,125.819359 245.035477,125.040115 
	C244.226486,124.359673 244.585587,123.577309 245.069031,122.836624 
	C247.080185,119.755363 254.386169,118.070534 258.966675,119.640747 
	C265.139771,121.756912 269.155670,126.329842 268.773682,131.885971 
	C262.798615,126.270966 257.142914,120.423767 248.092072,124.646973 
z"/>
<path fill="#000000" opacity="1.000000" stroke="none" 
	d="
M160.577484,119.152946 
	C156.336136,117.983368 152.573807,116.673729 148.217072,118.010857 
	C144.285965,119.217377 141.904022,122.473907 138.070282,125.120705 
	C137.510620,119.874138 140.426666,117.592064 143.309586,115.756256 
	C148.480759,112.463303 154.034515,113.074989 159.429398,115.393303 
	C160.882721,116.017838 162.630234,116.982811 160.577484,119.152946 
z"/>
<path fill="#000000" opacity="1.000000" stroke="none" 
	d="
M276.936951,120.694992 
	C275.742035,121.245911 274.833374,121.584656 273.466248,120.787155 
	C275.628998,118.388222 277.452881,116.019348 280.945221,115.062607 
	C281.892242,118.703987 278.930573,119.197823 276.936951,120.694992 
z"/>
<path fill="#000000" opacity="1.000000" stroke="none" 
	d="
M145.727753,143.389999 
	C156.286057,140.248215 165.195480,142.706818 171.726303,150.831497 
	C178.545975,159.315552 179.138229,172.762405 174.064072,180.457535 
	C168.436050,188.992661 160.088531,191.675125 150.578659,190.155685 
	C138.030914,188.150864 125.558563,181.242462 128.586700,163.501480 
	C130.296539,153.483902 136.244614,147.230408 145.727753,143.389999 
M169.090714,164.549850 
	C170.478531,161.424866 169.722275,158.936493 166.579727,157.586945 
	C164.594360,156.734344 162.655930,157.191208 161.406876,159.246887 
	C160.139725,161.332336 160.105438,163.506058 161.773483,165.222931 
	C163.931366,167.443970 166.393448,167.658844 169.090714,164.549850 
z"/>
</svg>