<svg version="1.1" id="Layer_1" xmlns="http://www.w3.org/2000/svg" xmlns:xlink="http://www.w3.org/1999/xlink" x="0px" y="0px"
	 width="100%" viewBox="0 0 384 320" enable-background="new 0 0 384 320" xml:space="preserve">
<path fill="#000000" opacity="1.000000" stroke="none" 
	d="
M297.012756,224.989075 
	C298.472534,230.469101 293.796295,232.556793 290.945099,235.443176 
	C287.707703,238.720520 283.951630,241.485519 280.386658,244.502335 
	C282.243439,249.427704 286.635590,251.195099 290.169800,253.789124 
	C291.732727,254.936234 292.912811,253.169952 294.085724,252.395813 
	C302.421844,246.893860 310.898987,244.379852 320.105957,250.530151 
	C327.393372,255.398193 331.371979,264.904083 329.560394,273.582001 
	C329.170258,275.450928 329.478455,278.104156 326.377136,277.423004 
	C323.833862,276.864410 319.994751,275.805603 321.239777,272.687561 
	C323.323608,267.468811 320.139893,263.933502 318.919159,259.705017 
	C317.613678,255.183090 314.509613,253.408524 310.082825,253.106018 
	C304.629364,252.733368 300.403870,254.973663 296.964874,258.970215 
	C296.169617,259.894409 296.830688,260.843170 297.353455,261.715454 
	C298.035400,262.853333 299.124542,263.954803 299.277771,265.167999 
	C300.216858,272.605194 304.935547,273.939484 311.288391,273.036652 
	C313.347382,272.744080 315.712067,272.830750 315.649536,275.664917 
	C315.586151,278.535980 313.071808,278.184509 311.107086,278.192535 
	C299.944214,278.238159 288.781158,278.237701 277.618347,278.288086 
	C271.834473,278.314209 265.981323,277.588470 260.542725,280.641724 
	C259.215729,281.386719 257.309021,281.188019 255.661880,281.257690 
	C250.022873,281.496216 244.353973,280.887878 238.746902,282.106262 
	C236.246170,282.649658 233.637360,282.155975 231.401855,281.116241 
	C221.991287,276.739502 212.125488,276.994049 202.157974,277.780945 
	C199.336639,278.003662 196.498108,278.179810 193.671448,278.133514 
	C182.723648,277.954315 172.349823,279.302185 161.646667,282.905640 
	C152.434402,286.007111 141.235809,287.896423 132.189133,279.833191 
	C130.569473,278.389587 128.582123,278.324524 126.547447,278.326324 
	C104.736267,278.345490 82.924896,278.292511 61.113960,278.368439 
	C52.881889,278.397064 52.772694,278.562958 50.151112,270.745453 
	C46.941807,261.175354 46.226284,251.644958 50.573952,242.074188 
	C53.749020,235.084747 58.939674,230.781830 66.403870,229.886902 
	C74.317802,228.938065 79.622459,233.963135 83.807938,239.681412 
	C88.017029,245.431915 91.544739,251.699966 94.657219,258.169617 
	C95.564377,260.055237 96.446037,262.153442 98.750366,263.420105 
	C101.492416,261.595032 102.859711,258.451080 105.013931,256.049744 
	C106.505661,254.386917 104.810722,253.059265 103.371033,252.088562 
	C95.714989,246.926468 89.618263,240.209381 84.163643,232.849472 
	C83.866692,232.448822 83.308586,232.125732 83.226906,231.698685 
	C81.590424,223.141830 74.608566,224.909653 68.886757,224.204056 
	C66.850761,223.952988 64.561203,225.038177 62.558788,222.981628 
	C64.217377,219.945984 67.348579,218.402527 69.793587,216.493134 
	C78.371101,209.794571 81.889404,200.104996 86.554108,190.929550 
	C89.701454,184.738754 88.762047,180.804626 83.565262,176.226059 
	C74.723846,168.436462 70.475273,157.467911 66.185097,146.847763 
	C58.349876,127.451981 54.800377,106.944466 51.505619,86.405212 
	C51.242199,84.763062 50.420380,83.003693 52.134007,81.827568 
	C54.112740,80.469475 55.004677,82.713120 56.342888,83.446442 
	C64.323524,87.819717 73.128990,89.807617 81.876144,91.605606 
	C98.755394,95.075157 115.946808,97.336868 131.092834,106.454773 
	C132.398972,107.241074 133.408737,107.351158 134.741562,106.555641 
	C147.158768,99.144203 160.381287,93.956741 174.831909,92.204803 
	C175.285202,92.149849 175.707977,91.843056 176.247177,91.609375 
	C168.788177,88.110046 160.878143,90.614189 151.793747,89.716194 
	C157.277710,84.554146 162.615631,81.650070 168.346741,81.082336 
	C176.861938,80.238808 185.681183,79.292038 193.796692,83.648277 
	C195.548157,84.588425 197.734009,85.159401 198.956680,86.564461 
	C203.110123,91.337456 208.484756,92.951889 214.440491,93.506096 
	C222.691513,94.273888 230.117416,97.707191 237.529922,101.004745 
	C241.159897,102.619591 244.009735,102.921036 247.709473,100.684921 
	C261.773346,92.184776 277.238007,88.078308 293.600922,86.869934 
	C301.713135,86.270859 309.776093,84.977592 317.852448,83.929871 
	C323.097321,83.249466 327.973816,81.880211 330.497772,76.486855 
	C330.856781,75.719673 331.715302,75.390305 334.002167,75.505539 
	C330.032501,111.879066 325.048553,147.485580 297.571198,175.190536 
	C303.377472,187.441940 313.619568,195.093781 325.353241,201.507675 
	C320.216003,204.067932 315.122009,202.474548 310.284058,202.912003 
	C310.294067,211.541550 305.937317,218.263092 300.883087,224.660126 
	C300.069794,225.689438 298.768036,225.433533 297.179291,224.789688 
	C295.716064,221.108032 297.043304,218.540710 298.915771,215.958145 
	C300.816071,213.337189 302.684845,210.611404 303.286926,207.451141 
	C301.274536,205.512451 297.843719,206.492218 296.944580,203.112274 
	C299.242523,199.632294 303.546875,198.676163 307.253754,196.027786 
	C300.558716,191.160248 297.355072,184.095062 292.927643,177.913559 
	C290.030090,173.867996 291.254303,171.810883 294.459839,169.317245 
	C298.663605,166.047043 302.507294,162.389084 305.378845,157.819443 
	C315.741333,141.329346 321.532257,123.153580 324.441772,104.084953 
	C325.224823,98.952919 327.199890,93.833664 326.462158,88.094414 
	C315.899841,89.966995 305.650299,91.729324 295.223389,92.260330 
	C278.707092,93.101448 262.908783,96.929314 248.989578,106.117950 
	C244.094894,109.349152 240.606186,108.864059 235.866898,106.261711 
	C227.846222,101.857544 219.168152,98.981476 210.057159,97.969254 
	C207.849319,102.558975 207.863083,102.479141 204.398163,99.058121 
	C196.789276,91.545685 189.099991,84.094841 176.311325,85.685944 
	C183.110321,87.637230 189.189209,89.696030 193.623627,94.641678 
	C192.310303,96.419907 191.061157,96.207298 189.940018,96.222092 
	C170.355865,96.480362 152.182495,101.561653 135.670135,112.194786 
	C133.453171,113.622406 131.724197,113.218307 129.721725,111.932465 
	C125.514771,109.231079 121.107399,106.874245 116.398636,105.159935 
	C102.582489,100.129913 88.050110,98.147850 73.753769,95.146065 
	C68.675713,94.079834 63.695877,92.545776 58.159199,91.090721 
	C58.941254,95.370026 59.628460,98.936546 60.241272,102.515800 
	C63.554356,121.866531 67.462105,141.107574 77.351158,158.352493 
	C81.672386,165.888031 86.149506,173.626877 93.823967,178.604202 
	C97.013283,180.672653 96.030113,183.497131 94.860512,186.152084 
	C91.452339,193.888504 87.477455,201.416550 84.680359,209.362656 
	C83.369980,213.085251 79.187843,214.605164 78.575714,218.827499 
	C79.650398,219.153870 80.400970,219.532532 81.176331,219.592896 
	C86.316132,219.993134 89.140770,222.069412 87.988228,227.837860 
	C87.755234,229.003983 88.794228,230.799347 89.775032,231.771851 
	C95.999382,237.943359 101.781700,244.658630 109.747581,248.797958 
	C111.449265,249.682220 113.148254,250.209763 114.969223,249.205200 
	C124.041603,244.200256 134.021271,242.401718 144.110214,241.151581 
	C158.132324,239.414093 168.722763,245.649063 174.687103,258.485626 
	C176.739197,262.902161 175.712219,267.657990 177.021545,272.445312 
	C183.599930,273.148224 190.219040,273.270325 196.858826,272.955566 
	C203.849106,272.624146 210.896439,271.975647 217.805618,273.165802 
	C222.035706,273.894440 222.653427,272.553192 222.444153,268.805908 
	C221.941498,259.805634 225.387665,252.694443 233.248520,247.856354 
	C242.273788,242.301605 252.018295,241.739197 262.136047,243.318405 
	C264.918732,243.752701 267.727509,244.418976 270.420135,242.903488 
	C277.702820,238.804642 284.569702,234.117325 290.045227,227.738220 
	C292.023376,225.433609 294.122192,224.471878 297.012756,224.989075 
M123.999641,273.684143 
	C126.876236,274.304047 128.545532,272.482880 130.087723,270.139221 
	C134.803741,273.492920 137.698257,279.392242 144.172623,278.947205 
	C152.562164,278.370422 151.078751,271.191864 152.300354,265.429901 
	C157.556808,269.272003 155.488205,274.365479 155.589050,279.288300 
	C159.789474,278.584442 161.886749,275.983582 163.426086,272.748840 
	C164.912750,269.624786 162.749222,265.944580 164.601974,262.281799 
	C168.038162,265.250793 168.152985,268.900635 168.487579,272.710327 
	C170.591766,271.146454 170.609024,269.302856 170.640579,267.524841 
	C170.795822,258.770935 164.072876,249.830292 155.546722,247.388733 
	C141.766159,243.442520 115.731178,252.019699 106.954155,263.217804 
	C104.636414,266.174866 103.787041,269.279480 104.195023,273.686554 
	C110.547859,273.686554 116.827339,273.686554 123.999641,273.684143 
M235.650421,265.257874 
	C238.361084,265.577332 237.069656,267.826355 237.448700,269.187164 
	C238.769272,273.928223 241.568710,275.962402 246.516205,275.419739 
	C247.664688,272.442230 245.207352,268.378510 248.818497,266.024567 
	C250.539230,266.690613 250.113174,268.057648 250.363052,269.109253 
	C251.973557,275.886871 256.225098,277.719940 262.165405,274.111359 
	C263.580780,273.251556 264.880768,272.192841 266.188477,271.167725 
	C267.169495,270.398682 268.140015,269.868591 269.345886,270.642029 
	C277.399719,275.807495 285.881073,271.571014 294.173737,272.745056 
	C294.809021,267.142273 292.660065,263.589478 289.141235,261.167908 
	C285.352631,258.560638 281.918457,255.654144 277.442963,253.651505 
	C268.632477,249.709152 259.736298,248.045029 250.380478,248.280411 
	C237.995834,248.591965 230.258316,254.448822 227.755722,264.749207 
	C226.459686,270.083527 228.753204,274.222198 234.035599,275.875671 
	C234.364777,272.473755 232.608139,268.876160 235.650421,265.257874 
M95.839188,272.637146 
	C90.244476,262.105988 84.537170,251.616470 77.387268,242.053375 
	C70.761131,233.190796 60.754799,234.800690 56.272476,244.950256 
	C52.268559,254.016541 53.636063,262.686279 57.230530,271.397095 
	C57.823162,272.833282 58.678349,273.569611 60.175594,273.554871 
	C71.938026,273.438873 83.712234,274.355164 95.839188,272.637146 
z"/>
<path fill="#000000" opacity="1.000000" stroke="none" 
	d="
M150.093414,181.788605 
	C153.899506,184.619003 158.075409,185.896088 161.988983,187.663071 
	C166.681381,189.781677 169.293030,187.895813 169.178543,182.660233 
	C169.139664,180.881882 168.261520,179.052765 170.246780,176.785416 
	C173.701523,180.372009 171.817368,185.439438 174.158844,189.012924 
	C169.630463,189.854660 167.508072,193.116714 166.838120,196.787689 
	C163.176208,216.853195 144.659668,227.915619 125.113251,221.611771 
	C114.595055,218.219589 105.985664,213.121048 104.024109,201.010895 
	C103.022537,194.827408 102.773338,188.821335 106.620575,183.388779 
	C107.061020,182.766846 108.114693,182.341766 107.322678,181.357529 
	C103.695564,176.850128 107.641182,175.499924 110.554245,174.181152 
	C119.239494,170.249298 127.818665,171.871048 136.187668,175.362259 
	C140.782837,177.279144 145.236053,179.536316 150.093414,181.788605 
M155.732056,201.688049 
	C152.472122,211.007889 145.176788,215.759140 135.119934,218.828323 
	C150.879700,218.396988 160.166687,212.193344 162.990555,201.008972 
	C164.406662,195.400223 163.654877,194.083344 157.744034,191.947433 
	C155.212219,194.545319 156.979706,198.004074 155.732056,201.688049 
M137.664597,186.548355 
	C138.819031,189.653931 139.963318,193.160797 144.292511,191.555725 
	C145.921875,190.951630 147.658386,188.993790 147.207031,186.794296 
	C146.799957,184.810577 144.641586,184.414749 142.979630,183.738525 
	C140.579391,182.761856 138.782059,183.366684 137.664597,186.548355 
z"/>
<path fill="#000000" opacity="1.000000" stroke="none" 
	d="
M217.278992,214.115784 
	C209.283234,210.259583 203.010971,205.373383 201.491394,196.315491 
	C201.141479,194.229782 199.452896,193.597778 197.763855,192.725754 
	C191.470596,189.476700 189.882629,183.085876 193.837448,177.380005 
	C196.000702,178.318207 195.315781,180.180099 194.942108,181.611145 
	C194.229935,184.338638 195.474365,186.115143 197.338593,187.690948 
	C199.468277,189.491180 201.531952,188.243652 203.338440,187.174011 
	C208.776993,183.953751 214.062897,180.476379 219.489120,177.234467 
	C227.796600,172.271164 236.262482,167.703796 246.099396,166.401077 
	C249.497314,165.951080 252.858017,166.220490 255.994812,167.111206 
	C259.493469,168.104660 263.537506,168.424225 263.519012,174.350159 
	C263.507172,178.144287 267.575287,181.276001 268.506531,185.544067 
	C270.135284,193.009369 267.525116,198.781799 262.164459,203.339722 
	C249.215820,214.349289 234.543289,219.012497 217.278992,214.115784 
M261.247314,179.208374 
	C259.541382,174.907486 256.321808,173.328186 250.247437,173.837173 
	C257.544739,184.495117 257.915985,195.057724 251.339249,206.088974 
	C264.883881,199.530930 268.201141,190.458603 261.247314,179.208374 
M216.801880,187.936615 
	C218.965073,190.772903 220.883987,189.300110 222.493362,187.416519 
	C223.406006,186.348358 224.568314,184.658905 222.880356,183.485870 
	C220.715286,181.981277 219.217239,184.091949 217.694794,185.198547 
	C217.120224,185.616196 216.959793,186.603622 216.801880,187.936615 
z"/>
<path fill="#000000" opacity="1.000000" stroke="none" 
	d="
M69.019608,108.287994 
	C69.370651,105.243858 70.782692,104.826538 73.267982,105.227821 
	C81.019791,106.479477 88.349396,109.236465 95.899300,111.191643 
	C103.627785,113.193062 111.082718,115.836441 118.005699,119.847954 
	C119.367737,120.637192 121.451813,121.175613 120.809799,123.374855 
	C120.228348,125.366653 118.217506,125.291496 116.605942,125.302948 
	C113.282501,125.326569 109.958000,125.109894 106.632942,125.039307 
	C105.119064,125.007172 103.400589,124.996582 102.716568,126.610039 
	C101.829369,128.702728 103.777916,129.593811 105.036522,130.483841 
	C106.367363,131.424973 107.977066,131.982819 109.489258,132.653290 
	C110.968704,133.309265 112.805481,133.548370 112.822105,136.153961 
	C109.099075,138.301331 106.920303,135.779144 104.766579,133.318710 
	C103.755348,132.163483 103.239563,129.753189 101.108650,131.213211 
	C99.389313,132.391235 100.245354,134.243622 101.143082,135.699997 
	C103.982117,140.305725 105.468567,145.082535 105.551781,150.695221 
	C105.647324,157.139526 104.216576,162.292114 98.395729,166.170609 
	C97.271683,162.720322 94.917892,161.209915 91.184471,160.320389 
	C87.874557,159.531784 86.196518,155.339493 84.970871,152.315872 
	C80.306122,140.808060 73.214905,130.329834 70.431076,118.026718 
	C69.733299,114.942894 68.715706,111.936440 69.019608,108.287994 
z"/>
<path fill="#000000" opacity="1.000000" stroke="none" 
	d="
M308.868896,114.337967 
	C307.730438,111.920212 306.410706,110.257698 303.783478,110.645050 
	C295.809479,111.820709 287.964905,112.582611 280.275604,116.145119 
	C274.242371,118.940369 266.752075,117.927895 258.991699,115.909988 
	C263.620422,110.901039 268.629303,108.039383 273.458588,105.166367 
	C281.649658,100.293373 290.944366,98.337303 300.173706,96.392517 
	C304.683990,95.442131 309.073120,97.023918 313.505798,97.353050 
	C316.669159,97.587929 317.744598,100.677788 317.222870,103.895172 
	C316.270203,109.770119 312.742584,114.850517 312.732941,121.501793 
	C309.108826,119.702576 310.198029,116.628418 308.868896,114.337967 
z"/>
<path fill="#000000" opacity="1.000000" stroke="none" 
	d="
M294.309387,136.887360 
	C297.076141,145.865295 296.320618,153.559265 288.493500,159.338425 
	C283.314148,163.162598 279.745483,161.765717 277.304901,155.937027 
	C275.296936,151.141586 274.575409,146.336807 275.172821,141.372864 
	C275.810425,136.074768 278.700195,132.062836 283.711823,129.081055 
	C285.235962,132.364471 287.349426,134.140213 290.754242,134.006744 
	C292.388275,133.942688 293.486786,135.045547 294.309387,136.887360 
z"/>
<path fill="#000000" opacity="1.000000" stroke="none" 
	d="
M161.927948,236.289673 
	C164.641647,228.933746 170.017593,224.634628 176.346588,221.276108 
	C178.378189,220.198044 180.863510,219.525574 180.735168,216.504837 
	C180.616669,213.715622 178.036072,214.028900 176.398361,213.138641 
	C173.194595,211.397110 170.409393,209.244736 170.817551,205.088165 
	C171.210220,201.089386 174.613312,200.432266 177.626923,199.521088 
	C178.726089,199.188751 179.923904,199.119370 181.083298,199.061050 
	C184.993881,198.864365 189.195099,198.714310 190.807953,203.184952 
	C192.292435,207.299789 189.748672,210.136063 186.390976,212.213333 
	C185.141724,212.986176 184.448074,213.769241 184.841110,215.436966 
	C185.422897,217.905502 186.976776,219.342484 189.282913,219.523865 
	C193.327698,219.841949 197.203186,220.833374 200.888092,222.328278 
	C205.751801,224.301437 210.140869,227.034897 212.572968,232.072266 
	C210.132553,233.741287 209.310104,232.306458 208.227921,231.281326 
	C201.528351,224.934875 192.843002,222.169937 184.366562,222.949188 
	C177.401382,223.589523 170.890045,228.252884 166.977905,235.009094 
	C166.394318,236.016907 165.922241,237.088776 165.354248,238.106277 
	C164.854568,239.001358 164.200104,239.901474 163.042068,239.585861 
	C161.518082,239.170502 161.897446,237.792770 161.927948,236.289673 
z"/>
<path fill="#000000" opacity="1.000000" stroke="none" 
	d="
M275.542847,126.637100 
	C269.808319,129.293152 269.808319,129.293152 265.313507,127.958763 
	C269.162628,123.223885 274.485291,122.121597 279.540283,120.592560 
	C280.377930,120.339195 281.203156,120.884041 281.400452,121.819237 
	C281.620392,122.861519 281.271362,123.939117 280.397980,124.449341 
	C278.983521,125.275658 277.408203,125.826714 275.542847,126.637100 
z"/>
</svg>