<svg version="1.1" id="Layer_1" xmlns="http://www.w3.org/2000/svg" xmlns:xlink="http://www.w3.org/1999/xlink" x="0px" y="0px"
	 width="100%" viewBox="0 0 384 320" enable-background="new 0 0 384 320" xml:space="preserve">
<path fill="#000000" opacity="1.000000" stroke="none" 
	d="
M181.097473,278.227722 
	C174.964340,277.109680 170.325928,279.948334 165.487503,282.056915 
	C161.350311,283.859894 156.947357,283.665161 152.600296,284.183044 
	C143.975189,285.210632 136.562317,284.918274 130.002182,278.693787 
	C129.258606,277.988281 127.433334,278.341766 126.109550,278.340912 
	C104.782555,278.327026 83.455513,278.311859 62.128571,278.349365 
	C52.807171,278.365753 52.865627,278.399200 49.730812,269.324280 
	C46.797592,260.832977 46.658512,252.438507 49.811131,243.949188 
	C52.573139,236.511688 57.385345,230.913727 65.356712,230.126724 
	C73.263824,229.346054 79.170288,234.027451 83.615959,240.315140 
	C88.988670,247.913971 93.490135,256.065491 98.529152,265.107910 
	C105.477715,254.820053 114.646088,248.476257 126.323944,244.957550 
	C123.217804,241.050049 119.621994,239.962555 116.569710,238.163208 
	C109.840759,234.196457 104.114532,229.206390 98.285660,223.960175 
	C91.298973,217.671890 86.796532,210.710358 83.951370,202.168594 
	C83.281906,200.158691 81.428940,200.225983 79.830528,199.949890 
	C75.163933,199.143799 70.487549,198.394348 66.053642,197.662094 
	C65.594368,195.804581 66.453537,195.155106 67.379456,194.819168 
	C80.251076,190.149200 86.848282,179.458969 93.431770,168.473618 
	C96.518692,163.322723 95.752701,160.105499 92.017982,155.644135 
	C83.488251,145.454834 79.876808,132.995056 77.736397,120.060501 
	C74.438461,100.131020 76.014030,80.228027 77.948944,60.327522 
	C78.231758,57.418716 78.292549,54.386707 79.805870,51.967178 
	C81.249237,51.403923 82.117348,51.972412 82.780540,52.716251 
	C92.317558,63.412964 104.983261,69.407616 117.403603,75.753418 
	C126.595436,80.449707 135.635223,85.360435 143.113190,92.642876 
	C145.114349,94.591698 147.169510,95.271790 149.860672,93.994827 
	C164.105896,87.235451 179.126572,84.142403 194.891098,84.665497 
	C195.348083,84.680664 195.811661,84.496292 196.964386,84.267670 
	C189.459427,80.535416 181.764450,80.265030 174.557312,79.755730 
	C174.223297,77.510376 174.864334,76.768478 175.865479,76.398956 
	C191.464462,70.641487 210.764542,70.598648 224.528351,87.958694 
	C225.289703,88.918968 226.191528,89.471153 227.364990,89.830261 
	C233.750504,91.784393 239.781235,94.551918 245.395660,98.163506 
	C247.309265,99.394478 249.007812,99.921257 250.657623,97.933823 
	C262.551880,83.605278 279.469818,77.551590 295.769867,70.448097 
	C300.037628,68.588211 304.225372,66.512192 308.317719,64.291885 
	C311.892639,62.352333 313.513885,58.556599 315.718384,54.419037 
	C319.484314,58.748215 318.624542,63.428162 318.972504,67.329491 
	C320.510834,84.578560 321.009125,101.914650 318.385071,119.112022 
	C315.767731,136.265045 310.880432,152.547409 297.587555,164.760880 
	C305.558044,178.313263 312.648438,192.120163 327.559204,200.258591 
	C321.805450,202.910858 317.444122,199.485641 312.856750,199.341248 
	C312.816925,206.783600 309.221100,212.566330 304.877777,218.125717 
	C297.190674,227.965073 287.567200,235.368713 276.017761,240.875549 
	C279.778381,246.840378 284.900574,250.380875 289.984436,253.942688 
	C291.441803,254.963699 292.402954,253.640686 293.501892,252.955231 
	C297.741821,250.310532 301.975464,247.429428 307.094391,247.014389 
	C323.660156,245.671280 332.513489,262.523926 329.334259,275.321625 
	C328.937927,276.917206 328.181549,277.714050 326.595917,277.463562 
	C324.609436,277.149841 323.132172,276.276764 323.354675,273.877655 
	C323.936890,267.599213 321.630524,262.307587 318.053833,257.285675 
	C315.055603,253.075943 310.933838,252.778366 306.497009,253.195969 
	C302.414154,253.580261 299.650269,256.337555 296.920959,259.013947 
	C296.284943,259.637604 296.616516,260.566864 296.966309,261.362457 
	C298.549011,264.962097 300.933289,268.170837 301.830383,272.132446 
	C302.113281,273.381714 303.909729,273.608032 305.307495,273.540375 
	C307.795258,273.419861 310.288757,273.365753 312.768646,273.152985 
	C314.412415,273.011963 315.354706,273.677917 315.595398,275.229797 
	C315.841827,276.818817 315.000092,277.803497 313.469604,278.042572 
	C312.326324,278.221252 311.145996,278.199066 309.981934,278.202667 
	C298.985199,278.236603 287.988342,278.244263 276.991669,278.286285 
	C271.540527,278.307129 266.303772,278.496521 260.874512,280.393890 
	C255.897614,282.133179 249.958298,280.878204 244.633331,281.917572 
	C236.482391,283.508606 229.476929,279.623138 221.956406,278.256989 
	C212.495651,276.538391 203.036530,278.211304 193.577286,278.196503 
	C189.578583,278.190216 185.579834,278.215973 181.097473,278.227722 
M167.006393,247.440704 
	C174.492111,254.389465 176.848465,263.183563 175.572647,272.667511 
	C190.482956,274.414551 204.788071,271.315521 219.049850,273.475372 
	C222.554779,274.006195 222.690689,271.676605 222.590485,269.060150 
	C222.053055,255.025269 233.273605,242.365646 247.502014,242.983414 
	C260.310364,243.539490 270.321472,237.855316 280.419983,231.813995 
	C283.873047,229.748245 288.471100,228.256058 289.087585,222.968018 
	C289.257660,221.509186 291.129547,221.739777 292.453156,221.496277 
	C296.942291,220.670471 306.665283,208.898346 305.520416,204.719925 
	C304.127167,199.635162 304.830658,196.000305 310.064392,193.184433 
	C304.362457,186.498184 299.792358,179.604889 295.386200,172.611710 
	C289.940704,163.968964 290.171356,162.899292 297.627716,156.421738 
	C298.253113,155.878418 298.912872,155.327499 299.380981,154.657394 
	C306.045715,145.117050 310.417358,134.574783 312.649597,123.189888 
	C315.328918,109.524750 314.808350,95.664093 314.654022,81.850838 
	C314.603333,77.312508 313.889954,72.781586 313.427765,67.673882 
	C309.353638,69.748840 305.974670,71.484146 302.583099,73.194328 
	C293.241974,77.904457 282.974609,80.521591 273.994385,86.095444 
	C267.188324,90.319839 260.424957,94.546570 255.336380,100.865417 
	C250.977371,106.278297 250.367508,106.104057 244.097702,103.373657 
	C238.240540,100.822952 233.475357,94.836906 225.883667,96.979080 
	C225.288223,97.147102 224.202545,96.078682 223.533218,95.399208 
	C220.268845,92.085297 217.032089,88.742310 213.855850,85.343933 
	C210.710571,81.978691 206.728256,80.491837 202.281830,79.841621 
	C206.272766,83.856567 212.195694,85.528893 215.275772,90.554993 
	C213.758926,92.274857 212.236023,91.517693 210.828156,91.293350 
	C203.278549,90.090363 195.797272,89.263084 188.048859,89.988983 
	C174.181152,91.288139 160.642960,93.325874 148.666824,101.066818 
	C146.139694,102.700256 144.274277,102.055565 142.590393,100.006042 
	C140.467957,97.422760 138.069305,95.158524 135.522385,92.987053 
	C120.078621,79.819969 99.815994,74.676361 84.054382,61.258564 
	C83.652893,62.523502 83.411247,63.104305 83.284973,63.709190 
	C80.362724,77.707336 80.832527,91.909729 81.392769,106.022232 
	C82.154785,125.217636 87.193398,143.123245 100.418640,157.847061 
	C102.392097,160.044128 102.746964,162.179306 101.329369,164.639542 
	C95.590469,174.599396 91.727348,185.826706 80.931244,193.787003 
	C87.352501,194.305862 90.374001,198.863846 94.974442,200.976929 
	C93.874557,202.734909 91.620377,201.568176 90.965530,203.558624 
	C91.969780,206.787964 93.521637,209.813843 95.527359,212.736801 
	C103.833328,224.841171 116.237411,231.591461 128.641022,238.296677 
	C133.816696,241.094559 139.241150,241.898804 145.434143,241.091705 
	C152.868744,240.122772 160.384995,241.707947 167.006393,247.440704 
M124.826668,273.622253 
	C127.596092,274.268097 127.662033,270.696472 129.774261,270.231201 
	C131.985687,272.216125 133.998001,274.189270 136.185379,275.944244 
	C139.039337,278.233978 142.043320,280.756226 146.013718,278.736572 
	C149.917282,276.750854 151.800034,273.384857 151.484940,268.917358 
	C151.404327,267.774628 151.164307,266.575043 152.386398,265.799042 
	C155.162476,268.965302 155.162476,268.965302 155.316071,279.264954 
	C163.838028,277.194916 164.094101,270.318634 163.759750,262.999908 
	C168.709106,265.321838 167.035095,269.675385 168.768509,272.380341 
	C169.700729,272.220245 169.746201,271.505066 169.896515,270.882812 
	C172.732452,259.143005 163.128555,246.723099 150.131042,246.370972 
	C134.499207,245.947495 120.593369,251.129105 108.792114,261.546753 
	C106.640533,263.446075 105.375809,265.955780 104.223473,268.591522 
	C102.661003,272.165405 103.874809,273.622681 107.473396,273.645447 
	C112.970314,273.680237 118.467621,273.651184 124.826668,273.622253 
M252.564102,248.219681 
	C251.399612,248.217133 250.225906,248.117615 249.072037,248.227020 
	C237.457520,249.328323 231.667480,253.498718 227.943542,264.590546 
	C226.092560,270.103790 228.870911,274.651489 234.572662,276.244568 
	C234.092972,272.400940 232.168854,268.322174 236.158188,264.796082 
	C239.992722,275.366913 240.886688,276.231598 247.033463,275.632538 
	C247.566956,272.448029 244.886337,268.420502 249.393539,266.013153 
	C252.975479,277.510529 254.193909,278.057404 264.505280,272.643921 
	C266.275055,271.714783 267.787384,271.789093 269.699951,272.169312 
	C277.862701,273.792084 286.041626,273.136444 294.499756,272.333252 
	C293.948517,263.022339 287.439178,258.703186 281.145538,255.248627 
	C272.713287,250.620193 263.355103,248.044739 252.564102,248.219681 
M57.253662,242.896057 
	C52.670174,251.732468 52.790524,260.616608 56.476978,269.775452 
	C57.696865,272.806183 59.273792,273.674896 62.376308,273.626923 
	C71.843155,273.480499 81.315002,273.688629 90.784561,273.657166 
	C92.504166,273.651459 94.455566,274.313263 96.132706,272.486481 
	C90.377625,262.666534 85.053780,252.550812 78.302376,243.320145 
	C71.651550,234.227020 65.252609,233.983566 57.253662,242.896057 
z"/>
<path fill="#000000" opacity="1.000000" stroke="none" 
	d="
M236.995087,196.290985 
	C229.763306,193.144547 223.004059,189.387741 221.037003,181.782242 
	C219.421799,175.537109 217.204330,170.196640 213.182068,165.068100 
	C209.911743,160.898331 211.759842,155.746033 215.853897,153.392975 
	C217.105927,155.275970 215.494339,156.869141 215.303162,158.588379 
	C215.026382,161.077515 215.405945,163.259445 217.561111,164.788177 
	C219.500351,166.163712 221.237427,165.426071 223.088821,164.327545 
	C232.502014,158.742279 241.808533,153.053040 252.420303,149.715164 
	C260.087982,147.303329 267.150391,148.457855 274.318939,151.010406 
	C275.425629,151.404465 276.828186,151.882050 276.825684,153.159531 
	C276.813324,159.409119 280.980133,164.141083 282.704956,169.771545 
	C285.089386,177.555420 281.482788,188.643417 274.484100,192.529541 
	C262.684845,199.081223 250.270737,200.154770 236.995087,196.290985 
M224.515350,181.713181 
	C229.567261,190.989563 243.365219,197.451340 252.840927,194.435074 
	C246.314072,192.411713 240.402328,190.445297 236.173065,185.289871 
	C231.959198,180.153229 230.038284,174.106476 228.856735,167.819427 
	C222.617722,168.948959 222.011414,174.489487 224.515350,181.713181 
M246.990387,161.408203 
	C244.980637,159.224442 242.929413,158.608551 240.638458,161.081207 
	C239.049759,162.795914 237.994156,164.526337 239.452454,166.845947 
	C240.890396,169.133194 243.221039,169.483688 245.106339,168.309448 
	C247.209396,166.999542 249.775192,165.155823 246.990387,161.408203 
z"/>
<path fill="#000000" opacity="1.000000" stroke="none" 
	d="
M160.161163,196.412109 
	C148.280792,199.257477 137.647690,197.240189 127.732338,190.965195 
	C118.940392,185.401138 115.310371,172.988419 119.181358,162.618439 
	C120.579727,158.872360 123.374771,155.489563 122.163246,150.879364 
	C121.652351,148.935287 124.071953,148.494629 125.580978,147.911530 
	C136.153061,143.826401 146.261871,146.054962 156.043793,150.522125 
	C162.979721,153.689590 169.726013,157.211868 175.852737,161.923386 
	C181.391083,166.182373 185.703293,164.161682 186.714951,157.376465 
	C186.919601,156.003922 186.208969,154.344131 187.793915,153.317062 
	C191.186020,156.785217 190.610413,163.509369 185.856018,167.496536 
	C183.067337,169.835205 182.305771,172.190475 182.190216,175.577606 
	C181.905563,183.920074 176.909058,189.372986 169.954620,193.050446 
	C167.068665,194.576523 163.968063,196.018463 160.161163,196.412109 
M150.407623,194.389191 
	C152.717484,194.131393 155.119705,194.201248 157.071198,193.002060 
	C148.597778,189.349396 139.332993,187.758453 133.786942,179.359116 
	C128.046005,170.664658 129.766296,161.851929 133.834427,152.774353 
	C130.407410,152.891693 128.416428,153.967636 126.764565,155.720764 
	C123.913277,158.746872 123.052773,162.763870 121.806175,166.495438 
	C119.785027,172.545578 122.932961,182.783112 127.539757,186.529312 
	C134.155090,191.908783 141.361450,194.218353 150.407623,194.389191 
M164.486511,165.172974 
	C166.226166,165.803574 167.948151,166.321350 169.538528,164.183060 
	C167.674210,161.333969 165.495941,159.528488 161.841644,160.793625 
	C161.461075,162.973907 163.123734,163.599701 164.486511,165.172974 
z"/>
<path fill="#000000" opacity="1.000000" stroke="none" 
	d="
M303.183350,93.572319 
	C299.989685,92.663383 297.618256,94.114265 295.328674,95.376823 
	C289.238251,98.735321 282.769104,101.298492 277.161896,105.697769 
	C272.813782,109.109169 266.722870,108.679695 261.461731,110.127914 
	C259.176910,110.756836 258.308960,108.198685 260.021454,106.475815 
	C266.828522,99.627449 273.126282,92.378204 282.293457,88.037224 
	C287.232391,85.698463 292.209900,83.690941 297.284607,81.765450 
	C304.236725,79.127602 306.960571,80.758522 307.042542,88.024246 
	C307.077515,91.124634 307.727051,94.307617 306.118439,97.851898 
	C305.112152,96.266411 304.308105,94.999603 303.183350,93.572319 
z"/>
<path fill="#000000" opacity="1.000000" stroke="none" 
	d="
M174.045547,210.108032 
	C176.420822,202.792923 182.245850,199.992569 188.438751,197.740082 
	C190.925354,196.835678 193.549423,196.274567 196.144608,195.712875 
	C198.797516,195.138687 199.084259,192.938400 200.119843,190.933411 
	C197.979202,189.682922 195.838669,188.901779 194.348145,187.452225 
	C192.092072,185.258224 189.736893,182.460831 191.312927,179.127655 
	C193.087418,175.374741 197.247421,176.187622 200.576981,175.663834 
	C201.320755,175.546829 202.154205,176.138275 202.967102,176.297913 
	C206.105240,176.914078 210.150757,176.241257 210.719421,180.864471 
	C211.214661,184.890656 208.269424,187.124573 205.484879,189.296906 
	C204.837570,189.801895 204.181793,190.296051 203.400787,190.894043 
	C204.063187,194.608337 206.703232,195.474976 209.837402,195.948212 
	C217.351242,197.082672 224.609695,198.888824 229.573456,205.348663 
	C230.691208,206.803299 232.626358,208.247528 230.950623,210.445404 
	C229.932663,210.948898 229.138733,210.653427 228.673599,209.897430 
	C224.822845,203.638718 218.326843,202.242371 211.960953,200.035583 
	C202.905289,196.896378 194.758362,199.946106 186.498947,202.402954 
	C182.261307,203.663498 179.310074,207.025208 177.007904,210.854706 
	C175.905930,212.687744 174.497681,214.433502 174.045547,210.108032 
z"/>
<path fill="#000000" opacity="1.000000" stroke="none" 
	d="
M268.723389,118.734955 
	C271.763855,112.638542 274.506409,111.045197 279.791504,111.952156 
	C278.630219,116.184761 273.631409,119.409660 268.723389,118.734955 
z"/>
</svg>