<svg xmlns="http://www.w3.org/2000/svg" width="384" height="320" fill="#000" xmlns:v="https://vecta.io/nano"><path d="M215.386 276.892c-7.125-1.617-13.706.463-20.356.445-32.665-.085-65.33.023-97.995.057-10.152.01-20.315.278-30.448-.15-3.502-.148-9.921 2.527-10.009-2.309-.077-4.279 6.333-1.678 9.807-2.085 5.405-.633 10.927.385 16.872-.56-1.201-7.734-2.416-15.244-2.846-22.837-.15-2.655-.639-5.306-.605-7.954.037-2.961-.648-5.359-2.619-7.748-3.093-3.748-3.462-8.622-3.876-13.239-.28-3.124-1.232-4.972-4.135-6.617-4.38-2.483-8.67-5.386-11.907-9.706.76-.598 1.178-1.178 1.471-1.121 9.564 1.872 15.07-4.313 20.734-10.297 6.736-7.116 11.593-13.33 3.812-23.963-6.532-8.926-7.236-20.817-7.724-32.14-.884-20.519 2.468-40.447 7.348-60.222.239-.967.569-1.919.95-2.839.174-.42.576-.746.79-1.009 1.195-.338 1.76.386 2.195 1.045 7.17 10.846 17.339 18.354 28.169 25.031 9.861 6.079 18.935 13.034 26.331 22.006 1.589 1.927 2.858 2.304 5.447 1.397 33.572-11.753 64.832-6.275 94.084 13.141 2.084 1.383 3.678 3.296 6.465.912 11.975-10.24 26.558-14.975 41.346-19.244 4.155-1.2 8.207-2.775 12.391-3.85 5.99-1.539 10.194-5.193 12.684-10.592 2.296.787 2.228 2.25 2.23 3.508.047 23.426-1.505 46.653-10.174 68.755-4.534 11.558-10.262 22.48-20.539 30.173-2.717 2.033-1.92 4.182-.907 6.608 5.021 12.026 11.011 23.507 18.887 33.943.376.498.608 1.105 1.201 2.209-5.003-.131-7.671-4.593-12.635-4.847 2.402 1.935 1.457 3.609.22 5.269-2.784 3.737-5.308 7.707-8.406 11.161-3.489 3.891-1.409 7.521-.071 11.128 1.306 3.523 4.465 1.88 6.965 1.868l17.995-.11c1.808.007 4.021-.026 3.955 2.629-.066 2.622-2.218 2.482-4.066 2.487-12.166.035-24.334-.071-36.497.115-11.442.175-22.815 1.217-34.024 3.685-2.311.508-4.928.858-6.818-.554-4.646-3.47-9.995-3.094-15.691-3.577zm64.809-152.098c-11.864 4.061-23.622 8.317-32.411 17.93-1.994 2.182-3.805 2.115-5.885-.034-7.129-7.362-16.028-11.936-25.555-15.166-23.703-8.037-47.459-10.155-71.033.599-2.904 1.325-4.579.31-6.187-2.13-3.513-5.329-7.96-9.86-13.009-13.725-12.899-9.875-27.677-17.223-39.141-29.937l-1.009 2.997c-4.484 15.349-4.738 31.131-5.326 46.952-.311 8.365 2.689 16.098 2.864 24.271.024 1.116.548 2.267 1.02 3.321 2.584 5.773 5.057 11.613 9.041 16.624 1.319 1.658 2.38 3.369.77 5.372-5.825 7.245-10.951 15.083-18.244 21.087-1.951 1.606-4.594 2.677-5.507 5.381 8.627 6.039 8.627 6.039 13.245-2.639 3.391-6.371 9.7-9.122 16.872-7.011 3.646 1.073 7.059 1.783 10.593-1.003-3.651-13.814 3.381-23.811 12.924-32.291 15.133-13.449 41.758-5.915 46.655 13.685 5.509 22.051-.554 35.409-26.157 36.053-3.718.093-7.441.013-11.077.013 4.666 8.198 4.132 14.499-2.348 21.628-1.699 1.869-2.026 3.536-1.544 5.843 1.669 7.977 3.53 15.937 4.656 23.996.725 5.19 3.18 6.245 7.963 6.209 17.988-.134 35.948-1.322 53.952-1.073 6.257.086 12.553-.986 18.898-.912 4.111.049 7.172-1.003 7.755-6.711.876-8.572 5.873-15.107 14.202-18.445 13.738-5.507 28.212-2.127 38.272 8.772.953 1.033 1.609 2.628 3.411 2.526 5.343-5.671 5.35-5.67 6.154-14.777.132-1.487 1.225-2.274 2.105-3.266 1.075-1.213 3.089-1.338 3.694-3.198-4.276-8.299-8.545-16.567-12.272-25.131-2.032-4.667-1.181-7.652 2.76-10.057 9.947-6.067 14.848-15.954 19.401-25.93 5.664-12.409 7.336-25.862 9.014-39.246.835-6.662 1.791-13.35.595-20.349l-14.554 5.018c-4.911 1.581-9.879 2.982-15.556 4.755zM125.989 248.262c-.158-1.491-.159-3.018-.502-4.465-1.082-4.566-1.655-8.716 3.383-11.731 1.874-1.121 2.536-3.784 2.85-6.189 1.041-7.974-8.544-10.511-9.055-17.904-.167-2.418-3.387-3.423-5.802-4.218-4.297-1.415-7.7.627-10.747 3.082-11.228-7.093-18.185-3.776-18.856 9.242-4.165-.32-6.856 1.789-7.602 5.975-.762 4.276.135 7.939 4.365 10.137 1.608.836 1.642 2.263 1.453 3.874-1.301 11.084.956 21.868 2.79 32.693.52 3.07 2.259 4.058 5.222 4.032l33.994-.082c.974-.003 2.044.068 2.828-1.505l-4.32-22.941zm144.56 23.704c7.786.2 8.188-.519 5.274-7.652-3.294-8.064-9.554-12.227-17.547-14.815-13.013-4.215-26.894 1.979-30.465 13.984-1.906 6.405 1.196 11.595 7.404 12.09-1.522-3.734-2.643-7.432 1.157-11.687 1.581 6.21 3.626 11.26 10.83 10.317 1.301-2.851-1.025-6.34 1.543-8.788 1.766.894 1.583 2.46 2.184 3.591 2.888 5.437 7.391 6.131 11.612 1.706 4.728-4.955 4.871-4.935 8.008 1.254zm-155.925-76.284c1.012 3.136 3.388 3.618 6.338 3.429-.193-3.407-2.108-6.159-2.104-9.396.012-11.59 8.315-21.84 19.867-24.363 9.863-2.154 20.981 3.914 25.31 14.418 3.456 8.386 4.201 17.209-1.973 24.618-5.696 6.836-13.777 6.568-21.718 4.615-4.407-1.085-8.712-2.589-13.248-3.96.782 2.619 1.828 4.473 4.567 5.016 8.104 1.606 16.29 1.978 24.249-.093 10.918-2.841 14.786-10.642 12.931-24.434-2.053-15.26-14.991-25.421-29.549-23.205-15.243 2.32-27.559 18.467-24.669 33.355zM151.4 184.12c-.704 2.909-.217 5.39 2.902 6.469 2.121.734 4.044-.024 5.051-2.056 1.129-2.28.988-4.658-1.179-6.274-2.41-1.798-4.661-1.212-6.774 1.861zm98.086-18.196l3.965 5.557c1.072 1.39 1.34 2.851-.053 3.948-1.744 1.373-2.837-.256-3.529-1.469-2.453-4.304-5.207-8.239-10.627-8.792-2.709-.276-5.47-.048-8.241-.048 1.761-5.769 10.622-5.46 18.486.804zm-119.181-14.056c-1.134.992-1.956 1.884-3.303 1.454-.157-5.995 6.464-10.642 14.68-10.305 5.427.223 8.779 3.257 8.46 8.303-6.701-4.572-13.354-6.686-19.837.548zm110.065 84.256c-10.091-1.926-19.055-5.308-26.262-12.251-6.818-6.568-8.719-14.236-4.907-23.186 4.418-10.372 10.372-18.979 22.342-21.506 14.767-3.118 28.66 4.221 34.305 18.316 2.182 5.449 3.413 11.163 3.849 16.992.766 10.265-8.861 21.033-19.389 21.746-3.146.213-6.322-.03-9.937-.111zm-14.088-51.508c-9.144 4.707-12.756 13.213-15.023 22.443-1.087 4.427.238 8.615 3.439 11.993 9.538 10.067 21.486 14.254 35.078 13.497 7.778-.433 14.827-6.456 15.695-13.857 1.359-11.592-1.472-22.461-10.411-30.433-8.167-7.283-17.964-7.939-28.778-3.644zM170.13 224.77l-.997-7.92c6.629 5.54 12.827 6.783 18.79 1.287 4.811 5.59 4.811 5.59 15.696 5.695-5.742 4.221-5.415 10.876-9.553 15.209-4.832 5.06-13.472 4.6-18.626-1.161-3.225-3.605-4.706-7.974-5.311-13.111zm19.533-21.1c.931.125 1.44.154 1.908.305 3.558 1.153 7.309 2.291 6.572 7.201-.53 3.536-5.703 6.246-10.016 5.315-1.577-.341-3.224-1.006-4.495-1.975-2.489-1.896-5.274-3.938-3.991-7.74 1.166-3.457 4.279-3.113 7.092-3.172.829-.017 1.658.016 2.929.066zm-68.61 35.638c-1.056 7.588-5.7 11.035-12.481 9.386-2.337-.568-4.447-.703-6.805-.158-4.444 1.026-9.166-1.202-10.979-4.94-2.046-4.22-.917-7.628 2.604-10.614 1.487-1.261 2.467-3.108 3.724-4.651 4.205-5.161 11.449-6.067 15.674-1.081 3.021 3.566 6.664 6.95 8.264 12.057zm-4.059-19.303c-5.101 4.787-5.585 4.814-11.853.673-4.652 2.57-4.652 2.57-9.237 2.691-.627 5.921-3.551 9.475-7.412 8.42-3.763-1.029-5.013-4.193-4.514-7.855.658-4.833 3.758-6.63 9.297-5.409.648-3.586.273-8.045 4.966-9.189 3.345-.816 4.865 2.176 7.116 4.647 1.642-3.035 3.957-5.525 7.472-4.09 4.018 1.64 4.286 5.517 4.231 9.695l-.066.418zm-29.158 6.482c1.025 1.176 2.224 1.57 3.322.261 1.111-1.324.686-2.785-.223-4.077-.484-.688-1.225-1.299-2.082-.974-2.103.796-1.576 2.554-1.018 4.79z"/><path d="M117.002 219.997c2.743-2.315 5.456-3.181 8.016.229 2.464 3.283 2.196 8.638-.528 10.849-1.699 1.38-3.616 1.592-5.558.706-2.28-1.041-3.507-2.915-3.703-5.425-.161-2.061.738-3.844 1.648-6l.124-.359zm99.18-19.535c9.184-16.685 24.584-20.27 37.891-9.125 6.887 5.768 9.975 18.81 6.425 27.059-2.176 5.057-5.778 8.47-11.193 9.822-9.145 2.284-17.949 1.162-26.11-3.383-9.263-5.159-11.288-12.51-7.013-24.373zm11.351 5.299c4.559-1.488 6.181-3.955 4.426-6.847-1.109-1.826-2.747-2.829-4.971-2.563-1.828.218-3.161 1.252-3.525 3.001-.607 2.917.375 5.19 4.07 6.41z"/></svg>