<?xml version="1.0" encoding="utf-8"?>
<svg width="384" height="320" viewBox="0 0 384 320" fill="none" xmlns="http://www.w3.org/2000/svg">
  <g>
    <path d="M249.485 149.506C250.945 154.986 246.269 157.074 243.417 159.96C240.18 163.237 236.424 166.002 232.859 169.019C234.716 173.945 239.108 175.712 242.642 178.306C244.205 179.453 245.385 177.687 246.558 176.913C254.894 171.411 263.371 168.897 272.578 175.047C279.866 179.915 283.844 189.421 282.033 198.099C281.643 199.968 281.951 202.621 278.85 201.94C276.306 201.381 272.467 200.322 273.712 197.204C275.796 191.986 272.612 188.45 271.392 184.222C270.086 179.7 266.982 177.925 262.555 177.623C257.102 177.25 252.876 179.491 249.437 183.487C248.642 184.411 249.303 185.36 249.826 186.232C250.508 187.37 251.597 188.472 251.75 189.685C252.689 197.122 257.408 198.456 263.761 197.554C265.82 197.261 268.184 197.348 268.122 200.182C268.059 203.053 265.544 202.701 263.579 202.709C252.417 202.755 241.254 202.755 230.091 202.805C224.307 202.831 218.454 202.105 213.015 205.159C211.688 205.904 209.781 205.705 208.134 205.775C202.495 206.013 196.826 205.405 191.219 206.623C188.719 207.167 186.11 206.673 183.874 205.633C174.464 201.256 164.598 201.511 154.63 202.298C151.809 202.521 148.971 202.697 146.144 202.65C135.196 202.471 124.822 203.819 114.119 207.423C104.907 210.524 93.7082 212.413 84.6615 204.35C83.0419 202.906 81.0545 202.841 79.0198 202.843C57.2087 202.862 35.3973 202.809 13.5864 202.885C5.35428 202.914 5.24509 203.08 2.6235 195.262C-0.5858 185.692 -1.30132 176.162 3.04634 166.591C6.22141 159.602 11.4121 155.299 18.8763 154.404C26.7902 153.455 32.0949 158.48 36.2803 164.198C40.4894 169.949 44.0171 176.217 47.1296 182.686C48.0368 184.572 48.9184 186.67 51.2228 187.937C53.9648 186.112 55.3321 182.968 57.4863 180.567C58.9781 178.904 57.2831 177.576 55.8434 176.605C48.1874 171.443 42.0907 164.726 36.636 157.366C36.3391 156.966 35.781 156.643 35.6993 156.216C34.0628 147.659 27.081 149.427 21.3591 148.721C19.3232 148.47 17.0336 149.555 15.0312 147.499C16.6898 144.463 19.821 142.919 22.266 141.01C30.8435 134.311 34.3618 124.622 39.0265 115.446C42.1738 109.256 41.2344 105.322 36.0377 100.743C27.1962 92.9533 22.9477 81.9848 18.6575 71.3646C10.8223 51.9689 7.27277 31.4613 3.97801 10.9221C3.71459 9.27994 2.89277 7.52057 4.6064 6.34444C6.58513 4.98635 7.47707 7.23 8.81528 7.96332C16.7959 12.3366 25.6014 14.3245 34.3485 16.1225C51.2278 19.592 68.4192 21.8537 83.5652 30.9716C84.8714 31.7579 85.8811 31.868 87.214 31.0725C99.6312 23.6611 112.854 18.4736 127.304 16.7217C127.758 16.6667 128.18 16.3599 128.72 16.1263C121.261 12.6269 113.351 15.1311 104.266 14.2331C109.75 9.07102 115.088 6.16695 120.819 5.59921C129.334 4.75568 138.154 3.80891 146.269 8.16515C148.021 9.1053 150.206 9.67628 151.429 11.0813C155.583 15.8543 160.957 17.4688 166.913 18.023C175.164 18.7908 182.59 22.2241 190.002 25.5216C193.632 27.1365 196.482 27.4379 200.182 25.2018C214.246 16.7017 229.71 12.5952 246.073 11.3868C254.186 10.7877 262.248 9.49447 270.325 8.44675C275.57 7.76634 280.446 6.39709 282.97 1.00373C283.329 0.236549 284.188 -0.0928192 286.475 0.0224152C282.505 36.396 277.521 72.0025 250.044 99.7074C255.85 111.959 266.092 119.611 277.826 126.025C272.688 128.585 267.594 126.991 262.756 127.429C262.766 136.058 258.41 142.78 253.355 149.177C252.542 150.206 251.24 149.95 249.652 149.307C248.188 145.625 249.516 143.058 251.388 140.475C253.288 137.854 255.157 135.128 255.759 131.968C253.747 130.029 250.316 131.009 249.417 127.629C251.715 124.149 256.019 123.193 259.726 120.545C253.031 115.677 249.827 108.612 245.4 102.43C242.502 98.3849 243.727 96.3278 246.932 93.8341C251.136 90.5639 254.98 86.906 257.851 82.3363C268.214 65.8462 274.005 47.6705 276.914 28.6018C277.697 23.4698 279.672 18.3505 278.935 12.6113C268.372 14.4839 258.123 16.2462 247.696 16.7772C231.179 17.6183 215.381 21.4462 201.462 30.6348C196.567 33.866 193.079 33.3809 188.339 30.7786C180.319 26.3744 171.641 23.4984 162.53 22.4861C160.322 27.0759 160.335 26.996 156.871 23.575C149.262 16.0626 141.572 8.61172 128.784 10.2028C135.583 12.1541 141.662 14.2129 146.096 19.1586C144.783 20.9368 143.534 20.7242 142.412 20.739C122.828 20.9972 104.655 26.0785 88.1425 36.7117C85.9256 38.1393 84.1966 37.7352 82.1941 36.4493C77.9872 33.748 73.5798 31.3911 68.871 29.6768C55.0549 24.6468 40.5225 22.6647 26.2262 19.6629C21.1481 18.5967 16.1683 17.0627 10.6316 15.6076C11.4136 19.8869 12.1009 23.4534 12.7137 27.0327C16.0267 46.3834 19.9345 65.6245 29.8236 82.8694C34.1448 90.4049 38.6219 98.1438 46.2964 103.121C49.4857 105.19 48.5025 108.014 47.3329 110.669C43.9247 118.405 39.9498 125.933 37.1528 133.88C35.8424 137.602 31.6602 139.122 31.0481 143.344C32.1228 143.671 32.8734 144.049 33.6487 144.11C38.7885 144.51 41.6132 146.586 40.4606 152.355C40.2276 153.521 41.2666 155.316 42.2474 156.289C48.4718 162.46 54.2541 169.176 62.22 173.315C63.9217 174.199 65.6207 174.727 67.4416 173.722C76.514 168.717 86.4937 166.919 96.5826 165.668C110.605 163.931 121.195 170.166 127.16 183.003C129.212 187.419 128.185 192.175 129.494 196.962C136.072 197.665 142.691 197.787 149.331 197.472C156.322 197.141 163.369 196.493 170.278 197.683C174.508 198.411 175.126 197.07 174.917 193.323C174.414 184.323 177.86 177.211 185.721 172.373C194.746 166.818 204.491 166.256 214.608 167.835C217.391 168.27 220.2 168.936 222.893 167.42C230.175 163.322 237.042 158.634 242.518 152.255C244.496 149.95 246.595 148.989 249.485 149.506C249.485 149.506 249.485 149.506 249.485 149.506ZM76.472 198.201C79.3486 198.821 81.0179 197 82.5601 194.656C87.2761 198.01 90.1707 203.909 96.645 203.464C105.035 202.887 103.551 195.709 104.773 189.947C110.029 193.789 107.961 198.882 108.061 203.805C112.262 203.101 114.359 200.5 115.898 197.266C117.385 194.142 115.222 190.461 117.074 186.799C120.511 189.768 120.625 193.418 120.96 197.227C123.064 195.663 123.081 193.82 123.113 192.042C123.268 183.288 116.545 174.347 108.019 171.906C94.2386 167.959 68.2036 176.537 59.4265 187.735C57.1088 190.692 56.2594 193.796 56.6674 198.203C63.0203 198.203 69.2997 198.203 76.472 198.201C76.472 198.201 76.472 198.201 76.472 198.201ZM188.123 189.775C190.833 190.094 189.542 192.343 189.921 193.704C191.242 198.445 194.041 200.479 198.989 199.937C200.137 196.959 197.68 192.895 201.291 190.541C203.012 191.207 202.586 192.575 202.835 193.626C204.446 200.404 208.697 202.237 214.638 198.628C216.053 197.768 217.353 196.71 218.661 195.685C219.642 194.916 220.612 194.385 221.818 195.159C229.872 200.324 238.353 196.088 246.646 197.262C247.281 191.659 245.132 188.106 241.614 185.685C237.825 183.078 234.391 180.171 229.915 178.168C221.105 174.226 212.209 172.562 202.853 172.797C190.468 173.109 182.731 178.966 180.228 189.266C178.932 194.6 181.226 198.739 186.508 200.393C186.837 196.991 185.081 193.393 188.123 189.775C188.123 189.775 188.123 189.775 188.123 189.775ZM48.3116 197.154C42.7169 186.623 37.0096 176.133 29.8597 166.57C23.2335 157.708 13.2272 159.318 8.74487 169.467C4.74095 178.533 6.10846 187.203 9.70292 195.914C10.2956 197.35 11.1507 198.086 12.648 198.072C24.4104 197.956 36.1846 198.872 48.3116 197.154C48.3116 197.154 48.3116 197.154 48.3116 197.154Z" fill="#000000" transform="translate(47.528 75.483)" />
    <path d="M65 7.64468C62.9919 9.42484 59.3578 9.24197 56.5371 8.29425C43.7825 4.0089 28.5276 2.05688 8.11938 4.13258C5.51709 4.39725 2.47292 4.11978 0 3.12195C2.84659 0.0849609 13.0402 0.00762939 21.902 6.10352e-05C42.2048 -0.0172882 60.4989 3.26163 65 7.64468C65 7.64468 65 7.64468 65 7.64468Z" fill="#000000" transform="matrix(0.857 -0.515 0.515 0.857 192.319 160.381)" />
    <path d="M35.1852 1.45352C37.3217 2.36487 39.3689 3.04144 38.321 4.43007C37.4885 5.5332 35.5253 5.65131 33.871 5.15462C22.4646 1.72995 13.2069 3.83307 4.89276 8.64542C3.64371 9.36841 2.11742 9.8705 0.184937 9.45541C-2.06146 1.96625 16.5401 -2.45779 35.1852 1.45352C35.1852 1.45352 35.1852 1.45352 35.1852 1.45352Z" fill="#000000" transform="matrix(0.829 0.559 -0.559 0.829 125.545 133.287)" />
    <path d="M46.7027 9.89687C50.5088 12.7273 54.6847 14.0043 58.5983 15.7713C63.2907 17.8899 65.9023 16.0041 65.7879 10.7685C65.749 8.99014 64.8708 7.16103 66.8561 4.89368C70.3108 8.48027 68.4267 13.5477 70.7682 17.1212C66.2398 17.9629 64.1174 21.225 63.4474 24.896C59.7855 44.9615 41.269 56.0239 21.7226 49.72C11.2044 46.3279 2.59498 41.2293 0.633423 29.1192C-0.368149 22.9357 -0.617348 16.9296 3.22989 11.497C3.67033 10.8751 4.72401 10.45 3.93199 9.46579C0.304878 4.95839 4.2505 3.60818 7.16356 2.28941C15.8488 -1.64244 24.428 -0.0206909 32.797 3.47052C37.3922 5.38741 41.8454 7.64458 46.7027 9.89687C46.7027 9.89687 46.7027 9.89687 46.7027 9.89687ZM52.3414 29.7963C49.0814 39.1161 41.7861 43.8674 31.7292 46.9366C47.489 46.5052 56.776 40.3016 59.5999 29.1172C61.016 23.5085 60.2642 22.1916 54.3533 20.0557C51.8215 22.6536 53.589 26.1123 52.3414 29.7963C52.3414 29.7963 52.3414 29.7963 52.3414 29.7963ZM34.2739 14.6566C35.4283 17.7622 36.5726 21.2691 40.9018 19.664C42.5312 19.0599 44.2677 17.1021 43.8163 14.9026C43.4093 12.9188 41.2509 12.523 39.5889 11.8468C37.1887 10.8701 35.3914 11.4749 34.2739 14.6566C34.2739 14.6566 34.2739 14.6566 34.2739 14.6566Z" fill="#000000" transform="translate(103.391 171.892)" />
    <path d="M25.5975 47.9289C17.6018 44.0727 11.3295 39.1865 9.80994 30.1286C9.46002 28.0429 7.77144 27.4109 6.0824 26.5389C-0.210861 23.2898 -1.79883 16.899 2.15599 11.1931C4.31924 12.1313 3.63432 13.9932 3.26065 15.4243C2.54848 18.1518 3.79291 19.9283 5.65714 21.5041C7.78682 23.3043 9.85049 22.0568 11.657 20.9871C17.0955 17.7669 22.3814 14.2895 27.8077 11.0476C36.1151 6.08429 44.581 1.51692 54.4179 0.214203C57.8159 -0.235794 61.1766 0.0336151 64.3134 0.924332C67.812 1.91779 71.856 2.23735 71.8376 8.16328C71.8257 11.9574 75.8938 15.0891 76.8251 19.3572C78.4538 26.8225 75.8437 32.5949 70.483 37.1528C57.5344 48.1624 42.8618 52.8256 25.5975 47.9289C25.5975 47.9289 25.5975 47.9289 25.5975 47.9289ZM69.5659 13.0215C67.8599 8.72061 64.6404 7.14131 58.566 7.6503C65.8633 18.3082 66.2345 28.8708 59.6578 39.9021C73.2024 33.3441 76.5197 24.2717 69.5659 13.0215C69.5659 13.0215 69.5659 13.0215 69.5659 13.0215ZM25.1204 21.7497C27.2836 24.586 29.2025 23.1132 30.8119 21.2296C31.7245 20.1615 32.8869 18.472 31.1989 17.299C29.0338 15.7944 27.5358 17.9051 26.0133 19.0117C25.4388 19.4293 25.2783 20.4167 25.1204 21.7497C25.1204 21.7497 25.1204 21.7497 25.1204 21.7497Z" fill="#000000" transform="translate(191.682 166.187)" />
    <path d="M0.0636749 37.3045C2.77737 29.9485 8.15332 25.6494 14.4823 22.2909C16.5139 21.2128 18.9992 20.5404 18.8709 17.5196C18.7524 14.7304 16.1718 15.0437 14.5341 14.1534C11.3303 12.4119 8.54512 10.2595 8.95328 6.10295C9.34595 2.10417 12.749 1.44705 15.7626 0.535873C16.8618 0.203537 18.0596 0.134155 19.219 0.0758362C23.1296 -0.12085 27.3308 -0.270905 28.9437 4.19974C30.4282 8.31458 27.8844 11.1508 24.5267 13.2281C23.2775 14.001 22.5838 14.784 22.9768 16.4518C23.5586 18.9203 25.1125 20.3573 27.4186 20.5387C31.4634 20.8567 35.3389 21.8482 39.0238 23.3431C43.8875 25.3162 48.2766 28.0497 50.7087 33.0871C48.2683 34.7561 47.4458 33.3212 46.3636 32.2961C39.6641 25.9497 30.9787 23.1847 22.5023 23.964C15.5371 24.6043 9.02577 29.2677 5.11363 36.0239C4.53004 37.0317 4.05797 38.1036 3.48997 39.1211C2.9903 40.0161 2.33583 40.9163 1.1778 40.6006C-0.346191 40.1853 0.0331726 38.8076 0.0636749 37.3045C0.0636749 37.3045 0.0636749 37.3045 0.0636749 37.3045Z" fill="#000000" transform="translate(161.864 198.985)" />
  </g>
</svg>
