<svg version="1.1" id="Layer_1" xmlns="http://www.w3.org/2000/svg" xmlns:xlink="http://www.w3.org/1999/xlink" x="0px" y="0px"
	 width="100%" viewBox="0 0 384 320" enable-background="new 0 0 384 320" xml:space="preserve">
<path fill="#000000" opacity="1.000000" stroke="none" 
	d="
M199.854309,278.011963 
	C195.040222,278.105896 190.692032,278.474243 186.381287,278.216492 
	C178.791977,277.762695 171.638306,278.513458 164.799408,282.360809 
	C161.249069,284.358093 157.098175,285.624390 152.793045,283.837738 
	C152.105530,283.552368 151.084930,283.577667 150.393082,283.871216 
	C143.867126,286.640167 138.332886,284.392456 133.193680,280.471619 
	C131.081528,278.860168 128.858215,278.291107 126.242081,278.298553 
	C104.592880,278.360229 82.943306,278.297821 61.294098,278.359558 
	C53.171150,278.382721 53.294476,278.437897 50.266922,270.856506 
	C46.280422,260.873840 46.370564,251.048630 50.948975,241.331528 
	C53.993084,234.870789 58.961033,230.211105 66.185585,229.995499 
	C73.386551,229.780624 79.300697,233.608429 83.225319,239.645554 
	C88.026230,247.030624 92.370354,254.712616 96.914421,262.264771 
	C97.419807,263.104767 97.775856,264.103180 99.628860,264.367737 
	C105.406624,254.688431 115.035782,249.326096 125.426125,245.116745 
	C124.435478,242.389511 122.347290,242.038086 120.671738,241.077194 
	C113.513969,236.972336 106.896568,232.345825 100.486664,226.919388 
	C93.426270,220.942261 88.639442,214.309219 85.098969,206.224960 
	C84.168549,204.100479 82.208488,204.330704 80.402618,204.151398 
	C76.060379,203.720200 71.592834,204.157303 66.242493,202.553665 
	C70.370224,198.496048 75.042877,196.840561 78.329063,193.432617 
	C85.738022,185.749130 90.045952,176.232040 94.406212,166.736816 
	C95.070427,165.290375 94.187813,164.249451 93.157600,163.263016 
	C82.186768,152.758377 76.803886,139.282623 72.817833,125.044426 
	C66.950958,104.087967 68.075974,82.559578 67.470634,61.169292 
	C67.430733,59.759407 67.548210,58.415489 68.935928,57.732895 
	C70.411537,57.007061 71.499557,58.017097 72.460503,58.931416 
	C81.516434,67.547951 93.069153,71.381454 104.310249,75.970329 
	C115.791283,80.657158 127.522209,85.036537 137.162308,93.277061 
	C138.685333,94.578972 140.168701,95.250092 142.114059,94.096230 
	C157.153275,85.175903 173.715973,81.613884 191.946487,80.497147 
	C183.241440,76.422462 174.504990,78.156540 165.712494,76.107620 
	C168.497360,72.968185 171.698792,72.096985 174.435577,71.311707 
	C189.980881,66.851227 204.457367,67.971581 216.072205,80.909363 
	C217.807144,82.841888 219.864014,84.125031 222.359055,84.744202 
	C228.525986,86.274605 234.439514,88.512695 240.096420,91.374611 
	C242.336838,92.508072 243.788223,92.491814 245.659943,90.424583 
	C255.643356,79.398399 267.744598,71.413750 281.435699,65.604271 
	C287.695648,62.948021 293.578400,59.403801 299.636322,56.270237 
	C304.395660,53.808388 307.340973,49.722294 309.381226,44.024296 
	C312.639954,49.165226 312.366608,54.102222 313.225494,58.710320 
	C315.209076,69.352669 315.804718,80.191490 315.895813,90.940483 
	C316.057495,110.020210 313.714417,128.784424 304.358826,145.963547 
	C303.963867,146.688782 303.419769,147.338150 302.907074,147.993027 
	C296.229248,156.523056 296.142670,156.585190 302.755157,165.427521 
	C309.340088,174.232941 316.103210,182.904480 326.173340,188.153671 
	C326.902374,188.533691 327.411621,189.269348 327.050568,190.621155 
	C322.469269,192.432846 318.026154,187.549728 313.200653,189.931229 
	C313.903137,197.597916 309.854706,203.543442 305.807922,209.675201 
	C297.857788,221.721481 286.402954,229.558426 274.044159,237.017197 
	C278.637726,242.602448 282.985138,248.180344 288.411407,252.843811 
	C290.244110,254.418915 291.548981,254.393005 293.615540,253.007812 
	C298.293091,249.872528 303.006226,246.701141 309.130859,246.923386 
	C324.785919,247.491516 332.362030,263.225464 329.334808,275.356567 
	C328.844330,277.322083 327.683563,277.880829 326.076599,277.344055 
	C324.492279,276.814850 322.208252,276.471558 322.785309,273.915253 
	C324.346344,267.000305 320.053314,261.746643 317.085663,256.576355 
	C313.664154,250.615402 300.327515,252.464630 297.055023,258.678925 
	C296.512482,259.709229 296.600159,260.554657 297.156158,261.469055 
	C297.588715,262.180481 298.233734,262.853180 298.395630,263.624664 
	C300.026978,271.398102 304.533295,274.699097 312.490997,273.041199 
	C314.181854,272.688934 315.565735,273.636047 315.612244,275.442780 
	C315.678650,278.025696 313.680298,278.168243 311.757874,278.171539 
	C298.593353,278.194092 285.428741,278.239044 272.264374,278.204865 
	C268.908112,278.196136 265.677246,278.304932 262.586731,279.972443 
	C260.543518,281.074860 258.195129,281.291107 255.801971,281.313599 
	C249.989990,281.368134 244.161957,280.937225 238.366867,282.042572 
	C236.652222,282.369629 234.538162,282.247711 232.986923,281.520905 
	C222.473679,276.595093 211.449249,277.015808 199.854309,278.011963 
M210.411819,84.039902 
	C206.652222,78.429565 198.651001,74.323593 192.205750,74.750168 
	C198.175720,77.603813 203.907471,80.852654 208.719421,85.673912 
	C207.435257,87.074860 206.410858,87.113419 205.458145,86.890091 
	C195.493011,84.554100 185.550766,85.538902 175.695480,87.376892 
	C163.864868,89.583290 152.376938,92.955345 142.648346,100.446976 
	C140.231171,102.308342 138.926147,101.449776 137.149734,99.853676 
	C127.338966,91.038727 115.798340,85.285774 103.513687,80.775818 
	C95.097923,77.686226 86.411247,75.224731 78.817398,70.134857 
	C74.243103,67.068886 73.392548,67.584396 72.957855,73.187981 
	C71.907738,86.725281 73.208427,100.231476 75.443085,113.472839 
	C78.494194,131.552109 84.486626,148.651001 98.951981,161.310501 
	C101.090912,163.182388 101.163330,164.951721 100.157257,167.469711 
	C95.720299,178.574600 90.292931,189.069962 81.762688,198.239426 
	C83.716927,198.558929 85.237617,198.582397 86.585655,199.076721 
	C89.078323,199.990723 92.961792,201.437042 92.438766,203.705017 
	C91.257904,208.825562 94.649811,211.457611 96.663208,214.889114 
	C98.626701,218.235565 101.377525,222.672913 103.663162,223.850983 
	C108.713882,226.454224 112.823570,230.220016 117.627007,233.014755 
	C127.129745,238.543655 136.540863,242.801468 148.196213,241.128250 
	C155.500031,240.079742 162.511230,242.742050 168.157776,248.308197 
	C174.913620,254.967819 176.470901,263.093811 175.691330,272.457825 
	C182.629578,273.041321 189.297043,274.111450 196.132950,273.280151 
	C203.424637,272.393372 210.784515,272.119507 218.059357,273.206238 
	C221.837067,273.770660 222.911774,272.419006 222.760162,268.994385 
	C222.226089,256.931335 228.205261,249.412338 239.024902,244.739166 
	C243.335175,242.877518 248.498398,244.273148 251.982803,241.817322 
	C258.454193,237.256256 265.850006,234.683044 272.560211,230.716766 
	C281.175140,225.624649 288.852722,219.535645 296.117004,212.607819 
	C301.032623,207.919891 303.916687,202.391998 306.823517,196.640869 
	C307.168884,195.957626 307.442993,194.664246 307.083862,194.285522 
	C302.064789,188.992599 306.197113,186.271759 310.580505,183.416504 
	C302.852814,176.142181 297.339417,167.671219 292.110565,158.953110 
	C290.407227,156.113159 290.160461,154.425629 292.661041,151.677429 
	C301.100159,142.402802 305.957703,131.338379 308.505310,118.999512 
	C311.828583,102.903877 309.884064,86.814415 309.319397,70.728790 
	C309.181580,66.802177 309.362030,62.452095 306.848969,58.562187 
	C299.183075,63.175568 291.217102,66.541740 283.414124,70.249123 
	C269.489655,76.864998 256.176514,84.347847 246.942810,97.320732 
	C245.572311,99.246231 243.935760,99.353180 241.738281,98.203186 
	C237.174149,95.814682 232.465805,93.685326 227.733124,91.643234 
	C225.794800,90.806862 223.505264,89.449089 221.532776,90.686668 
	C218.907700,92.333725 217.610504,90.867592 216.028290,89.325844 
	C214.359589,87.699860 212.618942,86.147728 210.411819,84.039902 
M169.291595,260.259338 
	C166.090561,251.819214 158.837036,246.580582 149.892593,246.294724 
	C138.958527,245.945267 128.855927,249.370651 119.318443,254.082047 
	C111.657738,257.866364 104.951561,263.130035 104.118698,273.741760 
	C113.076302,272.461395 122.138756,276.372437 130.881760,270.765564 
	C134.836380,273.813110 137.904724,279.494171 144.418350,278.950134 
	C152.596588,278.266998 151.082657,271.058960 152.320023,265.612976 
	C157.877579,269.267303 154.757660,274.688873 155.821320,279.194000 
	C165.171524,276.786652 163.591125,268.927368 164.154221,261.761597 
	C168.061661,264.700073 167.864761,268.313965 169.261459,272.267151 
	C170.990158,267.841370 171.253891,264.441895 169.291595,260.259338 
M228.532196,262.098236 
	C226.235153,270.113678 228.068024,274.325134 234.543472,275.910736 
	C233.885971,272.076324 232.461319,268.098175 236.339066,264.377380 
	C239.337234,274.976868 240.445236,276.099579 247.001465,275.735901 
	C246.648941,268.468201 246.648941,268.468201 249.271896,265.822876 
	C249.585587,266.453156 249.976151,266.975525 250.116013,267.558136 
	C252.310364,276.698608 255.551346,278.075867 263.700409,273.159271 
	C265.655853,271.979462 267.305267,271.864899 269.688202,272.301788 
	C277.830597,273.794647 286.050934,273.012695 294.283905,272.378876 
	C294.687866,266.182922 291.832092,262.353058 287.670746,259.230194 
	C276.124359,250.565262 262.817993,247.649887 248.789093,248.400757 
	C240.025040,248.869812 232.089722,251.872986 228.532196,262.098236 
M79.589249,244.913116 
	C79.193924,244.378586 78.829056,243.818039 78.398430,243.313644 
	C75.131668,239.487274 71.823845,235.287064 66.074081,236.371613 
	C60.550339,237.413498 57.608051,241.452652 55.627956,246.630829 
	C52.579071,254.603958 53.603447,262.140198 56.581181,269.820862 
	C57.650867,272.579987 58.986019,273.716034 61.980370,273.676453 
	C71.950615,273.544678 81.924294,273.693481 91.896187,273.642792 
	C93.252487,273.635925 94.942200,274.228485 95.971649,272.384247 
	C90.818573,263.354126 85.859169,254.163925 79.589249,244.913116 
M270.522491,243.853851 
	C268.776459,241.264999 267.020599,238.733307 263.697510,242.953506 
	C266.099915,243.857590 268.016235,245.148956 270.522491,243.853851 
z"/>
<path fill="#000000" opacity="1.000000" stroke="none" 
	d="
M272.761566,185.883911 
	C257.327637,194.538055 242.157669,196.629532 226.859238,186.408615 
	C221.154358,182.597168 218.414734,177.122223 217.855011,170.535538 
	C217.621582,167.788452 216.781158,166.144302 214.325836,164.596695 
	C208.677429,161.036453 207.647842,152.405579 212.095856,148.665512 
	C213.921127,149.773666 212.833725,151.248657 212.581589,152.606094 
	C212.036118,155.542679 213.185425,157.906937 215.376007,159.658798 
	C217.760483,161.565750 219.430878,159.277634 221.053146,158.133270 
	C231.391754,150.840515 241.700333,143.624939 254.034851,139.816696 
	C261.244293,137.590790 267.431763,140.023331 273.766479,142.609863 
	C274.056061,142.728088 274.497009,143.041061 274.487183,143.245041 
	C274.178131,149.670807 279.602570,153.601822 281.381958,159.235855 
	C284.880249,170.312149 281.969910,178.788055 272.761566,185.883911 
M222.868988,176.411148 
	C226.018906,182.319489 230.692032,186.177307 237.443970,187.421585 
	C230.297607,180.864532 224.901276,173.591614 225.775253,163.043854 
	C222.375793,163.572845 221.212601,165.110657 221.198395,167.866486 
	C221.184433,170.576050 221.910934,173.116791 222.868988,176.411148 
M242.303574,162.790710 
	C244.500977,160.162949 244.361237,157.711273 241.659851,155.551239 
	C239.467941,153.798599 237.656265,154.905838 236.042068,156.528061 
	C234.064056,158.515900 233.430817,160.872726 235.324402,163.137970 
	C237.242645,165.432724 239.573807,165.278259 242.303574,162.790710 
M264.677185,185.039230 
	C264.432343,185.314636 263.669525,185.544678 264.584991,185.922058 
	C264.705719,185.971817 264.911072,185.876038 265.054352,185.802856 
	C270.834076,182.851364 275.321289,178.663864 277.830444,172.546982 
	C279.684814,168.026413 278.691650,161.457367 275.540924,157.816559 
	C278.919464,170.110184 276.079102,177.438202 264.677185,185.039230 
z"/>
<path fill="#000000" opacity="1.000000" stroke="none" 
	d="
M174.622421,188.580322 
	C161.513245,199.356720 141.278656,200.929840 126.934944,192.464920 
	C119.685417,188.186600 115.193909,176.168915 117.029709,166.335464 
	C117.813225,162.138535 120.279411,158.368210 119.665520,153.760025 
	C119.418198,151.903503 121.815712,151.022537 123.406670,150.124313 
	C133.432373,144.463989 143.670441,146.180450 153.879654,149.397263 
	C160.894119,151.607452 167.319946,155.156784 173.562958,158.967041 
	C176.308670,160.642792 179.255020,162.114502 181.801346,159.927109 
	C184.163971,157.897537 185.447754,154.731277 183.893005,151.322357 
	C183.343597,150.117752 182.543045,148.930527 183.926193,147.666702 
	C186.208252,147.367752 186.550583,149.185226 187.060028,150.714600 
	C188.105728,153.853851 188.213318,157.306366 186.580627,159.966568 
	C183.132935,165.584045 181.580368,171.468277 181.126495,178.005417 
	C180.840729,182.121292 178.507843,185.822632 174.622421,188.580322 
M138.538849,189.133743 
	C124.252861,180.568268 123.917969,168.116821 129.626785,153.777496 
	C121.543427,158.054276 118.099197,169.645493 120.982811,178.648346 
	C124.813187,190.607010 137.611191,195.082260 151.942230,193.313950 
	C146.944397,192.242065 142.813995,191.640015 138.538849,189.133743 
M164.258789,160.219543 
	C163.820984,159.987839 163.399017,159.717133 162.942459,159.531555 
	C161.430893,158.917053 159.639145,157.837204 158.619781,159.898285 
	C157.607056,161.945999 157.798874,164.185272 159.916519,165.633514 
	C161.846115,166.953110 163.773102,166.312347 165.365921,164.931107 
	C167.193604,163.346176 166.877365,161.808273 164.258789,160.219543 
z"/>
<path fill="#000000" opacity="1.000000" stroke="none" 
	d="
M196.371277,173.794861 
	C199.634201,173.747742 202.530792,173.278336 205.209213,174.444504 
	C207.182037,175.303452 209.155228,176.338913 209.294830,178.984421 
	C209.426834,181.485809 208.748566,183.611130 206.636932,185.087738 
	C204.753983,186.404434 201.358765,186.692780 202.906631,190.324371 
	C204.344650,193.698227 207.463181,195.296585 210.638168,194.470581 
	C219.682709,192.117523 223.110138,198.525757 227.088577,204.239319 
	C227.928970,205.446259 228.764923,206.976913 227.370209,208.321091 
	C226.107727,209.537827 224.896255,208.320770 223.723312,207.848999 
	C211.073288,202.760849 198.565536,204.913788 186.135559,208.692459 
	C182.806625,209.704453 182.722900,213.844437 179.988998,215.939056 
	C179.469543,215.514252 178.673553,215.197067 178.572464,214.729599 
	C177.424606,209.421692 183.010483,199.422745 188.123932,197.583832 
	C191.125732,196.504318 194.054916,195.238358 196.452820,193.139359 
	C198.846634,191.043976 199.714203,188.811844 195.946426,187.026825 
	C194.761414,186.465408 193.506424,185.792023 192.656433,184.837708 
	C190.936615,182.906799 188.648346,181.126724 189.720200,177.920975 
	C190.734421,174.887604 193.132126,174.080856 196.371277,173.794861 
z"/>
<path fill="#000000" opacity="1.000000" stroke="none" 
	d="
M273.408691,85.619278 
	C276.093292,90.382820 273.556702,93.938469 270.799103,96.918381 
	C266.865234,101.169434 261.503601,102.165756 255.748474,102.168190 
	C255.293427,97.937073 258.379272,96.016624 260.510010,94.154419 
	C264.334167,90.812210 266.893188,85.379028 273.408691,85.619278 
z"/>
</svg>