<svg version="1.1" id="Layer_1" xmlns="http://www.w3.org/2000/svg" xmlns:xlink="http://www.w3.org/1999/xlink" x="0px" y="0px"
	 width="100%" viewBox="0 0 384 320" enable-background="new 0 0 384 320" xml:space="preserve">
<path fill="#000000" opacity="1.000000" stroke="none" 
	d="
M85.607643,194.441483 
	C80.715439,189.962006 74.354973,190.709961 68.516106,188.950134 
	C70.027168,185.194305 73.470398,184.514343 76.088615,183.299088 
	C82.738617,180.212448 87.285393,175.103409 91.322937,169.312592 
	C94.275566,165.077774 98.685188,161.192551 99.797813,156.520935 
	C101.008354,151.438156 94.756027,148.233841 92.548050,143.691956 
	C87.442924,133.190598 84.882034,122.033302 83.827217,110.555748 
	C81.810501,88.611641 85.265221,67.098961 89.690811,45.704796 
	C89.819656,45.081940 90.150185,44.500809 90.315674,44.080517 
	C91.926346,43.296638 92.806648,44.119850 93.512589,45.070465 
	C101.586044,55.942188 113.131607,62.432289 124.302124,69.345627 
	C134.078888,75.396378 144.043427,81.168861 151.508926,90.185516 
	C153.544952,92.644592 155.323730,91.061287 157.258163,90.301628 
	C171.714569,84.624535 186.713364,82.446106 202.586899,83.201843 
	C200.586487,80.979347 197.821854,81.206902 195.521042,80.506310 
	C192.823975,79.685051 189.981369,79.353920 187.252090,78.622803 
	C184.739639,77.949745 181.993454,79.107742 179.677200,77.962715 
	C179.353531,75.954849 180.620590,75.572723 181.655243,75.184021 
	C198.825958,68.733154 217.183609,70.967926 230.015732,86.734695 
	C231.786346,88.910255 233.685333,90.257500 236.445145,91.005592 
	C241.630630,92.411209 246.095795,95.464363 250.628403,98.264847 
	C252.270935,99.279671 253.819626,100.316772 255.524551,98.562660 
	C269.265289,84.425323 287.569794,78.646935 305.110901,71.477905 
	C312.105438,68.619247 319.177185,65.899368 321.316650,57.679600 
	C323.980316,57.845955 323.913788,59.586506 324.037567,60.973640 
	C325.848328,81.266762 326.800049,101.664291 322.873016,121.718529 
	C319.793396,137.445190 314.512573,152.644150 302.199799,164.087555 
	C300.343597,165.812698 300.363159,167.210663 301.499359,169.276840 
	C307.609467,180.387909 313.580872,191.567581 324.568390,198.893265 
	C325.855591,199.751495 327.626831,200.437759 327.650757,202.864868 
	C322.882385,204.870712 318.927216,200.423309 313.942902,201.185959 
	C315.264160,203.555145 314.354095,205.507248 313.082458,207.910980 
	C303.899261,225.269653 289.712494,236.593887 271.592133,243.416916 
	C270.973297,243.649933 270.385101,243.988586 269.826538,244.346542 
	C269.573547,244.508682 269.428253,244.838882 269.068146,245.309891 
	C270.724823,248.571289 274.357574,249.562088 276.976929,251.704224 
	C279.919647,254.110809 282.977051,257.563293 286.310150,257.984558 
	C289.895905,258.437744 291.829315,253.434723 294.927368,251.265610 
	C303.745056,245.091858 312.337402,244.297256 320.009857,249.498383 
	C327.467316,254.553757 331.576874,265.863403 329.357300,274.760254 
	C328.868591,276.719330 328.076721,277.791077 326.011444,277.508087 
	C324.432983,277.291748 323.083984,277.363617 322.364929,275.047241 
	C321.312439,271.656677 320.920441,268.881775 322.381409,265.331848 
	C323.957489,261.502136 315.929016,252.872681 310.897278,252.181213 
	C304.909576,251.358368 294.132233,257.512299 291.874237,263.043488 
	C290.553162,266.279541 295.395355,273.471252 299.092712,273.582275 
	C303.421783,273.712250 307.756744,273.652130 312.089172,273.661713 
	C313.759064,273.665436 315.768951,273.362427 315.653442,275.885254 
	C315.551300,278.116119 313.721344,278.254852 311.961426,278.256989 
	C298.463837,278.273224 284.966095,278.334991 271.468719,278.293457 
	C268.259338,278.283569 265.290558,278.578125 262.372345,280.253357 
	C258.141266,282.682281 253.070251,281.792206 248.675980,281.713837 
	C241.335373,281.582947 234.026978,282.736053 226.359558,279.326660 
	C219.481125,276.268097 210.786087,276.510315 202.760620,277.613464 
	C200.127869,277.975342 197.409531,278.519379 194.816864,278.223053 
	C185.554382,277.164398 177.100540,279.375458 169.085770,283.821777 
	C168.940094,283.902618 168.789322,284.046722 168.643204,284.043915 
	C158.930069,283.857025 148.589508,288.720947 139.873077,280.478363 
	C138.354202,279.042053 136.563812,278.362305 134.437347,278.367096 
	C114.459137,278.411835 94.480820,278.404449 74.502617,278.450684 
	C68.513000,278.464539 62.523338,278.581085 56.534435,278.690979 
	C54.885441,278.721191 53.414406,278.381317 53.075306,276.581543 
	C52.692009,274.547180 54.249474,274.108521 55.815815,273.835846 
	C56.763092,273.670959 57.835155,274.118469 59.075539,272.806244 
	C55.392761,266.422791 51.217445,259.990662 49.510178,252.476852 
	C47.174274,242.196350 47.086094,232.054260 54.231853,223.563141 
	C63.050327,213.084366 73.130211,213.853943 81.773544,223.719711 
	C88.129761,230.974899 92.504013,239.727676 97.390549,248.050354 
	C99.320679,251.337738 101.261963,254.631317 104.488914,258.087036 
	C111.286331,251.169922 120.774155,248.946793 128.578125,243.708359 
	C131.465118,241.770447 131.074585,239.686005 128.309891,237.874115 
	C127.475502,237.327255 126.619827,236.802063 125.731934,236.349258 
	C115.578644,231.171280 106.664375,224.652374 98.742950,216.179306 
	C92.732681,209.750519 88.459053,202.910965 85.607643,194.441483 
M220.845688,86.350082 
	C217.470917,80.705124 212.083542,78.876678 205.960297,78.433838 
	C210.978668,81.299408 215.301315,85.389481 221.152939,87.618637 
	C221.827362,90.635506 220.296295,91.111809 217.794724,90.595314 
	C196.205734,86.137802 175.202133,87.228798 155.167221,97.289925 
	C152.946228,98.405273 151.266159,98.447174 149.654877,96.064194 
	C146.173599,90.915627 141.470215,86.954941 136.574265,83.165276 
	C126.661797,75.492607 115.171432,70.303131 105.083801,62.928852 
	C101.402931,60.238049 97.846855,57.376537 93.877281,54.318195 
	C93.485062,55.641273 93.243263,56.392956 93.039238,57.154758 
	C89.826469,69.151505 89.262802,81.441360 88.892799,93.766747 
	C88.277092,114.276703 90.669838,133.972092 103.950966,150.784180 
	C106.238152,153.679459 106.323822,156.518341 104.305840,159.487061 
	C99.631470,166.363693 94.939499,173.228439 90.234734,180.084305 
	C88.704826,182.313705 85.424538,183.027985 84.574440,186.214050 
	C85.744331,186.756393 86.676193,187.098297 87.517303,187.594147 
	C90.887619,189.580963 93.891426,190.522003 93.339577,196.517944 
	C92.771149,202.693970 97.921486,208.681366 102.647667,212.964569 
	C110.370773,219.963791 118.398857,226.851929 128.033295,231.263626 
	C137.379883,235.543488 145.780243,241.556076 157.189926,241.282166 
	C167.536240,241.033798 175.728638,247.080994 180.705414,256.573486 
	C183.405762,261.724060 183.649567,267.327484 182.810440,273.324677 
	C185.075150,273.470917 186.700119,273.665771 188.325134,273.666260 
	C198.777893,273.669250 209.205429,271.474121 219.695770,273.530487 
	C222.567398,274.093414 222.630188,271.828674 222.681580,269.627594 
	C223.044556,254.079025 232.469437,243.416367 247.880905,243.170700 
	C256.768860,243.028992 264.597687,240.565002 272.271088,237.065704 
	C286.040863,230.786301 298.736572,223.005508 306.035370,208.875092 
	C306.637299,207.709793 307.948242,206.429230 307.183838,205.235565 
	C303.726135,199.836151 307.730530,197.471466 311.904816,194.642685 
	C304.460785,186.854034 300.356171,177.328079 295.122833,168.488632 
	C293.889221,166.404999 292.549194,164.420731 295.339661,162.470627 
	C306.959351,154.350342 312.072388,142.094116 315.958130,129.242462 
	C320.443695,114.406990 320.208618,98.993195 320.560669,83.702637 
	C320.656891,79.522758 319.816193,75.321320 319.365112,70.717743 
	C313.099609,73.440437 307.774048,76.517387 301.902649,78.448631 
	C296.066559,80.368256 290.343262,82.719833 284.754578,85.283272 
	C274.409027,90.028595 264.571472,95.593964 257.507538,104.925453 
	C255.695938,107.318611 254.092529,107.280220 251.724350,105.401749 
	C246.908905,101.582085 241.702911,96.262825 235.912766,96.629333 
	C229.208191,97.053734 227.563782,92.403381 223.980865,89.525307 
	C222.969040,88.712540 222.432419,87.322723 220.845688,86.350082 
M143.273026,276.284760 
	C146.157593,278.730560 149.353485,280.813568 153.238602,279.514679 
	C159.612198,277.383850 158.696732,271.461243 158.656616,265.473206 
	C164.204880,269.614624 163.271606,274.488373 162.924759,279.183380 
	C169.167404,277.286865 169.167404,277.286865 171.471207,263.529053 
	C175.583221,265.016876 175.222275,269.221069 176.976166,272.679047 
	C178.329941,268.000977 178.205032,263.991882 176.445892,260.052490 
	C172.041901,250.190125 161.082687,245.100357 148.940430,246.548721 
	C138.587189,247.783691 128.884476,251.196243 119.346687,254.912659 
	C113.345085,257.251221 108.051888,261.264252 105.849220,268.069092 
	C104.467621,272.337372 105.122612,273.621277 109.519806,273.676971 
	C115.838326,273.757050 122.158752,273.703522 128.478271,273.679688 
	C131.595505,273.667938 134.855804,274.073517 136.736465,270.923218 
	C139.703293,271.795532 140.797073,274.301941 143.273026,276.284760 
M60.231892,262.243958 
	C63.250774,269.132446 67.502930,273.953217 76.038292,273.200226 
	C80.458252,272.810272 84.985237,273.279755 89.435234,273.679657 
	C94.269409,274.114075 98.328354,273.938721 99.101715,267.708435 
	C99.308945,266.038971 100.696236,264.516052 101.635063,262.750427 
	C94.387573,256.775543 90.539261,248.589035 86.010033,240.864609 
	C82.988022,235.710693 80.264572,230.372955 75.905540,226.082962 
	C70.488449,220.751663 63.679642,221.012161 59.385563,227.291855 
	C54.558823,234.350510 52.794056,241.956055 55.522896,250.494766 
	C56.745106,254.319168 58.381573,257.909149 60.231892,262.243958 
M228.003876,263.611725 
	C226.590652,270.866547 228.464264,274.540527 234.835632,276.388855 
	C233.832275,272.433624 232.469284,268.450806 236.284180,264.865356 
	C239.491806,275.285553 240.429886,276.277283 246.806900,276.176300 
	C247.728012,273.144653 245.159012,269.242950 249.054932,266.291412 
	C250.736832,270.568634 250.987213,276.137268 256.530243,276.425385 
	C261.343628,276.675568 264.430084,272.044647 268.499481,270.196838 
	C272.006134,274.252319 282.273499,274.913818 288.305878,271.673065 
	C287.831818,269.145599 286.346985,267.190033 284.709961,265.284821 
	C277.503540,256.897705 267.931671,252.346069 257.696747,249.208054 
	C245.249908,245.391876 233.528519,251.062149 228.003876,263.611725 
z"/>
<path fill="#000000" opacity="1.000000" stroke="none" 
	d="
M276.365784,150.678680 
	C281.008087,156.929779 283.847229,163.544037 285.459412,170.831314 
	C287.631195,180.648132 284.364014,188.155365 276.574036,193.972610 
	C260.786194,205.762238 234.290131,199.980423 225.132538,182.846939 
	C223.762131,180.282944 222.823029,177.609619 222.945465,174.747757 
	C223.418457,163.692596 228.987869,148.842606 242.617294,142.853302 
	C253.197693,138.203873 266.363312,141.108795 276.365784,150.678680 
M278.455444,161.099182 
	C274.502075,152.309174 268.125916,146.316757 258.314484,145.292892 
	C246.263809,144.035385 238.841766,147.178986 233.835693,155.029144 
	C243.201126,147.064743 253.189331,143.760788 264.209625,150.226654 
	C273.494019,155.674042 277.722626,164.278458 276.808411,175.021118 
	C275.459442,190.871887 262.810211,193.125183 250.754501,196.169357 
	C254.594269,196.754883 258.322174,197.067596 262.113495,196.388107 
	C279.817230,193.215179 286.700592,180.534363 279.572235,164.154190 
	C279.241364,163.393921 278.977112,162.604691 278.455444,161.099182 
M241.158020,170.150681 
	C245.604401,167.477097 246.778076,164.522461 244.231750,162.114044 
	C242.890915,160.845825 241.229004,159.919052 239.274704,160.834839 
	C237.526169,161.654190 236.302246,162.989288 236.204697,165.014328 
	C236.061020,167.996841 237.741287,169.562576 241.158020,170.150681 
M260.295502,187.231064 
	C262.081696,186.119202 262.242310,184.721283 260.736847,183.341003 
	C259.933472,182.604416 258.818420,182.848831 258.211609,183.749008 
	C256.973419,185.585754 257.784454,186.719940 260.295502,187.231064 
z"/>
<path fill="#000000" opacity="1.000000" stroke="none" 
	d="
M279.202271,95.153885 
	C284.872894,89.453094 291.786377,86.894730 298.964172,84.878761 
	C301.993073,84.028069 305.228333,83.681847 308.053040,82.405388 
	C310.443146,81.325333 311.452820,82.424332 312.576263,83.900055 
	C315.329956,87.517258 314.593964,99.298790 311.436340,103.003059 
	C311.273773,102.972679 311.039062,103.001396 310.958923,102.903519 
	C304.610901,95.152824 304.581818,95.568871 295.150909,99.531464 
	C286.988495,102.961067 280.687988,110.341698 271.075043,110.650116 
	C268.654480,110.727776 266.250946,111.763412 263.269928,110.190994 
	C267.018372,103.487602 273.965149,100.436546 279.202271,95.153885 
z"/>
<path fill="#000000" opacity="1.000000" stroke="none" 
	d="
M140.123596,191.142761 
	C117.335991,182.662445 117.886276,158.640579 130.396881,143.024307 
	C138.221756,133.256958 148.497498,128.800980 160.946594,132.051163 
	C172.657867,135.108719 180.215958,142.795532 183.250626,154.684006 
	C185.657608,164.113464 186.847855,173.376465 180.337097,181.875671 
	C174.986542,188.860306 167.363174,191.626083 159.189713,192.921249 
	C152.927795,193.913483 146.550919,193.784912 140.123596,191.142761 
M137.964142,140.401932 
	C129.241638,149.103424 122.811203,158.941345 126.072868,171.874985 
	C129.537582,185.613770 144.596985,192.857788 160.628098,189.257675 
	C172.579193,186.573822 180.489029,179.871429 181.479248,170.536179 
	C182.746368,158.590347 179.598251,147.826126 169.523361,140.506836 
	C159.589539,133.290024 149.007675,133.958054 137.964142,140.401932 
z"/>
<path fill="#000000" opacity="1.000000" stroke="none" 
	d="
M194.544281,196.522232 
	C190.335266,197.209747 186.573685,197.838547 183.078888,199.571930 
	C179.654877,201.270218 177.281250,204.357178 173.926620,206.649933 
	C172.000259,204.057419 173.301758,202.498474 174.950439,200.982285 
	C180.282761,196.078476 186.491394,193.244171 193.780212,192.813385 
	C195.590149,192.706406 197.396591,192.336884 199.174042,191.948135 
	C200.561996,191.644547 201.583908,190.801926 201.751144,189.264542 
	C201.919174,187.719818 201.062790,186.870651 199.782990,186.140564 
	C196.055725,184.014236 192.156723,181.411362 193.763412,176.516998 
	C195.476471,171.298706 200.580627,172.928955 204.564972,172.768082 
	C205.860321,172.715790 207.216110,173.049667 208.474655,173.434494 
	C210.899353,174.175903 213.277161,175.094803 213.698471,178.102921 
	C214.096359,180.943787 212.336594,182.673584 210.538284,184.497665 
	C208.932083,186.126907 204.947876,185.953781 205.866516,189.417725 
	C206.843643,193.102203 210.438477,192.568527 213.360825,192.974533 
	C218.958694,193.752243 224.613876,194.360016 229.687973,197.192368 
	C232.320770,198.661972 234.551987,200.406433 234.727600,204.584183 
	C222.178284,196.451035 208.835144,195.076340 194.544281,196.522232 
z"/>
<path fill="#000000" opacity="1.000000" stroke="none" 
	d="
M263.686584,123.231735 
	C258.269623,118.903893 252.661270,119.927483 246.812103,122.298195 
	C247.947937,117.179878 252.959381,115.015961 258.759216,116.350403 
	C266.239960,118.071587 271.379089,123.429329 270.249939,128.647308 
	C267.096344,128.135223 266.422791,124.672691 263.686584,123.231735 
z"/>
<path fill="#000000" opacity="1.000000" stroke="none" 
	d="
M141.641113,118.266533 
	C139.514832,118.696327 139.225052,117.580566 139.803192,116.339264 
	C141.884125,111.871315 145.296295,108.830505 150.224075,108.002777 
	C155.138321,107.177322 159.845184,107.636238 163.329208,111.860840 
	C163.576553,112.160774 163.432129,112.783806 163.541321,114.151337 
	C155.292435,110.769516 147.832535,111.017509 141.641113,118.266533 
z"/>
<path fill="#000000" opacity="1.000000" stroke="none" 
	d="
M102.318863,84.214996 
	C98.980095,81.039856 99.387283,77.683022 100.918221,73.813614 
	C104.436104,75.048080 108.388176,75.742905 108.655533,79.888916 
	C108.881104,83.386826 105.733307,84.259003 102.318863,84.214996 
z"/>
<path fill="#000000" opacity="1.000000" stroke="none" 
	d="
M142.110779,102.891922 
	C143.016937,104.728210 142.858444,105.912712 140.809937,105.594383 
	C136.961075,104.996307 133.509750,103.422615 130.843506,100.524399 
	C129.659958,99.237885 129.106094,97.564011 130.702408,96.134277 
	C132.120209,94.864433 133.376450,95.617645 134.623611,96.681999 
	C137.003510,98.713112 139.469406,100.643478 142.110779,102.891922 
z"/>
<path fill="#000000" opacity="1.000000" stroke="none" 
	d="
M280.476929,113.714966 
	C281.971527,113.134666 283.144562,112.115242 284.825562,113.988228 
	C282.250702,117.736778 278.447083,119.459229 273.686981,121.039597 
	C274.041840,116.285294 277.641632,115.567871 280.476929,113.714966 
z"/>
<path fill="#000000" opacity="1.000000" stroke="none" 
	d="
M138.867096,142.772339 
	C147.255066,137.007004 155.829559,134.697632 164.879227,139.905640 
	C175.442642,145.984802 179.089539,155.791916 178.124939,167.440018 
	C177.396805,176.232590 168.342651,184.390900 159.206573,185.209579 
	C151.421417,185.907227 144.274002,183.809021 137.771378,179.849960 
	C127.355263,173.508224 125.813515,157.754898 134.363297,147.229416 
	C135.613190,145.690704 137.163193,144.395752 138.867096,142.772339 
M161.724335,158.961685 
	C162.931305,161.314514 164.471893,163.262360 167.491989,162.469131 
	C169.389771,161.970657 170.604584,160.637619 170.750320,158.552185 
	C170.911255,156.249817 169.666122,154.587234 167.766312,153.829727 
	C163.639816,152.184326 161.963120,154.448090 161.724335,158.961685 
z"/>
</svg>