<?xml version="1.0" encoding="utf-8"?>
<svg width="384" height="320" viewBox="0 0 384 320" fill="none" xmlns="http://www.w3.org/2000/svg">
  <g>
    <path d="M37.5146 150.674C32.6224 146.194 26.262 146.942 20.4231 145.183C21.9342 141.427 25.3774 140.747 27.9956 139.532C34.6456 136.445 39.1924 131.336 43.2299 125.545C46.1825 121.31 50.5922 117.425 51.7048 112.753C52.9153 107.671 46.663 104.466 44.455 99.9244C39.3499 89.423 36.789 78.2657 35.7342 66.7882C33.7175 44.8441 37.1722 23.3314 41.5978 1.93723C41.7266 1.31438 42.0572 0.733246 42.2227 0.312954C43.8333 -0.470924 44.7136 0.352287 45.4196 1.3029C53.493 12.1746 65.0386 18.6647 76.2091 25.5781C85.9859 31.6288 95.9504 37.4013 103.416 46.418C105.452 48.877 107.231 47.2937 109.165 46.5341C123.622 40.857 138.62 38.6785 154.494 39.4343C152.493 37.2118 149.729 37.4393 147.428 36.7387C144.731 35.9175 141.888 35.5864 139.159 34.8552C136.647 34.1822 133.9 35.3402 131.584 34.1952C131.261 32.1873 132.528 31.8052 133.562 31.4165C150.733 24.9656 169.091 27.2004 181.923 42.9671C183.693 45.1427 185.592 46.4899 188.352 47.238C193.538 48.6436 198.003 51.6968 202.535 54.4973C204.178 55.5121 205.727 56.5492 207.432 54.7951C221.172 40.6578 239.477 34.8794 257.018 27.7103C264.012 24.8517 271.084 22.1318 273.224 13.912C275.887 14.0784 275.821 15.8189 275.945 17.2061C277.755 37.4992 278.707 57.8967 274.78 77.951C271.7 93.6776 266.42 108.877 254.107 120.32C252.251 122.045 252.27 123.443 253.406 125.509C259.516 136.62 265.488 147.8 276.475 155.126C277.763 155.984 279.534 156.67 279.558 159.097C274.789 161.103 270.834 156.656 265.85 157.418C267.171 159.788 266.261 161.74 264.989 164.143C255.806 181.502 241.619 192.826 223.499 199.649C222.88 199.882 222.292 200.221 221.734 200.579C221.481 200.741 221.335 201.071 220.975 201.542C222.632 204.804 226.265 205.795 228.884 207.937C231.827 210.343 234.884 213.796 238.217 214.217C241.803 214.67 243.736 209.667 246.834 207.498C255.652 201.324 264.244 200.53 271.917 205.731C279.374 210.786 283.484 222.096 281.264 230.993C280.776 232.952 279.984 234.024 277.918 233.741C276.34 233.524 274.991 233.596 274.272 231.28C273.219 227.889 272.827 225.114 274.288 221.564C275.864 217.735 267.836 209.105 262.804 208.414C256.817 207.591 246.039 213.745 243.781 219.276C242.46 222.512 247.302 229.704 251 229.815C255.329 229.945 259.664 229.885 263.996 229.894C265.666 229.898 267.676 229.595 267.56 232.118C267.458 234.349 265.628 234.487 263.868 234.489C250.371 234.506 236.873 234.567 223.376 234.526C220.166 234.516 217.198 234.811 214.279 236.486C210.048 238.915 204.977 238.025 200.583 237.946C193.242 237.815 185.934 238.969 178.267 235.559C171.388 232.501 162.693 232.743 154.668 233.846C152.035 234.208 149.317 234.752 146.724 234.456C137.461 233.397 129.008 235.608 120.993 240.054C120.847 240.135 120.696 240.279 120.55 240.276C110.837 240.089 100.496 244.953 91.7801 236.711C90.2612 235.274 88.4708 234.595 86.3443 234.6C66.3661 234.644 46.3878 234.637 26.4096 234.683C20.42 234.697 14.4303 234.814 8.44142 234.923C6.79243 234.954 5.32139 234.614 4.98229 232.814C4.599 230.78 6.15646 230.341 7.7228 230.068C8.67008 229.903 9.74214 230.351 10.9825 229.039C7.29975 222.655 3.12443 216.223 1.41716 208.709C-0.918739 198.429 -1.00692 188.287 6.13884 179.796C14.9573 169.317 25.0372 170.086 33.6805 179.952C40.0367 187.207 44.411 195.96 49.2975 204.283C51.2277 207.57 53.1689 210.864 56.3959 214.319C63.1933 207.402 72.6811 205.179 80.4851 199.941C83.3721 198.003 82.9816 195.918 80.2169 194.107C79.3825 193.56 78.5268 193.035 77.6389 192.582C67.4856 187.404 58.5714 180.885 50.6499 172.412C44.6397 165.983 40.366 159.143 37.5146 150.674C37.5146 150.674 37.5146 150.674 37.5146 150.674ZM172.753 42.5825C169.378 36.9376 163.991 35.1091 157.867 34.6663C162.886 37.5318 167.208 41.6219 173.06 43.8511C173.734 46.8679 172.203 47.3442 169.702 46.8278C148.113 42.3702 127.109 43.4612 107.074 53.5224C104.853 54.6377 103.173 54.6796 101.562 52.2966C98.0806 47.1481 93.3772 43.1874 88.4812 39.3977C78.5688 31.725 67.0784 26.5356 56.9908 19.1613C53.3099 16.4705 49.7538 13.609 45.7843 10.5506C45.392 11.8737 45.1502 12.6254 44.9462 13.3872C41.7335 25.3839 41.1698 37.6738 40.7998 49.9992C40.1841 70.5091 42.5768 90.2045 55.858 107.017C58.1451 109.912 58.2308 112.751 56.2128 115.719C51.5385 122.596 46.8465 129.461 42.1417 136.317C40.6118 138.546 37.3315 139.26 36.4814 142.446C37.6513 142.989 38.5832 143.331 39.4243 143.827C42.7946 145.813 45.7984 146.754 45.2466 152.75C44.6781 158.926 49.8285 164.914 54.5547 169.197C62.2778 176.196 70.3058 183.084 79.9403 187.496C89.2869 191.776 97.6872 197.789 109.097 197.515C119.443 197.266 127.636 203.313 132.612 212.806C135.313 217.956 135.557 223.56 134.717 229.557C136.982 229.703 138.607 229.898 140.232 229.899C150.685 229.902 161.112 227.707 171.603 229.763C174.474 230.326 174.537 228.061 174.589 225.86C174.952 210.311 184.376 199.649 199.788 199.403C208.676 199.261 216.505 196.797 224.178 193.298C237.948 187.019 250.644 179.238 257.942 165.108C258.544 163.942 259.855 162.662 259.091 161.468C255.633 156.069 259.638 153.704 263.812 150.875C256.368 143.086 252.263 133.561 247.03 124.721C245.796 122.637 244.456 120.653 247.247 118.703C258.866 110.583 263.979 98.3266 267.865 85.4749C272.351 70.6394 272.116 55.2256 272.468 39.9351C272.564 35.7552 271.723 31.5538 271.272 26.9502C265.007 29.6729 259.681 32.7498 253.81 34.6811C247.974 36.6007 242.25 38.9523 236.662 41.5157C226.316 46.261 216.478 51.8264 209.415 61.1579C207.603 63.551 206 63.5127 203.631 61.6342C198.816 57.8145 193.61 52.4953 187.82 52.8618C181.115 53.2862 179.471 48.6358 175.888 45.7577C174.876 44.945 174.339 43.5552 172.753 42.5825C172.753 42.5825 172.753 42.5825 172.753 42.5825ZM95.18 232.517C98.0646 234.963 101.26 237.046 105.146 235.747C111.519 233.616 110.604 227.694 110.564 221.706C116.112 225.847 115.179 230.721 114.832 235.416C121.074 233.519 121.074 233.519 123.378 219.761C127.49 221.249 127.129 225.454 128.883 228.911C130.237 224.233 130.112 220.224 128.353 216.285C123.949 206.423 112.99 201.333 100.847 202.781C90.4942 204.016 80.7915 207.429 71.2537 211.145C65.2521 213.484 59.9589 217.497 57.7562 224.302C56.3746 228.57 57.0296 229.854 61.4268 229.909C67.7453 229.989 74.0657 229.936 80.3853 229.912C83.5025 229.9 86.7628 230.306 88.6434 227.156C91.6103 228.028 92.7041 230.534 95.18 232.517C95.18 232.517 95.18 232.517 95.18 232.517ZM12.1389 218.476C15.1578 225.365 19.4099 230.186 27.9453 229.433C32.3652 229.043 36.8922 229.512 41.3422 229.912C46.1764 230.347 50.2353 230.171 51.0087 223.941C51.2159 222.271 52.6032 220.748 53.542 218.983C46.2946 213.008 42.4462 204.821 37.917 197.097C34.895 191.943 32.1716 186.605 27.8125 182.315C22.3954 176.984 15.5866 177.245 11.2925 183.524C6.46581 190.583 4.70104 198.188 7.42988 206.727C8.65209 210.552 10.2886 214.142 12.1389 218.476C12.1389 218.476 12.1389 218.476 12.1389 218.476ZM179.911 219.844C178.498 227.099 180.371 230.773 186.743 232.621C185.739 228.666 184.376 224.683 188.191 221.098C191.399 231.518 192.337 232.51 198.714 232.409C199.635 229.377 197.066 225.475 200.962 222.524C202.644 226.801 202.894 232.37 208.437 232.658C213.251 232.908 216.337 228.277 220.406 226.429C223.913 230.485 234.18 231.146 240.213 227.906C239.739 225.378 238.254 223.422 236.617 221.517C229.411 213.13 219.839 208.579 209.604 205.44C197.157 201.624 185.436 207.295 179.911 219.844C179.911 219.844 179.911 219.844 179.911 219.844Z" fill="#000000" transform="translate(48.093 43.768)" />
    <path d="M53.431 9.9982C58.0733 16.2493 60.9125 22.8636 62.5247 30.1508C64.6964 39.9677 61.4293 47.4749 53.6393 53.2921C37.8514 65.0818 11.3554 59.2999 2.19778 42.1665C0.827377 39.6025 -0.111725 36.9291 0.0107117 34.0673C0.483704 23.0121 6.05312 8.16212 19.6825 2.17282C30.2629 -2.47661 43.4286 0.428314 53.431 9.9982C53.431 9.9982 53.431 9.9982 53.431 9.9982ZM55.5207 20.4187C51.5673 11.6287 45.1912 5.63628 35.3797 4.61241C23.3291 3.3549 15.907 6.4985 10.9009 14.3487C20.2664 6.38426 30.2546 3.08031 41.2749 9.54617C50.5593 14.9936 54.7879 23.598 53.8737 34.3406C52.5247 50.1914 39.8755 52.4447 27.8197 55.4889C31.6595 56.0744 35.3874 56.3871 39.1787 55.7076C56.8825 52.5347 63.7658 39.8539 56.6375 23.4737C56.3066 22.7134 56.0424 21.9242 55.5207 20.4187C55.5207 20.4187 55.5207 20.4187 55.5207 20.4187ZM18.2233 29.4702C22.6696 26.7966 23.8433 23.842 21.297 21.4336C19.9562 20.1653 18.2943 19.2386 16.34 20.1544C14.5914 20.9737 13.3675 22.3088 13.2699 24.3338C13.1263 27.3164 14.8065 28.8821 18.2233 29.4702C18.2233 29.4702 18.2233 29.4702 18.2233 29.4702ZM37.3607 46.5506C39.1469 45.4387 39.3076 44.0408 37.8021 42.6605C36.9987 41.9239 35.8837 42.1684 35.2769 43.0685C34.0387 44.9053 34.8497 46.0395 37.3607 46.5506C37.3607 46.5506 37.3607 46.5506 37.3607 46.5506Z" fill="#000000" transform="translate(222.935 140.681)" />
    <path d="M18.3271 60.1433C-4.46055 51.663 -3.91026 27.6412 8.60034 12.0249C16.4252 2.25754 26.701 -2.19844 39.1501 1.05174C50.8613 4.1093 58.4194 11.7961 61.4541 23.6846C63.8611 33.114 65.0513 42.377 58.5406 50.8763C53.19 57.8609 45.5666 60.6267 37.3932 61.9218C31.1313 62.9141 24.7544 62.7855 18.3271 60.1433C18.3271 60.1433 18.3271 60.1433 18.3271 60.1433ZM16.1676 9.40251C7.4451 18.104 1.01466 27.9419 4.27633 40.8756C7.74104 54.6143 22.8004 61.8584 38.8316 58.2583C50.7827 55.5744 58.6925 48.872 59.6827 39.5368C60.9498 27.5909 57.8017 16.8267 47.7268 9.50742C37.793 2.2906 27.2111 2.95863 16.1676 9.40251C16.1676 9.40251 16.1676 9.40251 16.1676 9.40251Z" fill="#000000" transform="translate(121.797 130.999)" />
    <path d="M21.5777 23.8737C17.3687 24.5613 13.6071 25.1901 10.1124 26.9234C6.68834 28.6217 4.31471 31.7087 0.960083 34.0014C-0.966278 31.4089 0.33522 29.85 1.9839 28.3338C7.31622 23.43 13.5249 20.5957 20.8137 20.1649C22.6236 20.0579 24.4301 19.6884 26.2075 19.2997C27.5955 18.9961 28.6174 18.1534 28.7846 16.6161C28.9526 15.0713 28.0963 14.2222 26.8165 13.4921C23.0892 11.3658 19.1902 8.76288 20.7969 3.86852C22.5099 -1.34978 27.6141 0.280472 31.5984 0.119598C32.8938 0.0673065 34.2496 0.401184 35.5081 0.786011C37.9328 1.52742 40.3106 2.44632 40.7319 5.45444C41.1298 8.2953 39.3701 10.0251 37.5717 11.8492C35.9655 13.4784 31.9813 13.3053 32.9 16.7692C33.8771 20.4537 37.4719 19.92 40.3943 20.326C45.9922 21.1038 51.6473 21.7115 56.7214 24.5439C59.3542 26.0135 61.5854 27.7579 61.7611 31.9357C49.2117 23.8026 35.8686 22.4279 21.5777 23.8737C21.5777 23.8737 21.5777 23.8737 21.5777 23.8737Z" fill="#000000" transform="translate(172.967 172.649)" />
    <path d="M16.8745 7.26696C11.4575 2.93912 5.84917 3.96271 0 6.33342C1.13583 1.2151 6.14728 -0.948814 11.9471 0.385628C19.4279 2.10681 24.567 7.46455 23.4378 12.6825C20.2842 12.1704 19.6107 8.70792 16.8745 7.26696C16.8745 7.26696 16.8745 7.26696 16.8745 7.26696Z" fill="#000000" transform="translate(246.812 115.965)" />
    <path d="M2.09833 10.6036C-0.0279541 11.0334 -0.317734 9.9176 0.260406 8.6763C2.34134 4.20835 5.75351 1.16754 10.6813 0.339813C15.5955 -0.485641 20.3024 -0.0267258 23.7864 4.19788C24.0338 4.49781 23.8893 5.12084 23.9985 6.48837C15.7496 3.10655 8.28975 3.35455 2.09833 10.6036C2.09833 10.6036 2.09833 10.6036 2.09833 10.6036Z" fill="#000000" transform="translate(139.543 107.663)" />
    <path d="M10.0327 5.77098C18.4207 0.00564575 26.9952 -2.30373 36.0449 2.90428C46.6083 8.98344 50.2552 18.7906 49.2906 30.4387C48.5624 39.2312 39.5083 47.3895 30.3722 48.2082C22.5871 48.9059 15.4396 46.8077 8.93701 42.8486C-1.4791 36.5069 -3.02085 20.7535 5.52893 10.2281C6.77882 8.68935 8.32883 7.39439 10.0327 5.77098C10.0327 5.77098 10.0327 5.77098 10.0327 5.77098ZM32.89 21.9603C34.0969 24.3132 35.6375 26.261 38.6576 25.4678C40.5554 24.9693 41.7702 23.6363 41.916 21.5508C42.0769 19.2485 40.8318 17.5859 38.9319 16.8284C34.8055 15.183 33.1288 17.4467 32.89 21.9603C32.89 21.9603 32.89 21.9603 32.89 21.9603Z" fill="#000000" transform="translate(128.834 137.001)" />
  </g>
</svg>