<?xml version="1.0" encoding="utf-8"?>
<svg width="384" height="320" viewBox="0 0 384 320" fill="none" xmlns="http://www.w3.org/2000/svg">
  <g>
    <path d="M133.609 226.488C127.476 225.37 122.837 228.209 117.999 230.318C113.862 232.121 109.459 231.926 105.112 232.444C96.4865 233.471 89.0736 233.179 82.5135 226.955C81.7699 226.249 79.9446 226.603 78.6208 226.602C57.2938 226.588 35.9668 226.573 14.6398 226.61C5.31844 226.627 5.3769 226.66 2.24208 217.585C-0.691135 209.094 -0.830215 200.699 2.3224 192.21C5.08441 184.772 9.89662 179.174 17.868 178.388C25.7751 177.607 31.6816 182.288 36.1272 188.576C41.4999 196.175 46.0014 204.326 51.0404 213.369C57.989 203.081 67.1574 196.737 78.8352 193.218C75.7291 189.311 72.1333 188.223 69.081 186.424C62.352 182.457 56.6258 177.467 50.7969 172.221C43.8102 165.933 39.3078 158.971 36.4626 150.429C35.7932 148.419 33.9402 148.487 32.3418 148.211C27.6752 147.405 22.9988 146.655 18.5649 145.923C18.1056 144.065 18.9648 143.416 19.8907 143.08C32.7623 138.41 39.3596 127.72 45.943 116.734C49.03 111.584 48.264 108.366 44.5293 103.905C35.9995 93.7156 32.3881 81.2558 30.2477 68.3213C26.9497 48.3918 28.5253 28.4888 30.4602 8.5883C30.743 5.6795 30.8038 2.64749 32.3171 0.227959C33.7605 -0.335297 34.6286 0.233192 35.2918 0.977032C44.8288 11.6737 57.4945 17.6684 69.9149 24.0142C79.1067 28.7105 88.1465 33.6212 95.6245 40.9037C97.6256 42.8525 99.6808 43.5326 102.372 42.2556C116.617 35.4962 131.638 32.4032 147.402 32.9263C147.859 32.9414 148.323 32.7571 149.476 32.5285C141.971 28.7962 134.276 28.5258 127.069 28.0165C126.735 25.7712 127.376 25.0293 128.377 24.6597C143.976 18.9023 163.276 18.8594 177.04 36.2195C177.801 37.1797 178.703 37.7319 179.876 38.091C186.262 40.0452 192.293 42.8127 197.907 46.4243C199.821 47.6553 201.519 48.182 203.169 46.1946C215.063 31.8661 231.981 25.8124 248.281 18.7089C252.549 16.849 256.737 14.773 260.829 12.5527C264.404 10.6131 266.025 6.81738 268.23 2.67982C271.996 7.009 271.136 11.6889 271.484 15.5903C273.022 32.8393 273.52 50.1754 270.896 67.3728C268.279 84.5258 263.392 100.808 250.099 113.022C258.069 126.574 265.16 140.381 280.07 148.519C274.317 151.172 269.955 147.746 265.368 147.602C265.328 155.044 261.732 160.827 257.389 166.387C249.702 176.226 240.078 183.629 228.529 189.136C232.29 195.101 237.412 198.642 242.496 202.203C243.953 203.224 244.914 201.901 246.013 201.216C250.253 198.571 254.487 195.69 259.606 195.275C276.171 193.932 285.025 210.785 281.846 223.582C281.449 225.178 280.693 225.975 279.107 225.724C277.121 225.411 275.643 224.538 275.866 222.138C276.448 215.86 274.142 210.568 270.565 205.546C267.567 201.337 263.445 201.039 259.008 201.457C254.925 201.841 252.162 204.598 249.432 207.275C248.796 207.898 249.128 208.828 249.478 209.623C251.06 213.223 253.445 216.432 254.342 220.393C254.625 221.642 256.421 221.869 257.819 221.801C260.307 221.681 262.8 221.627 265.28 221.414C266.924 221.273 267.866 221.939 268.107 223.491C268.353 225.08 267.511 226.064 265.981 226.303C264.838 226.482 263.657 226.46 262.493 226.463C251.497 226.497 240.5 226.505 229.503 226.547C224.052 226.568 218.815 226.757 213.386 228.655C208.409 230.394 202.47 229.139 197.145 230.178C188.994 231.769 181.988 227.884 174.468 226.518C165.007 224.799 155.548 226.472 146.089 226.457C142.09 226.451 138.091 226.477 133.609 226.488C133.609 226.488 133.609 226.488 133.609 226.488ZM119.518 195.701C127.003 202.65 129.36 211.444 128.084 220.928C142.994 222.675 157.299 219.576 171.561 221.736C175.066 222.267 175.202 219.937 175.102 217.321C174.564 203.286 185.785 190.626 200.013 191.244C212.822 191.8 222.833 186.116 232.931 180.075C236.384 178.009 240.982 176.517 241.599 171.229C241.769 169.77 243.641 170.001 244.964 169.757C249.454 168.931 259.177 157.159 258.032 152.981C256.638 147.896 257.342 144.261 262.576 141.445C256.874 134.759 252.304 127.866 247.898 120.872C242.452 112.23 242.683 111.16 250.139 104.683C250.764 104.139 251.424 103.588 251.892 102.918C258.557 93.3778 262.929 82.8356 265.161 71.4507C267.84 57.7855 267.32 43.9249 267.165 30.1116C267.115 25.5733 266.401 21.0424 265.939 15.9347C261.865 18.0096 258.486 19.7449 255.094 21.4551C245.753 26.1652 235.486 28.7824 226.506 34.3562C219.7 38.5806 212.936 42.8074 207.848 49.1262C203.489 54.5391 202.879 54.3648 196.609 51.6344C190.752 49.0837 185.987 43.0977 178.395 45.2399C177.799 45.4079 176.714 44.3395 176.044 43.66C172.78 40.3461 169.543 37.0031 166.367 33.6047C163.222 30.2395 159.24 28.7526 154.793 28.1024C158.784 32.1173 164.707 33.7897 167.787 38.8158C166.27 40.5356 164.747 39.7785 163.339 39.5541C155.79 38.3511 148.309 37.5239 140.56 38.2498C126.692 39.5489 113.154 41.5867 101.178 49.3276C98.651 50.961 96.7856 50.3163 95.1017 48.2668C92.9792 45.6835 90.5806 43.4193 88.0337 41.2478C72.5899 28.0807 52.3273 22.9371 36.5657 9.51934C36.1642 10.7843 35.9225 11.3651 35.7962 11.97C32.874 25.9681 33.3438 40.1705 33.904 54.283C34.6661 73.4784 39.7047 91.384 52.9299 106.108C54.9034 108.305 55.2582 110.44 53.8406 112.9C48.1017 122.86 44.2386 134.087 33.4425 142.048C39.8638 142.567 42.8853 147.125 47.4857 149.238C46.3858 150.996 44.1316 149.829 43.4768 151.819C44.4811 155.049 46.0329 158.075 48.0386 160.998C56.3446 173.102 68.7487 179.852 81.1523 186.557C86.328 189.355 91.7524 190.16 97.9454 189.352C105.38 188.384 112.896 189.969 119.518 195.701C119.518 195.701 119.518 195.701 119.518 195.701ZM77.3379 221.883C80.1074 222.529 80.1733 218.957 82.2855 218.492C84.497 220.477 86.5093 222.45 88.6967 224.205C91.5506 226.495 94.5546 229.017 98.525 226.997C102.429 225.012 104.311 221.646 103.996 217.178C103.916 216.035 103.676 214.836 104.898 214.06C107.674 217.226 107.674 217.226 107.827 227.526C116.349 225.456 116.605 218.579 116.271 211.261C121.22 213.583 119.546 217.936 121.28 220.641C122.212 220.481 122.257 219.766 122.408 219.144C125.244 207.404 115.64 194.984 102.642 194.632C87.0105 194.208 73.1046 199.39 61.3034 209.808C59.1518 211.707 57.8871 214.217 56.7347 216.852C55.1723 220.426 56.3861 221.883 59.9847 221.906C65.4816 221.941 70.9789 221.912 77.3379 221.883C77.3379 221.883 77.3379 221.883 77.3379 221.883ZM205.075 196.48C203.911 196.478 202.737 196.378 201.583 196.488C189.969 197.589 184.179 201.759 180.455 212.851C178.604 218.365 181.382 222.912 187.084 224.505C186.604 220.662 184.68 216.583 188.669 213.057C192.504 223.628 193.398 224.492 199.545 223.893C200.078 220.709 197.398 216.681 201.905 214.274C205.487 225.771 206.705 226.318 217.017 220.905C218.786 219.976 220.299 220.05 222.211 220.43C230.374 222.053 238.553 221.397 247.011 220.594C246.46 211.283 239.95 206.964 233.657 203.509C225.225 198.881 215.866 196.306 205.075 196.48C205.075 196.48 205.075 196.48 205.075 196.48ZM9.76493 191.157C5.18145 199.993 5.3018 208.877 8.98825 218.036C10.2081 221.067 11.7851 221.936 14.8876 221.888C24.3544 221.741 33.8263 221.949 43.2958 221.918C45.0154 221.912 46.9668 222.574 48.644 220.747C42.8889 210.927 37.5651 200.812 30.8136 191.581C24.1628 182.488 17.7639 182.244 9.76493 191.157C9.76493 191.157 9.76493 191.157 9.76493 191.157Z" fill="#000000" transform="translate(47.489 51.739)" />
    <path d="M43 7.6447C41.6715 9.42484 39.2675 9.24197 37.4014 8.29425C28.9638 4.00891 18.8721 2.05689 5.37129 4.13258C3.64975 4.39725 1.63594 4.1198 0 3.12196C1.88312 0.0849686 8.62659 0.00763702 14.489 6.86646e-05C27.9201 -0.0172806 40.0223 3.26163 43 7.6447C43 7.6447 43 7.6447 43 7.6447Z" fill="#000000" transform="translate(226 124)" />
    <path d="M51.9522 1.45351C55.1069 2.36488 58.1296 3.04146 56.5824 4.43007C55.3532 5.53322 52.4544 5.65129 50.0118 5.15462C33.1699 1.72997 19.5006 3.83307 7.22433 8.64542C5.38005 9.36841 3.12645 9.87051 0.273056 9.45541C-3.04384 1.96626 24.4221 -2.45778 51.9522 1.45351C51.9522 1.45351 51.9522 1.45351 51.9522 1.45351Z" fill="#000000" transform="matrix(0.946 0.326 -0.326 0.946 110.852 104.859)" />
    <path d="M25.4893 47.8994C18.2575 44.753 11.4982 40.9962 9.53119 33.3907C7.91599 27.1455 5.69852 21.8051 1.67625 16.6765C-1.59407 12.5067 0.254028 7.35445 4.34808 5.00139C5.60011 6.88438 3.98853 8.47755 3.79735 10.1968C3.52057 12.6859 3.90013 14.8679 6.0553 16.3966C7.99454 17.7721 9.73161 17.0345 11.583 15.936C20.9962 10.3507 30.3027 4.66145 40.9145 1.32358C48.5822 -1.08826 55.6446 0.0662689 62.8131 2.61882C63.9198 3.01288 65.3224 3.49046 65.3199 4.76794C65.3075 11.0175 69.4743 15.7495 71.1991 21.38C73.5836 29.1638 69.977 40.2518 62.9783 44.138C51.179 50.6896 38.7649 51.7632 25.4893 47.8994C25.4893 47.8994 25.4893 47.8994 25.4893 47.8994ZM13.0095 33.3216C18.0614 42.598 31.8594 49.0598 41.3351 46.0435C34.8083 44.0201 28.8965 42.0537 24.6673 36.8983C20.4534 31.7616 18.5325 25.7149 17.3509 19.4278C11.1119 20.5574 10.5056 26.0979 13.0095 33.3216C13.0095 33.3216 13.0095 33.3216 13.0095 33.3216ZM35.4846 13.0166C33.4748 10.8329 31.4236 10.217 29.1326 12.6896C27.5439 14.4043 26.4883 16.1348 27.9466 18.4544C29.3846 20.7416 31.7152 21.0921 33.6005 19.9179C35.7036 18.608 38.2694 16.7642 35.4846 13.0166C35.4846 13.0166 35.4846 13.0166 35.4846 13.0166Z" fill="#000000" transform="translate(211.506 148.392)" />
    <path d="M42.5209 50.6486C30.6405 53.494 20.0074 51.4767 10.0921 45.2017C1.30012 39.6376 -2.3299 27.2249 1.54108 16.8549C2.93945 13.1088 5.7345 9.72604 4.52297 5.11584C4.01208 3.17177 6.43168 2.73111 7.9407 2.14801C18.5128 -1.93712 28.6216 0.291443 38.4035 4.75861C45.3394 7.92607 52.0857 11.4483 58.2125 16.1599C63.7508 20.4189 68.063 18.3982 69.0747 11.6129C69.2793 10.2404 68.5687 8.58061 70.1536 7.55354C73.5457 11.0217 72.9701 17.7458 68.2157 21.733C65.4271 24.0717 64.6655 26.427 64.5499 29.8141C64.2653 38.1566 59.2688 43.6095 52.3143 47.2869C49.4284 48.813 46.3278 50.2549 42.5209 50.6486C42.5209 50.6486 42.5209 50.6486 42.5209 50.6486ZM32.7673 48.6257C35.0772 48.3679 37.4794 48.4377 39.4309 47.2385C30.9575 43.5859 21.6927 41.9949 16.1467 33.5956C10.4057 24.9011 12.126 16.0884 16.1942 7.01083C12.7671 7.12817 10.7762 8.20412 9.12429 9.95724C6.273 12.9834 5.4125 17.0004 4.1659 20.7319C2.14475 26.7821 5.29269 37.0196 9.89948 40.7658C16.5148 46.1453 23.7212 48.4548 32.7673 48.6257C32.7673 48.6257 32.7673 48.6257 32.7673 48.6257ZM46.8462 19.4095C48.5859 20.0401 50.3079 20.5578 51.8983 18.4195C50.0339 15.5704 47.8557 13.765 44.2014 15.0301C43.8208 17.2104 45.4835 17.8362 46.8462 19.4095C46.8462 19.4095 46.8462 19.4095 46.8462 19.4095Z" fill="#000000" transform="translate(117.64 145.764)" />
    <path d="M0 34.4594C2.37527 27.1443 8.2003 24.3439 14.3932 22.0915C16.8798 21.1871 19.5039 20.6259 22.0991 20.0643C24.752 19.4901 25.0387 17.2898 26.0743 15.2848C23.9337 14.0343 21.7931 13.2532 20.3026 11.8036C18.0465 9.6096 15.6913 6.81221 17.2674 3.47903C19.0419 -0.27388 23.2019 0.539001 26.5314 0.015213C27.2752 -0.101791 28.1087 0.489655 28.9216 0.649292C32.0597 1.26546 36.1052 0.592636 36.6739 5.21585C37.1691 9.24203 34.2239 11.476 31.4393 13.6483C30.792 14.1533 30.1362 14.6474 29.3552 15.2454C30.0176 18.9597 32.6577 19.8264 35.7919 20.2996C43.3057 21.4341 50.5641 23.2402 55.5279 29.7C56.6457 31.1547 58.5808 32.5989 56.9051 34.7968C55.8871 35.3003 55.0932 35.0048 54.6281 34.2488C50.7773 27.9901 44.2813 26.5938 37.9154 24.387C28.8597 21.2478 20.7128 24.2975 12.4534 26.7543C8.21576 28.0149 5.26453 31.3766 2.96236 35.2061C1.86038 37.0391 0.452133 38.7849 0 34.4594C0 34.4594 0 34.4594 0 34.4594Z" fill="#000000" transform="translate(174.046 175.649)" />
  </g>
</svg>
