<svg version="1.1" id="Layer_1" xmlns="http://www.w3.org/2000/svg" xmlns:xlink="http://www.w3.org/1999/xlink" x="0px" y="0px"
	 width="100%" viewBox="0 0 384 320" enable-background="new 0 0 384 320" xml:space="preserve">
<path fill="#000000" opacity="1.000000" stroke="none" 
	d="
M196.891205,277.258087 
	C151.750092,277.300629 107.095352,277.359619 62.440723,277.309479 
	C60.231339,277.307007 56.342949,278.651459 56.225441,275.312927 
	C56.081417,271.221130 60.205326,272.911713 62.502598,272.835510 
	C69.281532,272.610596 76.072731,272.755188 83.470230,272.755188 
	C82.027359,264.177063 80.621475,256.341370 80.391403,248.404572 
	C80.192032,241.526657 76.823021,235.417084 75.590324,229.107590 
	C73.679092,219.325058 69.792892,212.497971 61.221066,207.956314 
	C60.088425,207.356201 59.240372,206.189423 58.325954,205.223145 
	C58.009060,204.888290 57.890610,204.365662 57.726406,204.022568 
	C57.896141,203.096725 58.513828,202.743256 59.181133,202.839462 
	C67.709312,204.068848 73.354141,199.338425 78.500427,193.558807 
	C79.054176,192.936935 79.543190,192.255295 80.117500,191.654190 
	C86.560814,184.910217 90.822762,178.997391 83.397552,169.017639 
	C77.120010,160.580399 76.185562,149.180344 75.623177,138.404236 
	C74.518883,117.244400 77.716965,96.611603 82.973869,76.216125 
	C83.298988,74.954750 83.881477,73.759720 84.275154,72.716797 
	C85.487297,72.282295 86.202225,72.709229 86.675415,73.437706 
	C93.093613,83.318604 102.172226,90.385666 111.892769,96.579002 
	C123.592812,104.033577 134.980148,111.750832 143.333633,123.336006 
	C155.670425,117.668068 168.387314,115.385300 181.520142,115.969810 
	C203.401962,116.943718 223.971939,122.142700 241.699158,135.839249 
	C243.129013,136.944000 244.548492,138.259445 246.519150,136.539536 
	C259.079224,125.577660 274.568756,120.953255 290.076263,116.246895 
	C299.285645,113.451942 309.648712,112.335815 314.223389,100.839592 
	C316.485687,105.385880 315.319489,109.087234 315.390778,112.622581 
	C315.824493,134.118713 313.161926,155.174362 305.266754,175.311157 
	C301.040253,186.090988 295.614594,196.214264 286.222748,203.538574 
	C283.223022,205.877914 282.775970,208.340515 284.279083,211.791016 
	C289.601074,224.008026 295.703064,235.771240 304.370850,247.071869 
	C299.291901,247.284561 296.941833,242.892899 292.630310,242.819214 
	C293.929352,246.091156 291.624817,248.313522 289.959869,250.706100 
	C288.154266,253.300797 286.126923,255.740570 284.212280,258.260040 
	C281.058228,262.410431 280.938629,266.933044 283.708252,271.043121 
	C285.154633,273.189545 287.252747,272.502289 289.151642,272.482178 
	C295.144623,272.418823 301.136871,272.128479 307.128296,272.157013 
	C309.203613,272.166901 312.503479,271.218353 312.411652,274.841003 
	C312.330444,278.046295 309.330658,277.187286 307.318665,277.199158 
	C294.655731,277.273712 281.983124,276.984314 269.331909,277.386749 
	C258.749573,277.723358 248.152267,278.493469 237.774582,280.925629 
	C235.617844,281.431091 233.370865,281.621887 231.398773,280.607208 
	C221.476852,275.501984 210.967438,276.029816 200.372513,277.124969 
	C199.380417,277.227539 198.376190,277.212891 196.891205,277.258087 
M284.533447,123.072021 
	C270.994415,127.745399 257.170074,131.869354 247.128098,143.101089 
	C245.683289,144.717087 244.098999,144.761551 242.399033,143.099777 
	C230.493454,131.461761 215.637436,125.787064 199.678543,122.926239 
	C181.055527,119.587822 162.537827,119.254189 145.039764,128.235947 
	C142.633301,129.471191 141.120346,128.900055 139.590942,126.744453 
	C137.574631,123.902557 135.393845,121.131340 132.973892,118.629463 
	C119.362091,104.556839 100.264488,97.599319 87.203568,82.408264 
	C80.440529,99.352196 78.430313,137.883667 83.248901,152.928833 
	C84.320793,154.247757 85.165070,150.410767 86.283234,152.802094 
	C86.761742,153.825409 87.619141,154.753281 87.135231,156.001038 
	C86.147614,157.018707 84.875832,155.134705 83.590317,156.855820 
	C86.121147,163.516266 88.881615,170.387482 93.498795,176.346741 
	C94.952614,178.223145 95.813461,179.932236 94.097221,182.137314 
	C88.981010,188.710800 83.856506,195.265259 77.937523,201.163773 
	C75.538879,203.554123 72.126564,204.956879 70.653748,208.102783 
	C71.444794,209.807373 72.935699,209.883240 74.093834,210.453201 
	C80.155914,213.436539 80.589615,213.262100 83.313293,207.007462 
	C86.575127,199.516953 93.329948,196.248459 101.303650,198.616241 
	C104.785812,199.650299 108.005409,200.342834 111.359367,197.472214 
	C107.639465,185.625793 113.294907,176.528809 120.864723,168.269791 
	C128.881561,159.523026 138.992584,156.491089 150.397644,159.651672 
	C161.850861,162.825607 169.524887,170.091156 171.898575,182.206543 
	C175.859619,202.423782 168.572128,212.221588 148.143845,214.700790 
	C143.265457,215.292831 138.438995,213.682556 133.412750,214.623062 
	C138.338440,223.126175 137.717392,229.609192 131.222687,236.825470 
	C129.691452,238.526810 129.246368,240.031876 129.695694,242.196732 
	C131.420029,250.504745 133.224792,258.806213 134.563507,267.179871 
	C135.254044,271.499207 137.086960,272.922791 141.456146,272.786957 
	C165.879257,272.027527 190.312241,271.589966 214.737137,270.880615 
	C219.154388,270.752319 222.250549,269.332062 222.937256,263.651154 
	C223.879089,255.859543 228.505066,249.805679 235.756348,246.257690 
	C248.574249,239.985992 264.927002,243.179504 274.776642,253.680847 
	C275.859100,254.834915 276.527740,256.582520 278.673920,256.823608 
	C281.383118,253.586197 286.524170,249.965820 285.736542,246.599548 
	C284.407043,240.917679 286.560150,238.340210 290.733246,235.714264 
	C285.675812,226.678864 281.252319,217.743118 277.661316,208.407776 
	C276.607727,205.668854 276.764709,203.833878 279.361664,202.035675 
	C290.932678,194.023483 297.839386,182.549774 302.337891,169.578064 
	C306.441772,157.744263 308.518036,145.432129 309.781769,132.974167 
	C310.380554,127.070999 311.272034,121.201492 310.229309,114.705589 
	C301.809784,117.983139 293.651367,120.736900 284.533447,123.072021 
M85.595940,234.009827 
	C83.970276,245.410675 86.441566,256.497223 88.032616,267.672241 
	C88.608482,271.716949 90.574249,272.862488 94.378479,272.801971 
	C104.863564,272.635101 115.353035,272.758118 125.840561,272.715027 
	C127.277565,272.709137 128.865784,273.123291 130.293533,271.619568 
	C128.589035,261.858521 126.889206,251.918304 125.101311,241.993958 
	C124.451523,238.387131 124.531975,235.522095 127.990967,232.836151 
	C133.023758,228.928116 133.276932,221.610565 128.775909,218.047256 
	C126.240601,216.040161 124.974350,213.848618 124.137901,210.812286 
	C122.376205,204.417358 114.574860,201.012360 109.499550,204.627304 
	C106.686653,206.630829 105.099159,205.980942 102.582291,204.515533 
	C96.882851,201.197144 89.400208,203.953293 87.587273,209.527939 
	C86.900276,211.640396 88.575134,213.827621 87.153122,215.773514 
	C80.934639,217.336838 79.704460,219.273956 79.919144,225.600174 
	C80.053207,229.550735 82.657745,231.350067 85.595940,234.009827 
M276.375671,266.134003 
	C271.420471,252.921188 260.868134,248.452026 248.578430,248.418793 
	C237.782715,248.389587 230.274094,254.388626 227.722214,263.780579 
	C226.058044,269.905365 228.867249,274.731262 234.818848,275.413055 
	C233.855789,271.774689 232.727310,268.109467 236.043793,264.021851 
	C238.085815,269.874756 239.979141,275.227509 247.376755,274.143097 
	C248.273483,271.263672 246.007553,267.815643 248.831711,265.248474 
	C255.088531,275.735748 255.100906,275.750519 264.537292,267.842438 
	C266.058594,266.567535 267.860687,266.781128 268.252655,268.289093 
	C269.787292,274.193024 273.650116,271.815521 276.931183,271.443726 
	C278.007507,269.591278 276.905579,268.267181 276.375671,266.134003 
M123.669739,170.165176 
	C119.217064,175.394348 114.567139,180.769608 113.793823,187.769562 
	C112.889420,195.956177 115.171471,199.983978 122.028732,199.426102 
	C115.504745,186.511261 121.154228,171.305130 134.239182,166.560562 
	C149.463699,161.040161 164.732437,171.093979 166.176483,187.589859 
	C167.537292,203.135071 160.399170,210.352097 144.859222,209.354416 
	C138.518906,208.947372 132.800232,206.467499 126.745819,204.015442 
	C127.955498,208.191422 130.429947,209.752151 134.157013,210.278336 
	C140.479263,211.170883 146.824463,211.403305 153.064026,210.438248 
	C159.143890,209.497925 165.109833,206.955078 167.408005,200.862793 
	C171.215057,190.770569 169.976318,180.730148 163.497269,171.963181 
	C155.981201,161.792999 137.772598,156.716461 123.669739,170.165176 
M153.319229,181.768555 
	C150.257278,184.271866 150.100266,187.131592 152.902161,189.732056 
	C154.981964,191.662369 157.251434,190.726074 158.949707,188.793015 
	C160.274475,187.285095 160.266998,185.408020 159.410141,183.694977 
	C158.303055,181.481720 156.375900,180.835373 153.319229,181.768555 
M130.672592,198.592041 
	C131.107330,200.511795 132.130508,201.180069 133.802551,199.871368 
	C134.721039,199.152481 134.713135,198.114517 133.887924,197.286148 
	C132.533798,195.926788 131.567337,196.622635 130.672592,198.592041 
z"/>
<path fill="#000000" opacity="1.000000" stroke="none" 
	d="
M132.281372,132.373642 
	C134.394958,136.469116 131.670868,135.828033 129.727234,135.261505 
	C123.090225,133.326904 117.054268,130.730637 113.728966,123.799149 
	C110.988533,118.086792 108.794281,118.082603 104.723198,122.805061 
	C99.944168,128.348770 100.958313,134.532608 107.428413,137.905609 
	C110.960327,139.746857 112.472237,142.696228 112.762566,146.322754 
	C112.966209,148.866470 112.173370,150.551514 108.776604,150.573593 
	C99.752457,150.632263 95.772697,157.221924 99.625771,165.199463 
	C100.617020,167.251785 101.725113,169.247681 102.779526,171.269501 
	C102.447983,171.517410 102.116432,171.765305 101.784889,172.013199 
	C99.940804,169.345657 97.733192,166.855316 96.328392,163.973618 
	C93.412476,157.992126 91.136040,151.736359 89.615105,145.218170 
	C89.075729,142.906570 89.918411,140.983765 90.594200,138.935806 
	C92.869453,132.040619 94.990074,125.360306 88.934425,118.881050 
	C86.141792,115.893074 88.380875,105.228065 91.465698,102.958954 
	C94.955681,100.391815 100.844025,102.087967 103.234604,106.161003 
	C106.663589,112.003265 110.587364,116.922440 117.518616,119.583961 
	C123.493683,121.878296 126.781036,128.403915 132.281372,132.373642 
z"/>
<path fill="#000000" opacity="1.000000" stroke="none" 
	d="
M297.774780,125.656677 
	C302.612427,125.336189 304.283478,127.820007 303.905731,131.780228 
	C303.559784,135.406952 302.871307,139.017502 302.087494,142.581009 
	C301.397644,145.717300 299.318665,146.111328 297.653961,143.598236 
	C295.381531,140.167770 292.613953,140.355347 289.416534,141.424133 
	C285.950836,142.582642 282.465942,143.698318 279.059479,145.014023 
	C277.189606,145.736237 275.617767,146.871262 275.049316,149.101089 
	C273.235504,156.215622 269.445923,159.283142 261.224030,160.122147 
	C262.846588,155.014923 268.622620,154.143112 271.213623,149.539230 
	C265.275055,148.211487 259.443054,150.462036 253.015747,148.368759 
	C265.490051,135.173706 278.840637,125.485245 297.774780,125.656677 
z"/>
<path fill="#000000" opacity="1.000000" stroke="none" 
	d="
M220.788391,183.685089 
	C235.335007,174.013947 253.232147,177.532425 262.643768,191.738327 
	C267.699280,199.369125 269.623901,207.971634 269.131531,216.954803 
	C268.569946,227.200485 259.135559,235.735611 248.874466,236.244705 
	C237.018829,236.832932 226.513214,233.014923 217.029037,226.379379 
	C205.784256,218.512009 204.365646,206.302032 212.703201,192.901855 
	C214.822479,189.495728 217.177734,186.274353 220.788391,183.685089 
M215.241318,195.767868 
	C214.527542,197.271637 213.770096,198.756454 213.107101,200.282288 
	C208.948563,209.852844 209.923767,215.743011 218.069611,222.339279 
	C226.855850,229.454132 237.200989,233.120590 248.619995,232.604843 
	C255.432327,232.297150 260.325623,228.542480 263.742279,222.608948 
	C266.868896,217.179077 265.695709,211.620178 264.715912,206.070465 
	C262.376312,192.818756 254.259521,184.381699 241.913727,182.129822 
	C231.305695,180.194931 221.748322,184.908066 215.241318,195.767868 
z"/>
<path fill="#000000" opacity="1.000000" stroke="none" 
	d="
M196.505341,235.293716 
	C191.431183,245.939117 177.648178,243.077118 173.266464,234.909485 
	C170.336151,229.447357 170.022888,223.660507 168.990845,216.267731 
	C175.682907,222.016800 181.856216,223.605789 188.520981,217.508194 
	C191.137375,224.994141 196.753693,224.314621 202.822250,223.742035 
	C199.352341,227.066177 197.959457,230.984360 196.505341,235.293716 
z"/>
<path fill="#000000" opacity="1.000000" stroke="none" 
	d="
M179.274750,207.109192 
	C182.937103,201.566818 194.986359,202.096329 197.651199,207.622406 
	C199.253082,210.944260 197.765228,213.402679 194.840363,215.091095 
	C188.676437,218.649307 181.252808,215.011307 179.274750,207.109192 
z"/>
<path fill="#000000" opacity="1.000000" stroke="none" 
	d="
M277.116577,189.590012 
	C276.014954,190.960876 275.005737,192.049469 272.904602,192.015152 
	C269.677094,185.948914 269.680908,179.378799 270.614899,172.604218 
	C273.457336,177.948685 272.542755,184.741928 277.116577,189.590012 
z"/>
<path fill="#000000" opacity="1.000000" stroke="none" 
	d="
M115.361992,135.597137 
	C120.135765,137.650696 121.183304,138.817581 122.403694,143.103073 
	C118.006699,143.128967 113.657906,138.684738 115.361992,135.597137 
z"/>
<path fill="#000000" opacity="1.000000" stroke="none" 
	d="
M111.664589,226.132935 
	C114.642715,229.689957 117.486359,232.896286 119.943077,236.375839 
	C121.852509,239.080246 121.523933,242.100525 119.633644,244.791550 
	C117.330727,248.069977 114.021561,249.695328 110.124924,248.905746 
	C106.813438,248.234756 103.686623,248.204834 100.332069,248.581741 
	C96.075081,249.059998 92.461121,247.180481 90.605042,243.082199 
	C88.880180,239.273636 89.878189,236.006027 93.117935,233.302475 
	C94.374313,232.254044 95.427864,230.908905 96.384560,229.564270 
	C100.549515,223.710449 104.701477,222.665451 111.664589,226.132935 
z"/>
<path fill="#000000" opacity="1.000000" stroke="none" 
	d="
M117.017975,219.985474 
	C111.950531,224.761292 111.208427,224.806000 104.898781,220.534943 
	C102.353012,222.582123 99.447464,224.065201 95.957275,222.938904 
	C95.263527,229.300385 92.242928,232.935455 88.463470,231.767181 
	C84.777039,230.627640 83.521225,227.461960 84.081696,223.796646 
	C84.822716,218.950623 87.738861,217.318008 93.428719,218.491379 
	C93.785294,215.087021 93.471764,211.133545 97.564995,209.693604 
	C101.098717,208.450470 103.030502,211.150421 105.329063,213.935791 
	C107.087639,210.932922 109.307297,208.375549 112.896538,209.882858 
	C116.969109,211.593170 117.097725,215.455521 117.056297,219.600250 
	C117.000122,220.001450 117.017975,219.985474 117.017975,219.985474 
M91.624733,226.052094 
	C91.849777,223.913071 91.533875,221.757965 88.957779,221.784607 
	C87.045708,221.804352 87.023872,223.848740 87.396187,225.274567 
	C87.958649,227.428543 89.230080,228.400162 91.624733,226.052094 
z"/>
<path fill="#000000" opacity="1.000000" stroke="none" 
	d="
M116.993546,220.011642 
	C119.731438,217.580231 122.450867,216.925613 125.032143,220.221817 
	C127.614761,223.519775 127.348755,228.757278 124.521133,231.050858 
	C122.815994,232.433945 120.901665,232.680267 118.953468,231.777679 
	C116.479645,230.631546 115.257401,228.583450 115.207977,225.851929 
	C115.173782,223.962082 116.076500,222.355957 116.902092,220.338791 
	C117.017975,219.985474 117.000122,220.001450 116.993546,220.011642 
z"/>
<path fill="#000000" opacity="1.000000" stroke="none" 
	d="
M242.299026,185.187256 
	C257.262421,189.691193 264.278900,201.203857 261.060852,216.013458 
	C260.005493,220.870377 257.284271,225.051971 252.307068,226.796844 
	C240.876083,230.804245 230.073837,229.275696 220.051208,222.449860 
	C214.955765,218.979660 213.225571,213.877609 213.932007,208.093735 
	C215.730682,193.367462 229.261490,182.416428 242.299026,185.187256 
M228.229675,205.568390 
	C231.341125,204.337692 233.586258,202.509018 231.865936,198.823685 
	C230.959702,196.882294 229.109390,195.927612 226.883957,196.258636 
	C224.856964,196.560165 223.463058,197.825012 223.278336,199.844116 
	C222.999878,202.887604 224.397263,204.944962 228.229675,205.568390 
z"/>
</svg>