<?xml version="1.0" encoding="utf-8"?>
<svg width="384" height="320" viewBox="0 0 384 320" fill="none" xmlns="http://www.w3.org/2000/svg">
  <g>
    <path d="M158.809 204.381C151.684 202.764 145.103 204.844 138.453 204.826C105.788 204.741 73.1229 204.849 40.4577 204.883C30.3061 204.893 20.1429 205.161 10.0095 204.733C6.5072 204.585 0.0880241 207.26 0.00069046 202.424C-0.0765839 198.145 6.3333 200.746 9.80755 200.339C15.2122 199.706 20.7345 200.724 26.6793 199.779C25.4785 192.045 24.263 184.535 23.8338 176.942C23.6837 174.287 23.1952 171.636 23.2284 168.988C23.2654 166.027 22.5804 163.629 20.6091 161.24C17.5164 157.492 17.1469 152.618 16.733 148.001C16.453 144.877 15.5008 143.029 12.5985 141.384C8.21895 138.901 3.92831 135.998 0.691425 131.678C1.45106 131.08 1.86893 130.5 2.16196 130.557C11.7262 132.429 17.2323 126.244 22.8964 120.26C29.6323 113.144 34.4892 106.93 26.7081 96.2966C20.1763 87.3702 19.4724 75.4796 18.9846 64.1569C18.1008 43.6383 21.4526 23.7101 26.3328 3.93461C26.5714 2.96774 26.9015 2.01556 27.2826 1.09534C27.4567 0.675049 27.8588 0.349213 28.0721 0.0859985C29.267 -0.252289 29.8317 0.472313 30.267 1.13083C37.4368 11.9768 47.6057 19.4853 58.4364 26.162C68.2977 32.241 77.3713 39.1964 84.7672 48.1676C86.356 50.095 87.6247 50.4712 90.2144 49.5646C123.786 37.8115 155.046 43.2897 184.298 62.7057C186.382 64.0885 187.976 66.002 190.763 63.6182C202.738 53.3777 217.321 48.6432 232.109 44.3738C236.264 43.1742 240.316 41.5987 244.5 40.5235C250.49 38.9841 254.694 35.33 257.184 29.9313C259.48 30.718 259.412 32.1812 259.414 33.439C259.461 56.8651 257.909 80.0924 249.24 102.194C244.706 113.752 238.978 124.674 228.701 132.367C225.984 134.4 226.781 136.549 227.794 138.975C232.815 151.001 238.805 162.482 246.681 172.918C247.057 173.416 247.289 174.023 247.882 175.127C242.879 174.996 240.211 170.534 235.247 170.28C237.649 172.215 236.704 173.889 235.467 175.549C232.683 179.286 230.159 183.256 227.061 186.71C223.572 190.601 225.652 194.231 226.99 197.838C228.296 201.361 231.455 199.718 233.955 199.706C239.953 199.676 245.952 199.576 251.95 199.596C253.758 199.603 255.971 199.57 255.905 202.225C255.839 204.847 253.687 204.707 251.839 204.712C239.673 204.747 227.505 204.641 215.342 204.827C203.9 205.002 192.527 206.044 181.318 208.512C179.007 209.02 176.39 209.37 174.5 207.958C169.854 204.488 164.505 204.864 158.809 204.381C158.809 204.381 158.809 204.381 158.809 204.381ZM223.618 52.2827C211.754 56.3436 199.996 60.5995 191.207 70.2125C189.213 72.3942 187.402 72.328 185.322 70.1789C178.193 62.8165 169.294 58.2432 159.767 55.0131C136.064 46.9763 112.308 44.8586 88.7338 55.6118C85.8295 56.9367 84.1549 55.9221 82.5465 53.4821C79.0337 48.1531 74.5867 43.6225 69.5373 39.7567C56.6385 29.8814 41.8607 22.5341 30.3967 9.81963C29.8856 11.3316 29.6075 12.0656 29.388 12.8167C24.9036 28.1656 24.6504 43.9473 24.0625 59.7687C23.7517 68.1341 26.751 75.8671 26.926 84.0394C26.9499 85.1557 27.474 86.3062 27.9459 87.3605C30.5296 93.1332 33.0025 98.9739 36.9864 103.984C38.305 105.642 39.3667 107.353 37.7565 109.356C31.9311 116.601 26.8052 124.439 19.5125 130.443C17.5615 132.049 14.9184 133.12 14.0057 135.824C22.6324 141.863 22.6325 141.863 27.2504 133.185C30.6411 126.814 36.9499 124.063 44.1224 126.174C47.7685 127.247 51.1815 127.957 54.7155 125.171C51.064 111.357 58.0967 101.36 67.639 92.8799C82.7721 79.4308 109.397 86.9646 114.294 106.565C119.803 128.616 113.74 141.974 88.137 142.618C84.4188 142.711 80.6961 142.631 77.0601 142.631C81.7259 150.829 81.1926 157.13 74.7119 164.259C73.0128 166.128 72.6854 167.795 73.1683 170.102C74.8377 178.079 76.6986 186.039 77.8247 194.098C78.5499 199.288 81.0045 200.343 85.7873 200.307C103.775 200.173 121.735 198.985 139.739 199.234C145.996 199.32 152.292 198.248 158.637 198.322C162.748 198.371 165.809 197.319 166.392 191.611C167.268 183.039 172.265 176.504 180.594 173.166C194.332 167.659 208.806 171.039 218.866 181.938C219.819 182.971 220.475 184.566 222.277 184.464C227.62 178.793 227.627 178.794 228.431 169.687C228.563 168.2 229.656 167.413 230.536 166.421C231.611 165.208 233.625 165.083 234.23 163.223C229.954 154.924 225.685 146.656 221.958 138.092C219.926 133.425 220.777 130.44 224.718 128.035C234.665 121.968 239.566 112.081 244.119 102.105C249.783 89.6957 251.455 76.2428 253.133 62.8589C253.968 56.1968 254.924 49.5088 253.728 42.5101C248.572 44.2967 243.903 46.0056 239.174 47.5281C234.263 49.1092 229.295 50.5101 223.618 52.2827C223.618 52.2827 223.618 52.2827 223.618 52.2827ZM69.4117 175.751C69.2539 174.26 69.2523 172.733 68.9096 171.286C67.8278 166.72 67.2542 162.57 72.2925 159.555C74.1666 158.434 74.8287 155.771 75.1426 153.366C76.1835 145.392 66.5984 142.855 66.0877 135.462C65.9206 133.044 62.7003 132.039 60.2854 131.244C55.988 129.829 52.5857 131.871 49.5388 134.326C38.3105 127.233 31.3542 130.55 30.6832 143.568C26.5177 143.248 23.8267 145.357 23.0809 149.543C22.319 153.819 23.2161 157.482 27.4454 159.68C29.0534 160.516 29.0875 161.943 28.8985 163.554C27.5976 174.638 29.8544 185.422 31.688 196.247C32.2079 199.317 33.9471 200.305 36.9098 200.279C48.2405 200.179 59.5724 200.226 70.9039 200.197C71.8783 200.194 72.9481 200.265 73.7315 198.692C72.4104 191.596 71.0153 184.102 69.4117 175.751C69.4117 175.751 69.4117 175.751 69.4117 175.751ZM213.972 199.455C221.758 199.655 222.16 198.936 219.246 191.803C215.952 183.739 209.692 179.576 201.699 176.988C188.686 172.773 174.805 178.967 171.234 190.972C169.328 197.377 172.43 202.567 178.638 203.062C177.116 199.328 175.995 195.63 179.795 191.375C181.376 197.585 183.421 202.635 190.625 201.692C191.926 198.841 189.6 195.352 192.168 192.904C193.934 193.798 193.751 195.364 194.352 196.495C197.24 201.932 201.743 202.626 205.964 198.201C210.692 193.246 210.835 193.266 213.972 199.455C213.972 199.455 213.972 199.455 213.972 199.455ZM58.0468 123.171C59.0585 126.307 61.4346 126.789 64.3844 126.6C64.1915 123.193 62.2767 120.441 62.2802 117.204C62.2924 105.614 70.5949 95.3636 82.1472 92.8409C92.0107 90.6871 103.128 96.7551 107.457 107.259C110.913 115.645 111.658 124.468 105.484 131.877C99.7875 138.713 91.7066 138.445 83.7659 136.492C79.3584 135.407 75.0541 133.903 70.5176 132.532C71.3 135.151 72.3451 137.005 75.0846 137.548C83.1885 139.154 91.3745 139.526 99.3339 137.455C110.252 134.614 114.12 126.813 112.265 113.021C110.212 97.7611 97.2735 87.6003 82.7162 89.8161C67.4729 92.1362 55.1574 108.283 58.0468 123.171C58.0468 123.171 58.0468 123.171 58.0468 123.171ZM94.8224 111.609C94.1183 114.518 94.6057 116.999 97.7241 118.078C99.8447 118.812 101.768 118.054 102.775 116.022C103.904 113.742 103.763 111.364 101.596 109.748C99.1861 107.95 96.935 108.536 94.8224 111.609C94.8224 111.609 94.8224 111.609 94.8224 111.609Z" fill="#000000" transform="translate(56.577 72.511)" />
    <path d="M18.4856 4.92412C19.9442 6.97772 21.1357 8.77696 22.4503 10.4812C23.5227 11.8716 23.7907 13.3317 22.3969 14.429C20.6528 15.802 19.5595 14.173 18.8679 12.9596C16.4147 8.65521 13.6608 4.72031 8.24066 4.16808C5.53154 3.89204 2.77106 4.12 0 4.12C1.7612 -1.64857 10.6217 -1.34044 18.4856 4.92412C18.4856 4.92412 18.4856 4.92412 18.4856 4.92412Z" fill="#000000" transform="translate(231 161)" />
    <path d="M3.30537 8.86824C2.17186 9.85994 1.34917 10.7526 0.00274658 10.3225C-0.154709 4.32733 6.46716 -0.319916 14.6826 0.0172577C20.1095 0.239975 23.4612 3.27403 23.1428 8.32063C16.4418 3.74837 9.78835 1.63464 3.30537 8.86824C3.30537 8.86824 3.30537 8.86824 3.30537 8.86824Z" fill="#000000" transform="translate(127 143)" />
    <path d="M33.107 57.6521C23.0155 55.7257 14.0517 52.3445 6.84531 45.4015C0.0276947 38.8331 -1.87381 31.1654 1.93817 22.2158C6.35602 11.8437 12.3097 3.23724 24.2802 0.709915C39.0467 -2.40775 52.9406 4.93135 58.5853 19.0256C60.7676 24.4748 61.9986 30.1888 62.4338 36.0178C63.2001 46.2829 53.5726 57.0511 43.0443 57.7634C39.8986 57.9762 36.7221 57.7334 33.107 57.6521C33.107 57.6521 33.107 57.6521 33.107 57.6521ZM19.0194 6.14456C9.87541 10.8512 6.2635 19.3579 3.9964 28.5874C2.90891 33.0146 4.23473 37.2023 7.43518 40.58C16.9732 50.6466 28.9207 54.8342 42.5131 54.0771C50.2912 53.6439 57.3403 47.6215 58.2077 40.2206C59.5664 28.6282 56.7362 17.7599 47.797 9.78807C39.6303 2.50502 29.8326 1.84908 19.0194 6.14456C19.0194 6.14456 19.0194 6.14456 19.0194 6.14456Z" fill="#000000" transform="translate(207.263 178.472)" />
    <path d="M0.996536 7.92032C0.677841 5.43173 0.417648 3.34679 0 0C6.62878 5.53966 12.8271 6.78253 18.7896 1.2874C23.6004 6.87698 23.6004 6.87698 34.4861 6.9827C28.7442 11.204 29.0709 17.8588 24.9326 22.1922C20.1002 27.2526 11.4604 26.792 6.30704 21.0313C3.08199 17.4262 1.60123 13.0578 0.996536 7.92032C0.996536 7.92032 0.996536 7.92032 0.996536 7.92032Z" fill="#000000" transform="translate(169.133 216.85)" />
    <path d="M10.3444 0.0709686C11.2757 0.196411 11.7842 0.224564 12.2527 0.376373C15.811 1.52959 19.5614 2.66696 18.825 7.577C18.2947 11.1126 13.1224 13.8233 8.8091 12.8918C7.23218 12.5512 5.58516 11.8857 4.31396 10.9171C1.82507 9.02072 -0.959732 6.97946 0.323227 3.17673C1.48959 -0.280441 4.60208 0.063446 7.41544 0.00460815C8.24411 -0.0127106 9.07385 0.0207672 10.3444 0.0709686C10.3444 0.0709686 10.3444 0.0709686 10.3444 0.0709686Z" fill="#000000" transform="translate(179.319 203.599)" />
    <path d="M31.2822 15.3581C30.2266 22.9463 25.5822 26.3936 18.8012 24.7442C16.4645 24.1758 14.3545 24.0417 11.9958 24.5865C7.55182 25.613 2.82965 23.385 1.01681 19.6462C-1.02926 15.4265 0.0997086 12.0182 3.62035 9.03259C5.10693 7.77194 6.08768 5.92458 7.34472 4.38168C11.5494 -0.779221 18.7937 -1.68489 23.0184 3.30086C26.0396 6.86639 29.6826 10.251 31.2822 15.3581C31.2822 15.3581 31.2822 15.3581 31.2822 15.3581Z" fill="#000000" transform="translate(89.771 223.95)" />
    <path d="M33.1211 10.8067C28.0202 15.5934 27.5357 15.6209 21.2678 11.4797C16.6156 14.0495 16.6156 14.0495 12.0304 14.1704C11.4036 20.0917 8.47943 23.6458 4.61872 22.5903C0.856201 21.5616 -0.39418 18.3969 0.10453 14.7357C0.76281 9.903 3.86251 8.10573 9.40112 9.32652C10.049 5.74049 9.67453 1.28188 14.367 0.137024C17.712 -0.679047 19.2325 2.31352 21.4829 4.78397C23.1245 1.74947 25.4395 -0.740921 28.9552 0.694046C32.9734 2.33415 33.2408 6.21153 33.1867 10.389C33.1273 10.8017 33.1211 10.8067 33.1211 10.8067C33.1211 10.8067 33.1211 10.8067 33.1211 10.8067ZM3.96339 17.2885C4.98828 18.4645 6.1878 18.8587 7.28576 17.5498C8.39651 16.2256 7.97151 14.7648 7.06301 13.4725C6.57941 12.7845 5.8378 12.1739 4.98141 12.4982C2.8788 13.2943 3.40552 15.0521 3.96339 17.2885C3.96339 17.2885 3.96339 17.2885 3.96339 17.2885Z" fill="#000000" transform="translate(83.873 209.198)" />
    <path d="M1.79104 2.03873C4.53442 -0.275833 7.24737 -1.14211 9.80736 2.26778C12.2718 5.55045 12.0031 10.9055 9.27975 13.1171C7.58073 14.4968 5.66383 14.7094 3.72195 13.823C1.44234 12.7823 0.215065 10.9082 0.0188522 8.39804C-0.142227 6.33725 0.756409 4.55438 1.66724 2.39774C1.7825 2.04742 1.78873 2.04245 1.79104 2.03873C1.79104 2.03873 1.79104 2.03873 1.79104 2.03873Z" fill="#000000" transform="translate(115.211 217.958)" />
    <path d="M2.14056 15.5407C11.325 -1.14398 26.7249 -4.72971 40.0317 6.41539C46.9184 12.1833 50.0066 25.2253 46.4569 33.4747C44.2812 38.5313 40.6791 41.9443 35.2639 43.2968C26.1189 45.5808 17.3149 44.4584 9.1534 39.9133C-0.110077 34.7545 -2.13458 27.4028 2.14056 15.5407C2.14056 15.5407 2.14056 15.5407 2.14056 15.5407ZM13.4918 20.8399C18.051 19.3515 19.673 16.8846 17.9175 13.9925C16.8089 12.1663 15.1703 11.1636 12.9469 11.4292C11.1192 11.6475 9.78595 12.6814 9.422 14.4298C8.81473 17.347 9.79689 19.6194 13.4918 20.8399C13.4918 20.8399 13.4918 20.8399 13.4918 20.8399Z" fill="#000000" transform="translate(214.041 184.921)" />
  </g>
</svg>