<?xml version="1.0" encoding="utf-8"?>
<svg width="384" height="320" viewBox="0 0 384 320" fill="none" xmlns="http://www.w3.org/2000/svg">
  <g>
    <path d="M152.465 233.988C147.651 234.082 143.302 234.45 138.992 234.192C131.402 233.738 124.249 234.489 117.41 238.337C113.859 240.334 109.709 241.6 105.403 239.813C104.716 239.528 103.695 239.553 103.004 239.847C96.4776 242.616 90.9433 240.368 85.8041 236.447C83.692 234.836 81.4686 234.267 78.8525 234.274C57.2033 234.336 35.5537 234.274 13.9045 234.335C5.78157 234.358 5.9049 234.414 2.87735 226.832C-1.10915 216.85 -1.01901 207.024 3.5594 197.307C6.60351 190.846 11.5715 186.187 18.796 185.971C25.997 185.756 31.9111 189.584 35.8357 195.621C40.6367 203.006 44.9808 210.688 49.5248 218.24C50.0302 219.08 50.3863 220.079 52.2393 220.343C58.017 210.664 67.6462 205.302 78.0365 201.092C77.0459 198.365 74.9577 198.014 73.2822 197.053C66.1244 192.948 59.507 188.322 53.0971 182.895C46.0367 176.918 41.2499 170.285 37.7094 162.201C36.779 160.076 34.8189 160.306 33.013 160.127C28.6708 159.696 24.2033 160.133 18.8529 158.529C22.9806 154.472 27.6533 152.816 30.9395 149.408C38.3484 141.725 42.6564 132.208 47.0166 122.713C47.6809 121.266 46.7982 120.225 45.768 119.239C34.7972 108.734 29.4143 95.2583 25.4283 81.0201C19.5614 60.0637 20.6864 38.5353 20.0811 17.145C20.0412 15.7351 20.1586 14.3912 21.5464 13.7086C23.022 12.9828 24.11 13.9928 25.0709 14.9071C34.1269 23.5237 45.6796 27.3572 56.9207 31.946C68.4017 36.6329 80.1326 41.0122 89.7727 49.2528C91.2958 50.5547 92.7791 51.2258 94.7245 50.0719C109.764 41.1516 126.326 37.5896 144.557 36.4729C135.852 32.3982 127.115 34.1322 118.323 32.0833C121.108 28.9439 124.309 28.0727 127.046 27.2874C142.591 22.8269 157.068 23.9473 168.683 36.8851C170.418 38.8176 172.474 40.1007 174.969 40.7199C181.136 42.2503 187.05 44.4884 192.707 47.3503C194.947 48.4838 196.399 48.4675 198.27 46.4003C208.254 35.3741 220.355 27.3895 234.046 21.58C240.306 18.9237 246.189 15.3795 252.247 12.2459C257.006 9.78409 259.951 5.698 261.992 0C265.25 5.14093 264.977 10.0779 265.836 14.686C267.819 25.3284 268.415 36.1672 268.506 46.9162C268.668 65.9959 266.325 84.7601 256.969 101.939C256.574 102.664 256.03 103.314 255.518 103.969C248.84 112.499 248.753 112.561 255.366 121.403C261.951 130.209 268.714 138.88 278.784 144.129C279.513 144.509 280.022 145.245 279.661 146.597C275.08 148.409 270.637 143.525 265.811 145.907C266.514 153.574 262.465 159.519 258.418 165.651C250.468 177.697 239.013 185.534 226.655 192.993C231.248 198.578 235.596 204.156 241.022 208.82C242.855 210.395 244.159 210.369 246.226 208.984C250.904 205.848 255.617 202.677 261.741 202.899C277.396 203.467 284.972 219.201 281.945 231.332C281.455 233.298 280.294 233.857 278.687 233.32C277.103 232.791 274.819 232.447 275.396 229.891C276.957 222.976 272.664 217.722 269.696 212.552C266.275 206.591 252.938 208.44 249.665 214.655C249.123 215.685 249.211 216.53 249.767 217.445C250.199 218.156 250.844 218.829 251.006 219.6C252.637 227.374 257.144 230.675 265.101 229.017C266.792 228.665 268.176 229.612 268.223 231.418C268.289 234.001 266.291 234.144 264.368 234.147C251.204 234.17 238.039 234.215 224.875 234.181C221.519 234.172 218.288 234.281 215.197 235.948C213.154 237.051 210.806 237.267 208.412 237.289C202.6 237.344 196.772 236.913 190.977 238.018C189.263 238.345 187.149 238.223 185.597 237.497C175.084 232.571 164.06 232.992 152.465 233.988C152.465 233.988 152.465 233.988 152.465 233.988ZM163.022 40.0156C159.263 34.4053 151.261 30.2993 144.816 30.7259C150.786 33.5795 156.518 36.8284 161.33 41.6496C160.046 43.0506 159.021 43.0891 158.069 42.8658C148.103 40.5298 138.161 41.5146 128.306 43.3526C116.475 45.559 104.987 48.931 95.2588 56.4227C92.8416 58.284 91.5366 57.4255 89.7602 55.8294C79.9494 47.0144 68.4088 41.2615 56.1241 36.7515C47.7083 33.6619 39.0217 31.2004 31.4278 26.1106C26.8535 23.0446 26.003 23.5601 25.5683 29.1637C24.5182 42.701 25.8189 56.2072 28.0535 69.4485C31.1046 87.5278 37.097 104.627 51.5624 117.286C53.7013 119.158 53.7738 120.927 52.7677 123.445C48.3307 134.55 42.9034 145.046 34.3731 154.215C36.3274 154.535 37.848 154.558 39.1961 155.052C41.6887 155.966 45.5722 157.413 45.0492 159.681C43.8683 164.801 47.2602 167.433 49.2736 170.865C51.2371 174.211 53.9879 178.649 56.2736 179.827C61.3243 182.43 65.434 186.196 70.2374 188.99C79.7402 194.519 89.1513 198.777 100.807 197.104C108.11 196.055 115.122 198.718 120.768 204.284C127.524 210.944 129.081 219.07 128.302 228.434C135.24 229.017 141.907 230.087 148.743 229.256C156.035 228.369 163.395 228.095 170.67 229.182C174.447 229.746 175.522 228.395 175.371 224.97C174.837 212.907 180.816 205.388 191.635 200.715C195.946 198.853 201.109 200.249 204.593 197.793C211.065 193.232 218.46 190.659 225.171 186.692C233.786 181.6 241.463 175.511 248.727 168.584C253.643 163.896 256.527 158.368 259.434 152.617C259.779 151.933 260.053 150.64 259.694 150.261C254.675 144.968 258.808 142.247 263.191 139.392C255.463 132.118 249.95 123.647 244.721 114.929C243.018 112.089 242.771 110.401 245.271 107.653C253.711 98.3785 258.568 87.3141 261.116 74.9752C264.439 58.8796 262.494 42.7901 261.93 26.7045C261.792 22.7779 261.972 18.4278 259.459 14.5379C251.794 19.1513 243.828 22.5174 236.025 26.2248C222.1 32.8407 208.787 40.3236 199.553 53.2964C198.183 55.2219 196.546 55.3289 194.349 54.1789C189.785 51.7904 185.076 49.661 180.344 47.6189C178.405 46.7826 176.116 45.4248 174.143 46.6624C171.518 48.3094 170.221 46.8433 168.639 45.3016C166.97 43.6756 165.229 42.1234 163.022 40.0156C163.022 40.0156 163.022 40.0156 163.022 40.0156ZM121.902 216.235C118.701 207.795 111.447 202.556 102.503 202.27C91.569 201.921 81.4664 205.346 71.9289 210.058C64.2682 213.842 57.562 219.106 56.7291 229.717C65.6867 228.437 74.7492 232.348 83.4922 226.741C87.4468 229.789 90.5152 235.47 97.0288 234.926C105.207 234.243 103.693 227.035 104.93 221.589C110.488 225.243 107.368 230.665 108.432 235.17C117.782 232.762 116.202 224.903 116.765 217.737C120.672 220.676 120.475 224.29 121.872 228.243C123.601 223.817 123.864 220.418 121.902 216.235C121.902 216.235 121.902 216.235 121.902 216.235ZM181.143 218.074C178.846 226.089 180.678 230.301 187.154 231.886C186.496 228.052 185.072 224.074 188.949 220.353C191.948 230.953 193.056 232.075 199.612 231.712C199.259 224.444 199.259 224.444 201.882 221.799C202.196 222.429 202.587 222.951 202.726 223.534C204.921 232.674 208.162 234.052 216.311 229.135C218.266 227.955 219.916 227.841 222.299 228.277C230.441 229.77 238.661 228.988 246.894 228.355C247.298 222.159 244.443 218.329 240.281 215.206C228.735 206.541 215.428 203.626 201.4 204.376C192.635 204.846 184.7 207.849 181.143 218.074C181.143 218.074 181.143 218.074 181.143 218.074ZM32.1997 200.889C31.8043 200.354 31.4395 199.794 31.0089 199.289C27.7421 195.463 24.4343 191.263 18.6845 192.347C13.1608 193.389 10.2185 197.428 8.23838 202.607C5.1895 210.58 6.21387 218.116 9.1916 225.797C10.2613 228.556 11.5964 229.692 14.5908 229.652C24.561 229.52 34.5347 229.669 44.5066 229.618C45.8629 229.612 47.5526 230.204 48.5821 228.36C43.429 219.33 38.4696 210.14 32.1997 200.889C32.1997 200.889 32.1997 200.889 32.1997 200.889ZM223.133 199.83C221.387 197.241 219.631 194.709 216.308 198.929C218.71 199.833 220.627 201.125 223.133 199.83C223.133 199.83 223.133 199.83 223.133 199.83Z" fill="#000000" transform="translate(47.39 44.024)" />
    <path d="M63.4351 46.9404C48.0012 55.5945 32.8312 57.686 17.5328 47.4651C11.8279 43.6536 9.08826 38.1787 8.52853 31.592C8.2951 28.8449 7.45468 27.2008 4.99936 25.6532C-0.649048 22.0929 -1.67863 13.4621 2.76938 9.72198C4.59465 10.8301 3.50725 12.3051 3.25511 13.6626C2.70964 16.5992 3.85895 18.9634 6.04953 20.7153C8.43401 22.6222 10.1044 20.3341 11.7267 19.1897C22.0653 11.897 32.3739 4.68141 44.7084 0.873169C51.9178 -1.35274 58.1053 1.0798 64.44 3.66634C64.7296 3.78456 65.1705 4.09753 65.1607 4.30151C64.8517 10.7273 70.2761 14.6583 72.0555 20.2923C75.5538 31.3686 72.6434 39.8445 63.4351 46.9404C63.4351 46.9404 63.4351 46.9404 63.4351 46.9404ZM13.5425 37.4676C16.6924 43.376 21.3656 47.2338 28.1175 48.4781C20.9711 41.921 15.5748 34.6481 16.4488 24.1003C13.0493 24.6293 11.8861 26.1671 11.8719 28.923C11.858 31.6325 12.5845 34.1733 13.5425 37.4676C13.5425 37.4676 13.5425 37.4676 13.5425 37.4676ZM32.9771 23.8472C35.1745 21.2194 35.0348 18.7677 32.3334 16.6077C30.1415 14.8551 28.3298 15.9623 26.7156 17.5845C24.7376 19.5724 24.1043 21.9292 25.9979 24.1944C27.9162 26.4892 30.2473 26.3347 32.9771 23.8472C32.9771 23.8472 32.9771 23.8472 32.9771 23.8472ZM55.3507 46.0957C55.1059 46.3711 54.343 46.6012 55.2585 46.9785C55.3792 47.0283 55.5846 46.9325 55.7279 46.8593C61.5076 43.9078 65.9948 39.7203 68.504 33.6035C70.3583 29.0829 69.3652 22.5138 66.2144 18.873C69.593 31.1667 66.7526 38.4947 55.3507 46.0957C55.3507 46.0957 55.3507 46.0957 55.3507 46.0957Z" fill="#000000" transform="translate(209.327 138.944)" />
    <path d="M58.0038 42.1587C44.8946 52.9351 24.66 54.5082 10.3163 46.0433C3.06681 41.765 -1.4247 29.7473 0.411102 19.9138C1.19462 15.7169 3.6608 11.9466 3.04691 7.33838C2.79959 5.48186 5.19711 4.60089 6.78806 3.70267C16.8138 -1.95766 27.0518 -0.241196 37.261 2.97562C44.2755 5.18581 50.7013 8.73514 56.9444 12.5454C59.6901 14.2211 62.6364 15.6929 65.1827 13.5055C67.5454 11.4759 68.8291 8.30963 67.2744 4.90071C66.725 3.69611 65.9244 2.50888 67.3076 1.24506C69.5896 0.946106 69.932 2.76358 70.4414 4.29295C71.4871 7.43221 71.5947 10.8847 69.962 13.5449C66.5143 19.1624 64.9618 25.0466 64.5079 31.5838C64.2221 35.6996 61.8892 39.401 58.0038 42.1587C58.0038 42.1587 58.0038 42.1587 58.0038 42.1587ZM21.9202 42.7121C7.63425 34.1466 7.29936 21.6952 13.0082 7.35585C4.92482 11.6326 1.48059 23.2238 4.3642 32.2267C8.19458 44.1854 20.9926 48.6606 35.3236 46.8923C30.3258 45.8204 26.1954 45.2184 21.9202 42.7121C21.9202 42.7121 21.9202 42.7121 21.9202 42.7121ZM47.6402 13.7979C47.2024 13.5662 46.7804 13.2955 46.3239 13.1099C44.8123 12.4954 43.0205 11.4156 42.0012 13.4766C40.9884 15.5244 41.1803 17.7636 43.2979 19.2119C45.2275 20.5315 47.1545 19.8907 48.7473 18.5095C50.575 16.9245 50.2588 15.3866 47.6402 13.7979C47.6402 13.7979 47.6402 13.7979 47.6402 13.7979Z" fill="#000000" transform="translate(116.619 146.422)" />
    <path d="M59 7.6447C57.1772 9.42484 53.8786 9.24197 51.3182 8.29425C39.741 4.00891 25.8943 2.05688 7.3699 4.13258C5.00781 4.39725 2.24466 4.1198 0 3.12196C2.58382 0.0849609 11.8365 0.00764465 19.8803 7.62939e-05C38.309 -0.0172882 54.9143 3.26164 59 7.6447C59 7.6447 59 7.6447 59 7.6447Z" fill="#000000" transform="translate(226 130)" />
    <path d="M38.3704 1.45351C40.7004 2.36488 42.9329 3.04146 41.7901 4.43005C40.8823 5.53321 38.7413 5.6513 36.9373 5.15462C24.4983 1.72996 14.4025 3.83308 5.33569 8.64543C3.97354 9.36839 2.3091 9.8705 0.20166 9.45541C-2.24809 1.96626 18.0375 -2.45779 38.3704 1.45351C38.3704 1.45351 38.3704 1.45351 38.3704 1.45351Z" fill="#000000" transform="matrix(0.985 0.174 -0.174 0.985 123.675 117.588)" />
    <path d="M17.9504 0.132782C21.2133 0.0856628 24.1099 -0.383743 26.7883 0.782425C28.7611 1.64137 30.7343 2.67683 30.8739 5.32234C31.0059 7.82373 30.3277 9.94905 28.216 11.4257C26.3331 12.7424 22.9379 13.0307 24.4857 16.6623C25.9237 20.0361 29.0423 21.6345 32.2173 20.8085C41.2618 18.4554 44.6892 24.8637 48.6677 30.5772C49.5081 31.7842 50.344 33.3148 48.9493 34.659C47.6868 35.8757 46.4753 34.6587 45.3024 34.1869C32.6524 29.0988 20.1446 31.2517 7.71465 35.0304C4.38571 36.0424 4.30199 40.1824 1.56808 42.277C1.04863 41.8522 0.25264 41.535 0.15155 41.0675C-0.996307 35.7596 4.58957 25.7607 9.70302 23.9218C12.7048 22.8422 15.634 21.5763 18.0319 19.4773C20.4257 17.3819 21.2933 15.1498 17.5255 13.3647C16.3405 12.8033 15.0855 12.1299 14.2355 11.1756C12.5157 9.24472 10.2274 7.46465 11.2993 4.2589C12.3135 1.22552 14.7112 0.418777 17.9504 0.132782C17.9504 0.132782 17.9504 0.132782 17.9504 0.132782Z" fill="#000000" transform="translate(178.421 173.662)" />
  </g>
</svg>
