<?xml version="1.0" encoding="utf-8"?>
<svg width="384" height="320" viewBox="0 0 384 320" fill="none" xmlns="http://www.w3.org/2000/svg">
  <g>
    <path d="M266.661 164.774C269.338 167.628 272.626 169.438 274.533 172.927C271.539 174.734 269.582 172.221 267.327 171.837C265.062 171.452 262.878 170.588 259.669 169.642C261.582 172.607 260.972 174.424 259.517 176.752C249.514 192.754 234.962 202.617 217.558 208.862C212.434 210.701 212.386 211.248 215.178 215.828C219.213 222.45 226.17 226.318 230.43 233.299C232.841 230.31 234.818 227.889 236.761 225.44C239.055 222.55 241.682 220.036 244.701 217.895C260.744 206.515 276.14 217.977 277.93 233.672C278.446 238.192 277.919 242.652 276.068 246.888C275.194 248.887 274.003 250.561 271.551 249.573C269.251 248.647 269.77 246.673 270.383 244.872C272.873 237.557 271.854 230.706 267.358 224.5C262.91 218.359 257.419 217.278 250.77 220.94C243.66 224.856 239.139 231.359 234.662 237.739C232.355 241.028 235.127 245.14 239.384 245.248C246.046 245.416 252.715 245.303 259.378 245.424C261.049 245.454 263.604 244.748 263.705 247.441C263.821 250.533 261.046 249.862 259.229 249.876C245.733 249.975 232.235 249.997 218.738 249.981C216.192 249.978 213.777 250.166 211.567 251.617C207.206 254.479 201.946 253.479 197.459 253.404C190.16 253.282 182.834 254.711 175.208 251.032C168.889 247.983 160.566 248.229 153.112 249.152C144.13 250.264 135.153 249.952 126.173 249.981C86.0324 250.108 45.8917 250.132 5.75115 250.215C4.01564 250.219 2.0923 250.356 1.93816 248.096C1.75024 245.34 4.09245 245.535 5.84638 245.518C13.1582 245.447 20.4712 245.488 29.3613 245.488C20.7952 239.888 14.4566 234.088 9.31392 226.845C1.1236 215.31 -2.08426 203.089 1.38037 189.136C3.94836 178.794 17.6137 169.617 29.7361 179.997C38.2757 187.309 43.6338 196.948 49.5293 206.161C56.7606 217.461 56.5387 217.604 69.1897 213.504C75.1471 211.574 77.2801 209.646 83.0024 200.914C77.4064 197.136 71.6337 193.572 66.227 189.52C54.1626 180.479 43.4409 170.151 36.4782 156.481C36.101 155.741 35.4818 154.963 35.4922 154.21C35.6113 145.633 29.1812 144.994 23.1192 143.873C21.3572 143.547 19.4235 143.662 18.1026 142.003C18.1516 139.628 20.1766 139.779 21.635 139.286C35.3574 134.643 42.8709 123.194 50.9821 112.438C52.4482 110.493 51.1445 108.606 49.9171 106.977C41.8518 96.2714 39.2866 83.778 38.5772 70.8349C37.3217 47.931 41.8862 25.7984 48.1487 3.93949C48.4217 2.98671 48.8262 2.05914 49.2789 1.17594C49.4838 0.776033 49.9573 0.513716 50.5135 0C54.0772 2.6299 55.7274 6.79537 58.7448 9.8381C66.2052 17.3612 75.0278 23.0004 83.6055 29.0137C91.9331 34.8516 100.218 40.7525 105.841 49.5358C106.854 51.1187 108.186 51.6364 110.116 50.9509C125.807 45.3776 141.947 44.3487 158.371 46.3136C158.614 46.3426 158.896 46.053 159.532 45.7124C152.764 41.4634 144.835 40.8027 137.892 37.9575C138.395 36.1181 139.373 35.8604 140.344 35.6137C156.582 31.489 176.084 35.8306 185.361 51.8887C186.441 53.7578 188.12 54.674 189.945 55.5455C195.36 58.132 200.771 60.7568 205.378 64.6877C207.02 66.0887 208.37 66.4493 210.127 64.842C222.141 53.8517 236.939 48.396 252.135 43.6494C262.038 40.556 272.724 38.6572 278.078 28.2604C280.323 29.0499 279.908 30.567 279.938 31.8097C280.435 52.1552 280.452 72.4891 274.953 92.3129C270.716 107.584 264.552 121.867 251.87 132.292C249.574 134.179 249.208 135.782 250.599 138.641C255.051 147.791 259.229 157.056 266.661 164.774C266.661 164.774 266.661 164.774 266.661 164.774ZM101.928 204.637C91.8249 201.642 88.3486 202.183 86.9773 206.941C88.386 208.34 90.633 206.012 92.0846 208.242C91.6919 208.704 91.3866 209.358 90.8798 209.615C82.6235 213.799 74.7447 218.662 65.3237 220.357C57.4547 221.773 50.7498 231.403 50.8277 239.182C50.8671 243.117 52.1368 244.75 56.377 244.755C80.5055 244.784 104.645 244.699 128.757 245.421C141.893 245.814 154.975 242.773 168.108 245.254C171.234 245.844 171.644 243.55 171.392 241.12C170.774 235.14 172.839 229.999 176.258 225.26C180.921 218.798 188.162 217.147 195.193 215.18C194.804 210.486 194.936 210.327 199.336 208.961C204.105 207.481 208.975 206.242 213.594 204.384C228.164 198.524 242.527 192.291 251.77 178.494C253.196 176.367 254.912 174.708 252.74 171.97C251.595 170.525 252.263 168.807 253.803 167.605C255.453 166.318 257.054 164.968 258.859 163.496C252.077 155.335 248.764 145.614 244.068 136.632C242.711 134.037 243.061 132.461 245.542 130.855C255.347 124.51 260.878 114.743 265.437 104.515C274.056 85.179 274.934 64.5424 274.642 43.7896C274.631 42.9815 274.536 42.1052 273.347 41.5656C267.604 43.559 261.747 45.9246 255.702 47.6267C238.98 52.3355 223.344 58.9692 210.792 71.4711C209.02 73.2364 207.366 73.174 205.641 71.3828C202.485 68.1061 198.571 65.8679 194.753 63.4864C192.031 61.7883 189.394 60.115 186.345 62.5111C179.028 54.7377 175.314 43.477 162.699 41.2481C167.465 46.017 173.221 48.7902 176.808 53.8002C175.286 55.4627 174.123 54.9909 173.04 54.6442C160.122 50.5103 146.828 50.0176 133.481 50.9986C125.535 51.5826 117.438 52.4677 110.493 56.8667C107.296 58.8918 105.952 57.9665 104.195 55.2262C100.958 50.1754 97.0675 45.6824 92.4578 41.7185C82.9522 33.5448 71.7117 27.8156 62.1411 19.7334C58.6848 16.8146 56.1592 12.7437 51.4325 10.4948C45.7633 32.9512 41.4544 55.0646 44.6066 77.9186C46.1007 88.7506 49.3017 99.0484 56.2921 107.748C58.1646 110.078 57.5826 111.963 56.1654 114.046C50.1692 122.859 44.3053 131.78 35.3142 137.995C34.4127 138.618 33.2553 139.258 33.6559 140.827C34.0127 141.09 34.3736 141.436 34.7989 141.658C38.393 143.537 45.27 143.366 40.2857 150.581C40.0359 150.942 40.4709 151.856 40.71 152.464C42.9158 158.074 46.013 163.911 49.9541 167.623C55.8937 173.217 61.0889 179.809 68.3997 184.135C78.0608 189.852 86.4415 197.853 98.0975 199.804C100.712 200.241 101.724 202.518 102.738 204.687C102.738 204.687 102.638 204.796 101.928 204.637C101.928 204.637 101.928 204.637 101.928 204.637ZM20.3084 231.62C28.2812 237.636 35.8212 244.531 47.4416 245.131C44.7116 236.135 45.2157 228.603 53.2932 222.998C55.8794 221.203 53.8619 218.589 51.9726 217.184C45.3589 212.266 41.3192 205.361 37.229 198.51C34.2259 193.48 30.7619 188.84 26.699 184.641C22.2328 180.025 15.2917 179.649 11.6353 183.925C6.02835 190.482 4.91354 197.998 6.57133 206.348C8.49175 216.021 13.7695 223.732 20.3084 231.62C20.3084 231.62 20.3084 231.62 20.3084 231.62ZM208.819 247.382C211.541 245.552 214.263 243.722 217.105 241.811C219.984 247.449 224.458 244.966 228.933 244.802C228.687 243.344 228.619 242.372 228.353 241.458C224.357 227.747 211.174 220.44 198.857 220.125C187.622 219.838 179.12 226.374 176.543 236.359C175.069 242.071 177.6 246.462 183.63 248.095C182.837 244.069 180.983 239.898 184.998 236.155C188.305 247.136 189.163 248.077 195.588 247.891C196.184 244.826 194.305 241.067 197.741 237.926C199.824 243.19 199.911 250.154 208.819 247.382C208.819 247.382 208.819 247.382 208.819 247.382Z" fill="#000000" transform="translate(51.262 28.31)" />
    <path d="M1.22906 26.5447C6.03008 6.8024 20.809 -3.116 39.0141 0.869064C43.8878 1.93588 48.1101 4.29395 51.4857 7.85278C59.0214 15.7974 63.0673 25.4258 63.0215 36.3228C62.9688 48.8661 51.1389 58.7166 36.0969 59.2091C23.4184 59.6243 13.1509 54.2383 4.8427 45.0638C0.176315 39.9108 -1.30995 33.7298 1.22906 26.5447C1.22906 26.5447 1.22906 26.5447 1.22906 26.5447ZM10.5349 15.7636C11.0063 15.2939 11.4747 14.8212 11.9496 14.355C19.2814 7.15697 27.7111 3.91447 37.8649 7.4268C48.1636 10.9893 53.1014 18.9461 54.4883 29.1761C55.9576 40.0136 50.411 48.3573 40.0438 52.0079C34.1119 54.0967 28.0343 54.076 21.8751 53.0774C26.8781 55.3326 32.0648 56.4071 37.4452 55.8743C50.6045 54.571 62.6114 45.815 58.7709 28.1817C55.0965 11.3106 42.1754 1.60114 25.7072 4.49048C18.8001 5.70232 13.0105 8.9239 10.5349 15.7636C10.5349 15.7636 10.5349 15.7636 10.5349 15.7636ZM20.741 19.0452C17.386 18.332 15.2013 19.8281 14.4719 22.9678C13.9178 25.3533 15.4048 27.0627 17.6084 27.9278C20.4719 29.052 22.4179 27.5939 23.7276 25.2545C25.2975 22.4504 23.896 20.5996 20.741 19.0452C20.741 19.0452 20.741 19.0452 20.741 19.0452Z" fill="#000000" transform="translate(223.028 134.868)" />
    <path d="M40.099 34.844C27.6919 38.9532 14.4674 34.946 7.61812 24.9726C5.7012 22.1814 1.72064 23.7379 0 20.5695C2.70622 17.2646 6.31509 18.3051 9.59106 18.7156C14.402 19.3183 19.1918 19.5598 24.0157 19.1715C25.9195 19.0183 27.715 18.5405 28.2977 16.409C28.8537 14.3752 27.2644 13.3971 25.9814 12.3914C22.9494 10.0146 18.9616 7.5972 21.2338 3.19246C23.4114 -1.02882 28.0915 0.0136719 32.045 0.401093C33.3538 0.529358 34.6611 0.924072 35.9095 1.36549C38.3893 2.24239 40.4198 3.71436 40.7249 6.5403C41.0338 9.40216 39.1114 11.0078 37.0445 12.5811C35.2605 13.939 31.5497 13.6706 32.3262 17.3472C33.1595 21.2934 36.6614 21.5203 39.7633 21.9845C44.5442 22.7001 49.6773 21.4239 55.1182 24.7787C50.4236 29.1852 45.0522 31.4159 40.099 34.844C40.099 34.844 40.099 34.844 40.099 34.844ZM30.3928 23.561C27.9115 23.4928 25.3901 23.2763 22.9338 25.2708C25.6267 26.5927 27.9086 26.1854 30.1266 25.9931C31.484 25.8754 32.4096 25.2202 30.3928 23.561C30.3928 23.561 30.3928 23.561 30.3928 23.561Z" fill="#000000" transform="translate(173.082 162.653)" />
    <path d="M3.52386 48.1447C-3.71217 33.8535 0.410904 17.7112 13.9156 6.34296C23.933 -2.08965 39.0439 -2.11691 50.4217 6.27709C61.6522 14.5624 66.5678 35.1822 59.9676 47.4427C55.2055 56.2888 46.916 60.1112 37.4646 61.2315C24.1445 62.8103 12.3743 59.581 3.52386 48.1447C3.52386 48.1447 3.52386 48.1447 3.52386 48.1447ZM59.1392 38.5566C59.1283 35.3972 59.4044 32.2056 59.0545 29.0843C57.8232 18.0991 52.4583 9.93661 41.8351 6.05773C26.3197 0.392494 10.1268 9.18108 4.54728 26.0283C1.09316 36.4579 4.56973 47.2616 13.6864 53.2585C23.4813 59.7016 34.1563 60 44.7731 55.9936C52.2488 53.1726 57.7641 47.9391 59.1392 38.5566C59.1392 38.5566 59.1392 38.5566 59.1392 38.5566Z" fill="#000000" transform="translate(123.665 118.457)" />
    <path d="M12.6776 19.5176C7.5072 18.4669 5.56499 13.3847 0.957413 11.7578C-1.26338 10.9737 0.936768 8.28763 1.96721 6.71637C3.16537 4.8894 5.03537 4.31979 7.54271 4.51999C7.54732 8.51505 10.0986 10.4819 13.6575 11.4861C18.5248 12.8596 20.9769 11.4983 22.4926 6.61404C23.4799 3.43292 24.1391 2.48546 27.3385 0C29.0014 4.36487 31.2 8.53754 29.8309 13.088C28.2921 18.2029 23.793 19.1544 19.0134 19.1706C17.0303 19.1773 15.0481 19.4342 12.6776 19.5176C12.6776 19.5176 12.6776 19.5176 12.6776 19.5176Z" fill="#000000" transform="translate(130.847 253.086)" />
    <path d="M0.0856171 0C4.48314 0.813614 8.90854 1.41086 13.1584 2.62326C17.8843 3.97141 18.4608 8.64343 19.8874 12.4452C21.8748 17.7413 21.8879 23.1375 19.8853 28.4557C19.359 29.8533 18.5384 31.2669 16.7694 31.3002C15.0748 31.3321 13.8956 30.1434 13.3762 28.7662C12.4315 26.2617 11.1524 23.9963 9.77995 21.714C8.53578 19.6451 8.68971 17.2591 11.3609 16.4066C14.3734 15.4451 15.4107 13.6022 14.7123 10.7773C13.9119 7.54004 12.1369 4.93816 8.54225 4.44463C5.37651 4.00998 2.24199 3.71521 0.0584717 0.493118C-0.0639191 0.164062 0.036087 0.0549774 0.0856171 0C0.0856171 0 0.0856171 0 0.0856171 0Z" fill="#000000" transform="translate(153.964 232.942)" />
    <path d="M3.20482 5.02917C1.92691 5.4429 0.878006 5.97469 0.189133 4.88269C-0.340149 4.04366 0.360016 3.31898 0.838989 2.65412C1.02998 2.38899 1.28413 2.15388 1.54976 1.9603C6.16438 -1.40263 10.7947 0.167175 15.2584 2.17002C19.6269 4.13013 23.2332 6.97695 23.7553 12.2583C23.7918 12.6268 23.2673 13.0508 22.5418 14.1468C17.4398 8.33713 12.4976 2.04516 3.20482 5.02917C3.20482 5.02917 3.20482 5.02917 3.20482 5.02917Z" fill="#000000" transform="translate(251.193 109.856)" />
    <path d="M22.1225 2.86588C23.3721 4.1311 24.8775 4.94568 23.7825 7.44191C19.7256 6.63192 16.4091 3.14436 11.5379 3.94312C6.80043 4.71996 4.35474 8.96747 3.05176e-05 10.4242C-0.0215912 0.71312 11.6416 -3.13288 22.1225 2.86588C22.1225 2.86588 22.1225 2.86588 22.1225 2.86588Z" fill="#000000" transform="translate(146.089 94.732)" />
    <path d="M2.73454 34.1751C-4.51647 24.1032 3.63152 6.48882 15.7059 1.84225C29.1194 -3.31969 42.6722 2.68176 47.2311 15.8959C49.0101 21.0524 49.5616 26.1911 48.4634 31.5757C46.6434 40.4994 39.33 47.7041 30.1945 47.944C18.9789 48.2385 9.37244 44.3206 2.73454 34.1751C2.73454 34.1751 2.73454 34.1751 2.73454 34.1751ZM34.1389 17.8882C32.7561 20.6842 32.4029 23.4139 35.4077 25.3409C37.2718 26.5363 39.3704 26.342 40.7885 24.4981C42.1349 22.7473 43.1013 20.6236 41.5712 18.5323C39.7349 16.0225 37.3263 15.4986 34.1389 17.8882C34.1389 17.8882 34.1389 17.8882 34.1389 17.8882Z" fill="#000000" transform="translate(131.05 124.838)" />
  </g>
</svg>