<svg version="1.1" id="Layer_1" xmlns="http://www.w3.org/2000/svg" xmlns:xlink="http://www.w3.org/1999/xlink" x="0px" y="0px"
	 width="100%" viewBox="0 0 384 320" enable-background="new 0 0 384 320" xml:space="preserve">
<path fill="#000000" opacity="1.000000" stroke="none" 
	d="
M194.969879,278.135498 
	C192.142410,278.179108 189.793198,278.394501 187.480103,278.193817 
	C179.400345,277.492950 171.672272,278.141541 164.408661,282.336853 
	C160.779633,284.432922 156.710648,285.537018 152.428818,283.698975 
	C151.750183,283.407654 150.712372,283.480621 150.013016,283.783386 
	C143.263000,286.705627 137.646408,284.298492 132.480820,280.057831 
	C130.798950,278.677124 128.999710,278.291016 126.938599,278.294098 
	C104.788353,278.327545 82.623001,277.889160 60.497639,278.638702 
	C54.402370,278.845184 52.376045,276.918121 50.678078,271.981049 
	C47.321575,262.221649 46.246788,252.610092 50.352715,242.768112 
	C53.279610,235.752319 58.174065,230.714661 65.675560,230.052948 
	C73.175285,229.391418 78.962334,233.864380 83.177391,239.770935 
	C88.007607,246.539505 92.332176,253.662689 96.239548,261.024994 
	C96.901695,262.272614 97.167900,263.963501 99.475510,264.446228 
	C104.227150,257.549744 110.529549,252.033752 118.287369,248.299057 
	C120.980896,247.002350 123.846992,246.041656 126.465942,244.617859 
	C130.134903,242.623230 130.182190,240.934326 126.620552,239.148392 
	C114.486038,233.063705 103.235252,225.834869 94.243797,215.443436 
	C89.267998,209.692902 85.329247,203.302155 83.429993,196.004410 
	C82.766724,193.455811 81.678917,192.739258 79.719254,192.298264 
	C74.910988,191.216187 70.082771,190.222748 65.400032,189.222992 
	C64.955055,187.266647 66.257477,186.857162 67.262611,186.480072 
	C78.661781,182.203445 85.522575,173.176025 92.161591,163.609695 
	C95.988892,158.094818 97.222076,154.187317 92.586479,147.927994 
	C83.846092,136.126083 81.404007,121.992294 80.511757,107.408997 
	C79.242599,86.665695 81.289436,66.274002 85.045654,45.959061 
	C85.153366,45.376534 85.684883,44.872368 86.465691,43.607983 
	C89.422859,47.408936 92.741455,50.288635 95.902863,53.291111 
	C101.900208,58.986946 108.980888,63.068180 116.043205,66.977936 
	C124.056709,71.414291 131.742279,76.305672 139.392029,81.285507 
	C141.186096,82.453407 142.780746,84.005127 144.247772,85.584076 
	C149.567642,91.309792 149.478058,91.214981 156.382248,88.269432 
	C168.548447,83.078926 181.457458,82.030182 194.488281,81.819077 
	C196.153259,81.792107 197.819229,81.807243 199.483154,81.753899 
	C199.754837,81.745201 200.018326,81.480888 200.781219,81.063644 
	C193.048370,77.927452 185.178253,76.903259 177.355484,75.165314 
	C184.603714,70.630127 192.561707,69.635269 200.643372,70.331177 
	C210.621429,71.190369 219.228851,75.324516 225.554703,83.323357 
	C228.226913,86.702263 231.394211,88.946640 235.412582,90.511032 
	C239.731262,92.192329 244.116196,93.992393 247.808777,96.902054 
	C250.491455,99.015923 252.801071,98.494743 254.827118,96.310059 
	C264.661987,85.705070 277.436096,80.192459 290.625397,75.327705 
	C295.933868,73.369720 301.154022,71.173538 306.430267,69.126747 
	C312.486542,66.777359 317.248199,62.925873 320.104889,55.564522 
	C322.982178,60.556393 322.733429,64.672836 322.875458,68.371811 
	C323.679932,89.326324 324.465485,110.309685 318.035339,130.741623 
	C314.205170,142.912125 309.674408,154.622940 299.658234,163.251923 
	C297.370270,165.222977 297.386414,166.765884 299.023163,169.551559 
	C304.501160,178.874756 309.800446,188.252991 317.692566,195.847229 
	C320.192078,198.252396 324.280121,199.038849 325.502594,203.379486 
	C320.210724,204.329758 316.134827,200.543259 311.401489,200.797897 
	C311.447449,208.752472 306.588562,214.271530 301.900421,219.899689 
	C295.010315,228.171402 286.936310,234.930450 277.184937,239.613403 
	C276.655212,239.867798 276.334290,240.557007 275.717468,241.275177 
	C279.896881,246.121704 284.355865,250.396805 289.660797,253.783859 
	C291.091736,254.697449 292.093384,254.111786 293.279755,253.353073 
	C295.523865,251.917938 297.787720,250.490707 300.151978,249.270645 
	C307.852325,245.296860 315.939392,246.504669 322.829803,252.542526 
	C328.501587,257.512543 331.625610,268.934052 329.271515,275.547638 
	C328.684692,277.196350 327.678467,277.576080 326.241211,277.338867 
	C324.608551,277.069458 323.261505,276.150208 323.498627,274.367249 
	C324.162354,269.376740 321.638245,265.235260 320.000336,260.913025 
	C318.549225,257.083679 316.057770,253.906097 311.585388,253.186554 
	C306.057922,252.297211 301.438934,254.275177 297.433533,257.930511 
	C296.515808,258.768005 296.311523,259.877563 296.787384,261.135406 
	C298.133453,264.693207 300.318909,267.868530 301.304169,271.613892 
	C301.730896,273.236298 303.494781,273.417938 305.088593,273.321350 
	C307.413849,273.180450 309.742462,273.095245 312.069794,272.989258 
	C313.984375,272.902069 315.491180,273.541107 315.470612,275.678833 
	C315.448517,277.977173 313.651581,278.118103 311.889771,278.123108 
	C303.559204,278.146729 295.228638,278.179321 286.898071,278.204224 
	C282.065796,278.218658 277.232513,278.287689 272.401550,278.213257 
	C268.872742,278.158875 265.469482,278.311340 262.264008,280.139832 
	C260.371796,281.219208 258.156311,281.256195 255.949188,281.289612 
	C249.976135,281.380005 243.978363,280.808777 238.032150,282.022308 
	C236.625748,282.309326 234.852402,282.312134 233.619064,281.699005 
	C221.335373,275.592499 208.331482,277.663116 194.969879,278.135498 
M280.494019,85.018616 
	C273.167419,88.637726 266.100037,92.579735 260.222443,98.458572 
	C252.563263,106.119331 252.493195,105.967766 243.021561,99.985611 
	C238.982620,97.434685 235.249435,93.707809 229.662415,95.800621 
	C229.165497,95.986763 227.954590,95.305885 227.621185,94.718071 
	C225.701431,91.333412 222.132874,89.282219 220.201126,86.140266 
	C215.469849,78.444847 207.807526,77.029465 200.125076,75.329575 
	C207.073776,78.640373 213.537796,82.583153 219.103470,88.350609 
	C216.647278,89.756172 214.901199,88.961975 213.116180,88.660484 
	C191.781998,85.057121 171.011673,86.266754 151.429596,96.388023 
	C148.639206,97.830292 147.378998,96.327019 145.960541,94.748421 
	C142.730728,91.154022 139.328552,87.769485 135.569977,84.713272 
	C125.940643,76.883369 114.468269,72.070061 104.168976,65.349770 
	C99.111809,62.049969 94.219925,58.496872 89.013191,54.892216 
	C88.687668,55.897614 88.423401,56.493752 88.303040,57.117649 
	C85.097672,73.732178 84.509933,90.549309 85.377434,107.355446 
	C86.212288,123.528984 90.825348,138.628540 101.369972,151.384140 
	C103.335480,153.761780 103.058540,155.821579 101.642120,158.188126 
	C95.615074,168.258224 90.457085,178.989822 79.777832,185.593979 
	C81.568344,187.489090 83.412209,187.509872 85.170418,187.886078 
	C88.689163,188.638977 91.466042,192.669830 90.752434,194.334000 
	C88.821671,198.836716 91.664619,201.225464 93.254547,204.231262 
	C97.873726,212.963959 105.305061,219.233566 113.159409,224.628204 
	C124.620552,232.500107 136.557648,239.700104 151.009720,241.099655 
	C163.774826,242.335861 173.230652,250.604034 175.158859,261.966003 
	C175.757935,265.495941 175.614120,269.151947 175.814178,272.819366 
	C176.350296,272.947723 176.815460,273.139160 177.288345,273.160645 
	C191.417709,273.802673 205.551147,271.750305 219.677261,273.211365 
	C222.348633,273.487640 222.700485,271.895874 222.773102,269.846130 
	C222.890060,266.543976 222.405792,263.225616 223.666534,259.975769 
	C227.467148,250.178818 237.413620,243.197144 248.427841,242.732986 
	C251.244461,242.614319 254.222046,242.951569 256.841248,242.149963 
	C264.335663,239.856308 271.171692,235.894516 278.375183,232.900650 
	C285.781311,229.822556 288.284821,220.736771 296.554474,219.090714 
	C296.923248,219.017303 297.203156,218.361023 297.471680,217.942383 
	C299.449646,214.858536 301.433411,211.778091 303.372711,208.669968 
	C304.072906,207.547775 305.184387,206.168030 304.400177,204.990555 
	C300.849457,199.659256 304.594330,197.222626 308.498383,194.702103 
	C308.082916,193.842438 307.864746,193.009720 307.364471,192.413788 
	C301.101593,184.953354 297.033295,176.161987 292.318024,167.761719 
	C291.267975,165.891022 290.595917,164.332336 292.743225,162.553009 
	C300.575592,156.062759 305.951752,147.897247 309.919250,138.488388 
	C316.068268,123.906136 317.945648,108.707771 318.004425,93.118919 
	C318.033081,85.524231 318.009399,77.929344 318.009399,69.542572 
	C310.905426,72.107033 305.413513,75.579765 299.191254,77.420715 
	C293.007599,79.250229 287.157532,82.207100 280.494019,85.018616 
M155.323471,272.561310 
	C155.323471,274.685638 155.323471,276.809937 155.323471,279.086731 
	C164.888840,277.566956 163.653595,269.451294 164.341171,262.219635 
	C168.095886,265.408234 167.817123,269.260376 168.887573,273.093536 
	C174.811447,261.177002 162.987869,246.611816 149.902039,246.213318 
	C138.694366,245.872040 128.480560,249.166122 118.940186,254.313828 
	C111.683388,258.229370 105.329681,263.598602 103.481682,273.684113 
	C112.853294,272.601349 121.975243,276.315918 130.958054,270.679657 
	C134.130966,274.897980 138.129456,279.635712 144.232407,279.180511 
	C152.169632,278.588470 151.061295,271.275391 152.069321,265.418671 
	C154.396057,267.342590 155.218903,269.355743 155.323471,272.561310 
M266.077393,272.231995 
	C273.182526,273.402985 280.344269,273.071655 287.479492,272.826416 
	C289.778778,272.747406 293.226562,274.154724 294.174164,271.269958 
	C295.024384,268.681702 293.526031,265.762024 291.551453,263.538818 
	C290.778656,262.668732 290.068176,261.723633 289.198242,260.962494 
	C277.204956,250.469009 262.818909,247.480957 247.494370,248.411163 
	C237.918930,248.992401 230.873779,253.695969 227.908829,263.438995 
	C226.049881,269.547607 229.042007,275.407349 234.973892,276.220917 
	C233.898544,272.350372 232.403656,268.396271 236.369934,264.790649 
	C239.292252,275.224243 240.544266,276.464691 247.091904,275.867371 
	C247.858475,272.875305 244.814819,269.006287 249.049911,266.579315 
	C254.295273,278.152435 254.858643,278.350098 266.077393,272.231995 
M57.198147,271.292938 
	C57.758369,273.703400 59.640320,273.618256 61.517838,273.621124 
	C71.812607,273.636871 82.107376,273.690369 92.402077,273.677399 
	C93.652832,273.675812 95.105583,274.101898 96.260612,272.427521 
	C94.987152,270.309479 93.660484,268.062500 92.295120,265.839325 
	C87.523262,258.069458 83.165886,249.999802 77.852257,242.619125 
	C70.831810,232.867599 60.732964,234.582779 56.004047,245.558533 
	C52.287430,254.184753 53.455795,262.356079 57.198147,271.292938 
z"/>
<path fill="#000000" opacity="1.000000" stroke="none" 
	d="
M233.804413,194.356995 
	C224.987885,188.418381 218.380478,181.555115 219.614792,170.198212 
	C219.850067,168.033356 218.767242,167.150635 217.109528,165.953857 
	C212.064911,162.311996 211.751144,154.159653 216.308136,149.867889 
	C217.978699,151.335938 216.610367,152.851883 216.422897,154.320602 
	C216.115875,156.725800 216.323380,159.124252 218.387283,160.656296 
	C220.630920,162.321732 222.688644,161.060959 224.802002,159.830978 
	C234.963058,153.917267 244.695938,147.061996 256.739532,145.218643 
	C264.631409,144.010757 271.817566,145.503967 278.788330,150.288391 
	C275.822235,153.165283 277.065521,155.504379 278.604095,158.345718 
	C282.255615,165.089066 283.426514,172.547821 282.049286,180.044312 
	C280.037933,190.992554 271.794739,196.065567 262.021851,198.524582 
	C252.381866,200.950104 242.864731,199.777710 233.804413,194.356995 
M264.704865,194.349533 
	C268.238831,192.515198 272.006317,190.960724 274.659515,185.876968 
	C264.363129,191.712799 254.938934,194.233887 244.699692,189.447906 
	C234.200623,184.540451 230.519653,175.437927 229.237183,164.700485 
	C224.129074,165.282684 222.295349,168.128708 222.535782,172.563828 
	C222.815674,177.727005 224.606781,182.407074 228.349304,185.965881 
	C238.516449,195.633972 250.236679,199.427155 264.704865,194.349533 
M247.271957,164.775848 
	C249.782532,161.938110 248.721527,159.654617 246.140411,157.634354 
	C243.957947,155.926117 242.093903,156.798798 240.424484,158.473312 
	C238.553497,160.350037 238.050934,162.410248 239.834518,164.671783 
	C241.931152,167.330246 244.241623,167.244141 247.271957,164.775848 
M262.317810,179.750214 
	C260.980835,181.164810 261.262451,182.471771 262.859741,183.294418 
	C264.090332,183.928223 265.203979,183.185867 265.442719,181.936432 
	C265.800812,180.062683 264.739685,179.261871 262.317810,179.750214 
z"/>
<path fill="#000000" opacity="1.000000" stroke="none" 
	d="
M187.224503,153.234772 
	C188.475800,150.933777 186.123978,148.696533 187.768738,146.739578 
	C190.909363,148.820969 192.225494,153.988022 189.176147,157.272919 
	C184.348892,162.473053 183.011520,168.479874 181.144196,175.003235 
	C178.167358,185.402725 169.258118,190.746155 158.871384,192.600281 
	C148.108871,194.521500 137.680496,193.518875 128.640457,186.332367 
	C117.568420,177.530518 114.922600,162.752808 122.491859,150.660675 
	C124.207306,147.920181 126.241394,145.493683 122.806274,142.399597 
	C133.016449,136.049805 143.065231,136.523010 153.183624,140.982071 
	C162.188660,144.950470 170.253510,150.476410 178.112396,156.377243 
	C182.723511,159.839493 184.617538,159.027023 187.224503,153.234772 
M131.335983,165.781708 
	C129.388718,157.615570 133.594925,151.081223 137.626083,144.317200 
	C133.199051,143.739120 130.842361,146.207108 128.553070,148.566467 
	C115.245636,162.281128 122.684471,182.145355 136.332764,187.409088 
	C146.315826,191.259247 159.452774,191.058075 166.928665,185.288757 
	C165.571289,185.605927 164.808060,185.793167 164.040833,185.962204 
	C151.071655,188.819824 134.521240,178.969116 131.335983,165.781708 
M163.446426,155.178848 
	C162.940170,157.938995 163.917679,160.005371 166.409500,161.283752 
	C167.871277,162.033691 169.260483,161.636658 170.580063,160.792328 
	C171.353317,160.297562 171.692474,159.594437 171.594009,158.724670 
	C171.359222,156.651123 166.116135,153.887115 163.446426,155.178848 
z"/>
<path fill="#000000" opacity="1.000000" stroke="none" 
	d="
M189.361816,197.296860 
	C181.945984,198.647095 177.449417,203.438782 173.714737,209.214661 
	C170.812073,206.920273 172.314606,205.231079 173.358871,203.652161 
	C178.076370,196.519180 185.243958,193.839584 193.302475,192.975845 
	C196.407791,192.643005 198.721710,191.622574 199.466125,188.049057 
	C196.761475,185.517609 192.844452,184.444397 191.116592,180.616348 
	C189.473282,176.975601 190.320587,174.920258 193.876862,173.668839 
	C197.798218,172.288940 201.703674,172.389404 205.597488,173.850494 
	C207.879333,174.706726 209.992935,175.832275 210.168396,178.542648 
	C210.350174,181.351105 209.449112,183.731903 206.674133,185.158875 
	C205.028061,186.005310 202.393234,186.284744 202.847061,188.995758 
	C203.341263,191.948013 205.789383,192.827240 208.415939,193.087570 
	C215.245941,193.764496 221.396194,196.011276 226.323715,200.933640 
	C228.357681,202.965515 230.749283,204.893890 230.939377,210.245514 
	C219.036499,197.047821 205.454315,193.214371 189.361816,197.296860 
z"/>
<path fill="#000000" opacity="1.000000" stroke="none" 
	d="
M276.496887,106.716934 
	C273.274780,108.754753 269.993713,109.229767 266.671967,109.561234 
	C265.669678,109.661255 264.597961,109.809227 263.965363,108.821922 
	C263.216492,107.653061 263.669617,106.472252 264.541962,105.655090 
	C268.642029,101.814316 271.947235,97.100044 277.051056,94.351265 
	C278.746307,93.438217 280.374908,92.579247 282.053375,94.148186 
	C283.677979,95.666794 283.989838,97.516243 283.138428,99.608727 
	C281.878540,102.705063 279.098450,104.373322 276.496887,106.716934 
z"/>
</svg>