<svg xmlns="http://www.w3.org/2000/svg" width="384" height="320" fill="#000" xmlns:v="https://vecta.io/nano"><path d="M152.001 278.314l-91.978-.011c-.667 0-1.337.043-1.999-.012-1.884-.159-4.604.501-4.467-2.492.117-2.557 2.675-2.109 4.375-2.028 14.144.68 28.273-1.603 42.431-.144 2.837.292 5.957.849 8.649-1.04-.142-2.138-1.712-3.043-3.063-3.817-15.905-9.114-22.641-24.363-26.934-40.961-2.405-9.298-3.581-18.859-8.25-27.534-2.935-5.453-3.202-11.183 1.483-16.212.319-.342.454-.883.589-1.357.087-.304.016-.653.016-1.092-2.082-2.559-6.134-.992-8.455-3.732 1.385-2.411 3.817-2.774 5.962-3.226 8.293-1.745 13.433-7.692 18.332-13.78 2.489-3.094 4.374-6.639 7.581-9.183 1.601-1.271 3.107-3.186 1.193-5.109-6.953-6.985-8.221-16.229-9.525-25.136-3.998-27.3 1.736-53.647 8.942-79.764.156-.566.7-1.024 1.198-1.721 2.888 1.833 3.373 5.049 5.183 7.317 7.213 9.037 16.609 15.271 26.269 21.248 9.694 5.998 18.555 12.986 24.791 22.732 1.62 2.531 3.227 2.789 5.798 1.646 6.783-3.015 13.915-4.466 21.368-4.153 6.329.266 12.561-.616 19.065-1.416-.953-2.28-3.978-1.306-4.699-3.927 3.253-2.661 7.142-2.255 10.42-.684 3.805 1.824 8.213 2.902 10.988 6.57.369.487 1.159 1.126 1.593 1.022 7.606-1.821 11.819 4.202 16.719 7.765 6.301 4.582 13.76 7.494 19.154 13.387 1.419 1.55 3.274 1.084 4.952-.202 13.721-10.514 29.841-15.082 46.356-18.721 5.522-1.217 10.877-2.991 16.126-5.196 3.395-1.426 4.469-5.256 7.446-6.61 1.623.44 1.675 1.477 1.671 2.482-.1 26.289-3.95 51.824-16.405 75.357-4.503 8.507-9.747 16.723-18.299 22.02-2.891 1.791-2.688 4.351-1.654 7.028 4.551 11.783 8.32 24.001 18.174 32.865.697.627 1.477 1.412 1.102 3.043-2.923.128-4.921-2.246-7.453-3.077-1.532-.503-3.238-1.757-4.345.424-3.279 6.457-7.606 12.076-12.862 17.045-5.146 4.866-11.293 8.077-17.567 10.628-.298 2.071 1.002 2.809 1.924 3.662 4.512 4.175 7.823 9.207 9.493 15.037 1.369 4.779 4.039 6.15 8.744 5.836 5.639-.376 11.326-.158 16.987 0 2.101.059 5.391-.863 5.283 2.728-.096 3.185-3.147 2.326-5.133 2.343-10.329.089-20.685.501-30.984-.074-8.924-.498-17.409 2.301-26.159 2.378-8.629.076-17.023 3.139-26.047-1.379-5.415-2.711-12.992-2.414-19.656-1.766-17.956 1.743-35.956.447-54.426.994zm62.228-181.943c-19.036-5.008-37.831-4.785-56.243 2.735-2.413.986-4.015 1.595-5.584-1.496-5.432-10.701-14.117-18.312-24.266-24.404-8.716-5.232-17.201-10.773-24.495-17.958-1.225-1.206-2.276-2.978-4.74-2.523-2.338 3.946-1.933 8.618-2.815 12.929-4.225 20.653-6.737 41.467-.473 62.114 1.735 5.718 2.883 12.081 7.475 16.614 3.281 3.239 2.837 5.83.06 9.419-3.258 4.211-7.331 7.972-9.569 12.934 2.754 2.446 5.464 1.739 7.935.961 4.789-1.51 8.958-.469 13.453 1.533 7.087 3.157 10.028 10.797 17.886 13.934 6.826 2.726 13.099 5.134 20.295 4.723 14.156-.808 29.085-12.21 23.989-32.143-1.495-5.85-3.269-11.707-9.018-14.978-5.873-3.341-12.205-5.33-19.016-5.445-14.588-.248-28.046 15.403-25.587 29.701.19 1.106.754 2.317-.832 3.065-2.112-.596-2.298-2.566-2.817-4.235-2.579-8.3 1.844-14.488 6.46-20.472 8.465-10.972 23.995-16.151 34.991-11.011 11.507 5.378 18.196 13.783 19.968 26.543 2.86 20.593-13.751 32.47-28.144 32.453-6.83-.008-13.456-1.118-21.051-3.287 1.429 6.799-.918 11.966-4.324 16.82-.429.611-.575 1.663-.41 2.413 2.335 10.593 2.596 21.945 11.376 30.165 2.243 2.1 3.228 4.791.223 7.294-2.041 1.701-2.175 3.775-1.884 6.296.861 7.453-2.275 13.236-8.079 17.741-1.501 1.165-3.677 1.702-3.996 4.061 1.084 1.281 2.515.838 3.77.831 12.65-.07 25.319.201 37.942-.433 9.528-.478 18.995.884 28.461.253 7.979-.531 15.905-1.523 23.878-.05 2.973.549 3.598-1.079 3.672-3.766.425-15.518 8.223-23.982 23.593-26.208 4.737-.686 9.297-.188 13.848.884 4.906 1.156 9.232.968 12.277-3.88.954-1.518 2.383-2.85 4.325-3.15 7.801-1.205 12.887-6.328 17.562-12.066.911-1.117 1.389-2.239.413-3.602-2.574-3.593-.395-5.638 2.616-6.981 3.305-1.475 3.537-3.149 1.694-6.154-4.448-7.253-7.414-15.22-10.615-23.079-1.547-3.797-.33-6.017 2.791-7.874 9.789-5.823 16.325-14.643 21.285-24.505 6.801-13.523 9.949-28.244 11.972-43.136.758-5.577 2.537-11.304.505-17.354l-14.306 3.559c-18.305 4.077-36.267 8.934-50.976 21.518-1.355 1.16-2.699 1.915-4.402.469-5.84-4.956-12.757-8.34-18.967-12.591-6.751-4.621-13.838-6.886-22.107-9.182zM85.935 174.457c-2.012 2.035-3.914 4.096-3.735 7.289.08 1.433-.749 2.405-1.926 3.261-5.364 3.902-7.166 9.654-3.393 15.277 4.534 6.757 4.789 14.369 6.374 21.773 3.625 16.941 8.774 32.955 26.035 41.278 5.583 2.692 11.511 5.532 17.502 2.011 5.957-3.5 5.318-9.82 4.935-15.701-.075-1.156-.268-2.315-.524-3.447l-7.153-31.071c-1.554-6.03-3.228-11.93-9.071-16.025-3.387-2.374-4.353-7.29-5.44-11.485-.604-2.329 1.08-2.576 2.793-3.138 2.59-.85 5.249.897 7.768-.337-1.856-8.391-10.704-13.526-18.496-10.711-2.214.799-4.349 1.009-6.198-.315-3.341-2.393-6.178-1.712-9.468 1.341zm167.613 99.435c6.801 4.381 9.766-2.837 14.699-5.172 2.193 5.635 6.392 4.524 10.875 3.581-.156-1.161-.174-2.145-.429-3.064-3.534-12.766-14.98-21.219-28.248-20.901-11.742.283-19.871 6.061-22.593 16.061-1.586 5.823 1.221 10.625 7.394 11.941-1.292-3.988-2.691-7.951.794-11.642 4.827 10.541 5.8 11.387 11.327 10.082 1.023-2.782-1.238-6.213 1.88-9.143 1.552 2.707 1.822 5.698 4.301 8.257zm-130.244-76.013c.654.618.778 1.956 2.358 1.559.728-2.483 1.216-5.068 1.013-7.752-.121-1.598-.652-2.984-2.447-3.294-1.716-.297-2.711.744-3.653 2.046-2.512 3.472.413 5.005 2.729 7.441zm152.908-24.813c2.471 8.088 3.947 15.595.997 23.75-2.76 7.63-8.293 11.513-15.253 13.719-16.471 5.222-35.617-6.197-42.011-16.131-4.357-6.769-3.285-13.4-.958-20.045 5.672-16.192 20.21-24.857 37.005-21.375 10.435 2.164 16.461 10.008 20.219 20.081zm-50.766-4.079c-1.594 2.51-2.834 5.126-2.729 8.157.668-.459.947-1.043 1.2-1.638 4.612-10.838 15.707-17.314 26.874-15.682 11.105 1.623 18.973 10.591 20.08 22.887.879 9.763-3.552 17.223-11.707 20.362-6.112 2.353-12.439 2.105-19.924 1.804 9.369 5.301 17.995 4.417 25.878.578 10.165-4.951 10.979-14.48 9.612-24.502-1.513-11.09-10.283-22.896-19.841-23.951-10.909-1.204-21.858-1.179-29.443 11.986zm16.434 5.454c-.198-2.875-2.095-3.538-4.5-3.286-3.041.319-3.893 2.68-4.518 5.182-.362 1.45-.146 2.747 1.418 3.224 2.621.799 4.929.198 6.571-2.112.462-.649.661-1.485 1.029-3.008zm-67.918-19.031c1.492 5.338 1.303 10.189-.411 15.069-3.041 8.655-10.507 13.872-19.608 13.941-8.557.065-15.692-3.648-21.467-9.146-10.53-10.025-5.597-28.846 8.389-35.216 10.923-4.976 28.048-.457 33.097 15.352zm-8.479 8.541c2.42-1.581 4.148-3.56 2.442-6.526-1.139-1.981-3.188-2.961-5.49-2.435-2.892.66-2.475 3.142-2.325 5.227.205 2.841 1.444 4.721 5.372 3.734zm13.36 42.83l-2.546-13.59c-.097-.565.315-1.218.471-1.76 1.991-.731 2.96.7 4.023 1.591 2.019 1.692 4.388 2.4 6.885 2.591 2.145.164 4.715.234 5.758-1.998 1.144-2.448-1.113-3.836-2.675-5.31-1.997-1.884-5.058-3.507-3.391-6.927s4.859-3.475 8.217-2.849c1.781.332 3.651.159 5.475.295 2.964.221 4.989 1.849 5.97 4.569 1.088 3.017-1.559 3.988-3.285 5.422-2.129 1.769-6.568 2.167-5.197 6.166 1.461 4.26 5.601 4.003 9.357 3.704 1.424-.114 2.859-1.182 5.152.716-5.426 5.86-5.921 15.112-13.882 19.385-6.394 3.432-12.873 1.232-17.436-5.783-1.165-1.79-1.868-3.881-2.895-6.223zm-24.908 39.709c3.983-2.58 7.611-.514 11.129.452 2.813.772 5.519 1.363 8.307.638 9.619-2.502 17.454 2.439 25.601 6.03 1.743.768 2.162 2.439 1.718 4.248-.568 2.316-1.866 3.981-4.426 3.985-6.821.009-13.814.264-19.772-3.709-4.79-3.194-9.764-4.529-15.492-4.319-5.596.205-6.828-1.301-7.064-7.325zm118.4-108.115c-1.419 3.109-2.858 4.164-4.869.847-.856-1.412-1.948-2.681-2.806-4.092-2.629-4.32-6.378-5.45-11.114-4.155-1.347.368-2.711 1.512-4.504.033.984-4.556 4.803-4.064 8.05-4.222 6.508-.317 13.112 4.62 15.243 11.59zm-118.436-31.902c5.597-1.861 9.551 1.654 13.924 3.288 1.54.575 1.782 2.358 1.029 3.88-.549 1.108-1.786 1.199-2.557.522-7.227-6.349-13.649-3.38-19.949 1.574-.088.069-.314-.037-.476-.062-1.125-4.245-.327-5.188 8.028-9.202zm-67.354 83.069c4.313.79 5.391-1.976 6.141-5.006.381-1.539-.265-3.399 1.47-4.495 3.94 3.382 4.016 4.973.239 10.698 5.141 1.947 2.587 4.502.465 7.044-.747.894-1.605 1.714-2.234 2.684-1.534 2.367-4.749 4.246-2.571 7.81 2.321 3.798 4.174 8.141 9.915 7.662 2.809-.235 5.658.046 8.483-.05 4.939-.168 6.87-3.189 4.644-7.726-2.189-4.462-4.224-9.1-7.87-12.656-3.231-3.151-3.872-7.304-4.362-11.39-.299-2.49.69-4.993 3.051-6.395 1.138-.676 2.214.142 3.067 1.034 1.939 2.026 1.677 4.271.453 6.445-1.601 2.842-1.046 5.387.591 7.96 2.584 4.061 4.614 8.48 7.901 12.085 2.609 2.861 2.337 5.996.903 9.293-1.461 3.36-3.919 5.426-7.577 5.592-4.317.197-8.654.24-12.97.059-4.449-.186-8.552-4.149-9.487-8.863-.777-3.916-1.608-7.499-4.949-10.504-2.804-2.523-1.492-6.638-.565-9.926.65-2.307 2.834-2.521 5.262-1.354z"/></svg>