<svg xmlns="http://www.w3.org/2000/svg" width="384" height="320" fill="#000" xmlns:v="https://vecta.io/nano"><path d="M181.098 278.227c-6.133-1.118-10.772 1.721-15.61 3.83-4.137 1.803-8.54 1.608-12.887 2.126-8.625 1.027-16.038.735-22.598-5.489-.744-.706-2.569-.352-3.893-.353-21.327-.014-42.654-.029-63.981.008-9.321.017-9.263.05-12.398-9.025-2.933-8.491-3.072-16.886.08-25.375 2.762-7.438 7.574-13.036 15.546-13.822 7.907-.781 13.814 3.9 18.259 10.188 5.373 7.599 9.874 15.75 14.913 24.793 6.949-10.288 16.117-16.632 27.795-20.151-3.106-3.907-6.702-4.995-9.754-6.794-6.729-3.967-12.455-8.957-18.284-14.203-6.987-6.288-11.489-13.25-14.334-21.792-.669-2.01-2.522-1.942-4.121-2.218l-13.777-2.288c-.459-1.858.4-2.507 1.326-2.843 12.872-4.67 19.469-15.36 26.052-26.346 3.087-5.15 2.321-8.368-1.414-12.829-8.53-10.189-12.141-22.649-14.282-35.584-3.298-19.929-1.722-39.832.212-59.733.283-2.909.344-5.941 1.857-8.36 1.443-.563 2.311.005 2.975.749 9.537 10.697 22.203 16.691 34.623 23.037 9.192 4.696 18.232 9.607 25.71 16.89 2.001 1.949 4.056 2.629 6.748 1.352 14.245-6.759 29.266-9.852 45.03-9.329.457.015.921-.169 2.074-.398-7.505-3.732-15.2-4.003-22.407-4.512-.334-2.245.307-2.987 1.308-3.357 15.599-5.757 34.899-5.8 48.663 11.56.761.96 1.663 1.512 2.836 1.872 6.386 1.954 12.417 4.722 18.031 8.333 1.914 1.231 3.612 1.758 5.262-.23 11.894-14.329 28.812-20.382 45.112-27.486 4.268-1.86 8.456-3.936 12.548-6.156 3.575-1.94 5.196-5.735 7.401-9.873 3.766 4.329 2.906 9.009 3.254 12.91 1.538 17.249 2.036 34.585-.588 51.783-2.617 17.153-7.504 33.435-20.797 45.649 7.97 13.552 15.061 27.359 29.971 35.497-5.753 2.653-10.115-.773-14.702-.917-.04 7.442-3.636 13.225-7.979 18.785-7.687 9.839-17.311 17.242-28.86 22.749 3.761 5.965 8.883 9.506 13.967 13.067 1.457 1.021 2.418-.302 3.517-.987 4.24-2.645 8.474-5.526 13.593-5.941 16.565-1.343 25.419 15.51 22.24 28.307-.397 1.596-1.153 2.393-2.739 2.142-1.986-.313-3.464-1.186-3.241-3.586.582-6.278-1.724-11.57-5.301-16.592-2.998-4.209-7.12-4.507-11.557-4.089-4.083.384-6.846 3.141-9.576 5.818-.636.623-.304 1.553.046 2.348 1.582 3.6 3.967 6.809 4.864 10.77.283 1.249 2.079 1.476 3.477 1.408 2.488-.12 4.981-.174 7.461-.387 1.644-.141 2.586.525 2.827 2.077.246 1.589-.596 2.573-2.126 2.812-1.143.179-2.324.157-3.488.16l-32.99.084c-5.451.021-10.688.21-16.117 2.108-4.977 1.739-10.916.484-16.241 1.523-8.151 1.591-15.157-2.294-22.677-3.66-9.461-1.719-18.92-.046-28.379-.061-3.999-.006-7.998.02-12.48.031zm-14.091-30.787c7.485 6.949 9.842 15.743 8.566 25.227 14.91 1.747 29.215-1.352 43.477.808 3.505.531 3.641-1.799 3.541-4.415-.538-14.035 10.683-26.695 24.911-26.077 12.809.556 22.82-5.128 32.918-11.169 3.453-2.066 8.051-3.558 8.668-8.846.17-1.459 2.042-1.228 3.365-1.472 4.49-.826 14.213-12.598 13.068-16.776-1.394-5.085-.69-8.72 4.544-11.536-5.702-6.686-10.272-13.579-14.678-20.573-5.446-8.642-5.215-9.712 2.241-16.189.625-.544 1.285-1.095 1.753-1.765 6.665-9.54 11.037-20.082 13.269-31.467 2.679-13.665 2.159-27.526 2.004-41.339-.05-4.538-.764-9.069-1.226-14.177l-10.845 5.52c-9.341 4.71-19.608 7.327-28.588 12.901-6.806 4.224-13.57 8.451-18.658 14.77-4.359 5.413-4.969 5.239-11.239 2.508-5.857-2.551-10.622-8.537-18.214-6.395-.596.168-1.681-.9-2.351-1.58l-9.677-10.055c-3.145-3.365-7.127-4.852-11.574-5.502 3.991 4.015 9.914 5.687 12.994 10.713-1.517 1.72-3.04.963-4.448.738-7.549-1.203-15.03-2.03-22.779-1.304-13.868 1.299-27.406 3.337-39.382 11.078-2.527 1.633-4.392.989-6.076-1.061-2.123-2.583-4.521-4.847-7.068-7.019-15.444-13.167-35.706-18.311-51.468-31.728-.401 1.265-.643 1.846-.769 2.451-2.922 13.998-2.452 28.2-1.892 42.313.762 19.195 5.801 37.101 19.026 51.825 1.973 2.197 2.328 4.332.911 6.792-5.739 9.96-9.602 21.187-20.398 29.148 6.421.519 9.443 5.077 14.043 7.19-1.1 1.758-3.354.591-4.009 2.581 1.004 3.23 2.556 6.256 4.562 9.179 8.306 12.104 20.71 18.854 33.114 25.559 5.176 2.798 10.6 3.603 16.793 2.795 7.435-.968 14.951.617 21.573 6.349zm-42.18 26.182c2.769.646 2.835-2.926 4.948-3.391 2.212 1.985 4.224 3.958 6.411 5.713 2.854 2.29 5.858 4.812 9.828 2.792 3.904-1.985 5.786-5.351 5.471-9.819-.08-1.143-.32-2.342.902-3.118 2.776 3.166 2.776 3.166 2.929 13.466 8.522-2.07 8.778-8.947 8.444-16.265 4.949 2.322 3.275 6.675 5.009 9.38.932-.16.977-.875 1.128-1.497 2.836-11.74-6.768-24.16-19.766-24.512-15.632-.424-29.537 4.758-41.339 15.176-2.152 1.899-3.416 4.409-4.569 7.044-1.562 3.574-.349 5.031 3.25 5.054l17.353-.023zm127.737-25.403c-1.164-.002-2.338-.102-3.492.008-11.614 1.101-17.404 5.271-21.128 16.363-1.851 5.514.927 10.061 6.629 11.654-.48-3.843-2.404-7.922 1.585-11.448 3.835 10.571 4.729 11.435 10.876 10.836.533-3.184-2.147-7.212 2.36-9.619 3.582 11.497 4.8 12.044 15.112 6.631 1.769-.929 3.282-.855 5.194-.475 8.163 1.623 16.342.967 24.8.164-.551-9.311-7.061-13.63-13.354-17.085-8.432-4.628-17.791-7.203-28.582-7.029zm-195.31-5.323c-4.583 8.836-4.463 17.72-.777 26.879 1.22 3.031 2.797 3.9 5.899 3.852 9.467-.147 18.939.061 28.408.03 1.72-.006 3.671.656 5.348-1.171-5.755-9.82-11.079-19.935-17.83-29.166-6.651-9.093-13.05-9.337-21.049-.424zM269 131.645c-1.329 1.78-3.733 1.597-5.599.65-8.438-4.285-18.529-6.237-32.03-4.162-1.722.265-3.735-.013-5.371-1.011 1.883-3.037 8.627-3.114 14.489-3.122 13.431-.017 25.533 3.262 28.511 7.645zm-109.475-8.475c2.687 1.891 5.326 3.516 3.41 4.325-1.522.643-4.303-.19-6.452-1.457-14.816-8.73-28.433-11.197-41.615-10.646-1.98.083-4.276-.177-6.84-1.5-.696-8.166 26.729-3.397 51.497 9.278zm77.47 73.121c-7.232-3.146-13.991-6.903-15.958-14.509-1.615-6.245-3.833-11.586-7.855-16.714-3.27-4.17-1.422-9.322 2.672-11.675 1.252 1.883-.36 3.476-.551 5.195-.277 2.489.103 4.671 2.258 6.2 1.939 1.375 3.676.638 5.528-.461 9.413-5.585 18.72-11.275 29.332-14.612 7.668-2.412 14.73-1.257 21.899 1.295 1.107.394 2.509.872 2.507 2.149-.012 6.25 4.154 10.982 5.879 16.612 2.385 7.784-1.222 18.872-8.221 22.758-11.799 6.552-24.213 7.625-37.489 3.761zm-12.48-14.578c5.052 9.276 18.85 15.738 28.326 12.722-6.527-2.023-12.439-3.99-16.668-9.145-4.214-5.137-6.135-11.183-7.316-17.471-6.239 1.13-6.845 6.67-4.341 13.894zm22.475-20.305c-2.01-2.184-4.061-2.8-6.352-.327-1.589 1.715-2.644 3.445-1.186 5.765 1.438 2.287 3.769 2.638 5.654 1.464 2.103-1.31 4.669-3.154 1.884-6.901zm-86.829 35.005c-11.88 2.845-22.513.828-32.429-5.447-8.792-5.564-12.422-17.977-8.551-28.347 1.398-3.746 4.193-7.129 2.982-11.739-.511-1.944 1.909-2.385 3.418-2.968 10.572-4.085 20.681-1.857 30.463 2.611 6.936 3.167 13.682 6.69 19.809 11.401 5.538 4.259 9.851 2.238 10.862-4.547.205-1.373-.506-3.032 1.079-4.059 3.392 3.468 2.816 10.192-1.938 14.179-2.789 2.339-3.55 4.694-3.666 8.081-.285 8.343-5.281 13.795-12.236 17.473-2.886 1.526-5.986 2.968-9.793 3.362zm-9.754-2.023c2.31-.258 4.712-.188 6.664-1.387-8.473-3.653-17.738-5.244-23.284-13.643-5.741-8.695-4.021-17.507.048-26.585-3.427.117-5.418 1.193-7.07 2.946-2.851 3.026-3.712 7.043-4.958 10.775-2.021 6.05 1.127 16.288 5.734 20.034 6.615 5.379 13.822 7.689 22.868 7.86zm14.079-29.216c1.74.631 3.462 1.148 5.052-.99-1.864-2.849-4.043-4.655-7.697-3.389-.381 2.18 1.282 2.806 2.645 4.379zm9.56 44.934c2.375-7.315 8.2-10.116 14.393-12.368 2.487-.904 5.111-1.466 7.706-2.027 2.653-.574 2.94-2.774 3.975-4.78-2.141-1.25-4.281-2.032-5.772-3.481-2.256-2.194-4.611-4.991-3.035-8.325 1.774-3.753 5.934-2.94 9.264-3.464.744-.117 1.577.474 2.39.634 3.138.616 7.184-.057 7.752 4.567.495 4.026-2.45 6.26-5.235 8.432l-2.084 1.597c.662 3.714 3.303 4.581 6.437 5.054 7.514 1.135 14.772 2.941 19.736 9.4 1.118 1.455 3.053 2.899 1.377 5.097-1.018.504-1.812.208-2.277-.548-3.851-6.259-10.347-7.655-16.713-9.862-9.056-3.139-17.203-.089-25.462 2.367-4.238 1.261-7.189 4.622-9.491 8.452-1.102 1.833-2.51 3.579-2.962-.747z"/></svg>