<svg version="1.1" id="Layer_1" xmlns="http://www.w3.org/2000/svg" xmlns:xlink="http://www.w3.org/1999/xlink" x="0px" y="0px"
	 width="100%" viewBox="0 0 384 320" enable-background="new 0 0 384 320" xml:space="preserve">
<path fill="#000000" opacity="1.000000" stroke="none" 
	d="
M99.004890,218.008423 
	C96.258080,219.464691 94.208580,218.455490 92.573807,216.141602 
	C89.018661,211.109604 85.249672,206.103088 83.678322,200.083344 
	C82.918602,197.172943 81.573334,196.511917 78.959419,196.180908 
	C74.429443,195.607269 69.954552,194.598602 65.329559,193.749069 
	C66.058777,191.078369 68.314903,190.762207 69.950470,189.904144 
	C82.621651,183.256546 89.368668,171.599579 95.842552,159.672607 
	C96.687553,158.115845 95.799294,157.241074 94.947037,156.171738 
	C87.581230,146.929810 82.893791,136.611374 80.338921,124.933159 
	C75.931480,104.786835 76.520058,84.665375 78.684242,64.434814 
	C79.229279,59.339931 81.180069,54.467464 80.957619,49.347778 
	C84.149872,47.850815 85.743881,50.056019 87.127083,51.659359 
	C94.158638,59.809978 103.462189,64.698189 112.697510,69.618065 
	C123.550507,75.399727 134.714798,80.657600 143.557846,89.506813 
	C145.875381,91.825951 148.070114,92.210770 151.130005,90.832642 
	C166.056854,84.109772 181.845184,81.800835 198.634583,82.287285 
	C190.911514,78.101234 182.650024,78.206985 173.266647,76.361046 
	C178.713654,72.467018 183.813507,71.559898 188.558456,71.054535 
	C203.484558,69.464844 216.521469,73.105972 225.756287,86.171364 
	C228.146591,89.553200 233.013687,89.045975 236.377197,91.255089 
	C239.403717,93.242882 243.127823,93.938446 246.126175,96.213150 
	C248.104340,97.713875 250.278381,97.732697 252.255722,95.401802 
	C259.417297,86.959732 268.767059,81.545609 278.671875,77.027649 
	C287.604767,72.953033 296.597931,69.007004 305.617035,65.126335 
	C310.758423,62.914135 314.024445,58.896519 316.126312,54.276333 
	C318.333557,54.326904 318.736145,55.479809 318.840179,56.648518 
	C320.848419,79.205696 322.582947,101.781532 317.734253,124.204681 
	C314.667877,138.385132 309.350037,151.545410 298.971252,162.154266 
	C297.718262,163.435028 297.009460,164.582123 298.251038,166.483612 
	C304.869873,176.620560 310.609650,187.382553 320.545258,194.992371 
	C322.401276,196.413910 325.308655,196.768814 326.249786,199.860764 
	C321.093933,201.709564 316.573242,198.363022 311.965576,198.245850 
	C312.992584,206.199585 307.875031,211.450607 303.846222,216.833893 
	C297.113129,225.830673 288.693756,233.092239 278.539520,238.179504 
	C276.673981,239.114136 275.561768,240.429871 277.356842,242.485687 
	C280.955902,246.607498 284.702301,250.531418 289.309082,253.608871 
	C291.543060,255.101257 292.642303,253.468689 294.114380,252.571381 
	C300.295135,248.803879 306.453674,245.205460 314.215546,247.777893 
	C325.582703,251.545212 331.844360,262.287109 329.475769,274.089569 
	C329.091309,276.005310 329.016907,277.939240 326.332794,277.418579 
	C324.335571,277.031128 323.667206,275.859833 323.259125,273.644775 
	C322.272125,268.286957 321.764374,262.774048 318.510834,257.958160 
	C312.853516,249.584244 301.971222,253.093857 296.902924,258.515686 
	C295.970581,259.513062 296.578857,260.715729 297.046875,261.803162 
	C298.415619,264.983063 299.732574,268.186035 301.150116,271.343903 
	C301.953552,273.133759 303.709900,273.420105 305.374359,273.445221 
	C307.861084,273.482758 310.355865,273.337219 312.838715,273.154297 
	C314.504333,273.031555 315.399353,273.778778 315.585724,275.323456 
	C315.778259,276.918823 314.888123,277.855927 313.353607,278.057861 
	C312.203583,278.209198 311.027771,278.197571 309.863281,278.201050 
	C299.031799,278.233490 288.200165,278.236084 277.368774,278.284271 
	C271.753082,278.309235 266.296234,278.209778 260.754822,280.476166 
	C256.803497,282.092194 251.916428,281.842133 247.466217,281.720306 
	C240.316513,281.524597 233.360718,282.420197 226.067581,279.114990 
	C220.462616,276.574860 213.077316,276.604004 206.400055,277.407196 
	C199.757416,278.206238 193.086044,278.469818 186.440796,278.159393 
	C178.674500,277.796570 171.303955,278.442291 164.348267,282.381958 
	C160.868774,284.352753 156.961411,285.561340 152.854065,283.838104 
	C151.306915,283.188995 149.883896,283.903900 148.490494,284.349091 
	C142.883484,286.140625 137.860306,284.903320 133.610031,281.107452 
	C131.313751,279.056641 128.976639,278.275604 125.962379,278.288086 
	C104.656296,278.376282 83.349640,278.311096 62.043270,278.350311 
	C52.882034,278.367188 52.923607,278.412567 49.853939,269.728546 
	C46.740025,260.919434 46.575127,252.203171 50.029831,243.412659 
	C52.940010,236.007721 57.899456,230.612381 65.923447,230.066422 
	C73.631866,229.541916 79.377151,234.202484 83.654961,240.318146 
	C88.332016,247.004578 92.485107,254.032013 96.328445,261.238922 
	C96.923187,262.354156 97.201286,263.821533 99.397476,264.428223 
	C106.243057,253.788895 117.212349,248.101746 129.623734,243.096085 
	C123.734970,238.319275 117.443825,236.751724 112.291260,233.198792 
	C108.032516,230.262177 103.829636,227.305313 99.992828,223.828110 
	C98.350861,222.340012 97.349022,220.812546 99.225174,218.272827 
	C101.783470,217.593689 103.169800,218.607651 104.641052,219.860352 
	C108.043915,222.757629 111.404442,225.687607 115.269409,228.046906 
	C126.353691,234.813049 137.229568,241.054352 151.114838,241.181732 
	C163.288040,241.293427 172.353500,249.572281 174.955292,259.845367 
	C176.012070,264.018005 175.706131,268.336395 175.653488,273.216187 
	C182.718063,273.216187 189.510834,273.488892 196.271881,273.142456 
	C203.599716,272.766968 210.934189,272.084137 218.198456,273.266632 
	C222.203033,273.918488 222.873871,272.261047 222.606857,268.939575 
	C222.312729,265.280731 222.285995,261.611267 224.117706,258.238617 
	C229.374603,248.559250 237.401260,243.210571 248.502243,242.712173 
	C251.787338,242.564697 254.888824,242.387344 258.187378,241.185394 
	C272.785980,235.865936 285.354889,227.353378 296.734894,217.116348 
	C300.325531,213.886353 302.431458,208.985168 305.121307,204.787552 
	C305.898926,203.574036 304.907532,202.542862 304.168304,201.679077 
	C302.163177,199.336075 303.315552,197.464035 304.803406,195.448715 
	C305.970337,193.868149 308.214569,193.401611 309.009460,191.236771 
	C302.233521,183.575684 297.143341,174.804291 292.039795,166.031509 
	C290.485260,163.359283 290.157135,161.014709 292.875519,159.025604 
	C302.686646,151.846634 307.202698,141.289459 310.732422,130.309601 
	C315.745514,114.715622 315.951813,98.492439 315.364716,82.350883 
	C315.185364,77.419647 315.866760,72.080788 313.540955,67.015999 
	C307.906586,69.652916 302.719910,72.242691 297.405731,74.537117 
	C281.073364,81.588699 264.121735,87.599770 252.852707,102.691200 
	C251.228531,104.866295 249.372086,103.779030 247.154678,102.918648 
	C240.527939,100.347397 235.416016,93.274734 226.952362,95.874550 
	C226.474930,96.021202 225.532898,95.126114 224.998734,94.540962 
	C221.533478,90.745064 217.745972,87.205254 214.387497,83.385483 
	C210.545547,79.015816 205.947556,77.549858 200.802826,76.528503 
	C206.056870,80.357056 211.647354,83.669952 216.580643,87.977325 
	C215.031158,89.683762 213.607574,89.403275 212.386444,89.138351 
	C201.836502,86.849449 191.250870,87.294487 180.589996,88.212936 
	C170.141464,89.113083 160.227554,92.017960 151.270081,97.090210 
	C147.140137,99.428833 145.062943,98.863754 142.494400,95.923874 
	C137.285309,89.961662 130.810501,85.619102 124.198120,81.426964 
	C111.624596,73.455536 97.213501,68.523773 85.598923,57.437103 
	C82.469681,77.637093 81.095177,97.050819 83.894127,116.569351 
	C85.732414,129.388611 89.337402,141.905945 98.092667,151.613617 
	C103.424919,157.525925 101.804634,161.683777 98.362038,166.896454 
	C93.035210,174.962173 88.993797,183.953629 79.811684,190.657974 
	C86.315224,190.364304 89.150360,193.788025 92.200455,197.459778 
	C88.816254,198.990936 89.051567,200.944336 91.167831,203.648682 
	C93.722626,206.913422 95.647415,210.673233 98.653336,213.605652 
	C100.106415,215.023178 100.228188,216.433609 99.004890,218.008423 
M128.330704,249.691742 
	C123.578568,251.725021 118.884758,253.962265 114.807098,257.116760 
	C109.645142,261.110046 104.049973,264.994659 103.739990,272.538086 
	C111.006996,275.232025 126.074562,273.908356 129.727005,270.225403 
	C131.952805,272.152832 134.149857,274.145233 136.443771,276.019104 
	C139.333755,278.379822 142.425934,280.474701 146.354034,278.606720 
	C150.268097,276.745361 151.634659,273.313324 151.507217,269.164429 
	C151.467865,267.882996 151.013519,266.489990 152.638992,265.734894 
	C156.573196,269.493530 155.159012,274.335754 155.245636,279.033112 
	C165.023773,277.339691 163.359238,269.066193 164.335587,261.409485 
	C167.671768,265.422119 167.914642,269.059540 168.677734,272.819427 
	C174.611923,262.735992 164.569595,249.691132 155.564789,247.266602 
	C146.406677,244.800797 137.783936,247.278305 128.330704,249.691742 
M271.278473,251.215683 
	C264.284607,248.885742 257.098175,247.952850 249.740341,248.196274 
	C238.042694,248.583237 230.681915,253.974991 227.857147,264.262817 
	C226.235474,270.168945 228.961700,274.991272 234.575211,276.146271 
	C232.840530,267.960449 233.206329,266.298706 236.946991,265.371887 
	C238.306381,273.887939 240.039490,275.719025 247.009964,275.897278 
	C247.593033,272.654938 245.051193,268.664185 249.237411,265.754608 
	C249.659378,266.657074 250.019424,267.182953 250.158920,267.761932 
	C252.301163,276.653320 255.543869,278.034851 263.477783,273.242126 
	C265.747314,271.871155 267.704865,271.795776 270.426208,272.328552 
	C278.237549,273.857819 286.168243,272.991425 294.118134,272.620026 
	C294.227386,266.859436 291.686920,263.097961 288.129547,259.944977 
	C283.475433,255.819977 277.960907,253.205460 271.278473,251.215683 
M80.376129,246.156296 
	C79.701256,245.209045 79.049911,244.243973 78.347473,243.317642 
	C75.223137,239.197495 71.496567,235.564728 65.959564,236.437943 
	C60.590717,237.284653 57.797264,241.413101 55.782295,246.333954 
	C52.309647,254.814728 53.698761,262.824768 56.996094,270.925110 
	C57.981354,273.345551 59.542877,273.581421 61.661152,273.580017 
	C69.137527,273.575043 76.614731,273.728302 84.090042,273.656647 
	C87.992462,273.619232 91.965523,274.256653 96.451126,272.945312 
	C91.072762,263.979950 85.911980,255.377243 80.376129,246.156296 
z"/>
<path fill="#000000" opacity="1.000000" stroke="none" 
	d="
M265.362915,144.431168 
	C268.325348,144.529587 270.720123,145.196060 273.058777,146.106827 
	C275.843201,147.191208 279.393951,147.740875 276.060547,152.104462 
	C274.776337,153.785583 276.870117,155.086304 277.679718,156.416641 
	C283.945618,166.713074 283.908661,179.924973 277.606232,188.344772 
	C274.119049,193.003510 269.052856,195.442535 263.842438,196.910049 
	C248.059937,201.355164 230.780045,197.224075 221.495773,181.981033 
	C219.928925,179.408554 219.374481,176.777740 219.165253,173.980621 
	C218.635895,166.904129 218.690170,166.900070 212.122360,163.827011 
	C213.742889,159.559418 209.720139,154.076218 214.858871,150.303711 
	C216.948181,151.648758 215.774857,153.126175 215.519470,154.467972 
	C215.000534,157.194382 215.699081,159.546661 218.052719,161.001694 
	C220.429047,162.470764 222.579971,160.966766 224.468002,159.689468 
	C232.456787,154.284805 240.507721,149.000473 249.756638,145.949203 
	C254.678635,144.325409 259.710175,143.292175 265.362915,144.431168 
M230.068253,187.447906 
	C234.619553,190.897827 239.623657,193.392624 245.133179,194.972427 
	C252.757355,197.158630 269.098816,194.415970 273.672943,185.578766 
	C264.090729,191.642868 254.243378,193.566910 244.063278,188.635178 
	C233.920944,183.721725 229.493454,174.888016 229.443390,163.790878 
	C224.250107,165.124084 222.793564,167.961990 222.825531,172.458679 
	C222.868271,178.467636 225.688171,182.876389 230.068253,187.447906 
M243.188705,166.162323 
	C248.092606,164.280045 249.920898,161.356232 247.613190,158.831924 
	C246.320328,157.417709 244.800201,155.889420 242.417587,156.622955 
	C240.041122,157.354584 238.750885,159.103058 238.582916,161.371780 
	C238.387741,164.007751 240.002258,165.621735 243.188705,166.162323 
z"/>
<path fill="#000000" opacity="1.000000" stroke="none" 
	d="
M153.839417,195.266754 
	C145.993134,195.647842 138.828476,195.354416 132.102951,191.530975 
	C118.563995,183.834137 113.765938,167.637817 121.181450,153.820099 
	C122.627411,151.125778 124.837593,148.519836 121.908600,145.208923 
	C129.997803,139.894394 138.245972,138.942291 146.949829,141.654434 
	C156.224335,144.544373 164.538116,149.367996 172.515488,154.811798 
	C173.201828,155.280151 173.819962,155.860077 174.537842,156.268509 
	C177.483047,157.944092 180.253662,160.947311 184.025848,158.531525 
	C187.481354,156.318542 186.893600,152.924652 186.064133,149.561325 
	C185.934067,149.033951 186.340851,148.374191 186.747025,146.840897 
	C190.284348,150.287354 190.678406,153.610840 189.356979,157.383499 
	C188.673279,159.335495 187.142319,160.681610 185.772293,162.118698 
	C183.296005,164.716217 182.149628,167.550919 181.992310,171.352554 
	C181.573425,181.474197 174.901871,187.456146 166.611374,191.790268 
	C162.835464,193.764236 158.831406,195.589310 153.839417,195.266754 
M159.481171,191.138474 
	C161.748657,190.675858 163.963989,190.111084 165.583878,188.084808 
	C138.627060,190.292450 120.855255,170.395462 135.830566,146.967987 
	C133.209930,147.105881 130.881271,147.779556 129.014359,149.605698 
	C116.505203,161.841751 119.308762,180.502426 132.732193,187.955063 
	C140.961029,192.523697 149.591797,193.720108 159.481171,191.138474 
M167.212723,163.175430 
	C168.981644,162.731339 170.812866,162.358688 170.983658,159.599060 
	C168.544724,158.026031 166.252426,155.981949 162.807022,155.654266 
	C161.585876,159.633530 163.193588,161.841400 167.212723,163.175430 
z"/>
<path fill="#000000" opacity="1.000000" stroke="none" 
	d="
M293.856201,95.807159 
	C286.776703,98.776260 281.511688,104.472450 274.265808,106.170013 
	C269.488525,107.289253 264.750732,109.795006 258.392395,107.834587 
	C263.770294,102.120407 267.901306,96.239342 273.399841,92.237152 
	C281.720764,86.180664 291.406128,82.406509 301.511597,79.996552 
	C305.468170,79.052979 307.739990,80.473122 307.747009,84.613327 
	C307.754181,88.836555 310.481354,93.205727 306.920471,98.511826 
	C303.583099,90.952782 298.977203,92.513054 293.856201,95.807159 
z"/>
<path fill="#000000" opacity="1.000000" stroke="none" 
	d="
M176.640869,201.700531 
	C180.640778,196.997345 185.634628,195.001450 191.188354,193.982803 
	C194.604065,193.356308 198.071014,192.630417 199.372711,188.449387 
	C196.298813,185.606247 191.810150,184.651794 190.378723,180.112717 
	C189.377975,176.939270 190.558594,174.754669 193.117310,174.233185 
	C197.267685,173.387360 201.597122,172.447800 205.889572,174.035812 
	C208.034439,174.829300 209.925201,175.869888 210.160843,178.360306 
	C210.405716,180.948364 209.832352,183.376846 207.500778,184.957550 
	C205.638138,186.220367 202.865875,186.877121 203.413742,189.877228 
	C204.049530,193.358734 207.328690,193.209335 209.794601,193.531570 
	C216.967621,194.468948 223.214249,197.114166 228.337250,202.300430 
	C229.988373,203.971924 231.774857,205.519592 230.467377,208.685699 
	C211.432922,192.145355 192.454132,190.683975 173.535980,209.753250 
	C172.848419,205.819351 174.532013,203.856125 176.640869,201.700531 
z"/>
<path fill="#000000" opacity="1.000000" stroke="none" 
	d="
M280.963135,107.560394 
	C280.969696,112.612762 274.492310,118.467827 268.892944,118.156570 
	C271.644135,112.821068 275.617462,109.450241 280.963135,107.560394 
z"/>
<path fill="#000000" opacity="1.000000" stroke="none" 
	d="
M279.393402,133.131516 
	C281.729248,132.877625 286.561371,137.427612 286.259949,139.252930 
	C286.086212,140.304840 285.369141,141.006348 284.391113,141.388504 
	C283.137787,141.878296 281.981262,141.573776 281.432190,140.378098 
	C280.417816,138.169144 278.726929,136.133759 279.393402,133.131516 
z"/>
</svg>