<?xml version="1.0" encoding="utf-8"?>
<svg width="384" height="320" viewBox="0 0 384 320" fill="none" xmlns="http://www.w3.org/2000/svg">
  <g>
    <path d="M140.669 204.716C95.5283 204.759 50.8736 204.818 6.21896 204.767C4.00957 204.765 0.121181 206.109 0.00367355 202.771C-0.14035 198.679 3.98356 200.37 6.28083 200.293C13.0598 200.068 19.851 200.213 27.2485 200.213C25.8056 191.635 24.3997 183.799 24.1696 175.862C23.9703 168.985 20.6013 162.875 19.3686 156.565C17.4573 146.783 13.5711 139.956 4.9993 135.414C3.86666 134.814 3.0186 133.647 2.10419 132.681C1.78729 132.346 1.66884 131.824 1.50464 131.48C1.67437 130.555 2.29206 130.201 2.95937 130.297C11.4875 131.527 17.1324 126.796 22.2787 121.017C22.8324 120.395 23.3214 119.713 23.8957 119.112C30.339 112.368 34.601 106.455 27.1758 96.4755C20.8982 88.0383 19.9638 76.6382 19.4014 65.8621C18.2971 44.7023 21.4952 24.0695 26.7521 3.67401C27.0772 2.41264 27.6597 1.21761 28.0534 0.174683C29.2655 -0.259819 29.9805 0.167114 30.4536 0.895592C36.8718 10.7765 45.9505 17.8436 55.671 24.0369C67.371 31.4915 78.7584 39.2087 87.1119 50.7939C99.4487 45.126 112.166 42.8432 125.298 43.4277C147.18 44.4016 167.75 49.6006 185.477 63.2971C186.907 64.4019 188.327 65.7173 190.297 63.9974C202.857 53.0355 218.347 48.4111 233.854 43.7048C243.064 40.9098 253.427 39.7937 258.002 28.2975C260.264 32.8438 259.098 36.5451 259.169 40.0805C259.603 61.5766 256.94 82.6322 249.045 102.769C244.818 113.549 239.393 123.672 230.001 130.996C227.001 133.336 226.554 135.798 228.057 139.249C233.379 151.466 239.481 163.229 248.149 174.53C243.07 174.742 240.72 170.351 236.409 170.277C237.708 173.549 235.403 175.771 233.738 178.164C231.932 180.759 229.905 183.198 227.991 185.718C224.836 189.868 224.717 194.391 227.486 198.501C228.933 200.647 231.031 199.96 232.93 199.94C238.923 199.877 244.915 199.586 250.906 199.615C252.982 199.625 256.282 198.676 256.19 202.299C256.109 205.504 253.109 204.645 251.097 204.657C238.434 204.732 225.761 204.442 213.11 204.845C202.528 205.181 191.93 205.951 181.553 208.384C179.396 208.889 177.149 209.08 175.177 208.065C165.255 202.96 154.746 203.488 144.151 204.583C143.159 204.685 142.154 204.671 140.669 204.716C140.669 204.716 140.669 204.716 140.669 204.716ZM228.312 50.5299C214.773 55.2033 200.948 59.3272 190.906 70.559C189.462 72.175 187.877 72.2194 186.177 70.5577C174.272 58.9196 159.416 53.2449 143.457 50.3841C124.834 47.0457 106.316 46.7121 88.818 55.6938C86.4115 56.9291 84.8986 56.3579 83.3692 54.2023C81.3529 51.3604 79.1721 48.5892 76.7521 46.0873C63.1403 32.0147 44.0427 25.0572 30.9818 9.86615C24.2188 26.8101 22.2085 65.3416 27.0271 80.3867C28.099 81.7056 28.9433 77.8687 30.0615 80.26C30.54 81.2833 31.3974 82.2112 30.9135 83.4589C29.9258 84.4766 28.6541 82.5926 27.3685 84.3137C29.8994 90.9742 32.6598 97.8454 37.277 103.805C38.7308 105.681 39.5917 107.39 37.8755 109.595C32.7592 116.169 27.6347 122.723 21.7158 128.622C19.3171 131.012 15.9048 132.415 14.432 135.561C15.223 137.265 16.7139 137.341 17.8721 137.911C23.9341 140.894 24.3678 140.72 27.0915 134.465C30.3534 126.975 37.1082 123.706 45.0819 126.074C48.564 127.108 51.7836 127.801 55.1376 124.93C51.4177 113.084 57.0731 103.987 64.643 95.7277C72.6598 86.9809 82.7708 83.949 94.1759 87.1096C105.629 90.2835 113.303 97.549 115.677 109.664C119.638 129.882 112.35 139.679 91.9221 142.159C87.0437 142.751 82.2172 141.14 77.191 142.081C82.1167 150.584 81.4956 157.067 75.0009 164.283C73.4697 165.985 73.0246 167.49 73.4739 169.655C75.1983 177.963 77.003 186.264 78.3417 194.638C79.0323 198.957 80.8652 200.381 85.2344 200.245C109.657 199.485 134.09 199.048 158.515 198.339C162.933 198.21 166.029 196.79 166.715 191.109C167.657 183.317 172.283 177.264 179.535 173.716C192.352 167.444 208.705 170.637 218.555 181.139C219.637 182.293 220.306 184.04 222.452 184.281C225.161 181.044 230.302 177.424 229.515 174.057C228.185 168.376 230.338 165.798 234.511 163.172C229.454 154.137 225.031 145.201 221.44 135.866C220.386 133.127 220.543 131.292 223.14 129.494C234.711 121.481 241.618 110.008 246.116 97.0359C250.22 85.2021 252.296 72.89 253.56 60.4321C254.159 54.5289 255.05 48.6594 254.008 42.1635C245.588 45.441 237.43 48.1948 228.312 50.5299C228.312 50.5299 228.312 50.5299 228.312 50.5299ZM29.3742 161.468C27.7485 172.869 30.2198 183.955 31.8108 195.13C32.3867 199.175 34.3525 200.32 38.1567 200.26C48.6418 200.093 59.1313 200.216 69.6188 200.173C71.0558 200.167 72.644 200.581 74.0718 199.077C72.3673 189.316 70.6674 179.376 68.8795 169.452C68.2298 165.845 68.3102 162.98 71.7692 160.294C76.802 156.386 77.0552 149.068 72.5541 145.505C70.0188 143.498 68.7526 141.307 67.9161 138.27C66.1544 131.875 58.3531 128.47 53.2778 132.085C50.4649 134.089 48.8774 133.439 46.3605 131.973C40.6611 128.655 33.1784 131.411 31.3655 136.986C30.6785 139.098 32.3534 141.286 30.9314 143.231C24.7129 144.795 23.4827 146.732 23.6974 153.058C23.8314 157.009 26.436 158.808 29.3742 161.468C29.3742 161.468 29.3742 161.468 29.3742 161.468ZM220.154 193.592C215.199 180.379 204.646 175.91 192.357 175.877C181.561 175.847 174.052 181.847 171.5 191.238C169.836 197.363 172.645 202.189 178.597 202.871C177.634 199.233 176.506 195.567 179.822 191.48C181.864 197.333 183.757 202.685 191.155 201.601C192.052 198.722 189.786 195.274 192.61 192.706C198.867 203.194 198.879 203.208 208.316 195.3C209.837 194.025 211.639 194.239 212.031 195.747C213.566 201.651 217.428 199.273 220.709 198.902C221.786 197.049 220.684 195.725 220.154 193.592C220.154 193.592 220.154 193.592 220.154 193.592ZM67.448 97.6231C62.9953 102.852 58.3454 108.227 57.5721 115.227C56.6677 123.414 58.9497 127.442 65.807 126.884C59.283 113.969 64.9325 98.763 78.0174 94.0184C93.2419 88.498 108.511 98.5519 109.955 115.048C111.316 130.593 104.177 137.81 88.6375 136.812C82.2971 136.405 76.5785 133.925 70.524 131.473C71.7337 135.649 74.2082 137.21 77.9352 137.736C84.2575 138.629 90.6027 138.861 96.8423 137.896C102.922 136.956 108.888 134.413 111.186 128.321C114.993 118.228 113.755 108.188 107.275 99.4211C99.7594 89.2509 81.5508 84.1743 67.448 97.6231C67.448 97.6231 67.448 97.6231 67.448 97.6231ZM97.0975 109.226C94.0355 111.73 93.8785 114.589 96.6804 117.19C98.7602 119.12 101.03 118.184 102.728 116.251C104.053 114.743 104.045 112.866 103.188 111.153C102.081 108.94 100.154 108.293 97.0975 109.226C97.0975 109.226 97.0975 109.226 97.0975 109.226ZM74.4508 126.05C74.8856 127.97 75.9087 128.638 77.5808 127.329C78.4993 126.61 78.4914 125.572 77.6662 124.744C76.312 123.385 75.3456 124.081 74.4508 126.05C74.4508 126.05 74.4508 126.05 74.4508 126.05Z" fill="#000000" transform="translate(56.222 72.542)" />
    <path d="M18.4856 4.92412C19.9442 6.97772 21.1357 8.77696 22.4503 10.4812C23.5227 11.8716 23.7907 13.3317 22.3969 14.429C20.6528 15.802 19.5595 14.173 18.8679 12.9596C16.4147 8.65521 13.6608 4.72031 8.24066 4.16808C5.53154 3.89204 2.77106 4.12 0 4.12C1.7612 -1.64857 10.6217 -1.34044 18.4856 4.92412C18.4856 4.92412 18.4856 4.92412 18.4856 4.92412Z" fill="#000000" transform="translate(231 156)" />
    <path d="M3.30537 8.86824C2.17186 9.85994 1.34917 10.7526 0.00274658 10.3225C-0.154709 4.32733 6.46716 -0.319916 14.6826 0.0172577C20.1095 0.239975 23.4612 3.27403 23.1428 8.32063C16.4418 3.74837 9.78835 1.63464 3.30537 8.86824C3.30537 8.86824 3.30537 8.86824 3.30537 8.86824Z" fill="#000000" transform="translate(127 138)" />
    <path d="M13.4237 5.44867C27.9703 -4.22247 45.8674 -0.703995 55.279 13.5019C60.3345 21.1327 62.2592 29.7352 61.7668 38.7184C61.2052 48.9641 51.7708 57.4992 41.5097 58.0083C29.6541 58.5965 19.1485 54.7785 9.66431 48.143C-1.58047 40.2756 -2.99908 28.0656 5.33847 14.6654C7.45775 11.2593 9.813 8.03793 13.4237 5.44867C13.4237 5.44867 13.4237 5.44867 13.4237 5.44867ZM7.87659 17.5314C7.16281 19.0352 6.40536 20.52 5.74237 22.0459C1.58383 31.6164 2.55904 37.5066 10.7049 44.1029C19.4911 51.2177 29.8363 54.8842 41.2553 54.3684C48.0676 54.0607 52.9609 50.3061 56.3775 44.3725C59.5042 38.9427 58.331 33.3838 57.3512 27.834C55.0116 14.5823 46.8948 6.14528 34.549 3.8934C23.941 1.95851 14.3836 6.67165 7.87659 17.5314C7.87659 17.5314 7.87659 17.5314 7.87659 17.5314Z" fill="#000000" transform="translate(207.365 178.236)" />
    <path d="M27.5145 19.026C22.4403 29.6714 8.65733 26.8094 4.27562 18.6418C1.34531 13.1796 1.03204 7.39278 0 0C6.69206 5.74907 12.8654 7.33806 19.5301 1.24046C22.1465 8.72641 27.7628 8.04689 33.8314 7.4743C30.3615 10.7984 28.9686 14.7166 27.5145 19.026C27.5145 19.026 27.5145 19.026 27.5145 19.026Z" fill="#000000" transform="translate(168.991 216.268)" />
    <path d="M0 3.90326C3.66235 -1.63911 15.7116 -1.1096 18.3764 4.41647C19.9783 7.73833 18.4905 10.1967 15.5656 11.8852C9.40169 15.4434 1.97806 11.8054 0 3.90326C0 3.90326 0 3.90326 0 3.90326Z" fill="#000000" transform="translate(179.275 203.206)" />
    <path d="M21.895 1.98187C24.8731 5.53889 27.7168 8.74522 30.1735 12.2248C32.0829 14.9292 31.7543 17.9495 29.8641 20.6405C27.5611 23.9189 24.252 25.5443 20.3553 24.7547C17.0439 24.0837 13.917 24.0538 10.5625 24.4307C6.3055 24.9089 2.69154 23.0294 0.835457 18.9311C-0.889404 15.1226 0.108604 11.855 3.34835 9.15141C4.60473 8.10298 5.65828 6.75784 6.61497 5.41321C10.7799 -0.440613 14.9319 -1.48561 21.895 1.98187C21.895 1.98187 21.895 1.98187 21.895 1.98187Z" fill="#000000" transform="translate(89.77 224.151)" />
    <path d="M33.0638 10.603C27.9964 15.3788 27.2543 15.4235 20.9446 11.1525C18.3989 13.1996 15.4933 14.6827 12.0031 13.5564C11.3094 19.9179 8.28877 23.553 4.50932 22.3847C0.822884 21.2452 -0.43293 18.0795 0.127541 14.4142C0.868561 9.56815 3.78471 7.93553 9.47456 9.1089C9.83114 5.70454 9.51761 1.75107 13.6108 0.311127C17.1446 -0.932007 19.0763 1.76794 21.3749 4.55331C23.1335 1.55045 25.3531 -1.00693 28.9424 0.500381C33.015 2.21069 33.1436 6.07304 33.1021 10.2178C33.046 10.619 33.0638 10.603 33.0638 10.603C33.0638 10.603 33.0638 10.603 33.0638 10.603ZM7.67058 16.6696C7.89562 14.5306 7.57972 12.3755 5.00362 12.4021C3.09155 12.4219 3.06972 14.4663 3.44203 15.8921C4.00449 18.0461 5.27592 19.0177 7.67058 16.6696C7.67058 16.6696 7.67058 16.6696 7.67058 16.6696Z" fill="#000000" transform="translate(83.954 209.383)" />
    <path d="M1.78651 2.04599C4.52441 -0.385422 7.24384 -1.04004 9.82511 2.25616C12.4077 5.55412 12.1417 10.7916 9.3141 13.0852C7.60896 14.4683 5.69463 14.7146 3.74644 13.812C1.27261 12.6659 0.0503693 10.6178 0.000946045 7.88628C-0.0332489 5.99643 0.869469 4.3903 1.69506 2.37314C1.81094 2.01982 1.79309 2.0358 1.78651 2.04599C1.78651 2.04599 1.78651 2.04599 1.78651 2.04599Z" fill="#000000" transform="translate(115.207 217.966)" />
    <path d="M28.5179 0.430481C43.4813 4.93442 50.4978 16.4471 47.2797 31.2567C46.2244 36.1136 43.5032 40.2952 38.526 42.0401C27.095 46.0475 16.2927 44.5189 6.2701 37.6931C1.17465 34.2229 -0.555542 29.1208 0.150894 23.337C1.94957 8.61069 15.4804 -2.34035 28.5179 0.430481C28.5179 0.430481 28.5179 0.430481 28.5179 0.430481ZM14.4486 20.8116C17.56 19.5809 19.8051 17.7522 18.0848 14.0669C17.1786 12.1255 15.3283 11.1708 13.1028 11.5019C11.0759 11.8034 9.68195 13.0682 9.49722 15.0873C9.21877 18.1308 10.6161 20.1882 14.4486 20.8116C14.4486 20.8116 14.4486 20.8116 14.4486 20.8116Z" fill="#000000" transform="translate(213.781 184.757)" />
  </g>
</svg>