<?xml version="1.0" encoding="utf-8"?>
<svg width="384" height="320" viewBox="0 0 384 320" fill="none" xmlns="http://www.w3.org/2000/svg">
  <g>
    <path d="M128.425 207.081C87.4448 207.129 46.9642 207.203 6.4837 207.161C4.12582 207.158 0.011116 208.569 1.90735e-05 204.8C-0.0103798 201.27 4.17439 202.371 6.53885 202.225C12.3509 201.868 18.1936 201.953 24.0237 201.967C27.2472 201.975 28.4769 200.887 27.8177 197.414C25.9548 187.6 24.641 177.7 24.1727 167.703C24.119 166.556 24.0789 165.229 23.5058 164.316C19.8731 158.528 17.8724 152.332 18.0797 145.444C18.1474 143.196 16.242 142.547 14.6144 141.659C10.3148 139.313 6.19552 136.709 2.89019 133.232C3.31139 132.525 3.3935 132.27 3.47276 132.271C19.3763 132.448 25.6607 119.555 34.1353 109.669C35.4702 108.112 35.3462 106.337 34.2428 104.572C21.6937 84.4986 21.0701 62.4138 23.4656 39.8625C24.7669 27.6129 26.6179 15.4485 30.0424 3.57413C30.4062 2.31256 30.3527 0.897354 31.5968 0.114693C32.6111 -0.221832 33.322 0.218956 33.7697 0.957893C40.3745 11.8593 50.4633 18.8967 60.979 25.426C71.7222 32.0966 82.9664 38.1261 89.974 49.3234C91.1377 51.1829 92.6588 50.598 94.3582 50.0358C128.624 38.6993 160.591 43.1374 190.052 64.2049C192.201 65.7417 194.123 66.481 196.342 64.6847C210.501 53.2247 227.684 48.8993 244.681 44.0987C248.196 43.1057 251.57 41.6193 255.072 40.5676C259.698 39.1783 261.564 34.8563 264.18 31.4696C264.941 32.0745 265.396 32.2626 265.404 32.467C266.405 60.0547 263.658 87.0105 251.141 112.142C246.975 120.506 242.075 128.494 234.265 134.123C231.373 136.207 231.529 138.581 232.792 141.54C237.771 153.201 243.086 164.662 250.839 174.811C251.428 175.583 252.266 176.284 251.499 177.792C247.906 178.011 246.228 173.368 241.975 173.879C238.481 179.632 234.303 185.375 229.337 190.537C226.512 193.472 229.318 196.506 229.864 199.443C230.365 202.136 232.739 201.804 234.695 201.814C241.192 201.845 247.689 201.769 254.186 201.814C256.264 201.828 259.081 201.334 258.975 204.592C258.88 207.518 256.196 206.937 254.321 206.943C240.34 206.989 226.31 206.246 212.394 207.198C202.609 207.868 192.596 207.781 183.019 210.657C180.975 211.27 178.902 210.925 177.154 210.102C166.6 205.137 155.506 206.134 144.402 206.75C139.253 207.036 134.084 206.983 128.425 207.081C128.425 207.081 128.425 207.081 128.425 207.081ZM109.049 135.792C114.301 132.743 115.339 127.513 116.036 122.151C118.545 102.849 106.693 91.9811 91.4003 90.4378C76.3784 88.9218 60.4214 103.985 60.4158 118.803C60.4137 124.455 61.8619 126.272 67.3007 127.183C66.8264 125.707 66.3357 124.337 65.9443 122.938C62.4695 110.52 72.2755 95.4688 85.0659 93.76C94.7995 92.4597 102.857 95.6181 108.611 103.678C114.801 112.348 115.064 121.599 110.496 131.073C109.708 132.706 108.371 134.094 107.732 136.261C96.7775 141.386 85.9712 139.925 74.8372 135.335C75.9101 138.523 78.1118 139.451 80.8441 140.052C88.3438 141.701 95.7297 140.173 103.135 139.444C105.312 139.229 107.184 137.984 109.049 135.792C109.049 135.792 109.049 135.792 109.049 135.792ZM161.526 54.4691C138.581 47.26 115.796 45.8783 93.4573 56.6472C90.4188 58.112 89.0051 57.2649 87.5721 54.5579C84.2395 48.2629 79.3819 43.3394 73.519 39.2774C60.4146 30.1982 46.0891 22.7993 34.7477 11.273C34.5997 11.1226 34.1352 11.2835 33.5346 11.3131C33.2673 12.1383 32.9381 13.0472 32.6776 13.9754C29.8293 24.1211 28.6209 34.5611 27.9502 44.9989C26.624 65.6385 26.7031 86.1072 40.4516 103.614C42.3756 106.064 42.735 108.878 40.4571 111.377C37.2078 114.94 34.3432 118.815 30.8514 122.201C26.159 126.752 21.998 131.845 16.4413 135.805C22.3958 139.978 24.1604 139.636 26.9668 134.513C32.3115 124.757 35.4148 123.338 46.1727 125.589C48.2874 126.032 50.4451 126.367 52.5986 126.501C55.5275 126.684 57.4446 125.697 57.0263 122.195C55.5518 109.845 62.444 101.373 70.6816 93.7389C74.6242 90.085 79.4449 87.5415 84.8872 86.9041C103.736 84.6962 119.31 97.6144 119.859 116.617C120.33 132.955 113.003 143.047 95.2992 144.196C92.3108 144.39 89.2966 144.484 86.3096 144.328C82.8078 144.145 81.4472 145.567 81.7725 149.041C82.3617 155.335 80.5993 160.935 76.2176 165.552C74.7531 167.096 74.6578 168.724 75.0359 170.61C76.7684 179.254 78.7108 187.865 80.0891 196.565C80.8013 201.061 82.98 202.167 87.1507 202.067C106.792 201.596 126.441 201.436 146.082 200.95C151.078 200.826 156.05 200.852 161.041 200.938C164.367 200.996 167.69 200.644 168.164 195.896C169.434 183.177 176.832 175.032 189.357 172.855C201.709 170.708 212.36 174.212 221.008 183.489C222.253 184.826 223.109 187.134 225.777 186.151C228.149 185.276 234.497 177.232 233.648 175.16C231.533 169.999 234.09 167.725 238.269 166.363C238.495 163.848 237.173 162.255 236.259 160.507C232.477 153.269 229.31 145.754 226.158 138.228C224.928 135.292 225.249 133.119 228.118 131.484C237.363 126.216 242.667 117.574 247.61 108.632C254.942 95.3688 257.099 80.7115 259.191 66.0138C260.17 59.1314 260.632 52.2849 260.059 44.8103C257.042 45.6792 254.666 46.336 252.308 47.0479C245.94 48.9699 239.536 50.7797 233.157 52.6445C219.552 56.6219 205.996 61.0188 196.307 72.415C194.392 74.6668 192.452 74.2699 190.842 72.3254C183.294 63.2093 172.889 58.8067 161.526 54.4691C161.526 54.4691 161.526 54.4691 161.526 54.4691ZM29.5287 164.017C30.1851 174.299 30.6349 184.591 32.9766 194.701C34.6735 202.028 34.9342 202.614 42.4855 202.626C51.6311 202.64 60.7796 202.09 69.9222 202.193C74.7101 202.247 75.612 200.091 74.8953 196.037C73.3065 187.049 71.8678 178.035 70.2397 169.054C69.6698 165.91 69.8055 163.61 72.7694 161.271C78.7307 156.567 78.5121 149.589 72.5922 144.972C70.4351 143.289 70.0087 141.127 69.8189 138.861C69.4053 133.924 66.2705 132.072 61.9553 131.314C57.9666 130.612 54.3604 131.265 51.5884 134.354C41.1234 126.984 35.9558 128.762 32.58 140.72C32.2369 141.936 31.7378 142.687 30.5306 143.253C23.9296 146.349 22.4196 152.53 26.802 158.451C27.8965 159.93 29.124 161.285 29.5287 164.017C29.5287 164.017 29.5287 164.017 29.5287 164.017ZM172.873 194.943C173.088 201.665 175.013 204.184 180.6 204.792C179.141 200.993 178.283 197.262 181.565 193.472C182.867 196.245 183.738 198.724 185.121 200.875C186.587 203.155 189.2 204.066 191.702 203.427C194.099 202.815 192.804 200.333 193.098 198.662C193.333 197.326 192.497 195.595 194.394 194.847C196.116 195.388 195.729 197.052 196.271 198.167C198.793 203.348 202.973 204.446 207.643 200.954C208.676 200.182 209.47 199.064 210.289 198.038C211.675 196.301 213.674 196.176 214.226 198.074C215.943 203.984 219.749 201.422 223.177 201.171C223.138 190.59 216.884 182.952 204.721 178.96C193.013 175.118 176.547 178.22 172.873 194.943C172.873 194.943 172.873 194.943 172.873 194.943ZM106.088 111.851C102.25 109.674 99.5856 110.27 98.7928 113.597C98.3167 115.595 98.5083 117.561 100.38 118.918C101.844 119.98 103.596 120.32 104.963 119.171C107.029 117.434 107.555 115.07 106.088 111.851C106.088 111.851 106.088 111.851 106.088 111.851Z" fill="#000000" transform="translate(54.573 70.947)" />
    <path d="M14.5674 52.5339C-0.851364 43.4032 -4.01585 30.6208 5.00554 14.9872C13.1018 0.956909 30.7618 -4.06058 44.2978 3.53738C58.7833 11.6683 62.9793 28.0708 62.0482 39.6764C61.0094 52.6252 48.2983 61.0035 33.6229 59.1355C26.9701 58.2886 20.5788 56.4669 14.5674 52.5339C14.5674 52.5339 14.5674 52.5339 14.5674 52.5339ZM41.2839 54.8581C50.7179 54.0934 58.7516 46.9899 58.7946 38.1954C58.8452 27.8262 56.4243 18.1422 48.1865 10.66C35.3146 -1.03116 14.7105 2.72707 7.38734 18.3901C6.05412 21.2417 5.18265 24.3085 4.08636 27.2716C2.44363 31.7117 3.33235 35.6435 6.77641 39.8877C6.44518 37.8236 6.19684 36.5379 6.03734 35.2413C4.62221 23.7366 10.7589 13.19 22.2413 8.9234C31.4064 5.51788 42.8064 7.04865 49.9263 16.8677C55.6264 24.7289 56.2525 33.5467 52.4897 41.9874C48.6448 50.6121 40.6553 53.0946 31.5895 52.299C28.7056 52.0458 25.8241 51.7658 22.9415 51.4981C28.5908 53.7055 34.343 55.1125 41.2839 54.8581C41.2839 54.8581 41.2839 54.8581 41.2839 54.8581ZM24.353 21.9727C23.6222 20.3367 22.4117 19.3305 20.5941 19.1542C18.4092 18.9424 16.6123 19.6486 15.7144 21.7252C14.8064 23.8251 15.5606 25.6539 17.2933 26.9733C19.1644 28.3981 21.0447 27.879 22.7364 26.5328C23.952 25.5656 24.6926 24.31 24.353 21.9727C24.353 21.9727 24.353 21.9727 24.353 21.9727Z" fill="#000000" transform="translate(209.958 178.023)" />
    <path d="M14.5855 26.5352C7.41908 24.7228 4.00992 19.6689 2.18312 13.5483C1.02582 9.67079 0.843918 5.50211 0 0C6.72 4.93318 12.6753 6.46275 19.097 1.0817C22.5902 7.04543 27.2088 10.1902 34.5257 7.00182C30.5475 12.4303 29.6864 18.7953 25.4696 23.336C22.6191 26.4054 19.0604 27.3568 14.5855 26.5352C14.5855 26.5352 14.5855 26.5352 14.5855 26.5352Z" fill="#000000" transform="translate(169.959 216.471)" />
    <path d="M4.63844 11.5722C3.22105 10.12 1.88017 9.04524 1.00418 7.67361C-0.984039 4.56039 0.0331421 1.72351 3.58589 0.680054C8.49176 -0.760864 13.2253 0.137756 17.4239 2.9043C20.693 5.05832 20.7315 8.1823 17.9373 10.8889C14.1123 14.594 9.38815 14.9302 4.63844 11.5722C4.63844 11.5722 4.63844 11.5722 4.63844 11.5722Z" fill="#000000" transform="translate(179.996 202.938)" />
    <path d="M18.4856 4.92412C19.9442 6.97772 21.1357 8.77696 22.4503 10.4812C23.5227 11.8716 23.7907 13.3317 22.3969 14.429C20.6528 15.802 19.5595 14.173 18.8679 12.9596C16.4147 8.65521 13.6608 4.72031 8.24066 4.16808C5.53154 3.89204 2.77106 4.12 0 4.12C1.7612 -1.64857 10.6217 -1.34044 18.4856 4.92412C18.4856 4.92412 18.4856 4.92412 18.4856 4.92412Z" fill="#000000" transform="translate(240.052 149.445)" />
    <path d="M3.30537 8.86824C2.17186 9.85994 1.34917 10.7526 0.00274658 10.3225C-0.154709 4.32733 6.46716 -0.319916 14.6826 0.0172577C20.1095 0.239975 23.4612 3.27403 23.1428 8.32063C16.4418 3.74837 9.78835 1.63464 3.30537 8.86824C3.30537 8.86824 3.30537 8.86824 3.30537 8.86824Z" fill="#000000" transform="translate(136.585 131.949)" />
    <path d="M37.2058 23.2849C35.9227 23.1986 34.9596 23.0947 33.8739 22.9775C39.5238 30.8301 38.2111 37.8267 30.2814 39.1482C24.423 40.1245 18.04 39.8992 12.2213 38.6585C5.4821 37.2215 4.06367 30.8256 8.4108 25.4624C9.49641 24.123 11.3109 23.1595 10.8964 20.4977C6.9057 23.6093 3.34205 23.2207 0.781647 19.0807C-1.31286 15.694 1.01105 9.96884 5.26431 7.90559C7.50426 6.81898 8.85654 5.06137 10.2556 3.18311C12.686 -0.0796814 15.8134 -0.92926 19.4378 1.07732C21.0682 1.97998 22.4894 3.01869 24.497 2.00255C29.2447 -0.400421 32.0612 2.05734 34.0637 6.08801C34.7209 7.4108 34.8331 9.04744 36.9016 8.97224C42.1016 8.7832 42.6005 12.7361 43.0957 16.3786C43.6497 20.4529 41.2899 22.51 37.2058 23.2849C37.2058 23.2849 37.2058 23.2849 37.2058 23.2849ZM25.5505 14.4603C23.8551 12.9762 22.3497 9.78473 19.0696 14.2032C21.8105 14.5044 23.6512 14.7067 25.5505 14.4603C25.5505 14.4603 25.5505 14.4603 25.5505 14.4603Z" fill="#000000" transform="translate(83.05 208.14)" />
  </g>
</svg>