<?xml version="1.0" encoding="utf-8"?>
<svg width="384" height="320" viewBox="0 0 384 320" fill="none" xmlns="http://www.w3.org/2000/svg">
  <g>
    <path d="M128.594 43.6351C145.173 44.9344 160.653 48.5061 174.846 56.529C178.603 58.6532 182.129 61.1953 185.706 63.6263C187.329 64.7288 188.577 65.4125 190.514 63.8026C203.526 52.9836 219.176 47.8419 235.121 43.36C238.803 42.3252 242.409 41.0243 246.074 39.9259C251.617 38.2646 254.918 33.9729 257.69 29.1615C258.499 29.8989 258.92 30.0991 258.93 30.3192C260.275 57.9212 257.493 84.8596 245.645 110.252C241.66 118.792 236.464 126.529 228.686 132.14C226.407 133.785 226.54 135.383 227.443 137.678C232.346 150.135 238.566 161.848 246.627 172.561C247.003 173.06 247.253 173.654 247.999 174.983C242.68 174.616 240.027 169.751 234.736 169.7C237.933 172.046 236.493 174.129 235.003 176.151C232.238 179.903 229.534 183.71 226.579 187.309C225.027 189.2 224.723 190.901 225.425 193.229C227.558 200.3 227.469 200.359 234.978 200.223C240.639 200.121 246.297 199.847 251.957 199.814C253.635 199.804 256.019 199.35 256.15 202.102C256.295 205.13 253.929 204.888 251.929 204.892C239.764 204.919 227.593 204.697 215.436 205.007C204.005 205.297 192.578 206.022 181.368 208.617C179.213 209.115 176.879 209.285 175.02 208.103C167.516 203.335 158.935 203.755 150.905 204.229C137.238 205.037 123.599 204.775 109.955 204.857C75.1282 205.069 40.2991 204.973 5.47079 204.997C4.63784 204.997 3.80322 204.993 2.97227 204.944C1.60737 204.862 0.140446 204.735 0.0104675 202.97C-0.138004 200.954 1.31537 200.443 2.95133 200.43C8.78329 200.384 14.6163 200.439 20.4476 200.357C22.5658 200.328 24.7727 200.801 27.2012 199.462C25.1879 188.288 24.5675 176.851 23.3403 165.489C22.8582 161.026 17.8112 157.309 18.1172 152.34C18.5953 144.573 13.8433 141.099 8.13719 137.79C5.44166 136.227 3.01676 134.106 1.17708 131.289C1.58711 130.948 1.97868 130.366 2.27706 130.41C11.4025 131.768 17.405 126.775 22.7608 120.431C23.1905 119.922 23.6887 119.468 24.0955 118.942C26.7453 115.519 30.1307 112.413 31.8247 108.565C33.8836 103.888 28.7085 101.077 27.0454 97.3005C21.5788 84.8872 19.4154 71.9905 19.3123 58.4425C19.1679 39.4443 22.393 21.032 27.1198 2.77738C27.3645 1.83225 27.8268 0.943459 28.1238 0.19046C29.5505 -0.352234 30.3524 0.354233 30.8824 1.18663C37.511 11.5972 47.2101 18.6673 57.3577 25.1103C68.5247 32.2006 79.1513 39.8197 87.0976 51.0734C100.236 44.7175 113.984 42.9953 128.594 43.6351C128.594 43.6351 128.594 43.6351 128.594 43.6351ZM67.8971 128.645C67.8971 128.645 67.8644 128.611 68.1974 129.208C71.2902 131.552 71.6269 136.474 76.3823 137.393C82.8248 138.638 89.2859 138.994 95.7373 138.174C104.881 137.011 111.167 131.785 112.491 124.798C113.364 120.187 113.416 115.602 112.504 110.962C109.771 97.0648 97.9777 88.2459 83.8599 89.6877C72.5739 90.8403 65.9859 98.1114 60.5286 107.187C57.3864 112.413 56.3332 117.683 58.4083 123.349C59.9867 127.658 64.8854 126.646 67.8971 128.645C67.8971 128.645 67.8971 128.645 67.8971 128.645ZM77.9214 160.991C73.1246 165.127 73.349 170.063 74.8768 175.717C76.694 182.442 77.8524 189.365 78.9365 196.259C79.4381 199.448 80.8838 200.406 83.8978 200.373C99.2103 200.202 114.553 200.861 129.743 198.07C133.007 197.47 136.358 197.448 139.697 197.914C147.221 198.962 154.718 198.36 162.199 197.36C165.094 196.973 166.271 195.472 166.596 192.388C167.483 183.977 172.086 177.869 179.583 174.066C192.419 167.554 209.257 170.782 218.929 181.472C219.892 182.535 220.485 184.131 222.625 183.959C225.496 180.983 230.564 177.121 229.642 173.91C228.001 168.192 230.349 165.981 234.48 163.52C229.643 154.505 225.064 145.665 221.677 136.257C220.604 133.277 220.855 131.466 223.546 129.495C234.499 121.472 241.4 110.422 245.825 97.8282C251.386 82.0006 253.411 65.4799 254.49 48.8332C254.623 46.7848 255.176 44.5475 253.606 42.3468C245.584 45.0519 237.541 47.6564 229.492 50.1954C215.543 54.5957 201.415 59.0377 191.038 70.3842C189.336 72.2457 187.907 72.2485 185.997 70.4984C173.427 58.9793 158.325 52.7791 141.694 50.2234C123.526 47.4316 105.497 46.9265 88.6058 56.0429C85.9596 57.4712 84.6689 56.1891 83.3356 54.1894C78.5579 47.0238 72.3916 41.2344 65.338 36.3645C53.7066 28.3341 41.4811 21.0893 31.596 10.7541C31.4449 10.5961 30.9841 10.7343 30.369 10.7343C24.7938 30.6223 23.5249 50.8976 24.8841 71.4281C25.0913 74.5584 26.0848 77.0844 28.6741 79.1803C31.1987 81.2237 32.2838 83.7185 27.6942 84.8641C30.26 91.835 32.8739 98.3055 37.4399 103.769C38.8214 105.422 39.7495 107.094 38.1337 109.114C31.5959 117.291 25.7853 126.122 17.1051 132.365C15.9133 133.222 14.5198 134.003 14.6636 135.938C15.5068 137.554 17.3375 137.652 18.784 138.37C24.0056 140.965 24.8738 140.611 27.1515 134.963C30.1426 127.545 37.2353 123.909 44.9435 126.107C48.3916 127.091 51.6613 128.051 55.1778 125.188C51.8535 114.253 56.3066 105.188 63.4346 97.1004C71.4238 88.036 81.447 83.8782 93.4372 86.9015C105.365 89.909 113.303 97.2166 115.779 109.789C119.876 130.597 110.512 142.053 89.2961 141.979C85.2801 141.965 81.2641 141.977 77.1703 141.977C81.0939 147.921 81.9562 153.997 77.9214 160.991C77.9214 160.991 77.9214 160.991 77.9214 160.991ZM25.2934 157.55C26.758 159.152 30.1214 159.268 29.6046 162.392C27.7744 173.456 30.7515 184.129 31.9483 194.957C32.415 199.18 34.3306 200.527 38.4373 200.445C48.9105 200.236 59.3908 200.396 69.8681 200.353C71.2906 200.347 72.9033 200.799 74.1979 199.148C72.4708 189.551 70.6811 179.795 68.9745 170.025C68.3372 166.376 68.1862 163.218 71.8623 160.344C77.3493 156.054 76.8936 149.237 71.4943 144.578C70.0747 143.353 69.0236 142.098 68.4466 140.208C65.4857 130.514 58.7807 128.274 50.397 134.04C37.4332 127.732 32.4354 130.126 31.1567 143.257C24.0064 145.348 22.4356 148.759 25.2934 157.55C25.2934 157.55 25.2934 157.55 25.2934 157.55ZM177.637 198.717C177.6 196.459 177.395 194.144 180.305 191.862C181.594 198.079 184.102 202.652 191.063 201.793C192.135 198.816 189.93 195.571 192.584 192.882C193.053 193.383 193.597 193.771 193.884 194.298C198.684 203.118 201.118 203.397 207.868 196.098C210.598 193.146 211.855 194.304 212.636 197.851C213.607 202.26 217.389 199.847 219.675 199.824C222.568 199.794 221.219 197.312 220.742 195.627C217.822 185.308 210.298 179.956 200.601 176.985C188.112 173.159 174.876 179.674 171.654 191.189C169.937 197.328 172.442 201.92 178.222 203.18C179.141 201.791 177.715 200.711 177.637 198.717C177.637 198.717 177.637 198.717 177.637 198.717Z" fill="#000000" transform="translate(56.115 72.349)" />
    <path d="M18.4857 4.92412C19.9442 6.97772 21.1357 8.77696 22.4503 10.4812C23.5227 11.8716 23.7907 13.3317 22.3969 14.429C20.6528 15.802 19.5594 14.173 18.8679 12.9596C16.4147 8.65521 13.6608 4.72031 8.24066 4.16808C5.53154 3.89204 2.77106 4.12 0 4.12C1.7612 -1.64857 10.6217 -1.34044 18.4857 4.92412C18.4857 4.92412 18.4857 4.92412 18.4857 4.92412Z" fill="#000000" transform="translate(239 155)" />
    <path d="M3.30537 8.86824C2.17186 9.85994 1.34917 10.7526 0.00274658 10.3225C-0.154709 4.32733 6.46716 -0.319916 14.6826 0.0172577C20.1095 0.239975 23.4612 3.27403 23.1428 8.32063C16.4418 3.74837 9.78835 1.63464 3.30537 8.86824C3.30537 8.86824 3.30537 8.86824 3.30537 8.86824Z" fill="#000000" transform="translate(135 137)" />
    <path d="M0.0178833 29.3042C1.14926 24.3304 2.7543 19.9653 4.90997 15.8119C10.4398 5.15727 19.4603 -0.18277 31.2268 0.004776C42.7131 0.187851 51.6193 5.47255 56.9961 15.9606C60.5521 22.8969 62.4807 30.2847 62.1423 38.0748C61.591 50.7636 49.6389 59.5979 35.4097 57.9387C25.7897 56.817 17.0083 53.3189 9.26071 47.5464C3.38417 43.1679 -0.289322 37.405 0.0178833 29.3042C0.0178833 29.3042 0.0178833 29.3042 0.0178833 29.3042ZM56.6544 24.7526C56.3953 23.9625 56.1256 23.1757 55.8787 22.3818C51.7191 9.00809 39.9767 1.91418 26.2005 3.97662C13.5272 5.87393 8.47314 15.0206 4.48032 25.5239C2.27809 31.317 3.44031 36.3434 7.50798 40.7333C16.411 50.3417 27.7947 54.4816 40.5767 54.4769C48.3693 54.4741 54.0214 50.2417 57.3344 43.0712C60.0762 37.1368 58.2931 31.3456 56.6544 24.7526C56.6544 24.7526 56.6544 24.7526 56.6544 24.7526Z" fill="#000000" transform="translate(207.05 178.075)" />
    <path d="M12.6913 4.30841C14.4967 3.43779 15.9406 2.65129 17.3941 1.88298C18.278 1.41579 19.5894 0.705551 20.1088 1.63649C23.1512 7.09026 28.0311 7.42989 33.9376 6.56418C30.5323 9.74393 29.3426 13.5316 27.8692 17.2599C26.1398 21.636 23.0053 24.9801 17.8907 25.0485C12.4695 25.1209 7.90149 23.1714 4.78133 18.3742C1.28062 12.992 1.19026 6.84814 0 0C4.54453 1.73026 7.86072 4.97075 12.6913 4.30841C12.6913 4.30841 12.6913 4.30841 12.6913 4.30841Z" fill="#000000" transform="translate(168.807 217.047)" />
    <path d="M2.14777 1.15027C7.03273 -0.879028 11.3954 0.00265503 15.5386 2.04132C19.9024 4.18846 20.1745 8.74919 16.2849 11.6172C12.4087 14.4754 6.76028 14.0091 3.0488 10.2656C0.510895 7.70589 -1.86159 4.87703 2.14777 1.15027C2.14777 1.15027 2.14777 1.15027 2.14777 1.15027Z" fill="#000000" transform="translate(179.191 202.788)" />
    <path d="M24.9868 5.28218C25.871 7.36058 27.2871 8.53998 28.5339 9.88091C31.2391 12.7901 32.4642 16.0873 30.3804 19.8719C28.3321 23.592 25.0553 25.4757 20.8747 24.8673C17.5758 24.3873 14.4116 24.0252 11.0404 24.4949C6.77275 25.0894 2.99875 23.4902 0.979919 19.5217C-1.13434 15.3655 0.340607 11.8317 3.79485 8.91119C4.91853 7.96114 5.84803 6.73083 6.69128 5.50801C11.6451 -1.67566 19.1041 -1.91728 24.9868 5.28218C24.9868 5.28218 24.9868 5.28218 24.9868 5.28218Z" fill="#000000" transform="translate(89.814 223.924)" />
    <path d="M32.8542 10.9213C27.7236 15.527 26.4944 15.5641 21.2638 11.0288C18.5664 12.9158 15.7595 15.1109 12.0366 13.7788C11.2528 20.0186 8.55365 23.2304 4.69807 22.7635C1.9866 22.4351 -0.467293 18.2651 0.0760574 14.9091C0.874084 9.98024 3.73656 8.18619 8.98189 9.32741C11.2695 -1.21709 14.0341 -2.53346 21.172 3.92604C23.5774 2.24467 25.5677 -1.6106 29.4 0.772003C32.7703 2.86729 33.2079 6.36928 32.9725 10.4316C32.9022 10.8717 32.8542 10.9213 32.8542 10.9213C32.8542 10.9213 32.8542 10.9213 32.8542 10.9213ZM3.37234 15.3071C3.89066 16.9053 4.54568 18.865 6.61539 17.7813C8.54643 16.7701 7.07835 15.2601 6.25247 14.1216C4.92023 12.2849 3.93382 12.6143 3.37234 15.3071C3.37234 15.3071 3.37234 15.3071 3.37234 15.3071Z" fill="#000000" transform="translate(84.091 209.123)" />
    <path d="M1.71197 2.07034C4.79227 -0.788132 7.63192 -0.817154 10.0647 2.80302C12.3813 6.25038 11.6058 11.7172 8.60521 13.6401C5.54202 15.6031 1.48653 13.832 0.335205 10.0328C-0.444962 7.4584 0.212578 5.1012 1.52477 2.48444C1.64223 2.14671 1.69019 2.09711 1.71197 2.07034C1.71197 2.07034 1.71197 2.07034 1.71197 2.07034Z" fill="#000000" transform="translate(115.303 217.898)" />
    <path d="M5.27705 36.2225C-1.04194 29.155 -1.66964 21.6019 3.30618 12.2857C7.84204 3.79318 16.8124 -0.84494 26.0893 0.127609C44.5932 2.0675 51.7153 23.1186 45.1983 36.6075C42.4712 42.2521 37.0244 44.3668 31.0621 44.375C21.8953 44.3876 13.2879 42.1876 5.54488 36.3109C5.22485 36.1756 5.25758 36.2093 5.27705 36.2225C5.27705 36.2225 5.27705 36.2225 5.27705 36.2225ZM33.4435 17.6748C30.9004 20.5827 31.5499 23.2215 34.5026 25.1718C37.2429 26.9818 39.148 25.1039 40.647 22.9656C41.8489 21.2512 41.5268 19.5065 40.1777 17.9934C38.3695 15.9654 36.2668 15.7894 33.4435 17.6748C33.4435 17.6748 33.4435 17.6748 33.4435 17.6748Z" fill="#000000" transform="translate(118.754 164.785)" />
    <path d="M24.4521 43.699C18.5427 43.539 13.4909 41.9391 8.74519 39.3887C3.74808 36.7033 0.606384 32.688 0.0741882 26.8339C-0.919403 15.9041 8.2032 3.34531 19.2218 0.583603C29.637 -2.02687 41.7074 4.36571 46.0922 14.8567C48.4334 20.4581 48.2843 26.3714 47.0604 32.0464C45.5368 39.1107 39.4451 43.2612 31.4129 43.6667C29.2533 43.7757 27.0844 43.7005 24.4521 43.699C24.4521 43.699 24.4521 43.699 24.4521 43.699ZM13.0981 20.9262C14.5163 21.2332 15.7331 20.731 16.7439 19.8255C18.624 18.1412 19.7897 16.1436 17.9194 13.8136C16.3247 11.8271 14.3326 10.05 11.591 11.7552C9.0976 13.306 8.78085 15.739 10.0547 18.2329C10.5475 19.1978 11.6255 19.8638 13.0981 20.9262C13.0981 20.9262 13.0981 20.9262 13.0981 20.9262ZM31.8551 36.9332C31.4738 35.0866 30.4648 34.314 28.783 35.4724C27.9753 36.0287 27.5388 37.1284 28.3161 38.0358C29.6265 39.5654 30.8174 39.1503 31.8551 36.9332C31.8551 36.9332 31.8551 36.9332 31.8551 36.9332Z" fill="#000000" transform="translate(213.701 184.54)" />
  </g>
</svg>