<svg version="1.1" id="Layer_1" xmlns="http://www.w3.org/2000/svg" xmlns:xlink="http://www.w3.org/1999/xlink" x="0px" y="0px"
	 width="100%" viewBox="0 0 384 320" enable-background="new 0 0 384 320" xml:space="preserve">
<path fill="#000000" opacity="1.000000" stroke="none" 
	d="
M215.385361,276.892395 
	C208.260681,275.275208 201.680023,277.354980 195.030045,277.337616 
	C162.365082,277.252411 129.699631,277.360291 97.034355,277.393890 
	C86.882843,277.404327 76.719612,277.672577 66.586205,277.244171 
	C63.083897,277.096100 56.664722,279.771210 56.577389,274.935181 
	C56.500114,270.656281 62.909996,273.257050 66.384247,272.850342 
	C71.788864,272.217682 77.311172,273.235291 83.256020,272.290649 
	C82.055191,264.556000 80.839737,257.046082 80.410507,249.453690 
	C80.260361,246.797928 79.771919,244.147278 79.805061,241.498886 
	C79.842102,238.538162 79.157143,236.140167 77.185806,233.751328 
	C74.093063,230.003586 73.723618,225.128830 73.309700,220.511749 
	C73.029686,217.388336 72.077530,215.540115 69.175247,213.894928 
	C64.795647,211.412308 60.505005,208.508881 57.268124,204.189545 
	C58.027756,203.591614 58.445629,203.011139 58.738659,203.068481 
	C68.302856,204.940460 73.809013,198.754944 79.473129,192.771088 
	C86.208992,185.654968 91.065849,179.441422 83.284836,168.807831 
	C76.752991,159.881363 76.049049,147.990845 75.561333,136.668076 
	C74.677521,116.149521 78.029335,96.221329 82.909462,76.445808 
	C83.148064,75.478943 83.478165,74.526764 83.859329,73.606544 
	C84.033409,73.186249 84.435524,72.860413 84.648766,72.597198 
	C85.843651,72.258911 86.408417,72.983513 86.843735,73.642029 
	C94.013542,84.487976 104.182365,91.996536 115.013069,98.673164 
	C124.874374,104.752197 133.947983,111.707581 141.343857,120.678848 
	C142.932739,122.606163 144.201416,122.982399 146.791138,122.075768 
	C180.362930,110.322678 211.622849,115.800865 240.875061,135.216934 
	C242.958313,136.599701 244.552490,138.513260 247.340103,136.129364 
	C259.315002,125.888855 273.897339,121.154388 288.685272,116.885017 
	C292.840332,115.685417 296.892731,114.109901 301.076447,113.034737 
	C307.066864,111.495285 311.271057,107.841209 313.760620,102.442535 
	C316.057007,103.229202 315.988678,104.692413 315.991150,105.950233 
	C316.037262,129.376251 314.485443,152.603607 305.816620,174.705032 
	C301.283020,186.263474 295.555176,197.185165 285.277832,204.877747 
	C282.560852,206.911423 283.357880,209.060150 284.370636,211.486115 
	C289.391479,223.512604 295.381439,234.992996 303.257721,245.429382 
	C303.633636,245.927505 303.865448,246.534409 304.458679,247.638199 
	C299.456177,247.506927 296.787750,243.044968 291.823547,242.791687 
	C294.225983,244.726440 293.280579,246.400299 292.043762,248.060303 
	C289.259430,251.797363 286.735809,255.766937 283.637512,259.221649 
	C280.148682,263.111816 282.228394,266.741974 283.566620,270.349670 
	C284.873108,273.871826 288.031464,272.229248 290.531311,272.216858 
	C296.529785,272.187134 302.528229,272.086792 308.526367,272.107635 
	C310.335144,272.113922 312.547272,272.081573 312.481293,274.736572 
	C312.416107,277.358032 310.263916,277.218079 308.415955,277.223389 
	C296.249878,277.258179 284.081848,277.152527 271.918243,277.338623 
	C260.476837,277.513641 249.103928,278.554840 237.894623,281.022705 
	C235.583481,281.531494 232.966324,281.881561 231.076370,280.469696 
	C226.430496,276.999115 221.082092,277.375488 215.385361,276.892395 
M280.194489,124.793915 
	C268.330933,128.854767 256.573181,133.110687 247.783981,142.723740 
	C245.789261,144.905426 243.979126,144.839233 241.898193,142.690094 
	C234.769379,135.327652 225.870575,130.754425 216.343918,127.524300 
	C192.640839,119.487488 168.884659,117.369759 145.310516,128.123047 
	C142.406158,129.447861 140.731598,128.433319 139.123154,125.993256 
	C135.610367,120.664261 131.163391,116.133659 126.114021,112.267883 
	C113.215157,102.392578 98.437386,95.045303 86.973442,82.330826 
	C86.462296,83.842842 86.184151,84.576797 85.964699,85.327919 
	C81.480309,100.676849 81.227142,116.458549 80.639244,132.279938 
	C80.328400,140.645309 83.327652,148.378326 83.502678,156.550598 
	C83.526581,157.666901 84.050690,158.817368 84.522591,159.871735 
	C87.106270,165.644440 89.579247,171.485123 93.563141,176.495193 
	C94.881714,178.153397 95.943382,179.863968 94.333206,181.866776 
	C88.507797,189.112686 83.381935,196.950302 76.089165,202.954010 
	C74.138176,204.560135 71.495140,205.630936 70.582420,208.335556 
	C79.209145,214.374466 79.209160,214.374466 83.827110,205.696487 
	C87.217796,199.324768 93.526642,196.574234 100.699074,198.684814 
	C104.345192,199.757751 107.758217,200.468506 111.292175,197.682114 
	C107.640747,183.867813 114.673363,173.871460 124.215675,165.391083 
	C139.348816,151.942047 165.973846,159.475800 170.870529,179.075867 
	C176.379486,201.126709 170.317032,214.485092 144.713760,215.129120 
	C140.995468,215.222656 137.272812,215.142105 133.636765,215.142105 
	C138.302658,223.340607 137.769318,229.641602 131.288574,236.770187 
	C129.589478,238.639145 129.262070,240.306046 129.744980,242.613403 
	C131.414429,250.590164 133.275345,258.550140 134.401428,266.609009 
	C135.126663,271.799042 137.581238,272.853821 142.363953,272.818176 
	C160.351425,272.684143 178.311600,271.495758 196.315521,271.744812 
	C202.573059,271.831390 208.869049,270.758728 215.213776,270.833435 
	C219.324234,270.881836 222.385742,269.829956 222.968826,264.122620 
	C223.844604,255.550308 228.841309,249.015625 237.171158,245.676743 
	C250.908920,240.170151 265.382843,243.550140 275.442413,254.449112 
	C276.396210,255.482483 277.051300,257.077118 278.853790,256.975433 
	C284.196777,251.304108 284.203918,251.304733 285.008148,242.197754 
	C285.139374,240.711578 286.232635,239.924667 287.112732,238.932175 
	C288.187988,237.719635 290.201233,237.594238 290.806915,235.733948 
	C286.530609,227.435242 282.261536,219.166702 278.534271,210.602890 
	C276.503052,205.935837 277.353485,202.950989 281.295105,200.546692 
	C291.242218,194.479141 296.142944,184.592667 300.696198,174.616394 
	C306.359985,162.206894 308.032166,148.753952 309.709381,135.370117 
	C310.544281,128.707977 311.500275,122.020012 310.304260,115.021309 
	C305.148407,116.807945 300.479584,118.516815 295.750763,120.039345 
	C290.840057,121.620445 285.871277,123.021278 280.194489,124.793915 
M125.988365,248.261978 
	C125.830643,246.771530 125.829041,245.244095 125.486298,243.797485 
	C124.404518,239.231628 123.830933,235.081024 128.869186,232.066422 
	C130.743317,230.945038 131.405380,228.282227 131.719345,225.877136 
	C132.760208,217.903397 123.175079,215.366241 122.664398,207.973450 
	C122.497314,205.554718 119.277000,204.549820 116.862068,203.755020 
	C112.564690,202.340591 109.162445,204.382233 106.115540,206.836868 
	C94.887154,199.744568 87.930862,203.061432 87.259911,216.078934 
	C83.094368,215.759293 80.403397,217.868042 79.657616,222.054001 
	C78.895699,226.330490 79.792831,229.993195 84.022057,232.191086 
	C85.630112,233.026810 85.664207,234.454376 85.475182,236.064957 
	C84.174339,247.148804 86.431145,257.933563 88.264725,268.758514 
	C88.784622,271.827850 90.523750,272.816071 93.486481,272.789948 
	C104.817184,272.690094 116.149139,272.737213 127.480576,272.707703 
	C128.454941,272.705170 129.524796,272.776215 130.308167,271.203278 
	C128.987106,264.107208 127.592018,256.613525 125.988365,248.261978 
M270.549072,271.965759 
	C278.334961,272.166199 278.736816,271.447296 275.822723,264.314056 
	C272.528320,256.250061 266.269135,252.087631 258.275757,249.498871 
	C245.262527,245.284409 231.381653,251.478195 227.810425,263.483246 
	C225.905029,269.888519 229.006256,275.077942 235.214554,275.572968 
	C233.692215,271.839203 232.571518,268.140778 236.371460,263.886383 
	C237.953033,270.096130 239.997330,275.145905 247.201508,274.203308 
	C248.502213,271.351929 246.177078,267.863220 248.744431,265.414917 
	C250.510849,266.308716 250.327881,267.874725 250.928726,269.006042 
	C253.816452,274.443390 258.319397,275.136719 262.540649,270.712555 
	C267.268829,265.757111 267.412140,265.777496 270.549072,271.965759 
M114.623459,195.682358 
	C115.635231,198.818192 118.011337,199.300156 120.961136,199.111679 
	C120.768166,195.704391 118.853447,192.952484 118.856873,189.715347 
	C118.869133,178.125107 127.171585,167.874771 138.723907,165.352142 
	C148.587387,163.198303 159.704865,169.266266 164.033493,179.769852 
	C167.489731,188.156525 168.235153,196.979431 162.060730,204.388382 
	C156.364227,211.223877 148.283310,210.956696 140.342575,209.002747 
	C135.935074,207.918213 131.630829,206.414017 127.094299,205.042816 
	C127.876701,207.662598 128.921844,209.515839 131.661285,210.058777 
	C139.765198,211.664963 147.951157,212.037506 155.910568,209.966141 
	C166.828934,207.124741 170.696899,199.324036 168.841583,185.531708 
	C166.788956,170.272293 153.850159,160.111542 139.292862,162.327255 
	C124.049583,164.647369 111.734085,180.794052 114.623459,195.682358 
M151.399078,184.120316 
	C150.695023,187.029526 151.182404,189.510071 154.300827,190.589279 
	C156.421417,191.323151 158.345001,190.564896 159.351212,188.532944 
	C160.480377,186.252747 160.339935,183.875290 158.172653,182.258743 
	C155.762848,180.461380 153.511673,181.047455 151.399078,184.120316 
z"/>
<path fill="#000000" opacity="1.000000" stroke="none" 
	d="
M91.097885,150.762207 
	C88.574760,144.877579 88.961143,139.540649 91.044823,133.917877 
	C92.744125,129.332352 92.959007,124.685417 88.966965,120.457787 
	C86.166367,117.491913 88.218002,105.338081 91.292480,102.982506 
	C95.105309,100.061180 101.526939,102.030670 102.996170,106.763573 
	C103.706055,109.050346 105.349884,110.280083 106.966179,111.709816 
	C110.880226,115.172058 110.815880,116.543488 106.772766,119.872757 
	C104.309044,121.901482 101.961449,124.026558 101.259628,127.357025 
	C100.197830,132.395767 101.719673,135.890030 106.513435,137.918518 
	C109.541130,139.199692 111.527618,141.050583 112.468506,144.131866 
	C113.804840,148.508209 112.795525,149.951584 108.171425,150.244904 
	C99.395737,150.801559 95.888924,157.043350 99.861656,164.930801 
	C100.948982,167.089584 101.818680,169.357971 103.018105,172.101929 
	C98.398178,169.709061 94.870819,163.177963 91.097885,150.762207 
z"/>
<path fill="#000000" opacity="1.000000" stroke="none" 
	d="
M265.936340,154.905319 
	C267.826965,153.176010 270.286346,152.476837 271.165680,149.688873 
	C265.501373,148.109085 259.757416,150.581940 253.679413,148.309616 
	C258.918182,142.268417 264.375305,137.403839 270.696167,133.496964 
	C279.101501,128.301666 288.346222,125.868256 298.128021,125.195366 
	C300.722687,125.016884 303.174103,125.644409 303.548889,128.404404 
	C304.331757,134.169724 303.548798,139.807556 300.834595,145.915985 
	C293.102478,135.466476 285.640503,143.215317 278.233276,145.114655 
	C276.454468,145.570770 275.396881,147.252716 275.011597,149.246582 
	C273.653442,156.274933 269.804260,159.516571 261.684387,160.361526 
	C261.723114,157.535461 264.181061,156.669373 265.936340,154.905319 
z"/>
<path fill="#000000" opacity="1.000000" stroke="none" 
	d="
M240.370422,236.123505 
	C230.278992,234.197144 221.315170,230.815948 214.108749,223.872925 
	C207.291138,217.304535 205.389633,209.636887 209.201614,200.687225 
	C213.619461,190.315125 219.573135,181.708694 231.543625,179.181366 
	C246.310150,176.063705 260.204041,183.402802 265.848694,197.497040 
	C268.031067,202.946228 269.262054,208.660233 269.697205,214.489227 
	C270.463531,224.754395 260.835999,235.522507 250.307709,236.234818 
	C247.162048,236.447647 243.985535,236.204880 240.370422,236.123505 
M226.282837,184.616013 
	C217.138855,189.322647 213.526947,197.829315 211.259842,207.058823 
	C210.172348,211.486069 211.498169,215.673706 214.698624,219.051498 
	C224.236603,229.118073 236.184189,233.305649 249.776520,232.548584 
	C257.554657,232.115341 264.603699,226.092957 265.471130,218.692032 
	C266.829834,207.099670 263.999634,196.231400 255.060471,188.259521 
	C246.893723,180.976471 237.095993,180.320526 226.282837,184.616013 
z"/>
<path fill="#000000" opacity="1.000000" stroke="none" 
	d="
M170.129166,224.770309 
	C169.810471,222.281723 169.550278,220.196777 169.132629,216.849991 
	C175.761414,222.389648 181.959686,223.632523 187.922180,218.137390 
	C192.732986,223.726974 192.732986,223.726974 203.618729,223.832687 
	C197.876862,228.053970 198.203491,234.708832 194.065231,239.042221 
	C189.232803,244.102554 180.593079,243.642014 175.439667,237.881317 
	C172.214615,234.276199 170.733856,229.907837 170.129166,224.770309 
z"/>
<path fill="#000000" opacity="1.000000" stroke="none" 
	d="
M189.663239,203.669952 
	C190.594498,203.795395 191.103027,203.823547 191.571503,203.975357 
	C195.129837,205.128571 198.880234,206.265945 198.143829,211.175980 
	C197.613571,214.711624 192.441254,217.422333 188.127945,216.490738 
	C186.551025,216.150162 184.904007,215.484634 183.632812,214.516068 
	C181.143921,212.619705 178.359116,210.578445 179.642075,206.775711 
	C180.808441,203.318542 183.920929,203.662430 186.734283,203.603592 
	C187.562958,203.586273 188.392700,203.619751 189.663239,203.669952 
z"/>
<path fill="#000000" opacity="1.000000" stroke="none" 
	d="
M115.602325,125.433945 
	C114.612404,123.426781 112.251343,121.714478 114.011559,119.882347 
	C115.924706,117.891029 118.264137,119.747314 119.741776,121.026077 
	C124.575661,125.209389 129.139359,129.704895 134.324188,134.565231 
	C126.451607,136.089127 118.825554,132.084717 115.602325,125.433945 
z"/>
<path fill="#000000" opacity="1.000000" stroke="none" 
	d="
M276.273895,191.292847 
	C274.892029,192.770981 273.445465,194.493973 272.361023,191.777039 
	C269.949371,185.734985 268.937225,179.485931 270.575134,172.631195 
	C273.269958,173.729446 272.734955,175.779037 273.146332,177.399994 
	C274.139008,181.311417 273.273560,185.838470 277.074371,188.852966 
	C277.754669,189.392502 276.995911,190.385620 276.273895,191.292847 
z"/>
<path fill="#000000" opacity="1.000000" stroke="none" 
	d="
M117.664780,136.232895 
	C120.100853,138.454376 122.465683,140.335037 122.890427,143.643616 
	C119.167824,143.346527 115.621880,140.558685 113.416733,136.323334 
	C114.607193,134.569427 116.007828,135.581635 117.664780,136.232895 
z"/>
<path fill="#000000" opacity="1.000000" stroke="none" 
	d="
M121.052780,239.308014 
	C119.997101,246.896210 115.352684,250.343552 108.571716,248.694107 
	C106.235069,248.125717 104.125000,247.991608 101.766350,248.536423 
	C97.322350,249.562927 92.600182,247.334930 90.787338,243.596176 
	C88.741272,239.376419 89.870239,235.968094 93.390884,232.982529 
	C94.877464,231.721878 95.858208,229.874512 97.115250,228.331619 
	C101.319916,223.170715 108.564186,222.265045 112.788895,227.250793 
	C115.810150,230.816330 119.453087,234.200928 121.052780,239.308014 
z"/>
<path fill="#000000" opacity="1.000000" stroke="none" 
	d="
M116.993774,220.004883 
	C111.892883,224.791580 111.408318,224.819107 105.140419,220.677948 
	C100.488205,223.247681 100.488205,223.247681 95.903030,223.368591 
	C95.276253,229.289902 92.352081,232.844040 88.491371,231.788528 
	C84.728851,230.759827 83.478470,227.595154 83.977180,223.933884 
	C84.635460,219.101212 87.735161,217.303940 93.273766,218.524734 
	C93.921661,214.938705 93.547180,210.480087 98.239685,209.335236 
	C101.584671,208.519165 103.105179,211.511734 105.355583,213.982178 
	C106.997124,210.947678 109.312149,208.457291 112.827835,209.892258 
	C116.846039,211.532364 117.113457,215.409744 117.059341,219.587204 
	C117.000000,219.999908 116.993774,220.004883 116.993774,220.004883 
M87.836037,226.486664 
	C88.860931,227.662750 90.060448,228.056946 91.158409,226.748032 
	C92.269157,225.423828 91.844162,223.962997 90.935661,222.670670 
	C90.452065,221.982758 89.710449,221.372147 88.854065,221.696396 
	C86.751450,222.492477 87.278168,224.250320 87.836037,226.486664 
z"/>
<path fill="#000000" opacity="1.000000" stroke="none" 
	d="
M117.002312,219.996185 
	C119.745697,217.681625 122.458641,216.815353 125.018631,220.225235 
	C127.483109,223.507904 127.214386,228.862976 124.491028,231.074539 
	C122.792007,232.454239 120.875107,232.666885 118.933228,231.780441 
	C116.653610,230.739807 115.426338,228.865692 115.230125,226.355499 
	C115.069046,224.294708 115.967682,222.511841 116.878510,220.355194 
	C116.993774,220.004883 117.000000,219.999908 117.002312,219.996185 
z"/>
<path fill="#000000" opacity="1.000000" stroke="none" 
	d="
M216.181427,200.461426 
	C225.365829,183.776703 240.765808,180.190979 254.072601,191.336075 
	C260.959290,197.104004 264.047424,210.145935 260.497803,218.395416 
	C258.322052,223.451981 254.720001,226.864960 249.304779,228.217438 
	C240.159714,230.501480 231.355774,229.379059 223.194260,224.833954 
	C213.930786,219.675156 211.906281,212.323532 216.181427,200.461426 
M227.532639,205.760559 
	C232.091858,204.272202 233.713913,201.805237 231.958344,198.913147 
	C230.849777,197.086960 229.211136,196.084259 226.987778,196.349869 
	C225.160034,196.568222 223.826813,197.602036 223.462860,199.350464 
	C222.855591,202.267670 223.837753,204.540070 227.532639,205.760559 
z"/>
</svg>