<?xml version="1.0" encoding="utf-8"?>
<svg width="384" height="320" viewBox="0 0 384 320" fill="none" xmlns="http://www.w3.org/2000/svg">
  <g>
    <path d="M265.548 163.543C261.547 179.329 249.306 188.037 237.175 196.761C232.41 200.188 226.886 202.213 221.302 203.934C217.551 205.09 217.197 206.817 219.254 210.12C223.036 216.191 229.553 219.569 233.593 225.979C236.708 222.69 239.464 219.696 242.316 216.796C244.767 214.303 247.414 212.112 250.523 210.355C265.124 202.102 279.473 215.093 280.409 227.573C280.693 231.352 281.054 235.225 279.585 238.939C278.581 241.48 277.237 243.75 274.119 242.42C270.655 240.944 271.98 237.164 272.714 235.405C275.487 228.763 274.365 222.9 268.059 216.872C263.943 212.937 258.831 212.542 252.899 215.93C246.822 219.4 242.579 224.844 238.51 230.304C236.229 233.364 239.116 237.774 243.084 237.866C249.574 238.017 256.065 238.115 262.552 238.331C264.225 238.387 266.713 237.737 266.596 240.623C266.486 243.343 264.088 242.824 262.371 242.833C248.876 242.904 235.38 242.934 221.884 242.914C219.179 242.91 216.597 243.059 214.223 244.597C209.859 247.424 204.644 246.375 200.11 246.368C192.782 246.356 185.467 247.295 177.823 244.037C170.696 240.999 161.918 241.122 153.739 242.294C152.422 242.483 151.07 242.936 149.789 242.791C139.464 241.62 130.096 244.351 121.287 249.522C121.144 249.606 120.977 249.73 120.832 249.716C111.153 248.835 100.353 255.293 92.0547 245.311C91.0289 244.076 89.5246 243.821 87.9794 243.742C74.0172 243.026 60.0736 242.81 46.0813 243.488C36.4718 243.953 26.8033 243.154 17.1599 242.999C14.3353 242.954 11.5046 243.148 8.67997 243.295C6.78409 243.393 4.65471 243.566 4.41831 241.089C4.16254 238.409 6.43044 238.534 8.26278 238.436C12.822 238.191 17.4601 238.912 22.9355 237.376C15.6325 231.772 10.3889 225.412 6.64681 217.888C0.858227 206.25 -2.83195 194.462 2.79053 181.511C8.89453 167.45 22.8389 164.868 33.0233 176.397C38.9872 183.149 43.8261 190.811 47.8935 198.835C50.7711 204.512 55.0859 208.822 59.5738 213.002C64.2006 217.311 70.0034 216.956 73.7812 211.789C76.998 207.389 80.1933 202.942 83.8643 198.207C78.9995 195.068 74.4568 192.138 69.9157 189.205C57.5736 181.234 47.2677 171.299 40.1423 158.304C39.5033 157.139 38.4659 155.948 38.4212 154.739C38.0981 145.999 31.5352 145.6 25.3112 144.669C23.421 144.387 21.2318 144.928 19.96 142.832C19.918 141.003 21.3207 140.655 22.5614 140.272C32.4094 137.235 39.0458 130.442 45.4656 122.631C51.6961 115.051 53.6552 109.42 46.8515 100.589C40.2155 91.9752 39.1198 80.4678 38.2549 69.6701C36.4387 46.9948 41.0487 24.9557 45.864 2.98484C46.1148 1.8404 46.5043 0.733521 47.5862 0.0584831C48.7616 -0.202499 49.5815 0.444374 50.0723 1.31616C55.7208 11.3483 65.3554 16.9365 74.4907 22.9752C83.3717 28.8458 93.5594 33.3381 100.082 41.8446C105.784 49.2808 111.074 49.1234 118.989 46.2401C131.443 41.7036 144.723 41.8139 157.992 42.2175C150.968 39.07 143.499 37.6099 136.36 36.2686C135.993 34.863 136.354 34.1892 136.976 33.9956C151.184 29.5718 164.84 29.6117 177.255 39.1695C178.177 39.8791 179.339 40.5366 179.832 41.5025C184.069 49.7937 192.65 52.0622 199.922 56.0928C208.105 60.6279 208.24 60.6295 215.374 54.6882C226.797 45.1742 240.723 40.8979 254.286 35.8929C263.03 32.6666 272.263 30.3668 276.616 20.9922C279.423 21.525 279.044 23.4978 279.099 25.0235C279.871 46.3444 280.697 67.7206 274.873 88.5508C270.86 102.904 265.698 116.82 253.407 126.567C251.215 128.306 252.069 129.877 253.016 131.778C259.217 144.236 266.015 156.219 277.902 164.329C278.129 164.483 278.169 164.911 278.582 165.883C273.828 167.064 269.924 164.595 265.548 163.543C265.548 163.543 265.548 163.543 265.548 163.543ZM91.8308 195.406C94.4173 197.655 99.0734 197.277 100.481 203.058C93.1368 201.203 86.4986 200.881 84.1496 210.202C90.5121 207.933 96.6446 207.288 102.763 207.006C111.749 206.592 120.441 207.65 127.288 214.495C133.639 220.844 136.422 228.54 135.732 237.652C140.738 238.673 145.513 238.42 150.293 237.859C156.269 237.158 162.314 236.643 168.208 237.858C172.825 238.809 174.048 237.526 173.963 232.945C173.771 222.629 178.423 215.111 188.08 210.943C193.837 208.458 199.7 206.107 205.557 204.024C220.693 198.643 235.873 193.39 247.64 181.994C252.332 177.45 259.319 173.218 256.301 164.436C255.686 162.647 257.163 161.403 258.289 160.134C259.354 158.934 261.417 158.755 261.797 156.403C255.234 148.806 251.688 139.158 246.494 130.462C245.065 128.069 245.024 126.419 247.616 124.649C258.968 116.895 264.313 104.953 268.725 92.6834C273.978 78.0734 274.018 62.5852 274.706 47.3099C274.897 43.0796 274.807 38.5129 273.457 34.2301C264.245 37.5484 255.633 40.6248 247.04 43.7521C233.621 48.6353 220.9 54.665 211.428 65.8878C209.512 68.1579 207.847 67.9772 205.469 66.2981C199.415 62.0225 194.174 55.8041 185.481 57.1229C184.901 57.2109 184.04 56.3384 183.515 55.7339C181.226 53.096 178.764 50.5596 176.829 47.6752C173.422 42.5984 168.935 39.3579 162.35 37.91C166.577 42.6556 172.561 44.616 175.915 49.4128C174.191 51.3073 172.635 50.9515 171.298 50.4035C167.358 48.7884 163.168 48.608 159.051 48.1647C141.745 46.3016 124.812 47.2078 109.074 55.715C106.411 57.1541 105.165 55.7623 103.801 53.8233C97.6831 45.1264 90.1136 38.0755 80.8975 32.6148C73.1763 28.0399 65.8001 22.8682 58.3987 17.7754C55.602 15.8511 53.163 13.4071 50.264 10.9482C49.6049 12.3671 49.0371 13.2036 48.8154 14.1235C43.9897 34.1487 41.5968 54.3967 44.0803 74.9628C45.54 87.051 49.2863 98.3415 57.561 107.688C59.3882 109.752 59.2878 111.624 57.7345 113.953C51.4891 123.319 45.3108 132.718 36.5393 140.5C38.6111 141.71 40.2773 142.468 41.6806 143.563C43.08 144.655 44.9797 146.009 43.896 148.067C42.4268 150.856 43.7792 153.052 45.0674 155.038C48.4471 160.248 51.7079 165.414 56.0107 170.148C66.006 181.145 78.0769 188.698 91.8308 195.406C91.8308 195.406 91.8308 195.406 91.8308 195.406ZM21.6431 227.711C26.67 231.85 31.94 235.624 38.2105 237.644C44.9132 239.803 47.3068 238.572 50.1138 232.305C50.9091 230.529 52.2577 228.965 53.5221 227.444C55.7243 224.796 58.0583 222.258 60.5091 219.478C57.4053 216.94 53.6814 216.142 51.3072 213.137C47.2826 208.042 43.2502 202.995 39.9682 197.36C36.1239 190.76 32.5613 183.936 27.0752 178.456C22.3522 173.739 17.5534 173.721 12.5363 178.105C8.18239 181.909 6.68398 186.911 6.46774 192.364C5.91769 206.236 11.9624 217.391 21.6431 227.711C21.6431 227.711 21.6431 227.711 21.6431 227.711ZM104.48 245.409C112.571 243.956 110.413 236.984 111.144 231.223C116.419 235.128 115.44 240.071 115.207 245.049C123.245 242.349 125.216 236.643 123.815 228.866C128.461 230.756 127.903 234.733 129.83 238.059C131.114 228.416 128.61 221.083 120.962 216.159C114.065 211.718 106.241 211.092 98.3457 212.291C87.4101 213.951 77.1871 217.954 67.3443 222.851C62.7021 225.161 58.4957 228.092 56.9641 233.656C56.0744 236.888 56.6679 238.384 60.2635 238.34C67.5852 238.251 74.9095 238.274 82.2315 238.357C84.9284 238.388 87.5229 238.386 89.2638 235.897C91.9192 237.079 93.4872 239.065 95.2161 240.825C97.586 243.238 100.025 245.458 104.48 245.409C104.48 245.409 104.48 245.409 104.48 245.409ZM185.846 239.869C184.58 236.249 184.102 232.772 187.361 229.183C190.865 240.013 191.487 240.678 197.96 240.872C198.824 237.818 196.577 233.949 199.974 231.252C205.618 243.977 206.08 243.936 219.523 235.07C222.907 238.487 226.429 239.032 232.811 237.093C233.033 234.603 231.594 232.675 230.473 230.685C224.31 219.744 214.287 214.714 202.375 213.279C191.319 211.947 182.079 218.371 179.097 228.658C177.308 234.83 180.372 240.139 185.846 239.869C185.846 239.869 185.846 239.869 185.846 239.869Z" fill="#000000" transform="translate(48.783 35.394)" />
    <path d="M62.4717 31.765C64.6816 48.2993 51.6633 59.1747 33.5662 59.3645C22.4949 59.4807 13.1786 55.3246 5.76744 46.9322C-1.33891 38.885 -1.92146 28.9615 4.2601 17.1201C10.6071 4.96194 20.7505 -0.954941 33.3945 0.125458C45.6934 1.17636 56.6791 10.7778 60.6613 24.0488C61.3771 26.4341 61.8154 28.9027 62.4717 31.765C62.4717 31.765 62.4717 31.765 62.4717 31.765ZM47.8195 10.4641C37.2157 0.122757 17.7702 2.99599 12.2708 12.8647C23.9995 3.91898 35.1686 3.8076 45.8681 13.0525C53.4522 19.6054 56.4319 31.8737 52.2999 40.9353C46.3764 53.9254 34.2139 53.5137 22.9436 54.0066C28.7816 56.2528 36.5542 56.5995 43.0861 54.778C52.8805 52.0467 59.188 45.0371 59.2375 36.2755C59.2938 26.3174 55.6476 17.8026 47.8195 10.4641C47.8195 10.4641 47.8195 10.4641 47.8195 10.4641ZM16.7016 28.5413C20.6319 29.5452 22.9655 27.7054 23.165 23.9948C23.3324 20.8811 21.0553 19.3276 17.9274 19.4468C16.1232 19.5156 14.7566 20.4991 14.1376 22.1701C13.2368 24.6017 13.7698 26.7062 16.7016 28.5413C16.7016 28.5413 16.7016 28.5413 16.7016 28.5413Z" fill="#000000" transform="translate(223.471 136.733)" />
    <path d="M42.373 1.70985C58.8175 9.08351 67.5753 28.612 62.0144 45.1046C59.3426 53.0287 53.0663 57.4634 45.604 59.9789C34.5701 63.6984 23.6427 62.9677 13.2933 57.3222C2.82956 51.6142 -0.858681 42.4341 0.163918 30.9644C1.42924 16.7723 13.8179 3.08158 27.7293 0.432335C32.602 -0.495628 37.3244 0.134346 42.373 1.70985C42.373 1.70985 42.373 1.70985 42.373 1.70985ZM24.9261 58.0466C30.2212 59.4174 35.5764 59.1755 40.7449 57.8002C49.0729 55.5843 56.7396 51.7688 58.986 42.6489C61.7192 31.5528 59.5901 21.0714 51.6335 12.4595C41.0538 1.00865 18.556 0.0509872 7.81065 19.427C-1.79727 36.752 4.79198 53.0741 24.9261 58.0466C24.9261 58.0466 24.9261 58.0466 24.9261 58.0466Z" fill="#000000" transform="translate(122.795 123.829)" />
    <path d="M27.5678 20.2314C30.0857 19.9816 31.9908 19.4247 32.5757 17.0764C33.233 14.4374 31.0759 13.753 29.4276 12.6698C26.1476 10.5142 23.7031 7.61211 25.1299 3.54341C26.5004 -0.364365 30.35 -0.0953827 33.6565 0.0885925C35.7762 0.206573 37.8807 0.883698 39.9557 1.44429C42.4527 2.11888 44.802 3.17873 45.0393 6.18056C45.2603 8.97533 43.5257 10.8474 41.3899 12.2975C39.4168 13.6371 36.3296 14.1606 37.3078 17.594C38.202 20.7322 41.0461 21.0494 43.7046 21.4225C49.9495 22.2991 56.2139 23.0471 62.4411 24.0329C64.4664 24.3535 66.8355 24.6338 67.3557 27.3125C66.7097 28.822 65.5805 28.6665 64.3771 28.4721C44.354 25.2382 24.3058 23.0761 4.11227 27.0804C2.56389 27.3874 0.462784 28.2945 0.04422 25.8707C-0.336609 23.6654 1.82326 23.3748 3.41335 23.0305C11.2303 21.3375 19.1838 20.7747 27.5678 20.2314C27.5678 20.2314 27.5678 20.2314 27.5678 20.2314Z" fill="#000000" transform="translate(169.028 166.726)" />
    <path d="M21.225 6.70911C12.5883 1.25178 6.42618 6.61995 0 11.7075C0.0984497 4.47579 8.14438 -1.09407 15.4109 0.183128C18.2018 0.673653 20.9453 1.53368 22.8216 3.84558C24.0824 5.39909 24.5016 6.9223 21.225 6.70911C21.225 6.70911 21.225 6.70911 21.225 6.70911Z" fill="#000000" transform="translate(143.132 99.82)" />
    <path d="M2.7019 0.534622C14.209 -1.75975 23.6387 3.51308 23.2081 12.8527C16.3994 6.55085 10.0772 -0.269997 0.378281 5.19369C-0.793823 2.16791 0.976852 1.5634 2.7019 0.534622C2.7019 0.534622 2.7019 0.534622 2.7019 0.534622Z" fill="#000000" transform="translate(249.306 112.874)" />
    <path d="M7.35388 40.4361C0.524368 34.8863 -1.25282 27.9984 0.807526 20.0785C3.27585 10.5903 8.75409 3.51471 18.5146 0.890488C33.857 -3.23451 47.7152 7.42601 49.3409 23.4768C51.4674 44.4722 33.0613 52.0629 17.2487 45.9079C13.8431 44.5822 10.5754 42.8974 7.35388 40.4361C7.35388 40.4361 7.35388 40.4361 7.35388 40.4361ZM36.6296 15.9987C33.8462 16.9836 32.76 19.0184 33.2326 21.8361C33.5643 23.8144 34.8121 25.1111 36.8339 25.4702C39.0735 25.868 40.9444 24.969 41.7932 22.9882C43.6237 18.7162 41.0388 16.9268 36.6296 15.9987C36.6296 15.9987 36.6296 15.9987 36.6296 15.9987Z" fill="#000000" transform="translate(130.036 130.233)" />
  </g>
</svg>