<?xml version="1.0" encoding="utf-8"?>
<svg width="384" height="320" viewBox="0 0 384 320" fill="none" xmlns="http://www.w3.org/2000/svg">
  <g>
    <path d="M20.3431 145.978C22.5589 141.964 27.0298 141.518 30.3738 139.258C40.1989 132.618 45.291 122.437 51.3111 112.9C52.4037 111.168 51.2124 110.096 50.2611 108.965C39.3748 96.0219 35.7568 80.5836 34.0594 64.2C31.8171 42.5563 35.4461 21.484 38.4911 0C39.5414 0.21759 40.4109 0.127857 40.7125 0.499275C50.878 13.0173 65.0643 19.8806 78.6252 27.654C86.8614 32.3752 94.8325 37.5269 101.381 44.5303C102.76 46.0052 103.904 46.1721 105.716 45.3106C120.617 38.2253 136.605 36.6119 152.871 35.9126C145.438 33.1888 137.82 31.3603 129.641 30.7073C133.582 27.3459 138.529 26.0196 143.305 25.3616C158.204 23.3084 170.935 27.5605 180.361 39.8567C181.402 41.2141 182.612 42.3161 184.28 42.8109C190.383 44.6203 196.023 47.4561 201.547 50.5572C203.193 51.4814 204.799 52.212 206.486 50.4282C219.162 37.0266 235.891 30.7041 252.472 24.0923C256.169 22.6182 259.616 20.5248 263.286 18.9746C267.932 17.0127 269.409 12.3933 272.341 7.42546C274.553 14.3751 275.177 20.2734 275.556 26.0617C276.622 42.3499 276.819 58.6429 273.633 74.7982C270.654 89.9018 265.719 104.084 254.549 115.245C252.1 117.692 252.89 119.734 254.222 121.883C261.148 133.066 267.842 144.466 279.367 151.791C280.073 152.24 280.734 152.733 280.733 154.105C275.864 155.73 271.67 151.767 266.434 152.236C267.954 154.567 267.126 156.485 266.038 158.814C258.801 174.296 246.823 184.828 231.958 192.53C230.682 193.19 229.061 193.443 228.225 195.341C232.605 198.857 238.169 200.337 242.886 203.304C244.647 204.411 245.993 202.829 247.399 202.035C252.526 199.143 257.765 196.464 263.905 197.363C275.752 199.097 284.821 212.371 282.312 224.113C281.401 228.372 279.423 228.635 274.257 224.903C275.96 222.726 277.288 220.615 274.389 217.962C273.038 216.726 272.884 214.031 272.483 211.941C271.548 207.072 268.476 204.325 263.871 203.37C258.958 202.351 254.683 204.014 251.063 207.396C249.63 208.735 250.222 209.889 251.247 211.287C252.715 213.289 254.624 215.417 254.973 217.7C255.863 223.523 259.367 224.351 264.186 223.738C265.845 223.526 267.825 223.333 267.895 225.799C267.974 228.568 265.774 228.29 263.958 228.295C250.294 228.333 236.63 228.381 222.966 228.352C220.248 228.346 217.755 228.655 215.338 230.13C210.922 232.826 205.77 231.46 201.134 231.516C195.773 231.58 190.103 233.753 185.004 231.456C179.725 229.078 174.306 228.397 168.718 227.768C156.88 226.435 145.156 228.861 133.338 228.735C129.597 228.695 125.821 231.877 122.066 233.597C121.463 233.873 120.844 234.545 120.306 234.474C110.786 233.212 100.117 239.386 91.823 230.111C90.4911 228.621 88.6548 228.438 86.7675 228.457C60.787 228.715 34.8 227.87 8.8252 228.911C6.9954 228.985 5.44011 228.819 4.67955 226.971C0.32827 216.4 -1.9758 205.643 2.19368 194.434C4.84503 187.305 9.27012 181.804 17.2656 180.817C25.4957 179.801 31.3951 184.539 35.7512 190.613C40.584 197.351 44.4739 204.77 48.6891 211.943C49.5386 213.389 50.1255 214.959 52.5449 215.916C57.5949 203.032 69.428 198.788 81.3879 194.865C80.7543 192.17 78.6067 192.165 77.1462 191.319C68.1164 186.093 59.7139 180.407 52.1748 172.783C45.6561 166.19 41.2129 159.176 38.2145 150.788C37.4502 148.649 35.5632 148.588 33.72 148.325C29.3121 147.697 24.9177 146.974 20.3431 145.978C20.3431 145.978 20.3431 145.978 20.3431 145.978ZM92.583 191.832C99.5334 192.572 106.419 190.653 113.467 191.855C125.264 193.866 135.91 205.586 135.692 217.21C135.57 223.73 135.571 223.8 142.447 223.745C152.233 223.665 161.992 221.579 171.816 223.593C174.954 224.236 175.547 221.98 175.027 219.539C174.187 215.598 174.857 211.993 176.614 208.425C182.205 197.069 193.549 190.978 208.458 193.106C215.434 194.101 220.648 191.463 226.332 188.919C236.44 184.393 245.233 177.975 252.709 169.895C256.167 166.157 261.239 161.358 259.901 156.864C258.158 151.014 259.722 148.577 264.572 146.208C258.136 138.698 253.528 130.416 248.52 122.387C245.934 118.24 244.365 114.779 250.275 112.107C251.84 111.4 253.124 109.776 254.196 108.321C260.279 100.062 264.689 91.0004 267.163 80.999C269.37 72.0759 270.547 62.9906 270.952 53.8594C271.42 43.2974 271.574 32.6892 269.583 21.6247C262.048 25.7489 254.437 28.5474 246.989 31.722C232.606 37.8521 217.984 43.7626 208.228 57.0421C206.362 59.581 204.68 58.6525 202.334 57.2638C196.299 53.6908 190.991 47.885 182.773 49.9072C182.221 50.0431 181.283 49.2508 180.741 48.6832C177.766 45.5639 174.532 42.6196 172 39.1656C167.572 33.1241 161.111 31.8295 154.522 30.5172C160.603 34.1278 166.89 37.3808 172.208 42.7227C169.404 44.1459 167.483 43.1881 165.563 42.891C144.471 39.6276 124.064 41.0414 105.103 51.9023C103.024 53.0932 101.806 52.6563 100.427 51.022C92.227 41.3032 81.7362 34.6216 70.6918 28.6705C60.9313 23.4112 51.2251 18.0578 42.4517 10.205C39.0067 26.2143 37.9986 41.5747 38.6176 57.0691C39.3431 75.2299 43.2993 92.37 55.1949 106.753C57.821 109.928 57.5125 112.55 55.7044 115.767C50.2531 125.465 44.9385 135.241 35.0678 142.346C40.2168 143.516 43.9754 145.726 46.9613 149.686C44.1638 151.791 44.8502 154.169 46.6813 156.772C50.5444 162.262 54.6591 167.363 59.6231 172.068C69.0366 180.991 79.9642 186.916 92.583 191.832C92.583 191.832 92.583 191.832 92.583 191.832ZM77.5751 201.654C76.024 202.26 74.4213 202.761 72.9308 203.49C66.5276 206.626 60.675 210.45 58.2165 217.614C56.6172 222.273 57.7564 223.724 62.581 223.773C67.4131 223.822 72.2466 223.812 77.0788 223.763C80.0704 223.732 84.2281 224.792 85.827 223.251C90.1601 219.074 91.7585 222.682 94.1317 224.967C95.0913 225.89 95.9828 226.962 97.1072 227.622C100.328 229.514 103.749 231.073 107.403 228.841C110.798 226.767 111.712 223.534 110.976 219.737C110.728 218.459 110.194 217.056 112.353 216.409C116.264 219.878 115.95 224.495 115.078 229.839C123.665 226.737 124.527 220.56 122.917 212.719C127.645 215.181 126.947 219.552 128.9 222.591C130.503 220.168 130.347 217.798 130.149 215.509C129.362 206.401 122.015 199.14 111.707 197.193C100.132 195.007 89.3759 199.402 77.5751 201.654C77.5751 201.654 77.5751 201.654 77.5751 201.654ZM215.627 223.816C217.327 222.98 218.759 220.269 220.769 221.675C224.371 224.193 228.162 222.925 231.859 223.043C237.756 223.23 243.664 223.093 250.144 223.093C248.911 215.142 244.767 210.41 239.2 207.323C227.353 200.752 214.515 197.566 200.892 198.406C189.354 199.118 181.153 206.24 180.028 216.167C179.427 221.475 181.505 224.57 186.625 225.894C186.614 222.269 184.559 218.195 188.685 215.057C191.946 225.118 193.722 226.874 199.458 225.961C199.898 222.882 197.919 219.379 200.858 216.572C208.434 227.791 208.434 227.791 215.627 223.816C215.627 223.816 215.627 223.816 215.627 223.816ZM40.7411 210.232C36.7206 203.36 33.3593 196.029 27.5061 190.404C23.0587 186.13 17.1381 185.39 13.5976 188.838C3.88079 198.3 4.44303 211.355 10.0648 222.397C10.809 223.858 12.2721 223.604 13.5956 223.611C23.2321 223.662 32.8688 223.768 42.5051 223.738C44.189 223.732 46.175 224.5 47.7563 222.428C45.561 218.61 43.3351 214.738 40.7411 210.232C40.7411 210.232 40.7411 210.232 40.7411 210.232Z" fill="#000000" transform="translate(47.574 49.922)" />
    <path d="M57.9354 49.2949C43.9846 63.3872 22.0332 60.372 11.3787 51.9707C-2.6664 40.8958 -1.63011 32.6611 3.44644 19.0738C7.83885 7.31767 16.5822 0.134979 29.4782 0.00230408C42.0139 -0.126663 51.8916 5.14474 57.9084 16.7133C63.514 27.4913 65.9919 38.1891 57.9354 49.2949C57.9354 49.2949 57.9354 49.2949 57.9354 49.2949ZM42.9207 10.5127C44.9778 12.6882 47.2063 14.7274 49.063 17.0622C58.136 28.4713 53.5144 46.5384 40.1266 51.7083C36.1475 53.2449 31.9068 54.1041 27.0802 55.474C31.6582 55.474 35.5224 55.8423 39.2925 55.4032C49.5689 54.2066 58.8107 46.1396 59.745 37.0741C60.545 29.3128 57.2952 22.2696 53.2141 15.9877C42.5641 -0.405426 17.0733 0.62146 10.4224 14.3542C21.5482 5.18961 31.9146 3.78719 42.9207 10.5127C42.9207 10.5127 42.9207 10.5127 42.9207 10.5127ZM14.1733 21.073C11.9427 23.1349 12.1684 25.4199 13.6513 27.7435C14.6415 29.2952 16.1733 29.8033 17.9454 29.5213C19.9401 29.2038 21.1905 27.9412 21.7685 26.0816C22.9895 22.1528 19.7681 19.662 14.1733 21.073C14.1733 21.073 14.1733 21.073 14.1733 21.073Z" fill="#000000" transform="translate(222.675 143.252)" />
    <path d="M2.88977 47.1619C-5.82287 30.4906 6.91892 8.32361 17.8864 3.22871C36.6989 -5.51056 56.6641 4.11745 61.8102 24.5553C63.737 32.2075 64.4818 39.9666 60.1911 47.3032C55.1555 55.9133 47.0437 59.6742 37.7867 61.5064C23.576 64.3189 9.86024 58.7168 2.88977 47.1619C2.88977 47.1619 2.88977 47.1619 2.88977 47.1619ZM48.7062 54.202C57.1597 48.8692 60.5102 41.2564 59.7452 31.3026C58.1926 11.0987 38.9097 -1.61008 20.7718 6.03508C11.3073 10.0244 7.21291 18.4085 4.34978 27.5269C1.08985 37.9091 4.73019 48.1938 13.9258 54.0758C25.1301 61.2425 36.601 60.5902 48.7062 54.202C48.7062 54.202 48.7062 54.202 48.7062 54.202Z" fill="#000000" transform="translate(121.289 136.37)" />
    <path d="M3.41719 27.9401C8.24858 23.8881 13.2444 21.1074 19.3194 20.5318C21.1106 20.362 23.0732 19.9698 24.555 19.039C26.8026 17.6274 27.8743 15.6211 24.8331 13.6784C24.6933 13.5891 24.538 13.5242 24.3905 13.447C20.3816 11.3481 16.1266 8.78969 18.4284 3.5892C20.4383 -0.951797 25.3513 0.00660706 29.4769 0.257233C29.9729 0.287369 30.4612 0.428711 30.9565 0.491592C34.0441 0.883743 37.0731 1.5551 37.8416 5.14885C38.6282 8.82687 36.473 11.0665 33.5203 12.7916C32.1667 13.5825 30.0841 13.9212 30.4688 16.1747C30.8673 18.5088 32.7315 19.4001 34.8042 19.6837C41.7912 20.6401 48.6559 21.8703 54.0751 26.9467C56.0633 28.809 58.425 30.5438 56.856 34.9723C49.4755 24.4572 38.2931 22.5035 27.8754 22.7439C17.6057 22.9808 6.39626 25.1932 1.12636 37.8245C-1.70895 32.7842 1.47031 30.6925 3.41719 27.9401C3.41719 27.9401 3.41719 27.9401 3.41719 27.9401Z" fill="#000000" transform="translate(175.503 176.007)" />
    <path d="M3.53525 5.60354C2.34737 6.25453 1.40514 6.77592 0.478653 5.99668C-0.330338 5.31624 0.0287628 4.53387 0.512207 3.79319C2.52336 0.711929 9.82935 -0.9729 14.4099 0.597313C20.5829 2.71348 24.5988 7.28641 24.2169 12.8425C18.2418 7.22753 12.5861 1.38033 3.53525 5.60354C3.53525 5.60354 3.53525 5.60354 3.53525 5.60354Z" fill="#000000" transform="translate(244.557 119.043)" />
    <path d="M22.5767 5.68343C18.3354 4.51385 14.5731 3.20421 10.2163 4.54134C6.28522 5.74786 3.90327 9.00439 0.0695343 11.6512C-0.490128 6.40462 2.42592 4.12254 5.30884 2.28674C10.48 -1.00622 16.0338 -0.394531 21.4286 1.92378C22.882 2.54832 24.6295 3.51329 22.5767 5.68343C22.5767 5.68343 22.5767 5.68343 22.5767 5.68343Z" fill="#000000" transform="translate(138.001 113.47)" />
    <path d="M17.6003 1.32045C28.1586 -1.82133 37.068 0.637268 43.5988 8.76195C50.4185 17.246 51.0107 30.6929 45.9366 38.388C40.3086 46.9231 31.961 49.6056 22.4512 48.0861C9.90343 46.0813 -2.56892 39.1729 0.459213 21.4319C2.16905 11.4144 8.11713 5.16086 17.6003 1.32045C17.6003 1.32045 17.6003 1.32045 17.6003 1.32045ZM40.9632 22.4803C42.351 19.3553 41.5948 16.8669 38.4522 15.5174C36.4669 14.6648 34.5284 15.1217 33.2794 17.1773C32.0122 19.2628 31.978 21.4365 33.646 23.1534C35.8039 25.3744 38.266 25.5893 40.9632 22.4803C40.9632 22.4803 40.9632 22.4803 40.9632 22.4803Z" fill="#000000" transform="translate(128.128 142.07)" />
  </g>
</svg>