<svg version="1.1" id="Layer_1" xmlns="http://www.w3.org/2000/svg" xmlns:xlink="http://www.w3.org/1999/xlink" x="0px" y="0px"
	 width="100%" viewBox="0 0 384 320" enable-background="new 0 0 384 320" xml:space="preserve">
<path fill="#000000" opacity="1.000000" stroke="none" 
	d="
M317.923706,193.083817 
	C320.600708,195.938232 323.888275,197.747635 325.795807,201.237061 
	C322.801666,203.043976 320.844543,200.530731 318.589386,200.147079 
	C316.324310,199.761749 314.140686,198.897690 310.931824,197.951706 
	C312.844421,200.917267 312.234161,202.733673 310.779114,205.061356 
	C300.776062,221.063538 286.224304,230.926559 268.820343,237.172119 
	C263.696716,239.010773 263.648468,239.557877 266.439972,244.138275 
	C270.475708,250.760193 277.431915,254.627853 281.692047,261.609283 
	C284.103180,258.619385 286.080536,256.198456 288.023376,253.750122 
	C290.316956,250.859787 292.944611,248.345642 295.963104,246.204529 
	C312.005951,234.824814 327.402863,246.286819 329.192657,261.981354 
	C329.708160,266.501740 329.180939,270.962067 327.330505,275.197571 
	C326.456909,277.197235 325.265778,278.870331 322.813019,277.883026 
	C320.513092,276.957245 321.032379,274.983032 321.645294,273.182129 
	C324.135132,265.866486 323.116760,259.016083 318.620636,252.809708 
	C314.172119,246.669083 308.681427,245.587723 302.032806,249.249557 
	C294.922607,253.165588 290.401154,259.668457 285.924805,266.049011 
	C283.617432,269.337891 286.389465,273.449951 290.646149,273.557526 
	C297.308197,273.725861 303.976959,273.613007 310.640808,273.733398 
	C312.311890,273.763611 314.866302,273.058258 314.967285,275.750946 
	C315.083191,278.843048 312.308228,278.172058 310.491791,278.185394 
	C296.995026,278.284607 283.497437,278.306854 270.000214,278.290955 
	C267.454559,278.287933 265.039032,278.476135 262.829193,279.926544 
	C258.468353,282.788788 253.208908,281.789062 248.721848,281.713989 
	C241.422363,281.591827 234.096527,283.021271 226.470154,279.341553 
	C220.150955,276.292511 211.828796,276.538696 204.374435,277.461609 
	C195.392059,278.573730 186.415298,278.261932 177.435211,278.290375 
	C137.294830,278.417389 97.154121,278.441895 57.013577,278.525116 
	C55.278072,278.528717 53.354729,278.665680 53.200584,276.405426 
	C53.012665,273.649933 55.354874,273.845245 57.108807,273.828217 
	C64.420662,273.757080 71.733620,273.798279 80.623734,273.798279 
	C72.057632,268.197998 65.719048,262.397766 60.576347,255.154922 
	C52.386032,243.619873 49.178169,231.399200 52.642796,217.445877 
	C55.210789,207.103607 68.876106,197.926392 80.998505,208.306519 
	C89.538147,215.618820 94.896225,225.257355 100.791679,234.470490 
	C108.023064,245.771332 107.801079,245.913391 120.452080,241.813873 
	C126.409492,239.883377 128.542542,237.955597 134.264877,229.223434 
	C128.668869,225.445480 122.896088,221.882050 117.489426,217.830078 
	C105.425041,208.788528 94.703308,198.460526 87.740593,184.791016 
	C87.363419,184.050537 86.744217,183.273026 86.754677,182.519943 
	C86.873726,173.942963 80.443672,173.303558 74.381668,172.182968 
	C72.619591,171.857239 70.685974,171.971344 69.365005,170.313019 
	C69.414070,167.938065 71.439018,168.088989 72.897415,167.595566 
	C86.619873,162.952789 94.133362,151.504150 102.244492,140.747498 
	C103.710648,138.803116 102.406960,136.915649 101.179504,135.286423 
	C93.114250,124.581253 90.549057,112.087822 89.839577,99.144775 
	C88.584091,76.240898 93.148659,54.108219 99.411125,32.249340 
	C99.684090,31.296558 100.088585,30.368992 100.541290,29.485794 
	C100.746277,29.085884 101.219696,28.823566 101.775955,28.309851 
	C105.339592,30.939751 106.989784,35.105225 110.007187,38.147953 
	C117.467636,45.671047 126.290222,51.310226 134.867950,57.323524 
	C143.195557,63.161484 151.479950,69.062332 157.103043,77.845634 
	C158.116425,79.428558 159.448883,79.946281 161.378906,79.260727 
	C177.069199,73.687424 193.209091,72.658569 209.633682,74.623428 
	C209.876724,74.652496 210.157898,74.362846 210.794495,74.022285 
	C204.026886,69.773270 196.097763,69.112503 189.154587,66.267319 
	C189.657135,64.427933 190.635330,64.170258 191.606476,63.923573 
	C207.844391,59.798862 227.346771,64.140404 236.623505,80.198540 
	C237.703293,82.067673 239.382431,82.983818 241.207184,83.855331 
	C246.622757,86.441872 252.032928,89.066658 256.640381,92.997543 
	C258.282501,94.398537 259.632233,94.759201 261.389282,93.151863 
	C273.403076,82.161568 288.201752,76.705811 303.397095,71.959244 
	C313.300232,68.865807 323.986786,66.967026 329.340271,56.570229 
	C331.585052,57.359734 331.169922,58.876896 331.200287,60.119568 
	C331.697327,80.465027 331.713959,100.798958 326.214966,120.622765 
	C321.978851,135.893814 315.814667,150.176804 303.132843,160.601730 
	C300.836609,162.489319 300.470612,164.091858 301.861755,166.951294 
	C306.313232,176.101334 310.491119,185.365662 317.923706,193.083817 
M153.190140,232.947083 
	C143.087357,229.951950 139.611053,230.492386 138.239700,235.250839 
	C139.648483,236.649918 141.895416,234.321823 143.346985,236.551895 
	C142.954361,237.013718 142.649017,237.668198 142.142197,237.925003 
	C133.885895,242.108429 126.007088,246.971527 116.586159,248.666901 
	C108.717079,250.082993 102.012238,259.712952 102.090103,267.492249 
	C102.129494,271.427094 103.399277,273.060120 107.639458,273.065094 
	C131.767883,273.093475 155.907181,273.008545 180.019760,273.730713 
	C193.155869,274.124115 206.237595,271.083191 219.369965,273.563507 
	C222.496506,274.154022 222.906097,271.859863 222.654739,269.429901 
	C222.036240,263.450256 224.100952,258.308990 227.520676,253.569931 
	C232.183594,247.108063 239.424881,245.457077 246.455429,243.489807 
	C246.066177,238.795822 246.198578,238.637177 250.598877,237.271210 
	C255.367325,235.790939 260.237457,234.551590 264.856781,232.693787 
	C279.426697,226.834183 293.789734,220.600891 303.032928,206.804092 
	C304.458008,204.676926 306.174835,203.017715 304.002930,200.279449 
	C302.857422,198.835236 303.525116,197.116486 305.065125,195.915329 
	C306.715454,194.628128 308.316528,193.277802 310.121948,191.805984 
	C303.339294,183.645020 300.026917,173.923782 295.330048,164.941666 
	C293.973419,162.347214 294.323761,160.770477 296.804138,159.165344 
	C306.609222,152.820129 312.140198,143.053040 316.699188,132.824997 
	C325.318024,113.488869 326.196777,92.852295 325.904663,72.099503 
	C325.893311,71.291367 325.798889,70.415085 324.609741,69.875465 
	C318.866943,71.868843 313.009308,74.234444 306.964813,75.936531 
	C290.242859,80.645332 274.606812,87.279007 262.054657,99.780930 
	C260.282227,101.546265 258.628815,101.483871 256.903473,99.692604 
	C253.747421,96.415939 249.833664,94.177780 246.015442,91.796257 
	C243.292969,90.098137 240.656876,88.424828 237.607025,90.820976 
	C230.290466,83.047508 226.576874,71.786865 213.961578,69.557915 
	C218.727386,74.326874 224.483063,77.100044 228.070816,82.110054 
	C226.548096,83.772537 225.385483,83.300774 224.302155,82.954102 
	C211.384109,78.820183 198.090668,78.327492 184.743835,79.308411 
	C176.797012,79.892456 168.700577,80.777580 161.755859,85.176582 
	C158.558807,87.201691 157.214478,86.276337 155.457886,83.536087 
	C152.220062,78.485207 148.329956,73.992287 143.720184,70.028389 
	C134.214615,61.854633 122.974159,56.125484 113.403549,48.043251 
	C109.947182,45.124401 107.421661,41.053585 102.694939,38.804699 
	C97.025711,61.261070 92.716843,83.374489 95.869057,106.228401 
	C97.363106,117.060486 100.564171,127.358253 107.554573,136.057693 
	C109.427048,138.387939 108.845078,140.272537 107.427818,142.355667 
	C101.431580,151.169098 95.567741,160.090302 86.576660,166.304794 
	C85.675148,166.927933 84.517738,167.567429 84.918358,169.136627 
	C85.275093,169.399933 85.635994,169.745453 86.061287,169.967789 
	C89.655388,171.846619 96.532448,171.675674 91.548164,178.890701 
	C91.298363,179.252289 91.733345,180.165802 91.972473,180.773987 
	C94.178185,186.383575 97.275444,192.221268 101.216568,195.933060 
	C107.156113,201.527054 112.351364,208.119202 119.662109,212.445190 
	C129.323181,218.161926 137.703903,226.163162 149.359955,228.113449 
	C151.974472,228.550903 152.986877,230.827515 154.000076,232.996765 
	C154.000076,232.996765 153.900070,233.105850 153.190140,232.947083 
M71.570877,259.930328 
	C79.543663,265.945435 87.083626,272.840637 98.704063,273.440735 
	C95.973984,264.444458 96.478081,256.913208 104.555626,251.307571 
	C107.141823,249.512787 105.124359,246.898926 103.235031,245.493927 
	C96.621300,240.575562 92.581604,233.671310 88.491394,226.820129 
	C85.488350,221.789993 82.024338,217.149826 77.961403,212.950745 
	C73.495239,208.334946 66.554123,207.958817 62.897743,212.234695 
	C57.290775,218.791656 56.175972,226.308243 57.833755,234.657959 
	C59.754177,244.330505 65.031914,252.042191 71.570877,259.930328 
M260.081024,275.691956 
	C262.802979,273.861786 265.524933,272.031616 268.367096,270.120636 
	C271.246399,275.759033 275.720856,273.275482 280.195831,273.112030 
	C279.949036,271.653992 279.881622,270.681946 279.615234,269.767944 
	C275.619049,256.056458 262.436859,248.749756 250.119492,248.434753 
	C238.884338,248.147446 230.381958,254.684143 227.805222,264.669281 
	C226.331299,270.380859 228.861969,274.771912 234.892807,276.405334 
	C234.099106,272.378998 232.245789,268.207489 236.260193,264.464600 
	C239.567337,275.445496 240.425537,276.386414 246.850891,276.200653 
	C247.446045,273.135529 245.567291,269.376801 249.003036,266.236237 
	C251.086304,271.500336 251.173431,278.463989 260.081024,275.691956 
z"/>
<path fill="#000000" opacity="1.000000" stroke="none" 
	d="
M224.257263,161.412994 
	C229.058273,141.670670 243.837173,131.752274 262.042328,135.737335 
	C266.915985,136.804153 271.138275,139.162216 274.513916,142.721054 
	C282.049591,150.665695 286.095459,160.294083 286.049652,171.191086 
	C285.996948,183.734360 274.167084,193.584824 259.125061,194.077393 
	C246.446564,194.492569 236.179092,189.106537 227.870895,179.932068 
	C223.204514,174.779114 221.718246,168.598083 224.257263,161.412994 
M233.563126,150.631912 
	C234.034531,150.162216 234.502930,149.689438 234.977798,149.223251 
	C242.309601,142.025238 250.739304,138.782745 260.893066,142.295074 
	C271.191833,145.857605 276.129578,153.814377 277.516510,164.044403 
	C278.985840,174.881897 273.439240,183.225601 263.072021,186.876175 
	C257.140106,188.964981 251.062515,188.944260 244.903290,187.945633 
	C249.906326,190.200882 255.093048,191.275391 260.473419,190.742538 
	C273.632660,189.439285 285.639618,180.683228 281.799133,163.049957 
	C278.124664,146.178848 265.203613,136.469406 248.735367,139.358749 
	C241.828339,140.570587 236.038712,143.792175 233.563126,150.631912 
M243.769226,153.913467 
	C240.414230,153.200272 238.229477,154.696411 237.500122,157.836121 
	C236.945969,160.221619 238.432983,161.930969 240.636597,162.796097 
	C243.500107,163.920288 245.446136,162.462189 246.755798,160.122787 
	C248.325653,157.318665 246.924225,155.467911 243.769226,153.913467 
z"/>
<path fill="#000000" opacity="1.000000" stroke="none" 
	d="
M213.181213,197.496582 
	C200.774078,201.605774 187.549576,197.598557 180.700333,187.625198 
	C178.783417,184.833939 174.802856,186.390518 173.082214,183.222122 
	C175.788437,179.917236 179.397308,180.957718 182.673279,181.368149 
	C187.484192,181.970917 192.274063,182.212433 197.097946,181.824097 
	C199.001740,181.670853 200.797165,181.193100 201.379883,179.061554 
	C201.935883,177.027771 200.346573,176.049713 199.063644,175.044022 
	C196.031586,172.667191 192.043823,170.249786 194.316025,165.845047 
	C196.493591,161.623764 201.173721,162.666260 205.127213,163.053680 
	C206.436035,163.181946 207.743317,163.576660 208.991714,164.018082 
	C211.471512,164.894974 213.501984,166.366943 213.807083,169.192886 
	C214.116043,172.054749 212.193588,173.660400 210.126755,175.233643 
	C208.342728,176.591629 204.631943,176.323181 205.408371,179.999802 
	C206.241760,183.946014 209.743652,184.172867 212.845520,184.637115 
	C217.626450,185.352661 222.759506,184.076523 228.200409,187.431259 
	C223.505798,191.837738 218.134445,194.068527 213.181213,197.496582 
M203.474991,186.213577 
	C200.993698,186.145386 198.472290,185.928879 196.016052,187.923431 
	C198.708878,189.245239 200.990799,188.837952 203.208801,188.645706 
	C204.566177,188.528030 205.491852,187.872833 203.474991,186.213577 
z"/>
<path fill="#000000" opacity="1.000000" stroke="none" 
	d="
M127.189026,166.602051 
	C119.952995,152.310852 124.076073,136.168549 137.580780,124.800316 
	C147.598160,116.367706 162.709030,116.340439 174.086884,124.734444 
	C185.317413,133.019760 190.232986,153.639557 183.632797,165.900040 
	C178.870667,174.746109 170.581161,178.568512 161.129761,179.688812 
	C147.809647,181.267685 136.039474,178.038361 127.189026,166.602051 
M182.804398,157.013916 
	C182.793457,153.854538 183.069611,150.662994 182.719711,147.541611 
	C181.488342,136.556473 176.123428,128.393967 165.500305,124.515083 
	C149.984894,118.849846 133.791962,127.638435 128.212448,144.485641 
	C124.758331,154.915253 128.234894,165.718918 137.351578,171.715851 
	C147.146469,178.158905 157.821503,178.457397 168.438278,174.450989 
	C175.913956,171.629913 181.429306,166.396484 182.804398,157.013916 
z"/>
<path fill="#000000" opacity="1.000000" stroke="none" 
	d="
M318.729614,94.985306 
	C318.346527,96.289032 318.248749,97.333511 316.855194,98.099174 
	C314.079376,97.258865 313.169312,92.478653 309.005127,93.547035 
	C302.434967,95.232719 295.717743,96.220985 290.359009,101.162758 
	C284.249268,106.797119 276.619446,106.312798 269.274628,106.223717 
	C268.622711,104.029961 269.520721,103.178482 270.340973,102.396156 
	C281.216949,92.023293 293.452972,84.111794 308.532257,81.350365 
	C315.997803,79.983215 319.189026,82.585587 319.142883,90.140610 
	C319.133789,91.630379 318.921783,93.118912 318.729614,94.985306 
z"/>
<path fill="#000000" opacity="1.000000" stroke="none" 
	d="
M143.524750,272.603088 
	C138.354324,271.552429 136.412109,266.470215 131.804535,264.843323 
	C129.583740,264.059174 131.783890,261.373138 132.814331,259.801880 
	C134.012497,257.974915 135.882492,257.405304 138.389832,257.605499 
	C138.394440,261.600555 140.945740,263.567444 144.504608,264.571655 
	C149.371948,265.945068 151.823990,264.583801 153.339752,259.699554 
	C154.326981,256.518433 154.986237,255.570969 158.185623,253.085510 
	C159.848480,257.450378 162.047119,261.623047 160.678055,266.173553 
	C159.139206,271.288391 154.640106,272.239868 149.860565,272.256073 
	C147.877472,272.262787 145.895233,272.519684 143.524750,272.603088 
z"/>
<path fill="#000000" opacity="1.000000" stroke="none" 
	d="
M154.049606,232.941788 
	C158.447128,233.755402 162.872528,234.352646 167.122437,235.565048 
	C171.848312,236.913193 172.424820,241.585220 173.851410,245.386948 
	C175.838760,250.683105 175.851852,256.079254 173.849304,261.397461 
	C173.323013,262.795135 172.502396,264.208649 170.733398,264.242004 
	C169.038757,264.273926 167.859619,263.085144 167.340164,261.707947 
	C166.395508,259.203491 165.116409,256.938110 163.743942,254.655823 
	C162.499771,252.586853 162.653702,250.200897 165.324936,249.348343 
	C168.337433,248.386856 169.374664,246.544006 168.676270,243.719086 
	C167.875885,240.481827 166.100876,237.879944 162.506241,237.386414 
	C159.340500,236.951767 156.205978,236.656998 154.022461,233.434906 
	C153.900070,233.105850 154.000076,232.996765 154.049606,232.941788 
z"/>
<path fill="#000000" opacity="1.000000" stroke="none" 
	d="
M296.509155,145.533432 
	C295.516113,146.440308 294.794373,147.126221 294.026855,147.756363 
	C290.500732,150.651520 288.883698,150.420471 287.729919,146.111923 
	C286.158630,140.244263 283.705322,134.226944 287.444733,127.445572 
	C290.246948,132.332993 290.914764,137.266708 292.618988,141.801880 
	C296.151123,141.856934 297.865326,138.144333 301.562042,138.084686 
	C301.305481,141.563263 298.503693,143.096268 296.509155,145.533432 
z"/>
<path fill="#000000" opacity="1.000000" stroke="none" 
	d="
M107.566818,59.592541 
	C110.678040,58.456223 112.756371,60.074863 114.756020,61.498848 
	C116.724976,62.900990 119.829651,64.568359 118.371445,67.255211 
	C116.411568,70.866394 112.470200,70.271156 108.956635,69.448135 
	C105.963562,68.747032 104.863739,66.908859 105.656235,63.881042 
	C106.032059,62.445126 105.967621,60.870022 107.566818,59.592541 
z"/>
<path fill="#000000" opacity="1.000000" stroke="none" 
	d="
M254.397827,114.884857 
	C253.119919,115.298592 252.071014,115.830383 251.382141,114.738380 
	C250.852859,113.899353 251.553024,113.174675 252.031998,112.509811 
	C252.222992,112.244682 252.477142,112.009567 252.742767,111.815987 
	C257.357391,108.453064 261.987701,110.022865 266.451447,112.025711 
	C270.819916,113.985825 274.426178,116.832642 274.948303,122.113983 
	C274.984772,122.482506 274.460327,122.906494 273.734772,124.002510 
	C268.632782,118.192818 263.690643,111.900848 254.397827,114.884857 
z"/>
<path fill="#000000" opacity="1.000000" stroke="none" 
	d="
M168.211456,97.598083 
	C169.461060,98.863297 170.966446,99.677879 169.871384,102.174110 
	C165.814514,101.364120 162.498047,97.876564 157.626816,98.675323 
	C152.889343,99.452156 150.443649,103.699669 146.088943,105.156380 
	C146.067322,95.445320 157.730545,91.599319 168.211456,97.598083 
z"/>
<path fill="#000000" opacity="1.000000" stroke="none" 
	d="
M288.323517,105.718300 
	C292.486328,107.233467 292.474487,109.581505 289.312347,111.658066 
	C286.306946,113.631676 283.343689,116.260635 278.531250,115.518867 
	C281.292023,111.371048 284.812408,108.738075 288.323517,105.718300 
z"/>
<path fill="#000000" opacity="1.000000" stroke="none" 
	d="
M145.481812,92.348938 
	C143.341919,91.558426 141.420975,90.992943 140.629929,88.519722 
	C143.806610,86.590767 146.309494,87.903008 147.923218,90.469589 
	C149.396454,92.812737 147.380173,92.675674 145.481812,92.348938 
z"/>
<path fill="#000000" opacity="1.000000" stroke="none" 
	d="
M133.784180,159.012772 
	C126.533165,148.940933 134.681152,131.326508 146.755493,126.679939 
	C160.169052,121.517998 173.721878,127.519455 178.280731,140.733566 
	C180.059708,145.890076 180.611237,151.028763 179.513031,156.413345 
	C177.693024,165.337067 170.379654,172.541763 161.244125,172.781662 
	C150.028580,173.076157 140.422073,169.158340 133.784180,159.012772 
M165.188568,142.725906 
	C163.805695,145.521942 163.452545,148.251633 166.457336,150.178574 
	C168.321442,151.373993 170.420029,151.179733 171.838089,149.335770 
	C173.184494,147.584991 174.150925,145.461243 172.620865,143.370026 
	C170.784561,140.860229 168.375977,140.336304 165.188568,142.725906 
z"/>
</svg>