<svg version="1.1" id="Layer_1" xmlns="http://www.w3.org/2000/svg" xmlns:xlink="http://www.w3.org/1999/xlink" x="0px" y="0px"
	 width="100%" viewBox="0 0 384 320" enable-background="new 0 0 384 320" xml:space="preserve">
<path fill="#000000" opacity="1.000000" stroke="none" 
	d="
M152.000748,278.313934 
	C121.008179,278.312592 90.515640,278.307892 60.023098,278.303009 
	C59.356590,278.302887 58.686253,278.346313 58.024303,278.290771 
	C56.139904,278.132690 53.420750,278.792023 53.557457,275.799408 
	C53.674252,273.242676 56.232544,273.689972 57.932117,273.771576 
	C72.076591,274.450867 86.204857,272.168732 100.363434,273.626984 
	C103.200325,273.919159 106.319901,274.475952 109.012825,272.587128 
	C108.871040,270.449371 107.300781,269.543854 105.949829,268.769775 
	C90.044418,259.656403 83.308495,244.406921 79.015556,227.808975 
	C76.610664,218.510895 75.434219,208.950073 70.765411,200.275528 
	C67.830208,194.821960 67.563858,189.091812 72.248245,184.063599 
	C72.566849,183.721603 72.702385,183.179810 72.837349,182.706482 
	C72.924049,182.402435 72.853607,182.053589 72.853607,181.614243 
	C70.771179,179.055283 66.720085,180.622147 64.399048,177.881882 
	C65.784340,175.471481 68.216232,175.108124 70.361275,174.656570 
	C78.653946,172.910889 83.794601,166.964569 88.693428,160.875977 
	C91.182388,157.782532 93.067047,154.237534 96.274651,151.692932 
	C97.875908,150.422653 99.381271,148.506897 97.468040,146.584610 
	C90.515434,139.599152 89.247185,130.355484 87.942932,121.448601 
	C83.945396,94.148933 89.678673,67.801155 96.885033,41.684410 
	C97.041084,41.118858 97.585327,40.660416 98.083321,39.963242 
	C100.971336,41.796665 101.456726,45.012684 103.266205,47.279804 
	C110.479141,56.316963 119.874786,62.550797 129.535370,68.527794 
	C139.229675,74.525650 148.090271,81.513535 154.326508,91.259445 
	C155.946198,93.790695 157.553543,94.048828 160.124786,92.905807 
	C166.907410,89.890663 174.039032,88.439453 181.492218,88.752579 
	C187.821411,89.018486 194.053421,88.136948 200.557098,87.336403 
	C199.604446,85.056213 196.579147,86.030258 195.858185,83.409027 
	C199.111160,80.748413 203.000717,81.154320 206.278076,82.725182 
	C210.083221,84.549011 214.491394,85.626892 217.266602,89.295090 
	C217.635101,89.782173 218.425827,90.421112 218.859985,90.317169 
	C226.465637,88.496155 230.678711,94.519272 235.578461,98.081978 
	C241.879288,102.663422 249.338959,105.575607 254.732895,111.468834 
	C256.151611,113.018867 258.006073,112.553085 259.684479,111.267029 
	C273.405762,100.753426 289.525299,96.185158 306.040222,92.546082 
	C311.562958,91.329140 316.917480,89.555054 322.166382,87.350319 
	C325.561920,85.924072 326.635529,82.094772 329.612152,80.740685 
	C331.235565,81.180664 331.287445,82.217529 331.283630,83.222473 
	C331.183807,109.511353 327.333466,135.046005 314.878326,158.578766 
	C310.375397,167.086609 305.131897,175.302643 296.579620,180.599228 
	C293.688080,182.390045 293.891296,184.949905 294.925507,187.627274 
	C299.476898,199.410172 303.245392,211.627823 313.099487,220.491852 
	C313.796692,221.119003 314.576080,221.904053 314.201813,223.535645 
	C311.278595,223.663162 309.280487,221.288803 306.748199,220.457825 
	C305.216370,219.955139 303.510681,218.700760 302.403076,220.882355 
	C299.124786,227.339386 294.797180,232.958160 289.541534,237.927643 
	C284.395355,242.793610 278.248444,246.004593 271.974915,248.555634 
	C271.676239,250.625778 272.976532,251.364487 273.898224,252.217133 
	C278.410919,256.391815 281.721436,261.423920 283.391388,267.254578 
	C284.760162,272.033630 287.430359,273.404114 292.135620,273.090240 
	C297.774506,272.714142 303.461975,272.932526 309.122925,273.090210 
	C311.223267,273.148743 314.513245,272.226959 314.405060,275.818756 
	C314.309204,279.002777 311.258636,278.144562 309.272949,278.161621 
	C298.943024,278.250305 288.587036,278.662720 278.288971,278.087555 
	C269.364563,277.589081 260.879272,280.388214 252.129898,280.465485 
	C243.500275,280.541718 235.106552,283.604065 226.082184,279.086151 
	C220.667068,276.375183 213.090408,276.672546 206.426178,277.319794 
	C188.470322,279.063721 170.470856,277.767303 152.000748,278.313934 
M214.228836,96.371124 
	C195.192734,91.363197 176.397079,91.586029 157.985489,99.106201 
	C155.572708,100.091698 153.970322,100.701370 152.401047,97.609947 
	C146.969009,86.909164 138.283569,79.298195 128.135178,73.205620 
	C119.419540,67.973206 110.934372,62.432190 103.639832,55.247944 
	C102.415237,54.041870 101.363625,52.269943 98.900215,52.724716 
	C96.561935,56.671055 96.967049,61.342655 96.085098,65.653320 
	C91.859657,86.305923 89.347961,107.120766 95.611931,127.767082 
	C97.346733,133.485062 98.494553,139.847534 103.086998,144.380936 
	C106.368538,147.620285 105.924141,150.211533 103.147278,153.800385 
	C99.889503,158.010742 95.816696,161.772354 93.578514,166.734116 
	C96.332443,169.179779 99.042747,168.473526 101.513634,167.694870 
	C106.303055,166.185547 110.471970,167.226364 114.966621,169.228210 
	C122.053833,172.384750 124.994446,180.025528 132.852325,183.162689 
	C139.678406,185.887924 145.951080,188.295761 153.146927,187.884949 
	C167.302414,187.076752 182.231003,175.674881 177.135605,155.742569 
	C175.639999,149.892044 173.866318,144.034927 168.117599,140.764160 
	C162.244598,137.422699 155.912964,135.434631 149.101120,135.318970 
	C134.513062,135.071274 121.055199,150.721939 123.514442,165.020630 
	C123.704529,166.125824 124.268623,167.337204 122.682289,168.085388 
	C120.569992,167.489731 120.384003,165.519699 119.865433,163.850540 
	C117.286652,155.550125 121.709831,149.361969 126.325928,143.378540 
	C134.790741,132.406326 150.320496,127.227753 161.316208,132.367157 
	C172.823242,137.745529 179.512192,146.150085 181.284637,158.910660 
	C184.144897,179.502884 167.533966,191.380447 153.140915,191.363403 
	C146.310516,191.355316 139.684830,190.245499 132.090332,188.076691 
	C133.519226,194.875381 131.172836,200.042648 127.766785,204.896088 
	C127.337746,205.507462 127.191780,206.559372 127.357155,207.309616 
	C129.692032,217.902054 129.953201,229.253952 138.733231,237.474106 
	C140.976471,239.574326 141.961044,242.264877 138.956406,244.768097 
	C136.914978,246.468857 136.781250,248.543610 137.072418,251.064133 
	C137.933426,258.517426 134.797638,264.299866 128.993561,268.805298 
	C127.492622,269.970398 125.316635,270.506744 124.997292,272.865936 
	C126.081055,274.147430 127.512100,273.703857 128.767517,273.696899 
	C141.417297,273.627014 154.086609,273.897797 166.709839,273.264252 
	C176.237793,272.786041 185.704651,274.148346 195.170242,273.517517 
	C203.149048,272.985809 211.075134,271.994598 219.048080,273.467010 
	C222.021667,274.016174 222.646347,272.388000 222.720016,269.701019 
	C223.145447,254.183334 230.943161,245.719116 246.313751,243.492950 
	C251.050949,242.806885 255.610748,243.305313 260.161926,244.377365 
	C265.067230,245.532852 269.393311,245.344772 272.438507,240.496902 
	C273.392029,238.978928 274.821533,237.647659 276.763184,237.347672 
	C284.564850,236.142303 289.650848,231.019455 294.325989,225.281174 
	C295.236084,224.164108 295.714569,223.041748 294.738373,221.679199 
	C292.164124,218.086136 294.343445,216.041656 297.354340,214.697922 
	C300.659515,213.222855 300.891754,211.549103 299.048645,208.544037 
	C294.600250,201.291245 291.634644,193.324127 288.433319,185.464828 
	C286.886810,181.668121 288.103241,179.447769 291.224182,177.591461 
	C301.013733,171.768692 307.549744,162.947769 312.509460,153.085831 
	C319.310211,139.563141 322.458038,124.841888 324.481689,109.950485 
	C325.239563,104.373444 327.018860,98.646065 324.986816,92.596809 
	C320.006378,93.842621 315.368286,95.111931 310.680084,96.156250 
	C292.375336,100.233727 274.413605,105.090378 259.704987,117.674393 
	C258.349152,118.834366 257.005524,119.589134 255.302109,118.143555 
	C249.461990,113.187279 242.545975,109.803551 236.335236,105.552765 
	C229.584137,100.932144 222.497360,98.667076 214.228836,96.371124 
M85.934669,174.457642 
	C83.922600,176.492004 82.021065,178.553009 82.199532,181.746124 
	C82.279633,183.179291 81.450417,184.150742 80.273422,185.006973 
	C74.909721,188.908997 73.107628,194.661102 76.879974,200.283859 
	C81.413765,207.041519 81.669189,214.653107 83.253571,222.057343 
	C86.878723,238.998642 92.027733,255.012619 109.288330,263.334900 
	C114.871681,266.026917 120.798866,268.867340 126.790016,265.346558 
	C132.746597,261.846100 132.108002,255.526718 131.724533,249.645218 
	C131.649185,248.489243 131.456314,247.329819 131.200623,246.198441 
	C128.857452,235.831070 126.698311,225.415466 124.047134,215.126892 
	C122.493378,209.097122 120.819229,203.197128 114.975655,199.101990 
	C111.589012,196.728668 110.622704,191.811874 109.535484,187.617630 
	C108.931618,185.288040 110.615128,185.040878 112.328926,184.478897 
	C114.919289,183.629486 117.577950,185.376266 120.096649,184.142059 
	C118.241165,175.750946 109.392807,170.615860 101.600609,173.430817 
	C99.386917,174.230499 97.251595,174.439911 95.402725,173.116074 
	C92.061302,170.723480 89.224716,171.404449 85.934669,174.457642 
M253.547012,273.892212 
	C260.348846,278.273438 263.313354,271.055389 268.246582,268.720337 
	C270.439972,274.355530 274.638458,273.244080 279.121246,272.300934 
	C278.965424,271.140411 278.947144,270.156067 278.692719,269.237061 
	C275.158295,256.471497 263.712769,248.017929 250.444763,248.336685 
	C238.702515,248.618790 230.573746,254.396912 227.851013,264.396912 
	C226.265442,270.220306 229.072083,275.022491 235.245529,276.337952 
	C233.953705,272.349854 232.554764,268.387573 236.039841,264.696533 
	C240.866852,275.237183 241.839157,276.082825 247.366470,274.777954 
	C248.389023,271.995789 246.128067,268.565704 249.246109,265.635071 
	C250.798950,268.341919 251.068054,271.332916 253.547012,273.892212 
M123.303062,197.879135 
	C123.957016,198.497421 124.081116,199.835373 125.661201,199.438477 
	C126.389099,196.955490 126.877037,194.370529 126.674248,191.685928 
	C126.553566,190.088348 126.022179,188.701981 124.226982,188.391785 
	C122.510719,188.095184 121.516388,189.136261 120.574242,190.438156 
	C118.061859,193.909836 120.987038,195.443039 123.303062,197.879135 
z"/>
<path fill="#000000" opacity="1.000000" stroke="none" 
	d="
M276.211426,173.065796 
	C278.683014,181.153427 280.158752,188.661087 277.208771,196.815491 
	C274.448486,204.445572 268.915436,208.328354 261.955750,210.534866 
	C245.485214,215.756729 226.339157,204.337280 219.945221,194.404160 
	C215.588196,187.635437 216.659988,181.003891 218.987488,174.359528 
	C224.659363,158.167831 239.197220,149.502426 255.992447,152.984848 
	C266.427521,155.148529 272.452972,162.993195 276.211426,173.065796 
M225.444992,168.987106 
	C223.850967,171.497070 222.611115,174.113403 222.715622,177.143677 
	C223.383713,176.685074 223.662735,176.101120 223.915894,175.506165 
	C228.527863,164.667755 239.622543,158.192245 250.790359,159.824005 
	C261.895172,161.446548 269.763702,170.414917 270.870392,182.710861 
	C271.749084,192.473648 267.318756,199.933807 259.163788,203.072861 
	C253.051651,205.425568 246.724396,205.178009 239.240021,204.876297 
	C248.609055,210.177338 257.234528,209.293167 265.117584,205.453888 
	C275.282898,200.503036 276.096680,190.974365 274.729584,180.952133 
	C273.216827,169.862488 264.446381,158.055756 254.888474,157.001083 
	C243.979187,155.797287 233.030579,155.822327 225.444992,168.987106 
M241.879196,174.441177 
	C241.680954,171.565796 239.783768,170.902863 237.379349,171.155365 
	C234.338486,171.474686 233.485992,173.835144 232.861130,176.336975 
	C232.498886,177.787308 232.715134,179.083755 234.278976,179.560669 
	C236.900208,180.360062 239.207870,179.758301 240.850235,177.448914 
	C241.311996,176.799606 241.511169,175.963562 241.879196,174.441177 
z"/>
<path fill="#000000" opacity="1.000000" stroke="none" 
	d="
M173.961700,155.410675 
	C175.453461,160.748779 175.264938,165.600113 173.550751,170.479279 
	C170.509964,179.134384 163.043335,184.351151 153.942917,184.420731 
	C145.386139,184.486130 138.250397,180.772385 132.475983,175.275208 
	C121.945801,165.250580 126.879471,146.429398 140.864471,140.058868 
	C151.787262,135.083267 168.912445,139.601929 173.961700,155.410675 
M165.482590,163.951950 
	C167.902802,162.371399 169.630219,160.391586 167.924728,157.426025 
	C166.785248,155.444656 164.737091,154.464920 162.435028,154.990509 
	C159.542587,155.650909 159.959961,158.132553 160.110321,160.217697 
	C160.315155,163.058487 161.554489,164.938843 165.482590,163.951950 
z"/>
<path fill="#000000" opacity="1.000000" stroke="none" 
	d="
M139.661240,103.451126 
	C134.312469,101.321022 130.083420,97.881950 125.265862,95.376862 
	C127.222679,102.789490 132.690002,107.821915 136.894699,114.643524 
	C131.929749,115.101784 130.640930,112.182899 129.570251,109.388115 
	C128.353821,106.212944 126.014084,104.388573 121.894661,101.977936 
	C127.805878,118.425224 122.355240,130.999741 111.711983,143.552780 
	C108.808746,137.750809 105.918762,133.033401 104.028648,127.944618 
	C101.339340,120.704147 99.931358,113.542534 104.491486,105.941483 
	C107.894943,100.268417 106.179588,95.145035 101.482750,90.817291 
	C100.408325,89.827293 99.693993,88.732597 99.821075,87.367889 
	C100.313774,82.076866 100.836304,76.784462 101.551102,71.520187 
	C101.862007,69.230362 103.633751,68.561546 105.687866,69.232742 
	C108.850601,70.266182 112.189240,71.224869 114.642906,73.510590 
	C124.002167,82.229248 134.472351,89.743141 142.859787,99.518166 
	C144.128540,100.996826 146.012070,102.110718 145.109406,104.575966 
	C143.096710,105.742188 141.666443,104.052910 139.661240,103.451126 
z"/>
<path fill="#000000" opacity="1.000000" stroke="none" 
	d="
M178.842590,206.780396 
	C177.906555,201.992722 177.052414,197.600098 176.296173,193.190674 
	C176.199203,192.625244 176.611328,191.972504 176.767197,191.431137 
	C178.758469,190.699707 179.726730,192.131226 180.789780,193.022018 
	C182.808334,194.713516 185.177780,195.422546 187.674759,195.613098 
	C189.819641,195.776779 192.389694,195.846725 193.432617,193.615356 
	C194.576599,191.167786 192.319229,189.779175 190.758026,188.305832 
	C188.761078,186.421326 185.700073,184.798798 187.366669,181.378677 
	C189.034958,177.955109 192.225418,177.903656 195.583572,178.529495 
	C197.364578,178.861435 199.234634,178.688202 201.058411,178.824356 
	C204.022736,179.045639 206.047546,180.673264 207.028564,183.393051 
	C208.116943,186.410492 205.469162,187.380859 203.743332,188.815262 
	C201.614502,190.584625 197.174850,190.981934 198.546799,194.981537 
	C200.008163,199.241806 204.147598,198.984863 207.903870,198.685318 
	C209.328033,198.571747 210.762680,197.503418 213.055710,199.401749 
	C207.629349,205.261902 207.134277,214.513977 199.174194,218.786163 
	C192.779755,222.218094 186.300934,220.018021 181.737732,213.003311 
	C180.573135,211.213074 179.869904,209.122711 178.842590,206.780396 
z"/>
<path fill="#000000" opacity="1.000000" stroke="none" 
	d="
M293.259216,119.314796 
	C286.381104,124.869179 278.195740,123.822754 270.617157,125.122490 
	C269.144165,125.375107 267.367493,125.299103 266.722931,123.629692 
	C265.967743,121.673637 267.587494,120.504425 268.909058,119.583015 
	C280.374451,111.589119 292.109833,104.166985 306.501862,102.637314 
	C307.985413,102.479630 309.449554,102.103889 310.910400,101.774757 
	C317.129883,100.373520 319.048309,101.997437 318.059662,108.314400 
	C317.482574,112.002060 316.336731,115.600708 315.489594,119.064285 
	C313.738190,119.321213 313.372711,118.267570 312.824249,117.478363 
	C309.066284,112.070869 304.709045,111.393494 299.402618,115.304832 
	C297.535858,116.680832 295.533875,117.873436 293.259216,119.314796 
z"/>
<path fill="#000000" opacity="1.000000" stroke="none" 
	d="
M153.935165,246.490448 
	C157.918564,243.910706 161.546646,245.976852 165.064148,246.942673 
	C167.877426,247.715134 170.582733,248.305542 173.371078,247.580399 
	C182.990082,245.078888 190.824921,250.019440 198.971909,253.610519 
	C200.714767,254.378769 201.133850,256.049622 200.689850,257.858856 
	C200.121552,260.174591 198.823807,261.840027 196.263611,261.843536 
	C189.442047,261.852875 182.449982,262.107544 176.491135,258.134674 
	C171.701233,254.941116 166.727554,253.605881 160.999420,253.815826 
	C155.403488,254.020905 154.171356,252.514420 153.935165,246.490448 
z"/>
<path fill="#000000" opacity="1.000000" stroke="none" 
	d="
M272.334900,138.374115 
	C270.916260,141.482910 269.477112,142.538101 267.466125,139.220612 
	C266.610199,137.808594 265.518494,136.539642 264.659973,135.128998 
	C262.030579,130.808701 258.282349,129.678757 253.546417,130.973511 
	C252.199890,131.341644 250.834946,132.485565 249.042847,131.006439 
	C250.026901,126.450317 253.845703,126.941994 257.092407,126.783966 
	C263.600067,126.467201 270.204620,131.403961 272.334900,138.374115 
z"/>
<path fill="#000000" opacity="1.000000" stroke="none" 
	d="
M153.898727,106.472839 
	C159.496048,104.611557 163.449692,108.126732 167.822968,109.760567 
	C169.362701,110.335800 169.605042,112.118721 168.851440,113.640160 
	C168.302872,114.747681 167.065506,114.839462 166.294601,114.162239 
	C159.067505,107.813240 152.645706,110.781822 146.346085,115.736496 
	C146.258072,115.805702 146.031921,115.699287 145.870255,115.674850 
	C144.744949,111.430031 145.543655,110.486366 153.898727,106.472839 
z"/>
<path fill="#000000" opacity="1.000000" stroke="none" 
	d="
M282.280792,132.351334 
	C280.777527,133.349167 279.642670,134.482697 277.605865,133.304825 
	C279.545135,129.892532 282.736664,128.361038 286.303436,126.483246 
	C286.735199,129.991180 284.123932,130.705078 282.280792,132.351334 
z"/>
<path fill="#000000" opacity="1.000000" stroke="none" 
	d="
M285.585480,163.982498 
	C288.316589,165.934280 288.316589,165.934280 284.285461,168.349869 
	C282.548523,166.426544 282.422913,164.937683 285.585480,163.982498 
z"/>
<path fill="#000000" opacity="1.000000" stroke="none" 
	d="
M86.545105,189.541855 
	C90.858009,190.331772 91.936470,187.566391 92.685722,184.536301 
	C93.066284,182.997253 92.420547,181.137756 94.155937,180.040955 
	C98.096146,183.422516 98.171928,185.013535 94.395378,190.738998 
	C99.536888,192.685745 96.982895,195.241318 94.860443,197.782761 
	C94.113800,198.676804 93.255104,199.496536 92.626846,200.466339 
	C91.093414,202.833389 87.877541,204.712341 90.055573,208.276749 
	C92.376122,212.074387 94.229881,216.418213 99.970390,215.938812 
	C102.779716,215.704193 105.628044,215.984680 108.453827,215.888367 
	C113.392563,215.720016 115.323471,212.699600 113.097557,208.162064 
	C110.908859,203.700409 108.873535,199.061676 105.227318,195.505585 
	C101.996826,192.354919 101.355202,188.201889 100.864960,184.115707 
	C100.566238,181.625916 101.555267,179.122986 103.915878,177.720627 
	C105.054192,177.044388 106.129456,177.862961 106.982529,178.754395 
	C108.921181,180.780228 108.659897,183.025223 107.435303,185.199249 
	C105.834343,188.041458 106.389778,190.586227 108.026405,193.158951 
	C110.610001,197.220322 112.640503,201.638657 115.927834,205.243851 
	C118.536545,208.104813 118.264641,211.239807 116.830658,214.537109 
	C115.369453,217.897049 112.911888,219.962738 109.253853,220.129227 
	C104.937309,220.325684 100.600082,220.368729 96.283913,220.188477 
	C91.835052,220.002716 87.731491,216.039642 86.796852,211.325729 
	C86.020340,207.409378 85.188637,203.826965 81.848167,200.821426 
	C79.043823,198.298264 80.356606,194.183670 81.283531,190.895660 
	C81.933884,188.588730 84.117279,188.374298 86.545105,189.541855 
z"/>
</svg>