<svg xmlns="http://www.w3.org/2000/svg" width="384" height="320" fill="#000" xmlns:v="https://vecta.io/nano"><path d="M99.005 218.009c-2.747 1.456-4.796.447-6.431-1.867-3.555-5.032-7.324-10.039-8.895-16.059-.76-2.91-2.105-3.571-4.719-3.902-4.53-.574-9.005-1.582-13.63-2.432.729-2.671 2.985-2.987 4.621-3.845 12.671-6.647 19.418-18.304 25.892-30.231.845-1.557-.043-2.432-.895-3.501-7.366-9.242-12.053-19.56-14.608-31.239-4.408-20.146-3.819-40.268-1.655-60.498.545-5.095 2.496-9.967 2.273-15.087 3.192-1.497 4.786.708 6.169 2.312 7.032 8.151 16.335 13.039 25.571 17.959 10.853 5.782 22.017 11.04 30.86 19.889 2.317 2.319 4.512 2.704 7.572 1.326 14.927-6.723 30.716-9.032 47.505-8.545-7.723-4.186-15.985-4.08-25.368-5.926 5.447-3.894 10.547-4.801 15.292-5.306 14.926-1.59 27.963 2.052 37.198 15.117 2.39 3.382 7.257 2.875 10.621 5.084 3.026 1.988 6.75 2.683 9.749 4.958 1.978 1.501 4.152 1.52 6.129-.811 7.162-8.442 16.511-13.856 26.416-18.374l26.945-11.901c5.142-2.212 8.408-6.23 10.51-10.85 2.207.051 2.61 1.203 2.714 2.372 2.008 22.557 3.742 45.133-1.106 67.556-3.067 14.18-8.385 27.34-18.763 37.949-1.253 1.281-1.962 2.428-.721 4.33 6.619 10.137 12.359 20.899 22.295 28.508 1.856 1.422 4.763 1.777 5.704 4.869-5.156 1.849-9.676-1.498-14.284-1.615 1.027 7.954-4.091 13.205-8.119 18.588-6.734 8.997-15.153 16.258-25.307 21.346-1.866.934-2.978 2.25-1.183 4.306 3.599 4.122 7.346 8.046 11.952 11.123 2.234 1.492 3.334-.14 4.806-1.038 6.18-3.767 12.339-7.365 20.101-4.793 11.367 3.767 17.629 14.509 15.26 26.312-.384 1.915-.459 3.849-3.143 3.329-1.997-.388-2.665-1.559-3.074-3.774-.987-5.358-1.494-10.871-4.748-15.687-5.657-8.374-16.539-4.864-21.608.558-.932.997-.324 2.2.144 3.287l4.103 9.541c.804 1.79 2.56 2.076 4.225 2.101 2.486.038 4.981-.108 7.464-.291 1.666-.122 2.561.625 2.747 2.17.193 1.595-.698 2.532-2.232 2.734-1.15.151-2.326.14-3.49.143l-32.495.083c-5.616.025-11.072-.074-16.614 2.192-3.951 1.616-8.838 1.366-13.288 1.244-7.15-.195-14.106.7-21.399-2.605-5.605-2.54-12.99-2.511-19.668-1.708-6.642.799-13.314 1.063-19.959.752-7.766-.362-15.137.283-22.092 4.223-3.48 1.971-7.387 3.179-11.495 1.456-1.547-.649-2.97.066-4.363.511-5.607 1.792-10.63.554-14.881-3.241-2.296-2.051-4.633-2.832-7.648-2.82l-63.919.062c-9.161.017-9.12.063-12.189-8.621-3.114-8.809-3.279-17.526.176-26.316 2.91-7.405 7.87-12.801 15.894-13.346 7.708-.525 13.454 4.136 17.731 10.251 4.677 6.687 8.83 13.714 12.674 20.921.595 1.115.873 2.583 3.069 3.189 6.846-10.639 17.815-16.326 30.226-21.332-5.889-4.777-12.18-6.344-17.332-9.897-4.259-2.937-8.462-5.894-12.298-9.371-1.642-1.488-2.644-3.015-.768-5.555 2.558-.679 3.945.335 5.416 1.587 3.403 2.898 6.763 5.828 10.628 8.187 11.084 6.766 21.96 13.007 35.845 13.135 12.173.112 21.239 8.39 23.841 18.663 1.056 4.173.75 8.491.698 13.371 7.064 0 13.857.273 20.618-.073 7.328-.376 14.663-1.059 21.927.124 4.004.652 4.675-1.006 4.408-4.327-.294-3.659-.321-7.329 1.511-10.701 5.257-9.68 13.284-15.028 24.385-15.527 3.285-.147 6.386-.325 9.685-1.527 14.598-5.319 27.167-13.832 38.547-24.069 3.591-3.23 5.697-8.131 8.387-12.328.777-1.214-.214-2.245-.953-3.109-2.006-2.343-.853-4.215.635-6.23 1.167-1.581 3.411-2.047 4.206-4.212-6.776-7.661-11.866-16.433-16.97-25.205-1.554-2.673-1.883-5.017.836-7.006 9.811-7.179 14.327-17.737 17.857-28.716 5.013-15.594 5.219-31.817 4.632-47.959-.179-4.931.502-10.27-1.824-15.335l-16.135 7.521c-16.332 7.052-33.284 13.063-44.553 28.154-1.624 2.175-3.481 1.088-5.698.227-6.627-2.571-11.739-9.644-20.202-7.044-.478.147-1.42-.748-1.954-1.334-3.465-3.796-7.253-7.336-10.611-11.155-3.842-4.37-8.44-5.836-13.585-6.857 5.254 3.829 10.845 7.141 15.778 11.449-1.549 1.706-2.973 1.426-4.194 1.161-10.55-2.289-21.136-1.844-31.797-.925-10.448.9-20.362 3.805-29.32 8.877-4.129 2.339-6.207 1.773-8.775-1.166-5.209-5.962-11.684-10.305-18.296-14.497-12.574-7.971-26.985-12.903-38.599-23.99-3.129 20.2-4.504 39.614-1.705 59.132 1.838 12.819 5.443 25.337 14.198 35.045 5.332 5.912 3.712 10.07.269 15.283-5.327 8.065-9.368 17.057-18.55 23.761 6.504-.294 9.339 3.13 12.389 6.802-3.384 1.531-3.149 3.484-1.033 6.189 2.555 3.265 4.48 7.024 7.486 9.957 1.453 1.417 1.575 2.828.352 4.403zm29.326 31.683c-4.752 2.033-9.446 4.27-13.524 7.425-5.162 3.993-10.757 7.878-11.067 15.421 7.267 2.694 22.335 1.37 25.987-2.313l6.717 5.794c2.89 2.361 5.982 4.456 9.91 2.588 3.914-1.862 5.281-5.294 5.154-9.442-.04-1.282-.494-2.675 1.131-3.43 3.935 3.759 2.52 8.601 2.607 13.298 9.778-1.693 8.114-9.967 9.09-17.623 3.336 4.012 3.579 7.65 4.342 11.41 5.934-10.084-4.108-23.129-13.113-25.553-9.158-2.466-17.781.011-27.234 2.425zm142.948 1.524c-6.994-2.33-14.18-3.263-21.538-3.02-11.698.387-19.059 5.779-21.884 16.067-1.621 5.906 1.105 10.728 6.719 11.883-1.735-8.185-1.369-9.847 2.371-10.774 1.36 8.516 3.093 10.347 10.063 10.525.583-3.242-1.958-7.233 2.228-10.142.422.902.782 1.428.921 2.007 2.143 8.891 5.385 10.273 13.319 5.48 2.27-1.371 4.227-1.446 6.949-.913 7.811 1.529 15.742.663 23.691.291.11-5.76-2.431-9.522-5.988-12.675-4.654-4.125-10.169-6.739-16.851-8.729zm-190.902-5.06l-2.029-2.838c-3.124-4.12-6.851-7.753-12.388-6.88-5.369.847-8.162 4.975-10.177 9.896-3.473 8.481-2.084 16.491 1.214 24.591.985 2.421 2.547 2.657 4.665 2.655l22.429.077c3.902-.038 7.876.6 12.361-.712l-16.075-26.789zm184.986-101.724c2.962.098 5.357.765 7.696 1.676 2.784 1.084 6.335 1.634 3.002 5.998-1.284 1.681.81 2.982 1.619 4.312 6.266 10.296 6.229 23.508-.073 31.928-3.487 4.659-8.553 7.098-13.764 8.565-15.782 4.445-33.062.314-42.347-14.929-1.567-2.572-2.121-5.203-2.331-8-.529-7.077-.475-7.081-7.043-10.154 1.621-4.267-2.402-9.751 2.737-13.523 2.089 1.345.916 2.822.661 4.164-.519 2.726.18 5.079 2.533 6.534 2.376 1.469 4.527-.035 6.415-1.312 7.989-5.405 16.04-10.689 25.289-13.74 4.922-1.624 9.954-2.657 15.606-1.518zm-35.295 43.017c4.551 3.45 9.555 5.945 15.065 7.525 7.624 2.186 23.966-.556 28.54-9.394-9.582 6.064-19.43 7.988-29.61 3.056-10.142-4.913-14.57-13.747-14.62-24.844-5.193 1.333-6.65 4.171-6.618 8.668.043 6.009 2.863 10.418 7.243 14.989zm13.12-21.285c4.904-1.882 6.732-4.806 4.424-7.33-1.293-1.414-2.813-2.942-5.196-2.209-2.376.732-3.667 2.48-3.835 4.749-.195 2.636 1.419 4.25 4.606 4.791zm-89.348 29.103c-7.846.381-15.011.088-21.737-3.736-13.539-7.697-18.337-23.893-10.921-37.711 1.446-2.694 3.656-5.3.727-8.611 8.089-5.315 16.337-6.267 25.041-3.554 9.274 2.89 17.588 7.714 25.566 13.157.686.468 1.305 1.048 2.022 1.457 2.945 1.676 5.716 4.679 9.488 2.263 3.456-2.213 2.868-5.607 2.038-8.97-.13-.527.277-1.187.683-2.72 3.537 3.446 3.931 6.77 2.61 10.543-.684 1.952-2.215 3.298-3.585 4.735-2.476 2.598-3.623 5.432-3.78 9.234-.419 10.122-7.091 16.104-15.381 20.438-3.776 1.974-7.78 3.799-12.772 3.476zm5.642-4.128c2.268-.463 4.483-1.027 6.103-3.054-26.957 2.208-44.729-17.689-29.753-41.117-2.621.138-4.949.812-6.816 2.638-12.509 12.236-9.706 30.897 3.718 38.349 8.229 4.569 16.86 5.765 26.749 3.183zm7.732-27.963c1.769-.444 3.6-.817 3.771-3.576-2.439-1.573-4.731-3.617-8.177-3.945-1.221 3.979.387 6.187 4.406 7.521zm9.427 38.525c4-4.703 8.994-6.699 14.547-7.718 3.416-.626 6.883-1.352 8.184-5.533-3.074-2.843-7.563-3.798-8.994-8.337-1.001-3.173.18-5.358 2.739-5.88 4.15-.846 8.48-1.785 12.772-.197 2.145.793 4.036 1.834 4.271 4.324.245 2.588-.328 5.017-2.66 6.597-1.863 1.263-4.635 1.92-4.087 4.92.636 3.482 3.915 3.332 6.381 3.654 7.173.937 13.42 3.583 18.543 8.769 1.651 1.672 3.438 3.219 2.13 6.385-19.035-16.54-38.013-18.002-56.931 1.068-.688-3.934.996-5.897 3.105-8.053zM269 133.645c-1.329 1.78-3.733 1.597-5.599.65-8.438-4.285-18.529-6.237-32.03-4.162-1.722.265-3.735-.013-5.371-1.011 1.883-3.037 8.627-3.114 14.489-3.122 13.431-.017 25.533 3.262 28.511 7.645zm-107.454-11.892c1.93 1.267 3.814 2.287 2.547 3.473-1.006.943-2.945.72-4.476-.055-10.555-5.343-19.971-4.87-28.936-1.566-1.347.496-2.926.727-4.743-.015-.893-7.765 18.061-8.91 35.607-1.838z"/></svg>