<svg xmlns="http://www.w3.org/2000/svg" width="384" height="320" fill="#000" xmlns:v="https://vecta.io/nano"><path d="M85.608 194.442c-4.892-4.48-11.253-3.732-17.091-5.491 1.511-3.756 4.954-4.436 7.572-5.651 6.65-3.087 11.197-8.196 15.234-13.987 2.953-4.235 7.362-8.12 8.475-12.792 1.211-5.082-5.042-8.287-7.25-12.829-5.105-10.501-7.666-21.659-8.721-33.136-2.017-21.944 1.438-43.457 5.864-64.851.129-.623.459-1.204.625-1.624 1.611-.784 2.491.039 3.197.99 8.073 10.872 19.619 17.362 30.79 24.275 9.777 6.051 19.741 11.823 27.207 20.84 2.036 2.459 3.815.876 5.749.116 14.457-5.677 29.455-7.856 45.329-7.1-2.001-2.223-4.765-1.995-7.066-2.696-2.697-.821-5.54-1.152-8.269-1.883-2.512-.673-5.259.485-7.575-.66-.323-2.008.944-2.39 1.978-2.779 17.171-6.451 35.529-4.216 48.361 11.551 1.77 2.176 3.669 3.523 6.429 4.271 5.186 1.406 9.651 4.459 14.183 7.259 1.643 1.015 3.192 2.052 4.897.298 13.74-14.137 32.045-19.916 49.586-27.085 6.994-2.859 14.066-5.579 16.206-13.798 2.663.166 2.597 1.907 2.721 3.294 1.81 20.293 2.762 40.691-1.165 60.745-3.08 15.727-8.36 30.926-20.673 42.369-1.856 1.725-1.837 3.123-.701 5.189 6.11 11.111 12.082 22.291 23.069 29.617 1.288.858 3.059 1.544 3.083 3.971-4.769 2.006-8.724-2.441-13.708-1.679 1.321 2.37.411 4.322-.861 6.725-9.183 17.359-23.37 28.683-41.49 35.506-.619.233-1.207.572-1.765.93-.253.162-.399.492-.759.963 1.657 3.262 5.29 4.253 7.909 6.395 2.943 2.406 6 5.859 9.333 6.28 3.586.453 5.519-4.55 8.617-6.719 8.818-6.174 17.41-6.968 25.083-1.767 7.457 5.055 11.567 16.365 9.347 25.262-.488 1.959-1.28 3.031-3.346 2.748-1.578-.217-2.927-.145-3.646-2.461-1.053-3.391-1.445-6.166.016-9.716 1.576-3.829-6.452-12.459-11.484-13.15-5.987-.823-16.765 5.331-19.023 10.862-1.321 3.236 3.521 10.428 7.219 10.539 4.329.13 8.664.07 12.996.079 1.67.004 3.68-.299 3.564 2.224-.102 2.231-1.932 2.369-3.692 2.371l-40.492.037c-3.21-.01-6.178.285-9.097 1.96-4.231 2.429-9.302 1.539-13.696 1.46-7.341-.131-14.649 1.023-22.316-2.387-6.879-3.058-15.574-2.816-23.599-1.713-2.633.362-5.351.906-7.944.61-9.263-1.059-17.716 1.152-25.731 5.598-.146.081-.297.225-.443.222-9.713-.187-20.054 4.677-28.77-3.565-1.519-1.437-3.309-2.116-5.436-2.111l-59.935.083-17.968.24c-1.649.031-3.12-.309-3.459-2.109-.383-2.034 1.174-2.473 2.741-2.746.947-.165 2.019.283 3.26-1.029-3.683-6.384-7.858-12.816-9.565-20.33-2.336-10.28-2.424-20.422 4.722-28.913 8.818-10.479 18.898-9.71 27.542.156 6.356 7.255 10.73 16.008 15.617 24.331 1.93 3.287 3.871 6.581 7.098 10.036 6.797-6.917 16.285-9.14 24.089-14.378 2.887-1.938 2.496-4.023-.268-5.834-.834-.547-1.69-1.072-2.578-1.525-10.153-5.178-19.068-11.697-26.989-20.17-6.01-6.429-10.284-13.269-13.135-21.738zM220.846 86.351c-3.375-5.645-8.762-7.473-14.886-7.916 5.019 2.865 9.341 6.956 15.193 9.185.674 3.017-.857 3.493-3.358 2.977-21.589-4.458-42.593-3.367-62.628 6.695-2.221 1.115-3.901 1.157-5.512-1.226-3.481-5.148-8.185-9.109-13.081-12.899-9.912-7.673-21.403-12.862-31.49-20.236-3.681-2.691-7.237-5.552-11.206-8.611l-.838 2.837c-3.213 11.997-3.776 24.287-4.146 36.612-.616 20.51 1.777 40.205 15.058 57.018 2.287 2.895 2.373 5.734.355 8.702l-14.071 20.598c-1.53 2.229-4.81 2.943-5.66 6.129 1.17.543 2.102.885 2.943 1.381 3.37 1.986 6.374 2.927 5.822 8.923-.569 6.176 4.582 12.164 9.308 16.447 7.723 6.999 15.751 13.887 25.386 18.299 9.347 4.28 17.747 10.293 29.157 10.019 10.346-.249 18.539 5.798 23.515 15.291 2.701 5.15 2.945 10.754 2.105 16.751 2.265.146 3.89.341 5.515.342 10.453.003 20.88-2.192 31.371-.136 2.871.563 2.934-1.702 2.986-3.903.363-15.549 9.787-26.211 25.199-26.457 8.888-.142 16.717-2.606 24.39-6.105 13.77-6.279 26.466-14.06 33.764-28.19.602-1.166 1.913-2.446 1.149-3.64-3.458-5.399.547-7.764 4.721-10.593-7.444-7.789-11.549-17.314-16.782-26.154-1.234-2.084-2.574-4.068.217-6.018 11.619-8.12 16.732-20.376 20.618-33.228 4.486-14.836 4.251-30.249 4.603-45.54.096-4.18-.745-8.381-1.196-12.985-6.265 2.723-11.591 5.8-17.462 7.731-5.836 1.92-11.56 4.271-17.148 6.835-10.346 4.745-20.184 10.311-27.247 19.642-1.812 2.393-3.415 2.355-5.784.476-4.815-3.82-10.021-9.139-15.811-8.772-6.705.424-8.349-4.226-11.932-7.104-1.012-.813-1.549-2.203-3.135-3.175zm-77.573 189.934c2.885 2.446 6.08 4.529 9.966 3.23 6.373-2.131 5.458-8.053 5.418-14.041 5.548 4.141 4.615 9.015 4.268 13.71 6.242-1.897 6.242-1.897 8.546-15.655 4.112 1.488 3.751 5.693 5.505 9.15 1.354-4.678 1.229-8.687-.53-12.626-4.404-9.862-15.363-14.952-27.506-13.504-10.353 1.235-20.055 4.648-29.593 8.364-6.002 2.339-11.295 6.352-13.498 13.157-1.382 4.268-.727 5.552 3.671 5.607l18.958.003c3.117-.012 6.377.394 8.258-2.756 2.967.872 4.061 3.378 6.537 5.361zm-83.041-14.041c3.019 6.889 7.271 11.71 15.806 10.957 4.42-.39 8.947.079 13.397.479 4.834.435 8.893.259 9.666-5.971.207-1.67 1.595-3.193 2.533-4.958-7.247-5.975-11.096-14.162-15.625-21.886-3.022-5.154-5.745-10.492-10.105-14.782-5.417-5.331-12.226-5.07-16.52 1.209-4.827 7.059-6.591 14.664-3.863 23.203 1.222 3.825 2.859 7.415 4.709 11.749zm167.772 1.368c-1.413 7.255.46 10.929 6.832 12.777-1.004-3.955-2.367-7.938 1.448-11.523 3.208 10.42 4.146 11.412 10.523 11.311.921-3.032-1.648-6.934 2.248-9.885 1.682 4.277 1.932 9.846 7.475 10.134 4.814.25 7.9-4.381 11.969-6.229 3.507 4.056 13.774 4.717 19.807 1.477-.474-2.528-1.959-4.484-3.596-6.389-7.206-8.387-16.778-12.938-27.013-16.077-12.447-3.816-24.168 1.855-29.693 14.404zm48.362-112.933c4.642 6.251 7.482 12.865 9.094 20.153 2.172 9.817-1.095 17.324-8.885 23.141-15.788 11.79-42.284 6.008-51.442-11.126-1.37-2.564-2.31-5.237-2.187-8.099.473-11.055 6.042-25.905 19.672-31.894 10.58-4.649 23.746-1.745 33.748 7.825zm2.09 10.421c-3.953-8.79-10.329-14.782-20.141-15.806-12.051-1.258-19.473 1.886-24.479 9.736 9.365-7.964 19.354-11.268 30.374-4.803 9.284 5.447 13.513 14.052 12.599 24.794-1.349 15.851-13.998 18.104-26.054 21.148 3.84.585 7.568.898 11.359.219 17.704-3.173 24.587-15.854 17.459-32.234-.331-.76-.595-1.549-1.117-3.055zm-37.297 9.052c4.446-2.674 5.62-5.628 3.074-8.037-1.341-1.268-3.003-2.195-4.957-1.279-1.749.819-2.972 2.154-3.07 4.179-.144 2.983 1.537 4.548 4.953 5.136zm19.137 17.08c1.786-1.112 1.947-2.51.441-3.89-.803-.737-1.918-.492-2.525.408-1.238 1.837-.427 2.971 2.084 3.482zm-120.172 3.91c-22.788-8.48-22.237-32.502-9.727-48.118 7.825-9.767 18.101-14.223 30.55-10.973 11.711 3.058 19.269 10.744 22.304 22.633 2.407 9.429 3.597 18.692-2.913 27.192-5.351 6.985-12.974 9.75-21.147 11.046-6.262.992-12.639.864-19.066-1.778zm-2.16-50.741c-8.722 8.701-15.153 18.539-11.891 31.473 3.465 13.739 18.524 20.983 34.555 17.383 11.951-2.684 19.861-9.386 20.851-18.721 1.267-11.946-1.881-22.71-11.956-30.029-9.934-7.217-20.516-6.549-31.559-.105zm56.581 56.122c-4.209.688-7.971 1.316-11.465 3.05-3.424 1.698-5.798 4.785-9.152 7.078-1.926-2.593-.625-4.151 1.024-5.668 5.332-4.904 11.541-7.738 18.83-8.169 1.81-.107 3.616-.476 5.394-.865 1.388-.304 2.41-1.146 2.577-2.684.168-1.545-.688-2.394-1.968-3.124-3.727-2.126-7.626-4.729-6.02-9.624 1.713-5.218 6.817-3.588 10.802-3.749 1.295-.052 2.651.282 3.91.666 2.425.741 4.803 1.66 5.224 4.668.398 2.841-1.362 4.571-3.16 6.395-1.606 1.629-5.59 1.456-4.672 4.92.977 3.684 4.572 3.151 7.494 3.557 5.598.778 11.253 1.386 16.327 4.218 2.633 1.47 4.864 3.214 5.04 7.392-12.549-8.133-25.893-9.508-40.183-8.062zm69.142-73.291c-5.417-4.328-11.025-3.304-16.875-.934 1.136-5.118 6.147-7.282 11.947-5.948 7.481 1.721 12.62 7.079 11.491 12.297-3.154-.512-3.827-3.975-6.563-5.416zm-122.046-4.965c-2.126.43-2.416-.686-1.838-1.927 2.081-4.468 5.493-7.509 10.421-8.336 4.914-.825 9.621-.367 13.105 3.858.247.3.103.923.212 2.29-8.249-3.382-15.709-3.134-21.9 4.115zm-2.774 24.505c8.388-5.765 16.963-8.075 26.012-2.867 10.563 6.079 14.21 15.886 13.246 27.534-.728 8.792-9.782 16.951-18.918 17.769-7.785.698-14.933-1.401-21.435-5.36-10.416-6.342-11.958-22.095-3.408-32.62 1.25-1.539 2.8-2.834 4.504-4.457zm22.857 16.189c1.207 2.353 2.748 4.301 5.768 3.508 1.898-.499 3.113-1.832 3.258-3.917.161-2.302-1.084-3.965-2.984-4.722-4.126-1.645-5.803.618-6.042 5.132z"/></svg>