<svg xmlns="http://www.w3.org/2000/svg" width="384" height="320" fill="#000" xmlns:v="https://vecta.io/nano"><path d="M182.998 278.028l-121.941.08c-2.358-.003-6.473 1.408-6.484-2.361-.01-3.53 4.174-2.429 6.539-2.575 5.812-.357 11.655-.272 17.485-.258 3.224.008 4.453-1.08 3.794-4.553-1.863-9.814-3.177-19.714-3.645-29.711-.054-1.147-.094-2.474-.667-3.387-3.633-5.788-5.633-11.984-5.426-18.872.068-2.248-1.838-2.897-3.465-3.785-4.3-2.346-8.419-4.95-11.724-8.427.421-.707.503-.962.583-.961 15.904.177 22.188-12.716 30.663-22.602 1.335-1.557 1.211-3.332.107-5.097-12.549-20.073-13.173-42.158-10.777-64.71 1.301-12.25 3.152-24.414 6.577-36.288.364-1.262.31-2.677 1.554-3.459 1.014-.337 1.725.104 2.173.843 6.605 10.901 16.694 17.939 27.209 24.468 10.743 6.671 21.987 12.7 28.995 23.897 1.164 1.859 2.685 1.275 4.384.712 34.266-11.336 66.233-6.898 95.694 14.169 2.149 1.537 4.071 2.276 6.29.48 14.159-11.46 31.342-15.785 48.339-20.586 3.515-.993 6.889-2.479 10.391-3.531 4.626-1.389 6.492-5.711 9.108-9.098.761.605 1.216.793 1.224.997 1.001 27.588-1.746 54.543-14.263 79.675-4.166 8.364-9.066 16.352-16.876 21.981-2.892 2.084-2.736 4.458-1.473 7.417 4.979 11.661 10.294 23.122 18.047 33.271.589.772 1.427 1.473.66 2.981-3.593.219-5.271-4.424-9.524-3.913-3.494 5.753-7.672 11.496-12.638 16.658-2.825 2.935-.019 5.969.527 8.906.501 2.693 2.875 2.361 4.831 2.371h19.491c2.078.014 4.895-.48 4.789 2.778-.095 2.926-2.779 2.345-4.654 2.351-13.981.046-28.011-.697-41.927.255-9.785.67-19.798.583-29.375 3.459-2.044.613-4.117.268-5.865-.555-10.554-4.965-21.648-3.968-32.752-3.352-5.149.286-10.318.233-15.977.331zm-19.376-71.289c5.252-3.049 6.29-8.279 6.987-13.641 2.509-19.302-9.343-30.17-24.636-31.713-15.022-1.516-30.979 13.547-30.984 28.365-.002 5.652 1.446 7.469 6.885 8.38-.474-1.476-.965-2.846-1.356-4.245-3.475-12.418 6.331-27.469 19.122-29.178 9.734-1.3 17.791 1.858 23.545 9.918 6.19 8.67 6.453 17.921 1.885 27.395-.788 1.633-2.125 3.021-2.764 5.188-10.954 5.125-21.761 3.664-32.895-.926 1.073 3.188 3.275 4.116 6.007 4.717 7.5 1.649 14.886.121 22.291-.608 2.177-.215 4.049-1.46 5.914-3.652zm52.477-81.323c-22.945-7.209-45.73-8.591-68.069 2.178-3.038 1.465-4.452.618-5.885-2.089-3.333-6.295-8.19-11.218-14.053-15.28-13.104-9.079-27.43-16.478-38.771-28.004-.148-.15-.612.011-1.213.04-.267.825-.596 1.734-.857 2.662-2.848 10.146-4.057 20.586-4.727 31.023-1.326 20.64-1.247 41.108 12.501 58.615 1.924 2.45 2.283 5.264.006 7.763-3.249 3.563-6.114 7.438-9.606 10.824-4.692 4.551-8.853 9.644-14.41 13.604 5.955 4.173 7.719 3.831 10.526-1.292 5.345-9.756 8.448-11.175 19.206-8.924 2.115.443 4.272.778 6.426.912 2.929.183 4.846-.804 4.428-4.306-1.475-12.35 5.418-20.822 13.655-28.456 3.943-3.654 8.763-6.197 14.206-6.835 18.849-2.208 34.423 10.71 34.972 29.713.471 16.338-6.856 26.43-24.56 27.579-2.988.194-6.003.288-8.99.132-3.502-.183-4.862 1.239-4.537 4.713.589 6.294-1.173 11.894-5.555 16.511-1.465 1.544-1.56 3.172-1.182 5.058 1.732 8.644 3.675 17.255 5.053 25.955.712 4.496 2.891 5.602 7.062 5.502l58.931-1.117c4.996-.124 9.968-.098 14.959-.012 3.326.058 6.649-.294 7.123-5.042 1.27-12.719 8.668-20.864 21.193-23.041 12.352-2.147 23.003 1.357 31.651 10.634 1.245 1.337 2.101 3.645 4.769 2.662 2.372-.875 8.72-8.919 7.871-10.991-2.115-5.161.442-7.435 4.621-8.797.226-2.515-1.096-4.108-2.01-5.856-3.782-7.238-6.949-14.753-10.101-22.279-1.23-2.936-.909-5.109 1.96-6.744 9.245-5.268 14.549-13.91 19.492-22.852 7.332-13.263 9.489-27.921 11.581-42.618.979-6.882 1.441-13.729.868-21.204l-7.751 2.238-19.151 5.597c-13.605 3.977-27.161 8.374-36.85 19.771-1.915 2.252-3.855 1.855-5.465-.09-7.548-9.116-17.953-13.519-29.316-17.856zM84.102 234.964c.656 10.282 1.106 20.574 3.448 30.684 1.697 7.327 1.958 7.913 9.509 7.925 9.146.014 18.294-.536 27.437-.433 4.788.054 5.69-2.102 4.973-6.156l-4.656-26.983c-.57-3.144-.434-5.444 2.53-7.783 5.961-4.704 5.743-11.682-.177-16.299-2.157-1.683-2.583-3.845-2.773-6.111-.414-4.937-3.548-6.789-7.864-7.547-3.989-.702-7.595-.049-10.367 3.04-10.465-7.37-15.633-5.592-19.008 6.366-.343 1.216-.842 1.967-2.049 2.533-6.601 3.096-8.111 9.277-3.729 15.198 1.094 1.479 2.322 2.834 2.727 5.566zm143.344 30.926c.215 6.722 2.14 9.241 7.727 9.849-1.459-3.799-2.317-7.53.965-11.32 1.302 2.773 2.173 5.252 3.556 7.403 1.466 2.28 4.079 3.191 6.581 2.552 2.397-.612 1.102-3.094 1.396-4.765.235-1.336-.601-3.067 1.296-3.815 1.722.541 1.335 2.205 1.877 3.32 2.522 5.181 6.702 6.279 11.372 2.787 1.033-.772 1.827-1.89 2.646-2.916 1.386-1.737 3.385-1.862 3.937.036 1.717 5.91 5.523 3.348 8.951 3.097-.039-10.581-6.293-18.219-18.456-22.211-11.708-3.842-28.174-.74-31.848 15.983zm-66.785-83.092c-3.838-2.177-6.502-1.581-7.295 1.746-.476 1.998-.285 3.964 1.587 5.321 1.464 1.062 3.216 1.402 4.583.253 2.066-1.737 2.592-4.101 1.125-7.32zm63.864 47.759c-15.419-9.131-18.583-21.913-9.562-37.547 8.096-14.03 25.756-19.048 39.292-11.45 14.486 8.131 18.682 24.533 17.75 36.139-1.039 12.949-13.75 21.327-28.425 19.459-6.653-.847-13.044-2.669-19.055-6.602zm26.716 2.324c9.434-.765 17.468-7.868 17.511-16.663.051-10.369-2.37-20.053-10.608-27.535-12.872-11.691-33.476-7.933-40.799 7.73-1.333 2.852-2.205 5.918-3.301 8.882-1.643 4.44-.754 8.372 2.69 12.616l-.739-4.646c-1.415-11.505 4.722-22.051 16.204-26.318 9.165-3.406 20.565-1.875 27.685 7.944 5.7 7.861 6.326 16.679 2.563 25.12-3.845 8.625-11.834 11.107-20.9 10.312l-8.648-.801c5.649 2.207 11.401 3.614 18.342 3.36zm-16.931-32.885c-.731-1.636-1.941-2.642-3.759-2.818-2.185-.212-3.982.494-4.88 2.571-.908 2.1-.154 3.929 1.579 5.248 1.871 1.425 3.751.906 5.443-.44 1.216-.967 1.956-2.223 1.617-4.56zm-49.765 43.01c-7.166-1.812-10.576-6.866-12.402-12.987-1.157-3.878-1.339-8.046-2.183-13.548 6.72 4.933 12.675 6.463 19.097 1.082 3.493 5.964 8.112 9.108 15.429 5.92-3.978 5.428-4.839 11.793-9.056 16.334-2.851 3.069-6.409 4.021-10.884 3.199zm.089-28.496c-1.417-1.452-2.758-2.527-3.634-3.899-1.988-3.113-.971-5.95 2.582-6.994 4.906-1.441 9.639-.542 13.838 2.224 3.269 2.154 3.308 5.278.513 7.985-3.825 3.705-8.549 4.041-13.299.683zm73.904-60.141l3.965 5.557c1.072 1.39 1.34 2.851-.053 3.948-1.744 1.373-2.837-.256-3.529-1.469-2.453-4.304-5.207-8.239-10.627-8.792-2.709-.276-5.47-.048-8.241-.048 1.761-5.769 10.622-5.46 18.486.804zM139.89 140.817c-1.134.992-1.956 1.884-3.303 1.454-.157-5.995 6.464-10.642 14.68-10.305 5.427.223 8.779 3.257 8.46 8.303-6.701-4.572-13.354-6.686-19.837.548zm-19.634 90.608l-3.332-.307c5.65 7.853 4.337 14.849-3.593 16.171-5.858.976-12.241.751-18.06-.49-6.739-1.437-8.158-7.833-3.811-13.196 1.086-1.339 2.9-2.303 2.486-4.965-3.991 3.112-7.554 2.723-10.115-1.417-2.095-3.387.229-9.112 4.483-11.175 2.24-1.087 3.592-2.844 4.991-4.722 2.43-3.263 5.558-4.112 9.182-2.106 1.63.903 3.052 1.941 5.059.925 4.748-2.403 7.564.055 9.567 4.085.657 1.323.769 2.959 2.838 2.884 5.2-.189 5.699 3.764 6.194 7.406.554 4.074-1.806 6.131-5.89 6.906zm-11.655-8.825c-1.695-1.484-3.201-4.676-6.481-.257 2.741.301 4.582.504 6.481.257z"/></svg>