<?xml version="1.0" encoding="utf-8"?>
<svg width="384" height="320" viewBox="0 0 384 320" fill="none" xmlns="http://www.w3.org/2000/svg">
  <g>
    <path d="M51.5262 169.159C48.7794 170.615 46.7299 169.606 45.0952 167.292C41.54 162.26 37.771 157.253 36.1997 151.233C35.4399 148.323 34.0947 147.662 31.4808 147.331C26.9508 146.757 22.4759 145.749 17.8509 144.899C18.5801 142.228 20.8363 141.912 22.4718 141.054C35.143 134.407 41.89 122.75 48.3639 110.823C49.2089 109.266 48.3206 108.391 47.4684 107.322C40.1026 98.0799 35.4151 87.7615 32.8603 76.0833C28.4528 55.9369 29.0414 35.8155 31.2056 15.5849C31.7506 10.49 33.7014 5.61755 33.479 0.497868C36.6712 -0.999096 38.2652 1.20611 39.6484 2.80945C46.68 10.9601 55.9835 15.8483 65.2189 20.7682C76.0719 26.5498 87.2361 31.8077 96.0792 40.6569C98.3967 42.976 100.591 43.3609 103.651 41.9827C118.578 35.2599 134.367 32.9509 151.156 33.4374C143.433 29.2513 135.171 29.3571 125.788 27.5111C131.235 23.6171 136.335 22.71 141.08 22.2046C156.006 20.6149 169.043 24.2561 178.278 37.3215C180.668 40.7033 185.535 40.1961 188.899 42.4052C191.925 44.393 195.649 45.0885 198.648 47.3632C200.626 48.864 202.8 48.8828 204.777 46.5519C211.939 38.1098 221.288 32.6957 231.193 28.1777C240.126 24.1031 249.119 20.1571 258.138 16.2764C263.28 14.0642 266.546 10.0466 268.648 5.42642C270.855 5.47699 271.258 6.6299 271.362 7.79861C273.37 30.3558 275.104 52.9316 270.256 75.3548C267.189 89.5352 261.871 102.695 251.493 113.304C250.24 114.585 249.531 115.732 250.772 117.634C257.391 127.771 263.131 138.533 273.067 146.142C274.923 147.564 277.83 147.919 278.771 151.011C273.615 152.86 269.095 149.513 264.487 149.396C265.514 157.35 260.396 162.601 256.368 167.984C249.634 176.981 241.215 184.242 231.061 189.33C229.195 190.264 228.083 191.58 229.878 193.636C233.477 197.758 237.224 201.682 241.83 204.759C244.064 206.251 245.164 204.619 246.636 203.721C252.816 199.954 258.975 196.356 266.737 198.928C278.104 202.695 284.366 213.437 281.997 225.24C281.613 227.155 281.538 229.089 278.854 228.569C276.857 228.181 276.189 227.01 275.78 224.795C274.793 219.437 274.286 213.924 271.032 209.108C265.375 200.734 254.493 204.244 249.424 209.666C248.492 210.663 249.1 211.866 249.568 212.953C250.937 216.133 252.254 219.336 253.671 222.494C254.475 224.284 256.231 224.57 257.896 224.595C260.382 224.633 262.877 224.487 265.36 224.304C267.026 224.182 267.921 224.929 268.107 226.474C268.3 228.069 267.409 229.006 265.875 229.208C264.725 229.359 263.549 229.348 262.385 229.351C251.553 229.384 240.722 229.386 229.89 229.434C224.274 229.459 218.818 229.36 213.276 231.626C209.325 233.242 204.438 232.992 199.988 232.87C192.838 232.675 185.882 233.57 178.589 230.265C172.984 227.725 165.599 227.754 158.921 228.557C152.279 229.356 145.607 229.62 138.962 229.309C131.196 228.947 123.825 229.592 116.87 233.532C113.39 235.503 109.483 236.711 105.375 234.988C103.828 234.339 102.405 235.054 101.012 235.499C95.4048 237.291 90.3817 236.053 86.1314 232.258C83.8351 230.207 81.498 229.426 78.4837 229.438C57.1776 229.526 35.871 229.461 14.5646 229.5C5.40338 229.517 5.44495 229.563 2.37529 220.879C-0.738628 212.07 -0.903526 203.353 2.55118 194.563C5.46136 187.158 10.4208 181.762 18.4448 181.217C26.1532 180.692 31.8985 185.353 36.1763 191.468C40.8534 198.155 45.0065 205.182 48.8498 212.389C49.4445 213.504 49.7226 214.972 51.9188 215.578C58.7644 204.939 69.7337 199.252 82.1451 194.246C76.2563 189.469 69.9652 187.902 64.8126 184.349C60.5539 181.412 56.351 178.455 52.5142 174.978C50.8722 173.49 49.8704 171.963 51.7465 169.423C54.3048 168.744 55.6911 169.758 57.1624 171.01C60.5653 173.908 63.9258 176.838 67.7908 179.197C78.875 185.963 89.7509 192.204 103.636 192.332C115.809 192.444 124.875 200.722 127.477 210.995C128.533 215.168 128.227 219.486 128.175 224.366C135.239 224.366 142.032 224.639 148.793 224.293C156.121 223.917 163.456 223.234 170.72 224.417C174.724 225.069 175.395 223.411 175.128 220.09C174.834 216.431 174.807 212.761 176.639 209.389C181.896 199.709 189.923 194.361 201.024 193.862C204.309 193.715 207.41 193.537 210.709 192.335C225.307 187.016 237.876 178.503 249.256 168.266C252.847 165.036 254.953 160.135 257.643 155.938C258.42 154.724 257.429 153.693 256.69 152.829C254.684 150.486 255.837 148.614 257.325 146.599C258.492 145.018 260.736 144.552 261.531 142.387C254.755 134.726 249.665 125.954 244.561 117.182C243.007 114.509 242.678 112.165 245.397 110.176C255.208 102.997 259.724 92.4395 263.254 81.4597C268.267 65.8657 268.473 49.6425 267.886 33.501C267.707 28.5697 268.388 23.2309 266.062 18.1661C260.428 20.803 255.241 23.3928 249.927 25.6872C233.595 32.7388 216.643 38.7499 205.374 53.8413C203.75 56.0164 201.893 54.9291 199.676 54.0687C193.049 51.4975 187.937 44.4248 179.474 47.0246C178.996 47.1713 178.054 46.2762 177.52 45.6911C174.055 41.8952 170.267 38.3553 166.909 34.5356C163.067 30.1659 158.469 28.6999 153.324 27.6786C158.578 31.5071 164.169 34.82 169.102 39.1274C167.553 40.8339 166.129 40.5534 164.908 40.2884C154.358 37.9995 143.772 38.4446 133.111 39.363C122.663 40.2632 112.749 43.168 103.791 48.2403C99.6615 50.5789 97.5843 50.0138 95.0157 47.074C89.8067 41.1118 83.3318 36.7692 76.7195 32.5771C64.1459 24.6056 49.7348 19.6739 38.1203 8.58719C34.991 28.7872 33.6165 48.2009 36.4155 67.7194C38.2538 80.5387 41.8587 93.056 50.614 102.764C55.9463 108.676 54.326 112.834 50.8834 118.047C45.5566 126.112 41.5151 135.104 32.333 141.808C38.8366 141.514 41.6717 144.938 44.7218 148.61C41.3376 150.141 41.5729 152.094 43.6892 154.799C46.244 158.064 48.1688 161.823 51.1747 164.756C52.6278 166.173 52.7495 167.584 51.5262 169.159C51.5262 169.159 51.5262 169.159 51.5262 169.159ZM80.8521 200.842C76.0999 202.875 71.4061 205.112 67.3284 208.267C62.1665 212.26 56.5713 216.145 56.2613 223.688C63.5283 226.382 78.5959 225.058 82.2484 221.375C84.4742 223.303 86.6712 225.295 88.9651 227.169C91.8551 229.53 94.9473 231.625 98.8754 229.757C102.789 227.895 104.156 224.463 104.029 220.315C103.989 219.033 103.535 217.64 105.16 216.885C109.095 220.644 107.68 225.486 107.767 230.183C117.545 228.49 115.881 220.216 116.857 212.56C120.193 216.572 120.436 220.21 121.199 223.97C127.133 213.886 117.091 200.841 108.086 198.417C98.928 195.951 90.3053 198.428 80.8521 200.842C80.8521 200.842 80.8521 200.842 80.8521 200.842ZM223.8 202.366C216.806 200.036 209.62 199.103 202.262 199.346C190.564 199.733 183.203 205.125 180.378 215.413C178.757 221.319 181.483 226.141 187.097 227.296C185.362 219.111 185.728 217.449 189.468 216.522C190.828 225.038 192.561 226.869 199.531 227.047C200.114 223.805 197.573 219.814 201.759 216.905C202.181 217.807 202.541 218.333 202.68 218.912C204.823 227.803 208.065 229.185 215.999 224.392C218.269 223.021 220.226 222.946 222.948 223.479C230.759 225.008 238.69 224.142 246.639 223.77C246.749 218.01 244.208 214.248 240.651 211.095C235.997 206.97 230.482 204.356 223.8 202.366C223.8 202.366 223.8 202.366 223.8 202.366ZM32.8975 197.306C32.2226 196.359 31.5713 195.394 30.8688 194.468C27.7445 190.348 24.0179 186.715 18.4809 187.588C13.1121 188.435 10.3186 192.563 8.30364 197.484C4.83099 205.965 6.22011 213.975 9.51744 222.075C10.5027 224.496 12.0642 224.732 14.1825 224.73C21.6589 224.725 29.1361 224.878 36.6114 224.807C40.5138 224.769 44.4869 225.407 48.9725 224.095C43.5941 215.13 38.4333 206.527 32.8975 197.306C32.8975 197.306 32.8975 197.306 32.8975 197.306Z" fill="#000000" transform="translate(47.479 48.85)" />
    <path d="M53.2406 0.481506C56.203 0.579926 58.5978 1.2464 60.9364 2.15717C63.7208 3.24155 67.2716 3.79121 63.9382 8.1548C62.654 9.83592 64.7478 11.1366 65.5574 12.467C71.8233 22.7634 71.7863 35.9753 65.4839 44.3951C61.9967 49.0538 56.9305 51.4929 51.7201 52.9604C35.9376 57.4055 18.6577 53.2744 9.37341 38.0314C7.80656 35.4589 7.25212 32.8281 7.04289 30.031C6.51353 22.9545 6.56781 22.9504 0 19.8773C1.62053 15.6098 -2.40222 10.1266 2.73651 6.35405C4.82582 7.6991 3.6525 9.17651 3.39711 10.5183C2.87817 13.2447 3.57672 15.597 5.93036 17.052C8.30669 18.5211 10.4576 17.0171 12.3456 15.7398C20.3344 10.3351 28.3854 5.05081 37.6343 1.99954C42.5563 0.375748 47.5878 -0.657486 53.2406 0.481506C53.2406 0.481506 53.2406 0.481506 53.2406 0.481506ZM17.9459 43.4982C22.4972 46.9482 27.5013 49.443 33.0108 51.0228C40.635 53.209 56.9765 50.4663 61.5506 41.6291C51.9684 47.6932 42.121 49.6172 31.9409 44.6855C21.7986 39.7721 17.3711 30.9384 17.321 19.8412C12.1277 21.1744 10.6712 24.0123 10.7032 28.509C10.7459 34.518 13.5658 38.9267 17.9459 43.4982C17.9459 43.4982 17.9459 43.4982 17.9459 43.4982ZM31.0663 22.2127C35.9702 20.3304 37.7985 17.4066 35.4908 14.8823C34.198 13.468 32.6778 11.9398 30.2952 12.6733C27.9188 13.4049 26.6285 15.1534 26.4606 17.4221C26.2654 20.0581 27.8799 21.6721 31.0663 22.2127C31.0663 22.2127 31.0663 22.2127 31.0663 22.2127Z" fill="#000000" transform="translate(212.122 143.95)" />
    <path d="M36.1388 55.0843C28.2925 55.4653 21.1278 55.1719 14.4023 51.3485C0.863358 43.6516 -3.9347 27.4553 3.48081 13.6376C4.92677 10.9433 7.13696 8.33734 4.20796 5.02643C12.2972 -0.288101 20.5453 -1.2402 29.2492 1.47194C38.5237 4.36188 46.8375 9.1855 54.8148 14.6293C55.5012 15.0977 56.1193 15.6776 56.8372 16.086C59.7824 17.7616 62.553 20.7648 66.3252 18.349C69.7807 16.136 69.193 12.7422 68.3635 9.37883C68.2334 8.85146 68.6402 8.1917 69.0464 6.6584C72.5837 10.1049 72.9778 13.4283 71.6563 17.201C70.9726 19.153 69.4417 20.4991 68.0717 21.9362C65.5954 24.5337 64.449 27.3684 64.2917 31.1701C63.8728 41.2917 57.2012 47.2737 48.9107 51.6078C45.1348 53.5817 41.1308 55.4068 36.1388 55.0843C36.1388 55.0843 36.1388 55.0843 36.1388 55.0843ZM41.7805 50.956C44.048 50.4934 46.2634 49.9286 47.8832 47.9023C20.9264 50.11 3.15462 30.213 18.1299 6.78549C15.5093 6.92339 13.1806 7.59706 11.3137 9.4232C-1.19543 21.6593 1.60812 40.3199 15.0316 47.7726C23.2604 52.3412 31.8912 53.5376 41.7805 50.956C41.7805 50.956 41.7805 50.956 41.7805 50.956ZM49.5121 22.9929C51.281 22.5488 53.1122 22.1762 53.283 19.4166C50.8441 17.8435 48.5518 15.7995 45.1064 15.4718C43.8852 19.451 45.493 21.6589 49.5121 22.9929C49.5121 22.9929 49.5121 22.9929 49.5121 22.9929Z" fill="#000000" transform="translate(117.701 140.183)" />
    <path d="M3.26096 28.525C7.26086 23.8218 12.2547 21.8259 17.8084 20.8072C21.2242 20.1807 24.6911 19.4548 25.9928 15.2738C22.9189 12.4307 18.4302 11.4762 16.9988 6.93715C15.9981 3.7637 17.1787 1.5791 19.7374 1.05762C23.8878 0.211792 28.2172 -0.727768 32.5097 0.860245C34.6545 1.65373 36.5453 2.69432 36.7809 5.18474C37.0258 7.7728 36.4524 10.2013 34.1209 11.782C32.2582 13.0448 29.486 13.7016 30.0338 16.7017C30.6696 20.1832 33.9488 20.0338 36.4147 20.356C43.5877 21.2934 49.8343 23.9386 54.9573 29.1249C56.6085 30.7964 58.3949 32.344 57.0875 35.5101C38.053 18.9698 19.0742 17.5084 0.156067 36.5777C-0.531494 32.6438 1.1521 30.6806 3.26096 28.525C3.26096 28.525 3.26096 28.525 3.26096 28.525Z" fill="#000000" transform="translate(173.38 173.176)" />
    <path d="M43 7.6447C41.6715 9.42484 39.2675 9.24197 37.4014 8.29425C28.9638 4.00891 18.8721 2.05688 5.37129 4.13258C3.64975 4.39725 1.63594 4.1198 0 3.12196C1.88312 0.0849686 8.62659 0.00763702 14.489 6.86646e-05C27.9201 -0.0172806 40.0223 3.26164 43 7.6447C43 7.6447 43 7.6447 43 7.6447Z" fill="#000000" transform="translate(226 126)" />
    <path d="M34.9197 1.45352C37.0401 2.36488 39.0718 3.04146 38.0318 4.43007C37.2057 5.53322 35.2572 5.6513 33.6154 5.15462C22.2951 1.72997 13.1073 3.83309 4.85583 8.64542C3.6162 9.3684 2.10144 9.87051 0.183548 9.45541C-2.04591 1.96627 16.4153 -2.45778 34.9197 1.45352C34.9197 1.45352 34.9197 1.45352 34.9197 1.45352Z" fill="#000000" transform="matrix(0.985 0.174 -0.174 0.985 127.403 114.245)" />
  </g>
</svg>
