<svg version="1.1" id="Layer_1" xmlns="http://www.w3.org/2000/svg" xmlns:xlink="http://www.w3.org/1999/xlink" x="0px" y="0px"
	 width="100%" viewBox="0 0 384 320" enable-background="new 0 0 384 320" xml:space="preserve">
<path fill="#000000" opacity="1.000000" stroke="none" 
	d="
M68.128433,194.739624 
	C83.139046,188.876114 91.021698,176.587494 98.280663,163.664108 
	C99.113441,162.181473 99.382202,161.011551 98.181557,159.620300 
	C85.258362,144.645508 81.968430,126.373856 80.947388,107.539619 
	C79.943504,89.021927 82.726501,70.723679 85.458282,52.465508 
	C85.570602,51.714802 86.129822,51.030956 86.433296,50.412792 
	C88.728271,50.211723 89.688889,51.896523 90.658157,53.045246 
	C99.151321,63.110870 110.669861,68.976395 121.785698,75.263634 
	C132.256485,81.186043 142.409866,87.392708 151.092178,96.558899 
	C165.608200,88.232452 181.878922,87.039551 198.212631,85.417328 
	C191.499191,82.725777 184.558472,81.312965 177.423416,81.121880 
	C177.028595,79.176735 178.463623,79.017151 179.414764,78.556892 
	C196.052002,70.506149 216.611771,75.127441 228.198608,89.531090 
	C229.052826,90.592979 229.921722,91.486137 231.242813,91.986275 
	C237.477982,94.346748 243.475906,97.231926 249.293289,100.477554 
	C251.292465,101.592934 252.856079,101.729202 254.540085,99.822617 
	C265.775238,87.102570 281.276367,81.557732 296.284973,75.217171 
	C300.264099,73.536156 304.317657,72.077499 308.232635,70.191330 
	C313.444031,67.680588 316.889404,63.779297 319.263489,58.295563 
	C321.943878,63.146244 322.484711,68.280388 322.815857,73.093521 
	C324.130157,92.197906 324.495056,111.351692 319.999420,130.173492 
	C316.991455,142.766754 312.425659,154.719284 302.958954,164.075058 
	C299.906281,167.091965 300.545502,169.885147 302.534821,172.926849 
	C309.358032,183.359573 315.707916,194.192001 326.544922,201.227798 
	C327.476868,201.832855 328.643677,202.392029 328.397766,204.315170 
	C323.575409,204.799194 319.289734,202.092987 314.062958,201.630997 
	C315.339233,204.033020 314.976776,205.979736 313.826782,208.366455 
	C306.281433,224.026199 294.334259,235.057373 278.993866,242.741653 
	C277.863129,243.308090 276.382111,243.504410 275.816315,245.544083 
	C280.648529,248.110733 285.539734,250.785873 290.508514,253.308182 
	C292.379791,254.258118 293.554413,252.490524 294.919891,251.669876 
	C303.572113,246.469986 312.223846,245.017090 321.085052,251.287308 
	C327.731842,255.990585 331.641541,267.064423 329.453949,274.906677 
	C328.878082,276.971100 327.845795,277.717102 325.925293,277.428528 
	C324.017914,277.141937 323.455078,276.093506 323.233887,274.014557 
	C322.644409,268.474365 321.974548,262.832153 318.491119,258.126770 
	C313.874542,251.890671 304.154755,251.379242 298.753357,256.925964 
	C297.202606,258.518372 297.578888,259.722076 298.698792,261.261047 
	C300.855530,264.224976 302.828033,267.255646 303.412842,271.051178 
	C303.933014,274.427429 306.876312,273.266357 309.020569,273.698700 
	C311.332245,274.164795 315.549438,271.754669 315.550415,275.731354 
	C315.551453,279.833435 311.171509,278.124786 308.689362,278.168640 
	C298.029266,278.356995 287.364075,278.250763 276.700806,278.271088 
	C271.409760,278.281158 266.369446,278.669678 261.111145,280.461151 
	C255.994278,282.204498 249.836044,280.636597 244.431900,281.847382 
	C234.769623,284.012299 226.598846,278.253296 217.388870,277.767456 
	C210.009705,277.378204 202.778839,278.571899 195.549332,278.133057 
	C186.157227,277.562988 177.507568,279.229126 169.309326,283.668945 
	C166.533981,285.171967 163.662292,285.582153 160.634171,284.567322 
	C160.476334,284.514465 160.302170,284.411041 160.155518,284.438324 
	C151.653275,286.019012 143.642776,285.774078 137.248795,278.720795 
	C136.769821,278.192474 135.337051,278.470428 134.347809,278.471619 
	C108.369965,278.502808 82.391914,278.509644 56.414738,278.662720 
	C54.429668,278.674438 53.213577,278.232483 52.437168,276.521881 
	C47.282520,265.165131 45.284222,253.586441 50.864723,241.821030 
	C57.487606,227.857956 70.965668,226.009933 81.459953,237.528137 
	C87.348221,243.990936 90.886581,251.984833 95.308853,259.399628 
	C96.650215,261.648651 97.360619,264.339386 100.113472,266.134277 
	C103.096573,260.524109 105.974937,254.770432 111.992668,251.914368 
	C117.512070,249.294800 123.167152,246.961105 129.281555,244.273270 
	C123.267479,240.537735 117.590042,237.201553 112.109688,233.568100 
	C100.262169,225.713242 90.475349,216.094894 86.342010,201.944153 
	C85.728729,199.844528 84.336266,198.969421 82.417725,198.666077 
	C78.807030,198.095154 75.178734,197.635986 71.566956,197.071487 
	C70.120422,196.845413 67.947845,197.786026 68.128433,194.739624 
M96.446182,210.036667 
	C98.526703,213.605484 102.481483,216.004684 103.004257,220.545624 
	C108.329124,220.397507 110.157326,225.457977 113.765831,227.869308 
	C126.083740,236.100525 137.981995,245.281784 154.329697,241.117233 
	C155.263458,240.879349 156.323044,241.079239 157.318848,241.149384 
	C171.276566,242.132584 183.480484,254.235611 183.259933,266.861816 
	C183.140900,273.676483 183.145370,273.836304 190.227142,273.637909 
	C200.016586,273.363739 209.766479,271.709503 219.603943,273.487183 
	C222.694656,274.045685 222.936417,271.470367 222.592224,269.098145 
	C222.055267,265.397125 222.384598,261.835632 224.028793,258.420929 
	C229.500916,247.056381 241.405960,240.994415 256.378326,242.969696 
	C261.333862,243.623459 265.475952,242.945831 269.766632,240.888031 
	C284.505432,233.819275 297.972595,225.244171 306.437653,210.595322 
	C307.178802,209.312790 308.687531,207.791183 307.863922,206.543045 
	C304.182861,200.964539 307.253113,198.085663 312.257324,195.873047 
	C304.819733,187.662430 299.948669,178.331573 294.451019,169.411575 
	C293.184357,167.356369 292.515503,165.652588 294.914642,163.841248 
	C305.693604,155.703171 310.804657,144.108231 314.442963,131.605484 
	C318.215393,118.641846 318.217957,105.274681 318.551300,91.984726 
	C318.718750,85.308838 317.760040,78.604698 317.275543,71.391617 
	C307.580109,76.645508 297.792877,79.543968 288.598389,83.819504 
	C276.967102,89.228165 265.159332,94.531395 257.193451,105.243561 
	C254.502823,108.861824 252.506531,109.370255 248.830292,106.299660 
	C245.708328,103.691986 241.619705,102.236778 237.945496,100.296806 
	C235.258209,98.877937 232.523483,97.804565 229.808868,99.818672 
	C221.706528,92.214844 216.230072,81.542618 202.384567,80.648079 
	C208.897369,84.609871 214.975693,87.352402 219.668243,92.328423 
	C217.063812,94.323387 215.124725,93.065758 213.258667,92.773598 
	C193.023163,89.605461 173.298599,90.978531 154.945999,100.660469 
	C150.616943,102.944260 148.779083,102.367844 146.033203,99.000023 
	C142.791992,95.024734 138.823822,91.697876 134.599106,88.700996 
	C123.980301,81.168304 111.934921,76.041687 101.172157,68.766212 
	C97.408134,66.221786 93.747131,63.524967 89.946701,60.832298 
	C89.590042,61.664925 89.400345,61.956261 89.339111,62.272472 
	C86.190117,78.533195 85.526016,94.859703 86.601608,111.427139 
	C87.735542,128.893082 92.117043,144.812683 103.797546,158.232986 
	C105.473145,160.158157 105.189644,162.017776 104.056267,164.183243 
	C98.643761,174.524551 92.972794,184.651550 83.144058,192.175232 
	C85.403191,193.028015 87.270172,193.608017 89.026123,194.426270 
	C91.367607,195.517395 94.102478,197.568787 93.450890,199.818115 
	C92.261627,203.923462 94.372246,206.474442 96.446182,210.036667 
M156.283371,277.837921 
	C159.657242,274.681183 158.257233,270.240082 158.826599,265.766235 
	C164.241257,269.521271 163.132523,274.542755 163.037460,279.195618 
	C167.553116,279.077362 168.745880,275.750824 170.614151,273.062714 
	C172.760956,269.973877 169.615036,266.668610 171.014145,263.545563 
	C173.572784,263.816223 174.078369,265.725769 174.687683,267.372223 
	C175.328751,269.104431 175.684021,270.942444 176.305115,273.260162 
	C178.548264,266.965210 178.089020,262.631714 175.192108,257.921997 
	C169.551865,248.752304 160.809494,245.556961 150.803375,246.530075 
	C140.754028,247.507401 130.754395,249.550415 121.259605,253.206635 
	C114.379677,255.855942 108.705734,260.210480 105.876648,267.315735 
	C104.065247,271.865051 105.311752,273.644806 109.919487,273.691315 
	C115.913177,273.751831 121.908546,273.647705 127.902145,273.712250 
	C131.233841,273.748108 134.567047,273.995209 136.644821,270.851746 
	C139.442627,271.643311 140.398163,274.031158 142.172012,275.464325 
	C146.204651,278.722473 150.319550,281.477081 156.283371,277.837921 
M237.173798,251.554337 
	C231.167999,254.729950 228.577423,260.157471 227.542526,266.492188 
	C226.790878,271.092987 229.104538,274.300049 234.340134,276.062042 
	C233.854416,272.119141 232.600327,268.012451 236.516724,264.462646 
	C238.836044,274.516998 239.992722,275.861115 246.126892,276.088837 
	C248.248444,273.408325 244.898666,269.054169 248.409286,266.845001 
	C249.601685,266.983154 249.916809,267.576233 250.044678,268.240784 
	C251.682953,276.756104 256.343445,278.731934 263.469360,273.397064 
	C266.062683,271.455597 268.375824,269.171143 271.312897,272.960754 
	C271.702271,273.463135 273.188385,273.167297 274.165375,273.153656 
	C278.827240,273.088440 283.490234,273.042145 288.149658,272.890839 
	C291.192993,272.792053 294.385712,273.644836 297.257111,271.927948 
	C297.036224,267.921082 294.867889,265.188202 292.637665,262.479980 
	C285.541382,253.862961 275.188660,251.812820 265.223236,249.492126 
	C256.093872,247.366119 246.744400,247.020813 237.173798,251.554337 
M86.090492,255.431839 
	C83.564934,250.745377 80.705566,246.269623 77.351425,242.136749 
	C70.020294,233.103546 60.491848,234.727936 56.162525,245.560318 
	C52.903553,253.714584 53.259224,261.661163 56.390949,269.745575 
	C57.443645,272.463074 58.844486,273.667145 61.817425,273.639130 
	C71.945564,273.543671 82.075668,273.667480 92.205048,273.676361 
	C93.325142,273.677338 94.584351,273.872894 95.434418,272.375244 
	C93.489532,266.482880 88.609703,262.010437 86.090492,255.431839 
z"/>
<path fill="#000000" opacity="1.000000" stroke="none" 
	d="
M243.251190,200.039810 
	C238.132660,198.144379 233.863647,195.524734 230.251160,192.039597 
	C222.067764,184.144638 221.465103,174.931702 225.107346,164.535095 
	C234.331650,138.204697 260.813080,138.850189 273.759583,150.849838 
	C283.406250,159.790985 288.246979,171.552475 284.766479,185.243225 
	C282.727509,193.263702 271.971405,201.036575 261.861023,202.075195 
	C255.660034,202.712204 249.559219,202.184418 243.251190,200.039810 
M250.705246,198.732010 
	C254.526382,198.999924 258.342834,199.283783 262.171112,198.761856 
	C273.894012,197.163589 283.846252,186.833725 282.505859,176.719254 
	C281.451416,168.762665 278.705414,161.236343 272.833099,155.235153 
	C260.765228,142.902420 239.509735,145.243469 232.526505,158.327438 
	C233.850723,157.170258 234.560059,156.551163 235.268570,155.931122 
	C247.434479,145.284164 263.471680,147.322815 272.303650,160.795502 
	C279.303528,171.473373 278.795197,190.680862 259.834473,196.042404 
	C256.665802,196.938431 253.468002,197.731308 250.705246,198.732010 
M237.076355,163.911499 
	C234.493912,166.294250 234.646194,168.878281 236.831314,171.309814 
	C238.289474,172.932404 240.236755,173.357193 242.187622,171.986572 
	C244.103439,170.640564 245.318405,168.781464 244.329849,166.467392 
	C243.087891,163.560150 240.931503,162.033447 237.076355,163.911499 
z"/>
<path fill="#000000" opacity="1.000000" stroke="none" 
	d="
M126.489899,152.659149 
	C137.414780,131.124725 167.343979,131.570648 178.694809,150.206650 
	C189.228287,167.500748 188.512268,191.177597 160.900482,197.463257 
	C150.568039,199.815399 140.747711,198.909134 132.047180,192.225708 
	C121.963013,184.479401 118.598091,173.224045 122.802902,161.231567 
	C123.790154,158.415848 125.110710,155.717026 126.489899,152.659149 
M177.341141,183.761047 
	C181.937881,178.372849 181.465240,171.947281 180.649246,165.666306 
	C177.935318,144.776321 157.158875,134.052170 138.840912,144.165756 
	C130.976120,148.508011 128.125381,156.602142 125.480629,164.540710 
	C122.565071,173.292145 125.939621,183.489594 133.313629,189.073822 
	C146.881592,199.348663 165.366974,197.351166 177.341141,183.761047 
z"/>
<path fill="#000000" opacity="1.000000" stroke="none" 
	d="
M262.228851,112.603432 
	C261.243988,110.847008 262.150482,109.852028 263.125000,108.901596 
	C273.895630,98.397346 285.498749,89.242035 300.377350,85.117882 
	C308.714386,82.806976 312.005127,85.320061 311.386780,94.015060 
	C311.251556,95.916695 311.634521,97.973022 310.149475,100.165352 
	C305.501587,94.336143 300.420502,96.565758 295.351471,98.888809 
	C289.667511,101.493652 284.309937,104.183388 279.499634,108.697060 
	C275.325348,112.613953 268.556274,112.883804 262.228851,112.603432 
z"/>
<path fill="#000000" opacity="1.000000" stroke="none" 
	d="
M210.796387,199.519012 
	C196.610916,197.528732 184.629425,200.353287 176.225815,213.160873 
	C173.944000,209.490158 176.062027,207.230072 177.778427,205.277817 
	C182.220688,200.225098 187.897079,197.382751 194.607025,196.360291 
	C197.722870,195.885498 201.550797,195.897095 202.235718,191.277557 
	C200.851593,189.263809 198.331024,188.908951 196.540863,187.483200 
	C194.305023,185.702530 192.872055,183.526932 193.361465,180.628220 
	C193.868774,177.623505 196.339371,177.134506 198.904465,176.501022 
	C202.301147,175.662186 205.534225,176.256180 208.792374,176.844971 
	C211.267319,177.292252 213.079849,178.804245 213.622955,181.332520 
	C214.164398,183.853043 213.091583,185.873734 211.072449,187.397247 
	C210.408920,187.897873 209.664505,188.293411 209.014389,188.809204 
	C207.794479,189.777023 205.571060,190.071991 206.077438,192.308517 
	C206.646164,194.820358 208.754547,195.616135 211.012894,195.774460 
	C217.132202,196.203476 222.819885,197.890594 227.795410,201.520340 
	C230.375504,203.402557 233.428787,205.149719 232.816910,210.419174 
	C226.299026,204.310287 219.668228,199.891891 210.796387,199.519012 
z"/>
<path fill="#000000" opacity="1.000000" stroke="none" 
	d="
M266.722809,124.233818 
	C268.397583,126.265991 270.219391,127.927544 268.431152,131.243195 
	C261.776154,124.495888 254.453293,120.007454 244.393463,125.862144 
	C247.428284,117.208138 257.595337,116.945236 266.722809,124.233818 
z"/>
<path fill="#000000" opacity="1.000000" stroke="none" 
	d="
M138.907516,120.063766 
	C143.687653,113.510597 149.964951,112.636948 156.899658,114.410866 
	C158.926056,114.929222 161.646133,115.430260 160.754517,119.615532 
	C152.074097,115.041191 145.073410,117.920135 139.306137,124.542770 
	C137.043594,123.019463 138.235703,121.679886 138.907516,120.063766 
z"/>
<path fill="#000000" opacity="1.000000" stroke="none" 
	d="
M277.415771,115.392303 
	C278.847473,114.591347 280.142609,113.467361 281.178284,115.048019 
	C282.100739,116.455795 281.041992,117.608368 279.901093,118.370880 
	C278.175720,119.523987 276.671692,121.352585 273.858551,120.618774 
	C273.585083,118.026512 275.740112,117.032471 277.415771,115.392303 
z"/>
<path fill="#000000" opacity="1.000000" stroke="none" 
	d="
M136.746185,109.897301 
	C134.897125,109.035606 132.815781,109.007607 132.402145,106.523232 
	C134.505707,104.293671 136.502319,105.586655 138.394272,106.801559 
	C139.324615,107.398987 140.461166,108.258713 139.979462,109.546066 
	C139.407013,111.075943 138.112930,110.332497 136.746185,109.897301 
z"/>
<path fill="#000000" opacity="1.000000" stroke="none" 
	d="
M156.460785,142.390472 
	C171.883652,144.299744 178.538376,158.396332 177.107895,172.490112 
	C175.969864,183.702576 163.304947,193.088898 151.305252,190.705246 
	C136.098022,187.684464 126.819603,181.241776 128.051941,164.946732 
	C129.078217,151.376328 141.582520,141.439224 156.460785,142.390472 
M169.652878,163.211182 
	C169.875443,160.186874 168.873856,157.938538 165.622681,157.402802 
	C163.089417,156.985336 161.600189,158.281311 160.814499,160.666183 
	C160.003525,163.127792 160.794373,164.916367 162.951797,166.076813 
	C165.799072,167.608337 168.050415,166.930069 169.652878,163.211182 
z"/>
</svg>