<svg xmlns="http://www.w3.org/2000/svg" width="384" height="320" fill="#000" xmlns:v="https://vecta.io/nano"><path d="M67.917 195.9c2.216-4.014 6.687-4.46 10.031-6.72 9.825-6.64 14.917-16.821 20.937-26.358 1.093-1.732-.099-2.804-1.05-3.935-10.886-12.943-14.504-28.381-16.202-44.765-2.242-21.644 1.387-42.716 4.432-64.2 1.05.218 1.92.128 2.221.499 10.166 12.518 24.352 19.381 37.913 27.155 8.236 4.721 16.207 9.873 22.756 16.876 1.379 1.475 2.523 1.642 4.335.78 14.901-7.085 30.889-8.699 47.155-9.398-7.433-2.724-15.051-4.552-23.23-5.205 3.941-3.361 8.888-4.688 13.664-5.346 14.899-2.053 27.63 2.199 37.056 14.495 1.041 1.357 2.251 2.459 3.919 2.954 6.103 1.809 11.743 4.645 17.267 7.746 1.646.924 3.252 1.655 4.939-.129 12.676-13.402 29.405-19.724 45.986-26.336 3.697-1.474 7.144-3.567 10.814-5.118 4.646-1.962 6.123-6.581 9.055-11.549 2.212 6.95 2.836 12.848 3.215 18.636 1.066 16.288 1.263 32.581-1.923 48.736-2.979 15.104-7.914 29.286-19.084 40.447-2.449 2.447-1.659 4.489-.327 6.638 6.926 11.183 13.62 22.583 25.145 29.908.706.449 1.367.942 1.366 2.314-4.869 1.625-9.063-2.338-14.299-1.869 1.52 2.331.692 4.249-.396 6.578-7.237 15.482-19.215 26.014-34.08 33.716-1.276.66-2.897.913-3.733 2.811 4.38 3.516 9.944 4.996 14.661 7.963 1.761 1.107 3.107-.475 4.513-1.269 5.127-2.892 10.366-5.571 16.506-4.672 11.847 1.734 20.916 15.008 18.407 26.75-.911 4.259-2.889 4.522-8.055.79 1.703-2.177 3.031-4.288.132-6.941-1.351-1.236-1.505-3.931-1.906-6.021-.935-4.869-4.007-7.616-8.612-8.571-4.913-1.019-9.188.644-12.808 4.026-1.433 1.339-.841 2.493.184 3.891 1.468 2.002 3.377 4.13 3.726 6.413.89 5.823 4.394 6.651 9.213 6.038 1.659-.212 3.639-.405 3.709 2.061.079 2.769-2.121 2.491-3.937 2.496l-40.992.057c-2.718-.006-5.211.303-7.628 1.778-4.416 2.696-9.568 1.33-14.204 1.386-5.361.064-11.031 2.237-16.13-.06-5.279-2.378-10.698-3.059-16.286-3.688-11.838-1.333-23.562 1.093-35.38.967-3.741-.04-7.517 3.142-11.272 4.862-.603.276-1.222.948-1.76.877-9.52-1.262-20.189 4.912-28.483-4.363-1.332-1.49-3.168-1.673-5.055-1.654-25.981.258-51.967-.587-77.942.454-1.83.074-3.385-.092-4.146-1.94-4.351-10.571-6.655-21.328-2.486-32.537 2.651-7.129 7.076-12.63 15.072-13.617 8.23-1.016 14.13 3.722 18.486 9.796 4.833 6.738 8.723 14.157 12.938 21.33.849 1.446 1.436 3.016 3.856 3.973 5.05-12.884 16.883-17.128 28.843-21.051-.634-2.695-2.781-2.7-4.242-3.546-9.03-5.226-17.432-10.912-24.971-18.536-6.519-6.593-10.962-13.607-13.96-21.995-.764-2.139-2.651-2.2-4.495-2.463-4.408-.628-8.802-1.351-13.377-2.347zm72.24 45.854c6.95.74 13.836-1.179 20.884.023 11.797 2.011 22.443 13.731 22.225 25.355-.122 6.52-.121 6.59 6.755 6.535 9.786-.08 19.545-2.166 29.369-.152 3.138.643 3.731-1.613 3.211-4.054-.84-3.941-.17-7.546 1.587-11.114 5.591-11.356 16.935-17.447 31.844-15.319 6.976.995 12.19-1.643 17.874-4.187 10.108-4.526 18.901-10.944 26.377-19.024 3.458-3.738 8.53-8.537 7.192-13.031-1.743-5.85-.179-8.287 4.671-10.656-6.436-7.51-11.044-15.792-16.052-23.821-2.586-4.147-4.155-7.608 1.755-10.28 1.565-.707 2.849-2.331 3.921-3.786 6.083-8.259 10.493-17.321 12.967-27.322 2.207-8.923 3.384-18.008 3.789-27.14.468-10.562.622-21.17-1.369-32.235-7.535 4.124-15.146 6.923-22.594 10.097-14.383 6.13-29.005 12.041-38.761 25.32-1.866 2.539-3.548 1.61-5.894.222-6.035-3.573-11.343-9.379-19.561-7.357-.552.136-1.49-.656-2.032-1.224-2.975-3.119-6.209-6.064-8.741-9.518-4.428-6.041-10.889-7.336-17.478-8.648 6.081 3.611 12.368 6.864 17.686 12.206-2.804 1.423-4.725.465-6.645.168-21.092-3.263-41.499-1.85-60.46 9.011-2.079 1.191-3.297.754-4.676-.88-8.2-9.719-18.691-16.4-29.735-22.351-9.76-5.259-19.467-10.613-28.24-18.466-3.445 16.009-4.453 31.37-3.834 46.864.726 18.161 4.682 35.301 16.577 49.684 2.626 3.175 2.318 5.797.51 9.014-5.451 9.698-10.766 19.474-20.637 26.579 5.149 1.17 8.908 3.38 11.894 7.34-2.798 2.105-2.111 4.483-.28 7.086 3.863 5.49 7.978 10.591 12.942 15.296 9.414 8.923 20.341 14.848 32.96 19.764zm-15.008 9.822c-1.551.606-3.154 1.107-4.644 1.836-6.403 3.136-12.256 6.96-14.714 14.124-1.599 4.659-.46 6.11 4.364 6.159l14.498-.01c2.992-.031 7.149 1.029 8.748-.512 4.333-4.177 5.931-.569 8.305 1.716.96.923 1.851 1.995 2.976 2.655 3.221 1.892 6.642 3.451 10.296 1.219 3.395-2.074 4.309-5.307 3.573-9.104-.248-1.278-.782-2.681 1.377-3.328 3.911 3.469 3.597 8.086 2.725 13.43 8.587-3.102 9.449-9.279 7.839-17.12 4.728 2.462 4.03 6.833 5.983 9.872 1.603-2.423 1.447-4.793 1.249-7.082-.787-9.108-8.134-16.369-18.442-18.316-11.575-2.186-22.331 2.209-34.132 4.461zm138.052 22.162c1.7-.836 3.132-3.547 5.142-2.141 3.602 2.518 7.393 1.25 11.09 1.368 5.897.187 11.805.05 18.285.05-1.233-7.951-5.377-12.683-10.944-15.77-11.847-6.571-24.685-9.757-38.308-8.917-11.538.712-19.739 7.834-20.864 17.761-.601 5.308 1.477 8.403 6.597 9.727-.011-3.625-2.066-7.699 2.06-10.837 3.261 10.061 5.037 11.817 10.773 10.904.44-3.079-1.539-6.582 1.4-9.389 7.576 11.219 7.576 11.219 14.769 7.244zM88.315 260.154c-4.02-6.872-7.382-14.203-13.235-19.828-4.447-4.274-10.368-5.014-13.909-1.566-9.717 9.462-9.155 22.517-3.533 33.559.744 1.461 2.207 1.207 3.531 1.214l28.91.127c1.684-.006 3.67.762 5.251-1.31l-7.015-12.196zm192.295-67.607c-13.951 14.092-35.902 11.077-46.557 2.676-14.045-11.075-13.009-19.31-7.932-32.897 4.392-11.756 13.136-18.939 26.032-19.071 12.536-.129 22.413 5.142 28.43 16.711 5.606 10.778 8.084 21.476.027 32.582zm-15.015-38.782c2.057 2.175 4.286 4.215 6.142 6.549 9.073 11.409 4.451 29.476-8.936 34.646-3.979 1.537-8.22 2.396-13.046 3.766 4.578 0 8.442.368 12.212-.071 10.276-1.197 19.518-9.264 20.452-18.329.8-7.761-2.45-14.804-6.531-21.086-10.65-16.393-36.141-15.366-42.792-1.633 11.126-9.165 21.492-10.567 32.498-3.841zm-28.747 10.56c-2.231 2.062-2.005 4.347-.522 6.671.99 1.552 2.522 2.06 4.294 1.778 1.995-.317 3.245-1.58 3.823-3.44 1.221-3.929-2-6.42-7.595-5.009zm-112.669 19.207c-8.713-16.671 4.029-38.838 14.997-43.933 18.813-8.739 38.778.889 43.924 21.327 1.927 7.652 2.672 15.411-1.619 22.748-5.036 8.61-13.147 12.371-22.404 14.203-14.211 2.813-27.926-2.79-34.897-14.344zm45.816 7.04c8.453-5.333 11.804-12.946 11.039-22.899-1.553-20.204-20.835-32.913-38.973-25.268-9.464 3.989-13.559 12.373-16.422 21.492-3.26 10.382.38 20.667 9.576 26.549 11.204 7.167 22.675 6.514 34.78.126zm8.925 13.375c4.831-4.052 9.827-6.833 15.902-7.408 1.791-.17 3.754-.562 5.236-1.493 2.248-1.412 3.319-3.418.278-5.361-.14-.089-.295-.154-.443-.231-4.009-2.099-8.264-4.657-5.962-9.858 2.01-4.541 6.923-3.583 11.048-3.332.496.03.984.171 1.48.234 3.088.392 6.117 1.064 6.885 4.657.787 3.678-1.369 5.918-4.321 7.643-1.354.791-3.436 1.13-3.052 3.383.399 2.334 2.263 3.225 4.335 3.509 6.987.956 13.852 2.187 19.271 7.263 1.988 1.862 4.35 3.597 2.781 8.026-7.38-10.515-18.563-12.469-28.981-12.228-10.27.237-21.479 2.449-26.749 15.081-2.835-5.04.344-7.132 2.291-9.884zm69.172-79.3c-1.188.651-2.13 1.172-3.057.393-.809-.68-.45-1.463.034-2.203 2.011-3.081 9.317-4.766 13.898-3.196 6.173 2.116 10.189 6.689 9.807 12.245-5.975-5.615-11.631-11.462-20.682-7.239zm-87.514-5.494c-4.241-1.17-8.004-2.479-12.36-1.142-3.931 1.207-6.313 4.463-10.147 7.11-.56-5.247 2.356-7.529 5.239-9.364 5.171-3.293 10.725-2.681 16.12-.363 1.453.625 3.201 1.59 1.148 3.76zm-14.85 24.237c10.558-3.142 19.468-.683 25.998 7.442 6.82 8.484 7.412 21.931 2.338 29.626-5.628 8.535-13.976 11.218-23.485 9.698-12.548-2.005-25.02-8.913-21.992-26.654 1.71-10.017 7.658-16.271 17.141-20.111zm23.363 21.16c1.388-3.125.632-5.613-2.511-6.963-1.985-.853-3.924-.396-5.173 1.66-1.267 2.085-1.301 4.259.367 5.976 2.158 2.221 4.62 2.436 7.317-.673z"/></svg>