<svg version="1.1" id="Layer_1" xmlns="http://www.w3.org/2000/svg" xmlns:xlink="http://www.w3.org/1999/xlink" x="0px" y="0px"
	 width="100%" viewBox="0 0 384 320" enable-background="new 0 0 384 320" xml:space="preserve">
<path fill="#000000" opacity="1.000000" stroke="none" 
	d="
M102.005821,221.015518 
	C98.144424,222.258835 95.648376,220.824509 94.026245,217.203888 
	C91.656815,211.915283 87.749245,207.331039 86.748787,201.416168 
	C86.432816,199.548019 85.044815,199.058517 83.538956,198.785812 
	C80.265533,198.192963 76.981697,197.647934 73.688759,197.176712 
	C72.082703,196.946869 70.295578,197.291443 69.371017,195.368469 
	C69.603783,193.204483 71.519020,193.064270 72.972427,192.465912 
	C86.590897,186.859390 94.127678,175.214569 101.735909,163.620667 
	C102.677269,162.186157 102.218216,161.158371 101.194237,160.101532 
	C90.183418,148.737396 87.627731,134.102570 86.057098,119.341187 
	C83.696884,97.159081 86.429024,75.223633 90.608856,53.438850 
	C90.761230,52.644684 91.026207,51.872128 91.297508,50.872936 
	C95.018890,51.550079 96.342934,54.787376 98.320702,56.942467 
	C108.346382,67.867020 121.767433,73.739525 134.013702,81.333260 
	C141.007217,85.669830 147.333664,90.748718 153.013855,96.634758 
	C154.806076,98.491928 156.413651,99.688545 159.065048,98.618111 
	C173.734100,92.695854 189.122803,91.601784 204.712631,91.894814 
	C205.847565,91.916153 206.983261,91.897621 208.179169,91.528046 
	C200.994827,87.672600 192.565491,87.936165 184.387863,84.784760 
	C198.923370,78.157280 220.115768,78.847878 230.624619,90.925194 
	C234.894363,95.832214 239.613297,99.579552 245.487518,102.176025 
	C248.820587,103.649284 252.106094,105.386497 254.700119,108.042587 
	C256.734100,110.125252 258.599976,109.574532 260.346436,107.897980 
	C272.696991,96.041779 288.381592,90.440712 303.866058,84.355995 
	C309.421661,82.172882 314.653656,79.144775 319.962402,76.366814 
	C321.749847,75.431480 323.068817,73.875832 323.792023,71.902153 
	C324.271790,70.592758 324.919403,69.307762 326.635895,69.840286 
	C327.954346,70.249329 328.161255,71.508995 328.161011,72.713470 
	C328.159088,82.198708 329.819000,91.635612 329.061615,101.137978 
	C328.030945,114.068916 327.689087,127.133438 324.100220,139.687500 
	C320.435974,152.505157 316.262817,165.216934 305.463440,174.228088 
	C303.323547,176.013641 303.455566,177.989014 304.570129,180.008835 
	C310.432526,190.632889 315.843231,201.605774 326.155823,208.924698 
	C327.570862,209.928970 329.519623,210.726471 328.852997,213.233414 
	C326.707794,214.878769 324.752106,213.336670 322.847473,212.676773 
	C319.584595,211.546310 317.453430,212.301956 316.079254,215.612900 
	C310.615814,228.776749 300.376434,237.613297 288.901672,245.297760 
	C287.427399,246.285110 285.408875,246.628662 284.856506,248.701050 
	C289.061920,253.676437 291.093323,254.039078 296.407928,251.035355 
	C304.485321,246.470169 312.590881,245.195190 320.704803,251.030518 
	C327.706787,256.066162 330.253937,263.204254 329.956482,271.430786 
	C329.880798,273.524689 330.672607,276.940155 326.944641,277.338196 
	C323.029999,277.756134 322.406555,274.139374 320.946564,271.781982 
	C320.491028,271.046448 321.103882,269.649200 321.390686,267.113678 
	C322.369781,268.879608 322.753632,269.571899 323.169434,270.321869 
	C324.641327,268.024261 319.487915,257.925476 315.686462,255.092880 
	C310.463715,251.201233 303.151184,252.746109 297.386353,259.163422 
	C299.957581,263.038544 302.790924,266.838623 303.633942,271.795563 
	C304.106354,274.573395 307.232880,273.261810 309.228302,273.655304 
	C311.541779,274.111542 315.691193,271.815002 315.667755,275.874756 
	C315.646118,279.627441 311.500214,278.143524 309.126770,278.182098 
	C298.629730,278.352631 288.128296,278.230469 277.629089,278.303619 
	C272.028503,278.342621 266.629944,278.425964 261.051056,280.557068 
	C256.334442,282.358734 250.566620,281.200989 245.344910,281.931244 
	C234.540878,283.442200 224.867691,277.851074 214.325043,277.470978 
	C203.142349,277.067780 192.061447,278.452972 180.930359,278.728729 
	C176.840256,278.830048 172.912567,283.784424 168.353851,284.001343 
	C158.630402,284.463989 148.276352,288.585144 139.549500,280.411224 
	C137.307144,278.310974 134.327530,278.337158 131.507492,278.365692 
	C118.883774,278.493408 106.251228,279.102722 93.641075,278.782410 
	C83.814835,278.532837 73.991882,278.501434 64.167793,278.381134 
	C61.681152,278.350708 59.162884,278.421265 56.711540,278.791931 
	C54.821461,279.077728 53.314522,278.885437 52.520679,277.079285 
	C47.162697,264.888641 44.785294,252.557678 51.729053,240.153824 
	C59.734020,225.854294 73.912407,227.271713 83.281113,239.589706 
	C88.495560,246.445740 92.701088,254.095184 96.649513,261.812378 
	C97.383438,263.246857 97.913765,264.969269 100.652275,265.261536 
	C105.010780,252.839096 116.658890,249.368240 128.846497,244.821884 
	C118.528839,240.097488 110.534477,234.250763 103.493591,227.126587 
	C101.983887,225.599045 99.237732,224.338028 102.187454,221.156204 
	C104.908485,220.536987 107.074989,221.004013 108.179504,222.716751 
	C110.344292,226.073639 113.513359,228.346542 116.620140,230.391769 
	C126.929855,237.178726 136.587189,244.506226 150.856232,241.446579 
	C167.280655,237.924728 182.945465,251.064468 183.337250,266.602264 
	C183.516068,273.694519 183.521805,273.875183 190.637375,273.649048 
	C200.260696,273.343231 209.842560,271.716583 219.512863,273.510193 
	C222.486679,274.061798 222.860153,271.792053 222.554718,269.221130 
	C221.594162,261.136261 224.621445,254.594238 230.815994,249.500778 
	C239.658386,242.230164 250.043686,242.143204 260.719177,243.066971 
	C266.146088,243.536560 271.893829,246.006180 276.952881,244.073959 
	C289.059113,239.450226 299.458405,232.047943 307.252991,221.425461 
	C308.643860,219.530014 310.467072,216.983826 309.442322,215.077545 
	C306.628967,209.844193 308.045044,207.011276 313.716064,205.825195 
	C313.261017,204.801636 313.132385,204.075989 312.709808,203.626984 
	C305.956787,196.451569 302.946472,187.071198 298.065155,178.796875 
	C296.866150,176.764450 296.102905,174.964127 298.763000,172.812653 
	C311.983429,162.119949 318.009369,147.415512 320.699768,131.176102 
	C322.299988,121.517235 323.422028,111.760971 324.302826,102.007301 
	C324.918030,95.194557 325.604340,88.234917 322.987885,80.926041 
	C315.286469,85.398376 307.712494,88.421295 300.093201,91.149117 
	C286.004272,96.193176 272.537079,102.116409 262.403870,113.577805 
	C259.664673,116.676048 257.453339,116.134613 254.723907,114.142166 
	C252.840790,112.767532 251.051132,111.193192 248.998337,110.139320 
	C245.810089,108.502548 242.703384,105.608597 239.154343,106.076355 
	C236.243332,106.460030 234.830780,105.626198 233.257355,103.750015 
	C231.445984,101.590157 229.618698,99.476830 227.977768,97.151352 
	C224.222580,91.829643 219.516464,87.636932 211.825333,86.401604 
	C216.861420,90.907387 222.548187,93.224571 226.349823,98.058601 
	C223.679977,100.617264 221.098862,99.161278 218.620575,98.638901 
	C217.174652,98.334137 215.800095,97.467293 214.362122,97.382149 
	C195.447403,96.262115 176.679611,96.695847 158.857773,104.209175 
	C155.506592,105.621948 153.442307,104.486824 151.442017,102.235893 
	C146.772064,96.980789 141.543869,92.370308 135.735825,88.418785 
	C125.149910,81.216614 113.624519,75.513084 103.254768,67.936012 
	C100.709602,66.076279 99.056313,62.650238 95.661835,62.479195 
	C94.173897,63.221985 94.141968,64.330215 93.933289,65.259071 
	C90.627945,79.971550 90.111465,94.961510 90.515533,109.905746 
	C90.997101,127.716545 93.234192,145.217712 106.807297,158.818466 
	C108.824661,160.839935 107.814491,162.902603 106.738533,165.191696 
	C101.803627,175.690750 94.453003,184.328049 85.870697,192.439758 
	C90.122307,194.368637 93.770256,196.472275 96.580864,199.336700 
	C96.289543,201.454453 93.537994,200.824600 93.747597,203.096207 
	C95.840927,207.004913 97.654419,211.269791 100.900330,214.768402 
	C102.413750,216.399658 103.884438,218.545502 102.005821,221.015518 
M142.672379,275.897186 
	C145.803207,278.164124 149.072113,280.614502 153.138565,279.546265 
	C160.143814,277.705994 157.821289,270.917145 159.075882,265.578644 
	C164.137619,269.698212 163.423477,274.548035 162.814484,279.758087 
	C171.516754,276.787354 171.339050,270.134277 170.300293,262.686310 
	C175.392029,265.123260 175.757584,268.874359 176.202347,272.875458 
	C177.801407,270.102356 177.945526,267.400848 177.493439,264.588837 
	C175.609299,252.869537 163.514038,244.609741 150.467194,246.540329 
	C139.948578,248.096817 129.535248,250.261566 119.581039,254.197647 
	C113.024582,256.790192 108.461876,261.333893 105.956512,267.927338 
	C104.345917,272.165985 105.352859,273.641998 110.059517,273.674835 
	C116.720894,273.721313 123.383118,273.661133 130.044861,273.623840 
	C131.036682,273.618286 132.464325,273.887421 132.951096,273.354401 
	C137.328125,268.561584 139.631119,272.375427 142.672379,275.897186 
M293.309296,263.236908 
	C279.953400,250.417175 263.635681,247.101120 245.947128,248.970306 
	C236.688858,249.948669 230.441452,255.169754 227.882599,264.385162 
	C226.370239,269.831726 228.545822,273.994751 233.960632,275.861481 
	C234.295853,272.171539 232.149170,267.833679 236.588226,264.583893 
	C238.786148,274.933868 240.337967,276.542603 246.462784,275.341675 
	C247.169235,268.413483 247.169235,268.413483 249.089233,266.727875 
	C250.482498,267.563416 250.052399,269.069733 250.385834,270.288361 
	C251.756699,275.298431 255.583389,277.234406 260.372040,275.125122 
	C262.175018,274.330933 263.807343,273.115814 265.441071,271.982483 
	C266.542114,271.218689 267.487091,270.218933 269.000854,270.943573 
	C278.212097,275.352783 287.681366,271.799774 297.364258,272.766388 
	C296.997162,268.733521 295.692413,266.130493 293.309296,263.236908 
M54.168980,253.373260 
	C52.894459,259.375732 54.954266,264.835754 56.811188,270.365906 
	C57.562645,272.603851 58.654400,273.401154 61.124065,273.388275 
	C71.280052,273.335205 81.437347,273.590942 91.594658,273.664307 
	C93.007301,273.674500 94.628052,274.127808 95.915245,272.497620 
	C90.991714,264.106110 86.102966,255.630081 81.050346,247.252884 
	C79.597366,244.843842 77.861610,242.539841 75.926872,240.499252 
	C70.326736,234.592789 63.959702,234.852936 58.814938,241.142853 
	C56.120731,244.436737 54.833553,248.382797 54.168980,253.373260 
z"/>
<path fill="#000000" opacity="1.000000" stroke="none" 
	d="
M279.501282,161.547516 
	C283.128876,165.789276 285.610748,170.284851 287.130188,175.258286 
	C292.905518,194.162140 285.423859,204.720734 268.477631,209.585678 
	C256.222992,213.103745 236.417892,208.104248 228.408585,193.599335 
	C227.021774,191.087814 225.721512,188.446060 225.768631,185.613327 
	C225.966812,173.693039 230.906525,158.699905 244.066681,153.127991 
	C255.406311,148.326843 270.100372,151.541306 279.501282,161.547516 
M277.408630,173.436386 
	C280.682007,181.483551 279.902283,189.100616 274.770386,196.129150 
	C269.613403,203.192093 261.457123,204.253571 253.038696,206.030746 
	C257.704132,207.950119 261.731201,207.036499 265.626465,206.655380 
	C275.891754,205.651062 284.282410,197.358871 285.537750,187.199081 
	C286.318787,180.878204 282.921204,175.718491 280.586243,170.211594 
	C275.122803,157.326599 260.627716,153.190979 248.740753,156.055710 
	C245.226517,156.902649 241.790649,158.002365 239.103149,162.026672 
	C241.485931,160.934418 243.083389,160.161057 244.713058,159.462799 
	C249.705826,157.323593 254.863998,156.094757 260.249756,157.581818 
	C268.339355,159.815414 273.569153,165.358246 277.408630,173.436386 
M238.591171,174.036697 
	C237.843338,177.536652 239.547821,179.499466 242.782867,180.061310 
	C245.623672,180.554657 246.909607,178.411697 247.827271,176.197586 
	C248.914490,173.574402 246.990921,172.034012 245.239471,170.982605 
	C242.411163,169.284729 240.201996,170.440598 238.591171,174.036697 
z"/>
<path fill="#000000" opacity="1.000000" stroke="none" 
	d="
M317.130310,110.712158 
	C315.422668,113.790962 313.889130,112.623322 313.163910,110.644875 
	C312.112518,107.776749 310.278442,107.768692 307.694855,107.827156 
	C300.703339,107.985359 294.773102,111.055077 289.280365,114.688011 
	C283.770508,118.332245 277.960724,120.068710 271.530212,120.309166 
	C270.224426,120.357986 268.718201,120.621742 268.184845,118.938217 
	C267.758392,117.592255 268.813507,116.862061 269.662109,116.041100 
	C282.326599,103.789108 296.893555,94.929138 314.167633,90.764862 
	C318.154510,89.803757 319.110687,92.120392 318.879547,95.062447 
	C318.478455,100.166962 318.796997,105.369370 317.130310,110.712158 
z"/>
<path fill="#000000" opacity="1.000000" stroke="none" 
	d="
M187.314758,168.996521 
	C188.984879,187.111252 180.874207,197.765610 163.200500,200.712280 
	C153.048294,202.404892 143.373734,201.291275 134.667618,194.995590 
	C126.197746,188.870728 121.726219,177.380539 124.581245,167.245178 
	C127.071037,158.406448 131.647644,150.761444 138.712616,144.747528 
	C146.774628,137.884903 163.059952,137.791321 172.580032,144.061218 
	C181.515930,149.946381 185.245880,158.675140 187.314758,168.996521 
M134.496368,155.405258 
	C120.733452,173.510544 128.401978,190.210052 143.371460,196.132629 
	C155.264496,200.838043 166.933746,199.063156 177.210556,191.077393 
	C180.083542,188.844879 182.187149,185.912933 183.351196,182.211670 
	C186.573593,171.965698 181.786728,152.096893 167.699097,145.658066 
	C155.929977,140.278915 140.697189,144.463348 134.998779,155.004623 
	C134.998779,155.004623 135.023529,154.979553 134.496368,155.405258 
z"/>
<path fill="#000000" opacity="1.000000" stroke="none" 
	d="
M177.683838,216.025543 
	C176.737015,211.525635 179.462723,207.422028 184.972290,204.702042 
	C188.270874,203.073593 191.705414,201.873779 195.453888,201.728928 
	C197.787491,201.638748 200.145920,201.333359 202.209961,200.173889 
	C205.022552,198.593918 205.959702,196.815704 202.486694,194.749710 
	C198.876389,192.602020 194.308136,190.092804 195.828369,185.396835 
	C197.354111,180.683868 202.656448,181.755890 206.720749,181.750198 
	C208.353058,181.747910 210.075989,181.937256 211.602249,182.478043 
	C216.745697,184.300522 217.695312,188.692368 213.827560,192.536758 
	C212.898804,193.459900 211.672318,194.080902 210.594498,194.857162 
	C207.276840,197.246552 207.397491,199.198669 211.218475,200.811981 
	C213.488617,201.770508 215.969528,202.274536 218.392868,202.816650 
	C224.433914,204.168106 229.599930,206.906815 233.443863,211.886353 
	C234.430191,213.164062 235.972763,214.270966 234.502380,216.136292 
	C232.735901,216.658096 232.166763,215.138535 231.309891,214.264771 
	C228.714508,211.618118 225.831955,209.504120 222.308899,208.174469 
	C210.434479,203.692917 198.720688,202.753052 186.751587,208.207794 
	C182.791519,210.012558 181.548599,214.182724 177.683838,216.025543 
z"/>
<path fill="#000000" opacity="1.000000" stroke="none" 
	d="
M273.226257,137.526184 
	C272.521515,139.864716 271.246155,139.624496 270.256226,138.379486 
	C265.780090,132.749908 260.426483,130.185577 253.264313,132.912384 
	C252.351044,133.260071 251.282715,132.895584 250.414856,131.584747 
	C251.413849,127.595093 254.991241,127.493507 258.101257,127.483566 
	C265.226410,127.460770 271.646606,131.768234 273.226257,137.526184 
z"/>
<path fill="#000000" opacity="1.000000" stroke="none" 
	d="
M163.555344,119.164772 
	C164.769791,120.076141 165.933456,120.752716 165.337814,122.141319 
	C164.864624,123.244476 163.748657,123.362556 162.808334,122.865875 
	C156.324722,119.441223 151.062454,121.544342 146.336487,126.356682 
	C145.626495,127.079659 144.758926,127.581772 143.660461,127.166672 
	C142.383560,119.677521 152.957108,115.253471 163.555344,119.164772 
z"/>
<path fill="#000000" opacity="1.000000" stroke="none" 
	d="
M284.095276,127.968658 
	C281.244629,128.935272 280.334778,127.871132 281.836823,125.798210 
	C283.325928,123.743172 285.074493,121.577820 288.244354,121.164825 
	C289.484863,125.063377 286.119141,125.959808 284.095276,127.968658 
z"/>
<path fill="#000000" opacity="1.000000" stroke="none" 
	d="
M292.867615,163.355042 
	C291.909546,162.891891 291.061340,162.549454 290.697296,161.924820 
	C290.240631,161.141312 290.181000,160.126419 289.704590,158.239059 
	C292.032654,159.948669 294.079498,159.172363 296.079529,159.566452 
	C295.850006,161.642578 294.763611,162.687164 292.867615,163.355042 
z"/>
<path fill="#000000" opacity="1.000000" stroke="none" 
	d="
M134.987869,155.018677 
	C138.069305,152.800903 141.085693,150.453674 144.268509,148.359360 
	C153.145660,142.518127 168.538696,145.007492 174.389145,153.706985 
	C180.805252,163.247604 182.706467,173.643478 177.193665,184.354401 
	C174.798935,189.007111 170.356705,191.735016 165.497604,193.080872 
	C154.427597,196.146927 144.626587,192.697495 136.578491,185.211960 
	C129.890915,178.991837 128.919632,168.682632 132.929245,160.248199 
	C133.637848,158.757629 134.271606,157.231461 134.981720,155.350647 
	C135.023529,154.979553 134.998779,155.004623 134.987869,155.018677 
M169.118164,161.265213 
	C165.103119,160.945618 163.036209,162.606583 163.951172,166.763031 
	C164.508057,169.292862 166.420227,170.619705 168.986496,170.827682 
	C171.178116,171.005325 172.334930,169.639114 172.950897,167.765198 
	C173.965622,164.678162 172.545135,162.708633 169.118164,161.265213 
z"/>
</svg>