<?xml version="1.0" encoding="utf-8"?>
<svg width="384" height="320" viewBox="0 0 384 320" fill="none" xmlns="http://www.w3.org/2000/svg">
  <g>
    <path d="M76.7995 205.275C53.471 205.285 30.6424 205.299 7.81387 205.305C6.3149 205.305 4.81134 205.301 3.3182 205.189C1.79996 205.074 0.0919647 204.88 0.00411987 202.906C-0.0961151 200.653 1.64863 200.237 3.41883 200.217C9.25007 200.152 15.082 200.147 20.9137 200.125C23.0438 200.117 25.1741 200.124 27.5792 200.124C26.489 190.445 25.3719 181.425 24.4965 172.382C24.0519 167.79 24.1297 163.375 20.6928 159.414C18.0885 156.413 17.8669 151.925 17.8215 147.969C17.7806 144.402 16.3728 142.655 13.2797 141.179C8.78063 139.032 4.98015 135.798 1.68603 132.078C2.1235 131.512 2.34953 131.021 2.5088 131.042C14.8357 132.65 21.1482 124.148 27.5955 116.026C34.0273 107.924 33.8438 107.919 29.0385 99.0634C24.0419 89.8557 21.3065 79.8753 20.5882 69.4868C19.0226 46.8428 22.2561 24.6768 28.0714 2.83479C28.3472 1.79919 28.3349 0.4244 29.7713 0.00150299C31.2313 -0.0494537 31.7254 1.20508 32.3197 2.09601C39.0567 12.1959 48.5497 19.1828 58.6948 25.3807C68.9912 31.6711 78.6104 38.7449 86.3317 48.1303C87.8807 50.013 89.3327 50.7423 91.8844 49.6811C115.332 39.9296 138.802 42.3209 162.132 50.0884C171.165 53.0958 179.764 57.1666 187.128 63.4115C189.239 65.2018 191.013 65.1837 193.279 63.3683C205.098 53.9013 219.005 48.8984 233.383 44.9188C238.031 43.6324 242.584 42.0065 247.19 40.5668C252.944 38.7682 257.258 35.1885 259.461 29.6371C261.879 30.7328 261.758 32.1454 261.751 33.446C261.639 55.824 260.651 78.1357 252.92 99.4386C248.463 111.723 242.655 123.412 232.008 131.73C228.403 134.547 228.81 137.478 230.417 140.94C235.533 151.968 240.725 162.95 248.184 172.665C248.676 173.305 249.313 173.909 248.689 175.159C244.76 174.67 242.114 170.921 237.517 170.487C239.342 172.569 238.419 174.204 237.232 175.864C234.816 179.245 232.896 182.992 229.875 185.928C226.787 188.927 226.225 192.16 227.936 196.255C229.099 199.038 230.557 200.101 233.483 200.027C240.312 199.853 247.146 199.896 253.978 199.886C255.76 199.883 258.001 199.471 257.869 202.337C257.759 204.738 255.754 204.549 254.122 204.559C241.806 204.628 229.488 204.798 217.175 204.646C209.999 204.557 202.96 205.444 195.919 206.544C190.896 207.329 185.707 206.598 180.78 208.515C179.144 209.152 176.962 208.822 175.472 207.712C169.302 203.113 161.969 204.224 155.242 204.21C129.262 204.159 103.28 204.858 76.7995 205.275C76.7995 205.275 76.7995 205.275 76.7995 205.275ZM77.0701 183.634C77.7269 187.062 78.6405 190.466 78.9777 193.926C79.4337 198.605 81.4268 200.324 86.3563 200.21C111.253 199.634 136.159 199.44 161.061 199.061C164.959 199.001 167.236 197.758 167.685 192.975C168.486 184.443 172.561 177.554 180.732 173.641C190.619 168.905 200.334 169.653 210.114 174.012C215.709 176.505 219.722 180.852 223.701 185.743C225.515 183.548 226.884 181.896 228.248 180.24C229.726 178.445 232.525 176.129 231.742 174.504C229.113 169.05 232.323 166.545 235.864 164.164C235.869 161.883 234.611 160.461 233.768 158.863C229.958 151.644 226.49 144.27 223.441 136.692C222.436 134.193 222.411 132.176 224.976 130.712C233.144 126.047 237.849 118.353 242.509 110.631C251.276 96.1048 253.346 79.7314 255.536 63.3836C256.457 56.5167 256.87 49.6648 256.246 42.3271C249.393 45.2173 242.894 47.2138 236.375 49.1632C220.87 53.7994 205.322 58.3636 193.354 70.2566C191.176 72.4209 189.002 72.0915 186.86 69.8862C179.961 62.7833 171.381 58.3377 162.177 55.1895C137.999 46.9206 113.782 44.4125 89.8367 56.0347C87.1133 57.3566 85.9313 56.394 84.626 54.3121C80.4943 47.7224 75.0043 42.3962 68.6978 37.9493C61.6254 32.9623 54.4451 28.1237 47.2218 23.3569C41.5735 19.6294 36.8895 14.7294 31.6949 10.0776C27.2262 24.0264 26.3974 37.7533 25.4802 51.5628C24.2035 70.7859 26.9846 88.7259 38.7371 104.538C40.1497 106.438 40.3445 108.022 38.8189 109.895C35.9836 113.375 33.1263 116.847 30.4804 120.47C26.2641 126.244 20.6533 130.658 15.2416 135.365C23.1952 141.765 23.9862 141.629 27.8973 133.785C31.5084 126.542 38.4066 123.498 46.3337 126.209C49.9701 127.452 52.9823 127.459 56.056 124.916C54.6393 118.353 54.9854 112.116 58.582 106.135C64.9544 95.5384 72.9154 87.1124 86.0473 86.1547C103.958 84.8486 118.242 99.652 117.905 118.742C117.647 133.37 110.48 140.886 95.9464 142.735C90.3369 143.449 84.8104 142.686 78.8185 142.586C83.0877 151.1 82.0271 158.321 75.7861 164.598C74.2824 166.11 73.9727 167.686 74.3399 169.573C75.1971 173.979 76.0894 178.379 77.0701 183.634C77.0701 183.634 77.0701 183.634 77.0701 183.634ZM36.9145 200.058C47.7439 200.099 58.5772 199.988 69.4012 200.251C74.1867 200.367 75.0261 198.467 74.1825 194.187C72.4789 185.543 71.16 176.823 69.6881 168.134C69.1728 165.092 69.2491 162.743 72.4069 160.494C78.2452 156.336 78.0212 148.589 72.238 144.618C69.8147 142.954 69.4208 140.731 68.7431 138.349C66.757 131.367 59.2184 128.389 53.3838 132.513C51.3498 133.951 50.1347 134.056 48.2249 132.54C44.5382 129.613 40.5834 129.958 36.5067 131.988C31.7045 134.379 32.0109 138.822 32.1238 143.247C28.2172 143.501 24.9647 144.523 24.2812 148.508C23.5582 152.723 23.6099 156.921 27.9937 159.508C29.4899 160.391 29.7859 161.631 29.6816 163.307C29.0255 173.84 30.4877 184.207 32.5172 194.494C32.9388 196.631 33.0594 199.333 36.9145 200.058C36.9145 200.058 36.9145 200.058 36.9145 200.058ZM221.897 194.72C217.545 180.292 205.684 175.213 192.633 175.816C181.306 176.339 174.044 182.984 172.327 192.466C171.257 198.376 174.373 202.684 180.012 202.936C178.676 199.373 177.437 195.814 181.249 191.896C182.508 195.947 183.349 199.636 187.236 201.146C191.099 202.645 192.304 201.892 192.47 197.823C192.538 196.146 191.728 194.162 193.628 192.943C193.915 193.032 194.151 193.032 194.207 193.132C199.917 203.352 200.667 203.476 209.328 195.635C211.269 193.877 212.646 194.72 213.643 196.673C214.13 197.626 213.141 199.073 215.003 199.954C217.131 198.365 223.394 203.491 221.897 194.72C221.897 194.72 221.897 194.72 221.897 194.72ZM113.456 110.239C111.692 103.196 108.411 97.2654 101.789 93.5704C82.2869 82.689 64.626 96.0989 59.1981 114.105C56.8342 121.947 59.9588 126.446 66.3642 127.217C61.8058 113.026 66.1912 100.244 77.3212 95.2802C89.0271 90.0592 100.873 93.5912 107.403 104.034C111.042 109.852 111.906 116.185 111.22 122.748C110.506 129.576 106.706 134.513 99.1128 138.064C108.321 136.287 112.24 132.507 113.738 125.402C114.752 120.591 114.856 115.824 113.456 110.239C113.456 110.239 113.456 110.239 113.456 110.239ZM97.9251 110.059C95.3421 112.463 95.5091 114.945 97.7874 117.413C99.3446 119.099 101.207 119.428 103.125 118.094C105.28 116.595 106.157 114.523 104.902 112.063C103.55 109.413 101.595 107.885 97.9251 110.059C97.9251 110.059 97.9251 110.059 97.9251 110.059ZM72.5942 134.292C73.0782 135.984 74.0147 137.529 75.7805 137.747C81.6736 138.476 87.5465 140.04 93.5826 138.583C86.2196 138.581 79.7665 134.768 72.5942 134.292C72.5942 134.292 72.5942 134.292 72.5942 134.292Z" fill="#000000" transform="translate(55.201 72.728)" />
    <path d="M18.4857 4.92412C19.9442 6.97772 21.1357 8.77696 22.4503 10.4812C23.5227 11.8716 23.7907 13.3317 22.3969 14.429C20.6528 15.802 19.5594 14.173 18.8679 12.9596C16.4147 8.65521 13.6608 4.72031 8.24066 4.16808C5.53154 3.89204 2.77106 4.12 0 4.12C1.7612 -1.64857 10.6217 -1.34044 18.4857 4.92412C18.4857 4.92412 18.4857 4.92412 18.4857 4.92412Z" fill="#000000" transform="translate(239 162)" />
    <path d="M3.30537 8.86824C2.17186 9.85994 1.34917 10.7526 0.00274658 10.3225C-0.154709 4.32733 6.46716 -0.319916 14.6826 0.0172577C20.1095 0.239975 23.4612 3.27403 23.1428 8.32063C16.4418 3.74837 9.78835 1.63464 3.30537 8.86824C3.30537 8.86824 3.30537 8.86824 3.30537 8.86824Z" fill="#000000" transform="translate(135 144)" />
    <path d="M56.3999 51.5919C51.658 56.7419 45.9342 58.4974 39.4963 58.3192C28.748 58.0216 18.8489 54.9384 10.0617 48.729C0.305679 41.835 -2.11024 33.9263 1.75272 22.645C7.49277 5.88196 21.8203 -2.83875 37.6506 0.829147C45.9148 2.74396 52.0577 7.62486 56.1668 14.8948C61.534 24.3906 66.255 41.2738 56.3999 51.5919C56.3999 51.5919 56.3999 51.5919 56.3999 51.5919ZM17.4437 48.7039C25.2869 52.7809 33.5601 54.7249 42.4487 54.105C52.3427 53.4149 59.9274 44.5569 58.7013 34.726C58.0416 29.4361 56.7971 24.2663 54.6857 19.3384C49.53 7.30499 36.5159 1.19556 23.8039 4.46892C13.5581 7.10722 8.70909 14.6981 5.20872 23.6684C1.70973 32.6351 2.86299 37.1137 10.5739 43.9176C12.6839 45.3579 14.7939 46.7982 17.4437 48.7039C17.4437 48.7039 17.4437 48.7039 17.4437 48.7039Z" fill="#000000" transform="translate(207.985 178.739)" />
    <path d="M1.17873 10.2037C0.783905 6.88742 0.451782 3.96942 0 0C6.7718 4.83139 12.9354 5.69594 19.4837 0.297318C22.1466 7.44092 27.0429 8.37125 33.654 5.81596C29.0868 10.4528 29.0718 16.5506 25.7158 20.9729C21.4523 26.591 11.9767 26.6834 6.69489 21.1195C3.88005 18.1543 2.15941 14.5745 1.17873 10.2037C1.17873 10.2037 1.17873 10.2037 1.17873 10.2037Z" fill="#000000" transform="translate(169.463 217.896)" />
    <path d="M6.5961 12.5993C2.7818 10.393 -1.49504 8.15862 0.513 3.45139C2.41223 -1.00073 7.17366 -0.184647 11.0767 0.681107C14.907 1.53069 19.4425 2.2995 19.1456 7.68787C18.925 11.691 13.3468 14.1507 7.89194 13.0785C7.57083 13.0154 7.26877 12.8555 6.5961 12.5993C6.5961 12.5993 6.5961 12.5993 6.5961 12.5993Z" fill="#000000" transform="translate(179.6 203.588)" />
    <path d="M25.3821 4.87943C25.6822 6.93179 26.5567 8.6424 28.1581 10.0247C31.2542 12.6974 32.4984 15.9308 30.5259 19.7957C28.4722 23.8195 24.8853 25.5562 20.5966 25.0029C17.1107 24.5531 13.7816 24.428 10.265 24.8738C6.0962 25.4023 2.77438 23.1855 0.973549 19.4394C-0.89817 15.5458 -0.0730057 12.0222 3.46648 9.23752C4.49303 8.4299 5.31327 7.32248 6.10612 6.26135C11.9352 -1.54007 17.3926 -2.05142 25.147 4.72812C25.4071 4.91682 25.3821 4.87943 25.3821 4.87943C25.3821 4.87943 25.3821 4.87943 25.3821 4.87943Z" fill="#000000" transform="translate(89.59 224.071)" />
    <path d="M24.0857 10.5577C18.962 15.6149 18.0951 15.6711 12.2496 11.1375C9.40156 12.5944 6.61118 15.3651 2.32137 12.6612C1.18042 11.2309 0.590218 10.2713 0 9.31175C0.21405 8.69003 0.583145 8.07637 0.615921 7.44525C0.776833 4.34711 1.23653 1.33295 4.68126 0.253555C8.26195 -0.868439 10.0184 1.9449 12.2428 4.54204C14.0686 1.76141 16.3169 -0.799515 19.8256 0.569778C23.874 2.14975 24.0458 6.03822 24.1621 10.1331C24.0964 10.5486 24.0857 10.5577 24.0857 10.5577C24.0857 10.5577 24.0857 10.5577 24.0857 10.5577Z" fill="#000000" transform="translate(92.904 209.451)" />
    <path d="M2.01342 1.90994C4.61253 -0.213333 7.2571 -1.01489 9.82088 1.87743C12.2038 4.56575 12.3787 10.1901 10.1057 12.4C6.52856 15.878 3.51697 13.7034 0.284843 11.0648C-0.0179825 10.8666 0.0069809 10.904 0.0212097 10.9212C-0.120186 8.0182 0.43911 5.24811 1.8884 2.2834C1.99878 1.92502 2.00954 1.91599 2.01342 1.90994C2.01342 1.90994 2.01342 1.90994 2.01342 1.90994Z" fill="#000000" transform="translate(114.99 218.084)" />
    <path d="M8.90546 0.80043C9.84205 1.89162 10.4323 2.85121 11.2525 4.06947C11.5217 4.82584 11.5298 5.32832 11.6051 5.82051C12.1374 9.29941 11.4213 12.1125 7.71607 13.4509C5.50979 14.2478 3.54703 14.3402 1.86475 12.2994C-0.61377 9.29257 -0.460419 6.14275 1.3773 3.02188C3.01207 0.245682 5.39324 -0.905655 8.90546 0.80043C8.90546 0.80043 8.90546 0.80043 8.90546 0.80043ZM7.44943 4.78221C6.50729 3.52141 5.34574 2.98682 4.22988 4.39708C3.15612 5.75414 3.85137 7.22043 4.53006 8.56334C4.93826 9.37105 5.6869 9.91811 6.53421 9.57918C8.6067 8.75015 8.22723 7.06396 7.44943 4.78221C7.44943 4.78221 7.44943 4.78221 7.44943 4.78221Z" fill="#000000" transform="translate(83.652 217.831)" />
    <path d="M10.3236 41.5121C8.21365 40.0718 6.10368 38.6315 3.62962 36.6256C-2.13123 27.2548 -0.540939 18.7994 4.94141 10.8257C10.6357 2.54362 18.8573 -1.40555 28.6921 0.451797C38.0066 2.21089 44.7878 8.22954 46.8892 17.6513C50.4432 33.5861 45.1663 44.1586 26.884 44.6675C21.1 44.8285 15.7697 42.9456 10.3236 41.5121C10.3236 41.5121 10.3236 41.5121 10.3236 41.5121ZM17.5901 13.4998C15.4279 11.3098 12.9353 10.7868 10.5505 12.8274C8.71049 14.4017 8.62134 16.5766 10.0487 18.6443C11.2483 20.3822 12.7823 21.8874 14.9845 20.7484C17.6065 19.3923 19.6632 17.4587 17.5901 13.4998C17.5901 13.4998 17.5901 13.4998 17.5901 13.4998ZM31.5883 35.9643C29.9797 34.3967 29.0028 35.126 28.3767 36.8871C28.0068 37.9276 28.1523 39.047 29.3648 39.1997C31.1859 39.4292 32.0862 38.4063 31.5883 35.9643C31.5883 35.9643 31.5883 35.9643 31.5883 35.9643Z" fill="#000000" transform="translate(214.565 185.465)" />
  </g>
</svg>