<svg version="1.1" id="Layer_1" xmlns="http://www.w3.org/2000/svg" xmlns:xlink="http://www.w3.org/1999/xlink" x="0px" y="0px"
	 width="100%" viewBox="0 0 384 320" enable-background="new 0 0 384 320" xml:space="preserve">
<path fill="#000000" opacity="1.000000" stroke="none" 
	d="
M325.970093,204.392670 
	C321.903809,203.515854 318.194794,202.676025 313.519012,201.617279 
	C316.065887,204.309875 315.243896,206.231552 314.048950,208.635315 
	C306.601227,223.617264 295.332550,234.654510 280.509735,242.220688 
	C279.212433,242.882874 277.720703,243.373337 276.697662,245.236176 
	C280.719238,248.929428 286.059662,250.531296 290.659149,253.307098 
	C292.398834,254.356979 293.690887,252.503082 295.083069,251.710403 
	C301.992188,247.776550 309.070129,245.471191 316.930481,249.010590 
	C325.741974,252.978287 331.391571,263.118256 329.831207,272.666260 
	C329.491730,274.743591 329.860352,277.951080 326.198364,277.367737 
	C323.072205,276.869812 320.697021,275.132233 320.793823,271.559875 
	C320.893341,267.886108 321.195557,264.223877 319.780945,260.706482 
	C315.964996,251.218353 305.527008,250.326202 297.341217,259.086975 
	C299.977112,263.095001 302.760315,267.096893 303.824646,272.120270 
	C304.356323,274.629791 307.588470,273.262817 309.604279,273.663483 
	C311.749908,274.089996 315.538483,271.766510 315.621552,275.719421 
	C315.698486,279.379456 311.915009,278.169800 309.669830,278.195679 
	C298.838806,278.320465 288.005585,278.239410 277.173401,278.286011 
	C271.730164,278.309448 266.444244,278.178253 261.099304,280.576874 
	C257.545929,282.171539 252.898026,282.004608 248.831512,281.630859 
	C241.430939,280.950592 234.189728,282.595581 226.470123,279.425812 
	C219.153748,276.421600 210.217545,276.476868 201.861206,277.690857 
	C199.894196,277.976624 197.871628,278.414642 195.927139,278.229919 
	C186.434418,277.327942 177.533783,279.003235 169.211700,283.725647 
	C166.486755,285.271912 163.553665,285.578735 160.509018,284.706512 
	C159.715866,284.479279 158.782135,284.080688 158.080139,284.298828 
	C150.525864,286.645996 144.115967,285.161163 138.475571,279.403137 
	C136.549332,277.436707 133.315018,278.455078 130.767517,278.456512 
	C105.946274,278.470398 81.120239,277.889404 56.305019,278.793488 
	C54.618591,278.854919 53.264114,278.700958 52.554855,277.109863 
	C47.117069,264.911133 44.933174,252.565826 51.737282,240.152100 
	C59.413155,226.147888 74.062088,226.848160 83.534531,240.060669 
	C88.659584,247.209290 93.274498,254.770782 97.107407,262.740784 
	C97.710449,263.994751 98.552971,264.949036 100.238419,266.310944 
	C105.007401,253.278793 116.331604,248.617508 129.000671,244.778198 
	C124.910980,240.767380 120.267242,239.579880 116.556351,236.932846 
	C110.630402,232.705765 105.121849,228.128662 99.700676,223.227829 
	C94.762749,218.763840 90.787498,213.795593 88.929420,208.233490 
	C86.195000,200.048096 81.242210,197.705246 73.592751,197.709625 
	C71.781471,197.710663 69.581406,197.898697 67.847260,196.443329 
	C68.090607,194.066895 70.185410,193.824265 71.724792,193.126221 
	C85.168266,187.029968 92.375191,175.292679 99.058075,163.067093 
	C99.882332,161.559219 98.940468,160.578247 98.046318,159.550995 
	C87.291161,147.194626 83.551025,132.230133 81.696121,116.445778 
	C79.256668,95.687271 82.214394,75.263596 84.953850,54.807056 
	C85.168686,53.202839 85.185715,51.449390 87.178886,50.238106 
	C92.396141,53.597210 95.895294,59.003502 101.031715,62.678123 
	C111.491035,70.160767 123.155441,75.556992 133.872665,82.567810 
	C139.207932,86.057961 144.082504,90.020065 148.595200,94.452400 
	C150.020630,95.852425 151.033661,96.800369 153.247498,95.787857 
	C167.560730,89.241547 182.589401,86.131645 198.358566,86.811348 
	C198.926590,86.835831 199.501892,86.691025 201.447205,86.466843 
	C192.826492,83.411621 185.295380,82.036812 177.640320,81.971153 
	C177.296310,79.530411 178.826874,79.161530 179.942749,78.694298 
	C195.770004,72.067207 214.703018,73.162247 228.126572,89.807442 
	C228.747162,90.576981 229.357819,91.622314 230.190750,91.910805 
	C237.449341,94.424759 244.181488,98.084076 251.104279,101.326515 
	C252.682831,102.065849 253.570724,101.003883 254.518173,100.039413 
	C266.135376,88.213661 280.745392,81.469864 295.908722,75.659973 
	C299.016266,74.469307 302.148010,73.320580 305.176361,71.948906 
	C311.331116,69.161179 316.971039,65.740631 318.878540,57.987843 
	C322.374268,61.151878 321.425812,64.625854 321.810699,67.462128 
	C324.853333,89.883972 324.901611,112.275856 319.114105,134.320374 
	C316.085297,145.857040 311.283630,156.655197 302.489380,165.151520 
	C300.586334,166.990112 300.451691,168.520325 301.737579,170.798767 
	C308.216370,182.278717 314.907898,193.525894 326.334015,200.992950 
	C329.060028,202.774429 328.927429,202.977325 325.970093,204.392670 
M271.148834,240.669052 
	C285.218079,233.290604 298.733582,225.253769 306.699127,210.651123 
	C307.390320,209.383972 308.955200,208.102783 307.998840,206.614044 
	C304.535553,201.222748 307.943115,198.470673 312.237244,195.978790 
	C304.560669,187.899277 300.084808,178.133301 294.356842,169.188095 
	C293.175568,167.343323 293.151001,165.879501 294.992035,164.448639 
	C306.196472,155.740570 311.295105,143.428619 314.896240,130.303574 
	C318.453461,117.338493 318.789062,104.001877 318.439453,90.715248 
	C318.277130,84.546005 318.495758,78.202469 316.980225,71.666870 
	C311.074707,74.862480 305.407379,77.194809 299.743744,79.567078 
	C283.802185,86.244347 267.511505,92.480103 256.231689,106.675270 
	C254.271942,109.141518 252.507736,108.589821 249.830246,107.333847 
	C243.678040,104.447906 238.795837,97.852768 230.641663,100.232048 
	C230.107651,100.387863 229.015182,99.686501 228.621414,99.092758 
	C226.277512,95.558495 222.207199,93.589348 220.012085,90.118263 
	C216.350998,84.328987 210.792282,82.723579 204.644531,81.483269 
	C208.827042,86.434303 215.986603,87.430862 219.482574,93.109047 
	C217.636276,94.608368 216.371399,93.820175 215.094925,93.632919 
	C193.780670,90.506111 172.917023,90.877419 153.573792,102.017197 
	C150.677292,103.685303 149.173126,102.494263 147.197632,100.511162 
	C142.997528,96.294868 138.953018,91.904373 133.972565,88.497108 
	C123.790833,81.531509 112.579002,76.319702 102.239052,69.642891 
	C98.116531,66.980858 94.204056,63.993542 89.835434,60.898914 
	C86.803467,73.628647 86.077454,86.054771 85.980721,98.501541 
	C85.813667,119.997673 88.789932,140.659348 103.500595,157.788818 
	C105.365120,159.959915 105.589142,162.056854 104.299599,164.642838 
	C99.179062,174.911255 93.400940,184.684326 84.234131,192.218079 
	C86.177788,193.084976 87.862038,193.748154 89.464005,194.571472 
	C91.827927,195.786377 93.652817,197.802780 93.394760,200.422394 
	C92.491325,209.593613 99.775246,214.655991 104.469826,220.207840 
	C108.096962,224.497314 113.571533,228.150101 118.743912,231.464127 
	C128.794388,237.903656 138.665497,244.206726 151.539368,241.339020 
	C154.216888,240.742615 157.214111,241.075119 159.985779,241.495316 
	C171.936844,243.307205 183.957733,254.039932 183.033554,267.478638 
	C182.626541,273.397186 184.942612,273.742218 189.362610,273.728943 
	C199.477524,273.698547 209.558014,271.418091 219.724976,273.506805 
	C222.553574,274.087891 222.844254,271.605286 222.585464,269.469696 
	C222.136826,265.767609 222.340927,262.225830 223.936249,258.750397 
	C229.332809,246.993759 241.813858,240.611328 256.994019,242.913925 
	C261.981384,243.670425 266.145447,242.917267 271.148834,240.669052 
M175.875427,272.467773 
	C176.011261,272.552826 176.148788,272.707153 176.282440,272.703857 
	C176.422546,272.700409 176.625092,272.578308 176.687210,272.452271 
	C178.163361,269.457825 178.056030,266.331207 177.354065,263.189758 
	C174.835968,251.920731 162.085220,244.270828 149.175827,246.683640 
	C140.224808,248.356628 131.190842,249.710190 122.578796,253.009583 
	C115.302719,255.797134 109.213257,259.721588 106.045624,267.136536 
	C104.041298,271.828308 105.218834,273.658875 110.204140,273.678772 
	C116.854630,273.705353 123.505730,273.626373 130.156265,273.561798 
	C131.304962,273.550629 132.977768,273.840973 133.515945,273.219360 
	C137.401352,268.731445 139.331070,272.483032 141.672546,274.904388 
	C142.590286,275.853455 143.545471,276.899445 144.697922,277.463043 
	C147.954086,279.055511 151.367172,281.140381 155.001648,278.794250 
	C158.450409,276.567963 159.304291,273.088837 158.496902,269.153564 
	C158.296707,268.177673 158.043091,267.164093 159.528931,266.333405 
	C164.866226,269.307190 162.717773,274.738495 163.114761,279.614471 
	C171.165451,276.543884 171.960190,270.530609 170.374283,262.859283 
	C175.122726,265.064301 174.989212,268.765289 175.875427,272.467773 
M281.532928,272.920990 
	C286.743225,272.600769 292.041870,273.534912 297.718506,272.309021 
	C296.210632,265.456757 292.290100,260.771210 287.207733,257.749725 
	C275.232452,250.630310 262.042450,247.280548 248.064636,248.407547 
	C238.162933,249.205902 230.735794,253.738037 227.947479,264.073212 
	C226.386444,269.859344 228.623779,274.331635 234.082352,275.689148 
	C234.311188,272.055725 232.102158,267.887848 236.690704,264.494293 
	C237.679535,270.855316 238.952911,276.573700 246.753494,276.337646 
	C247.077164,268.757812 247.077164,268.757812 248.903946,266.755280 
	C249.232773,267.110779 249.691528,267.402313 249.852997,267.811279 
	C253.728928,277.627869 255.450317,278.216705 264.664520,272.665802 
	C265.985077,271.870239 267.239166,270.877655 268.784454,271.708038 
	C272.560425,273.737152 276.608856,272.753693 281.532928,272.920990 
M56.365334,245.030045 
	C52.720608,253.630829 53.130356,262.107697 56.920826,270.580963 
	C57.692055,272.304993 58.415058,273.105316 60.461456,273.239746 
	C71.256805,273.948792 82.057556,273.608826 92.855453,273.652985 
	C93.913597,273.657288 95.249374,274.061646 96.070450,272.203400 
	C89.330643,263.012970 85.114548,252.002869 77.909859,242.809448 
	C70.633804,233.524933 62.587692,234.133072 56.365334,245.030045 
z"/>
<path fill="#000000" opacity="1.000000" stroke="none" 
	d="
M279.077637,157.021652 
	C281.931519,161.569397 284.048096,166.004013 285.349518,170.906494 
	C288.654236,183.355148 283.146881,194.867752 271.213257,199.867508 
	C257.294617,205.698929 239.852966,202.300568 229.244995,191.472412 
	C220.915329,182.969833 222.078033,173.242844 225.892654,163.164795 
	C235.883148,136.770401 267.571533,139.615784 279.077637,157.021652 
M250.522507,198.726593 
	C254.988846,199.821228 259.493561,199.599854 263.888824,198.593292 
	C277.272827,195.528259 286.709991,184.215012 281.047119,170.012177 
	C279.621643,166.436981 278.190918,162.893890 276.164337,159.661087 
	C267.011017,145.059738 243.902542,143.395340 233.266129,157.534500 
	C234.780899,156.332809 235.378876,155.833389 236.002136,155.367783 
	C246.199646,147.749435 261.714630,146.288437 271.621094,159.983765 
	C279.565887,170.967178 277.692932,187.779678 267.036072,193.455536 
	C261.899902,196.191116 256.331665,198.060501 250.522507,198.726593 
M243.487717,165.080505 
	C241.956467,163.560471 240.238358,162.622696 238.151657,163.900070 
	C235.964478,165.238937 234.680771,167.012604 235.975021,169.721237 
	C237.124527,172.126968 239.007050,173.543427 241.577911,172.554459 
	C244.815414,171.309052 245.464905,168.747406 243.487717,165.080505 
z"/>
<path fill="#000000" opacity="1.000000" stroke="none" 
	d="
M131.340591,146.364014 
	C142.201584,134.623459 160.160034,133.800110 172.706985,143.713913 
	C185.348434,153.702393 188.342926,176.277313 180.389496,186.539810 
	C172.430908,196.808975 155.233627,201.711899 141.844070,197.564011 
	C119.110794,190.521591 116.881165,167.762421 128.018616,150.557816 
	C128.919083,149.166824 130.075027,147.941208 131.340591,146.364014 
M151.638260,195.772675 
	C154.938782,195.399170 158.292908,195.282318 161.530182,194.606079 
	C173.265335,192.154709 180.815247,183.688843 181.447327,172.162811 
	C181.753204,166.584991 180.181702,161.354248 177.720734,156.308914 
	C171.166168,142.871078 155.327255,137.015976 141.751602,143.169144 
	C129.000153,148.948746 121.391876,168.130920 126.841141,180.557587 
	C131.427948,191.017456 140.214493,194.734268 151.638260,195.772675 
z"/>
<path fill="#000000" opacity="1.000000" stroke="none" 
	d="
M311.869080,98.141296 
	C311.586212,99.146721 311.396423,99.787903 311.100769,100.375839 
	C310.968109,100.639702 310.623627,100.797050 310.043823,101.277214 
	C305.798126,94.955650 300.992065,97.174667 295.592072,100.022453 
	C290.776306,102.562180 286.077057,104.773354 281.715271,108.401802 
	C276.562561,112.688210 269.316101,112.860451 262.861542,113.161331 
	C261.832489,110.740311 262.813019,109.746506 263.737061,108.798950 
	C274.399811,97.865028 286.325317,88.863861 301.247620,84.517563 
	C308.427795,82.426247 311.628723,84.746040 311.969818,92.259209 
	C312.052795,94.086716 311.941162,95.923065 311.869080,98.141296 
z"/>
<path fill="#000000" opacity="1.000000" stroke="none" 
	d="
M230.295471,203.753174 
	C231.936081,205.759140 233.907913,207.320511 232.854080,209.959045 
	C213.123734,196.064972 194.157257,193.048126 176.252502,212.735687 
	C174.294937,211.290359 175.416290,209.897141 176.203491,208.419281 
	C180.185928,200.942749 186.980331,198.019836 194.833450,196.575089 
	C197.919693,196.007278 201.837616,196.319534 202.514069,191.392136 
	C200.531891,190.156265 198.377197,188.986893 196.421036,187.547653 
	C194.143219,185.871750 192.678345,183.643646 193.663605,180.654190 
	C194.573563,177.893219 196.990891,177.032547 199.543793,176.784088 
	C201.854202,176.559219 204.202698,176.752380 206.532913,176.698074 
	C210.080765,176.615417 212.832779,177.957962 213.877121,181.453003 
	C214.938141,185.003845 212.307907,186.918961 209.944122,188.816376 
	C208.536530,189.946228 205.629242,189.590210 206.070419,192.542862 
	C206.525589,195.589142 209.066498,195.773804 211.379105,196.079788 
	C218.226974,196.985855 224.862976,198.381470 230.295471,203.753174 
z"/>
<path fill="#000000" opacity="1.000000" stroke="none" 
	d="
M250.324097,119.959923 
	C257.520599,118.247765 266.603241,121.931122 269.190765,127.353409 
	C269.748688,128.522583 270.661407,129.801544 269.088928,130.879578 
	C267.904694,131.691467 266.903046,131.232483 266.072021,130.185440 
	C260.834991,123.586739 254.438583,121.864845 246.716232,125.539009 
	C246.410721,125.684372 245.834808,125.261398 245.189041,125.034393 
	C245.160110,121.745010 248.038376,121.363655 250.324097,119.959923 
z"/>
<path fill="#000000" opacity="1.000000" stroke="none" 
	d="
M146.964539,114.472214 
	C155.460144,112.966660 160.244919,114.647903 162.024796,119.896820 
	C157.685349,119.556557 153.831955,117.188194 149.429596,118.202522 
	C145.116730,119.196228 142.581177,123.002113 137.637589,125.432213 
	C138.914261,119.129272 142.081100,116.314705 146.964539,114.472214 
z"/>
<path fill="#000000" opacity="1.000000" stroke="none" 
	d="
M272.931458,120.403214 
	C275.896912,117.483063 278.781464,114.914909 282.565704,113.150085 
	C282.640411,118.414848 277.420105,122.988129 273.019104,121.997955 
	C272.858002,121.961700 272.872894,121.143021 272.931458,120.403214 
z"/>
<path fill="#000000" opacity="1.000000" stroke="none" 
	d="
M134.602631,109.729584 
	C132.997940,108.934860 131.458130,108.573341 131.074417,106.867241 
	C134.872299,104.214264 137.853958,105.305756 140.119736,110.197769 
	C138.306274,111.259247 136.645767,110.065857 134.602631,109.729584 
z"/>
<path fill="#000000" opacity="1.000000" stroke="none" 
	d="
M128.059769,168.854004 
	C129.003708,147.425644 148.906555,136.127258 166.602737,146.532181 
	C175.605270,151.825470 180.218124,166.328979 176.281174,176.962784 
	C172.559814,187.014359 161.066986,193.244614 149.867950,190.848450 
	C142.109787,189.188477 134.902695,186.381943 130.614197,178.830276 
	C128.888092,175.790741 128.556580,172.561783 128.059769,168.854004 
M163.371719,158.050186 
	C162.673660,158.725677 161.800888,159.293915 161.308670,160.095764 
	C159.472717,163.086578 160.982727,165.118713 163.488007,166.697800 
	C165.815948,168.165100 167.709290,167.205826 169.004517,165.194305 
	C170.769562,162.453232 169.910049,160.108490 167.323746,158.362259 
	C166.350266,157.705017 165.222641,157.346024 163.371719,158.050186 
z"/>
</svg>