<?xml version="1.0" encoding="utf-8"?>
<svg width="384" height="320" viewBox="0 0 384 320" fill="none" xmlns="http://www.w3.org/2000/svg">
  <g>
    <path d="M28.8747 131.24C37.2685 125.944 42.4545 118.072 48.3999 110.923C49.4023 109.718 49.3252 108.594 48.3597 107.334C41.5655 98.4691 39.7541 87.8501 38.8311 77.2596C36.5331 50.8915 42.35 25.6311 50.5343 0.7976C50.6269 0.516621 50.9693 0.317965 51.1979 0.0864639C52.154 -0.196615 52.8584 0.243807 53.2976 0.993521C61.0628 14.2477 74.0381 21.8756 85.5668 31.1059C93.0803 37.1215 100.762 43.0554 106.161 51.2704C107.107 52.7099 108.032 53.9321 110.175 53.2696C128.264 47.6757 146.544 47.6314 164.943 51.5418C165.397 51.6384 165.89 51.5539 167.677 51.5539C160.041 45.7695 153.042 41.1325 145.464 37.0112C153.415 34.942 161.078 36.0554 168.091 39.2533C176.96 43.2977 185.108 48.6057 188.155 58.8864C188.415 59.7638 189.128 60.7589 189.911 61.1888C195.611 64.3187 201.307 67.4217 206.037 72.0049C207.266 73.1953 208.574 72.5381 209.623 71.6304C222.855 60.1829 239.295 56.3385 255.597 52.1317C259.782 51.0519 263.945 49.8513 268.039 48.4705C272.187 47.0714 276.081 45.208 278.185 40.9346C278.665 39.9583 279.267 38.7797 280.838 39.0815C282.258 39.9334 281.902 41.3934 281.842 42.6494C280.758 65.3248 278.908 87.9172 270.289 109.234C265.32 121.524 258.799 132.958 247.49 140.727C244.867 142.529 245.399 144.327 246.307 146.702C251.092 159.214 256.288 171.449 266.73 180.549C267.141 180.907 267.171 181.702 267.655 183.085C262.337 182.21 258.523 178.682 253.154 178.285C254.56 180.744 253.807 182.549 252.453 184.735C244.229 198.018 231.563 205.296 217.753 211.139C214.747 212.411 211.426 213.016 208.07 215.703C217.048 224.518 228.362 230.977 231.961 244.069C236.843 241.57 240.622 239.172 244.889 237.759C254.621 234.536 264.506 237.741 269.443 245.922C270.374 247.465 271.773 249.309 269.854 250.813C268.131 252.164 266.378 250.96 264.969 249.662C262.067 246.99 259.929 243.209 255.61 242.539C250.343 241.723 245.475 242.87 240.683 246.437C246.413 248.709 251.916 247.342 257.254 247.783C258.879 247.917 261.439 246.715 261.589 249.593C261.742 252.522 259.201 252.275 257.229 252.283C243.731 252.342 230.232 252.39 216.733 252.377C214.189 252.374 211.804 252.573 209.571 254.016C205.219 256.83 199.937 255.938 195.462 255.82C188.157 255.627 180.758 257.392 173.198 253.366C167.769 250.475 160.24 250.772 153.6 251.414C136.802 253.037 119.972 252.259 103.16 252.363C71.0045 252.561 38.8468 252.414 6.69 252.402C5.19183 252.402 3.68784 252.387 2.19732 252.256C0.917473 252.144 -0.0594711 251.498 0.00281906 250.054C0.0525055 248.902 0.873775 248.147 1.93959 248.131C5.2473 248.081 6.65756 245.524 8.67569 243.559C15.5588 236.86 23.7614 235.733 32.7658 238.303C35.3913 239.053 38.0038 240.621 41.1666 239.114C41.0277 238.482 41.0898 237.712 40.7356 237.306C32.4441 227.78 28.8542 216.206 26.6536 204.158C25.5214 197.959 24.2482 191.707 24.4392 185.333C24.5238 182.508 23.4552 180.114 21.975 177.87C16.4806 169.543 17.8437 161.845 24.003 154.551C24.6472 153.788 25.3405 153.067 25.9856 152.305C30.9253 146.466 30.4534 144.626 23.3959 142.181C21.6673 141.583 19.9565 140.918 18.1979 140.425C16.6684 139.997 14.7873 140.583 13.1583 137.85C18.6783 136.304 23.5986 133.827 28.8747 131.24C28.8747 131.24 28.8747 131.24 28.8747 131.24ZM178.948 59.5284C177.729 60.7195 176.468 59.9231 175.215 59.6097C165.708 57.2309 156.38 54.0877 146.405 53.9097C133.707 53.6831 121.064 53.6018 109.293 59.3771C106.577 60.7094 105.435 59.4447 104.203 57.2849C101.296 52.1889 97.4913 47.8408 93.2144 43.7815C80.5485 31.7597 64.5357 23.7753 52.9788 9.51113C46.2791 32.7059 41.3048 55.328 44.129 78.9229C45.2253 88.0824 47.3897 97.134 52.5333 104.849C55.3924 109.137 54.8926 111.97 51.8271 115.357C44.8578 123.056 39.1163 131.937 29.9284 138.131C37.4194 138.25 44.3619 140.642 51.6034 141.166C51.9102 141.189 52.2342 140.971 52.5506 140.866C61.1544 138.015 65.1315 139.592 71.0995 146.517C79.2763 156.006 84.2609 165.408 76.749 177.932C73.6562 183.088 78.5385 193.084 83.9518 195.702C86.4947 196.932 88.9862 198.27 91.4769 199.604C92.6409 200.228 93.9548 200.837 93.2473 202.62C91.7219 203.807 90.0571 203.22 88.4559 202.921C86.9957 202.648 85.6516 202.736 85.1334 204.284C83.8288 208.181 81.2519 211.71 81.6963 216.125C83.0475 229.55 76.9702 239.216 66.1902 246.584C69.0289 248.019 72.0536 247.765 75.0199 247.767C96.4998 247.78 117.982 247.923 139.459 247.678C148.413 247.576 157.338 245.838 166.326 247.553C168.709 248.008 169.507 246.301 169.39 244.118C168.779 232.75 174.134 225.129 184.189 220.38C185.417 219.8 187.568 219.334 186.906 217.398C185.497 213.282 188.415 213.464 190.836 212.973C202.432 210.621 213.869 207.874 224.451 202.206C226.7 201.001 227.287 197.763 228.844 197.713C236.943 197.45 240.294 191.11 244.832 186.224C246.622 184.296 247.874 182.389 246.243 179.587C244.938 177.347 246.432 175.915 248.313 174.746C249.816 173.812 251.861 173.718 253.061 171.596C246.704 163.413 243.562 153.542 239.703 144.002C238.893 141.998 238.271 140.236 240.794 138.958C249.313 134.641 254.738 127.366 259.545 119.439C270.214 101.844 273.428 82.1764 275.36 62.2126C275.708 58.6144 277.197 54.8605 275.73 50.7857C269.056 53.8778 262.174 55.1151 255.43 56.8477C239.072 61.05 222.863 65.5765 210.373 78.0252C208.37 80.0216 206.597 79.2398 204.731 77.5766C201.625 74.8075 198.316 72.2666 195.184 69.5252C192.755 67.3994 190.261 66.4397 187.22 68.8619C181.994 59.6377 179.241 48.8773 167.712 44.4709C170.819 50.3812 176.243 53.613 178.948 59.5284C178.948 59.5284 178.948 59.5284 178.948 59.5284ZM37.4702 145.921C31.2108 150.943 31.2858 156.814 37.6469 159.742C40.2273 149.187 44.1919 148.121 53.0965 158.027C53.0371 155.667 51.9541 152.93 54.6355 152.164C57.4003 151.374 59.3034 153.215 60.711 155.514C61.6715 157.082 62.7757 158.269 64.799 158.837C70.8037 160.523 72.445 162.983 71.1016 167.435C68.8369 174.939 68.7777 174.969 61.3579 172.905C61.2027 172.862 60.9258 173.257 60.699 173.454C60.7466 174.591 61.5821 175.243 62.3625 175.804C66.2532 178.602 67.6162 182.283 65.7317 186.694C63.8123 191.186 60.4998 193.926 55.2175 193.449C52.2127 193.178 49.2684 193.75 46.29 194.116C39.7193 194.922 32.4073 187.02 35.3002 181.719C38.5245 175.811 41.5115 168.951 49.6284 167.635C52.4513 167.177 53.0366 165.523 51.348 162.67C47.4094 166.237 41.332 166.565 39.7835 172.599C39.5325 173.576 38.336 174.417 37.4117 175.097C33.7697 177.777 30.3771 176.392 29.2251 172.033C27.9506 167.212 28.6558 163.176 34.2396 160.604C30.2637 157.669 27.6885 157.293 25.6599 161.117C23.2526 165.655 23.2624 170.368 26.4585 174.287C30.3827 179.099 30.9102 184.304 30.6258 190.176C30.3213 196.462 30.866 202.799 33.4896 209.001C34.7248 207.751 32.9082 206.312 34.6887 205.585C35.6506 207.502 37.7329 210.068 36.3804 211.413C33.5329 214.245 35.1873 216.682 36.1358 219.032C37.8071 223.173 39.5847 227.317 42.6638 230.735C48.604 237.329 55.9239 241.454 64.7501 239.533C73.2285 237.687 75.8081 230.191 77.1279 222.497C77.4289 220.742 77.2767 218.831 76.9548 217.061C74.9326 205.942 73.0441 194.79 70.5938 183.763C69.5833 179.216 70.1675 175.932 73.4656 172.513C77.8947 167.921 76.7848 160.926 71.4021 157.511C69.1078 156.056 68.0099 154.302 67.2988 151.679C65.4615 144.904 58.73 142.61 53.0749 146.7C51.3731 147.931 50.0172 148.525 48.2027 147.163C45.1571 144.877 41.7211 144.84 37.4702 145.921C37.4702 145.921 37.4702 145.921 37.4702 145.921ZM216.714 245.798C219.68 249.402 222.844 247.374 225.82 246.451C226.567 244.933 226.001 243.85 225.639 242.76C221.139 229.194 209.544 222.788 196.573 222.57C185.073 222.376 176.865 228.968 174.489 239.064C173.235 244.391 175.602 248.539 180.727 249.997C180.564 241.273 180.564 241.273 183.254 239.207C185.995 249.298 186.885 250.237 193.676 250.064C194.428 247.102 191.947 243.231 196.062 240.618C196.427 241.806 196.715 242.559 196.889 243.338C198.58 250.921 202.668 252.649 209.089 248.41C210.468 247.499 211.665 246.315 212.968 245.285C214.058 244.424 215.183 243.636 216.714 245.798C216.714 245.798 216.714 245.798 216.714 245.798ZM40.332 187.092C41.8018 189.419 44.1624 188.752 46.2161 188.663C49.0331 188.541 51.8143 188.288 54.6456 188.701C57.454 189.11 59.8825 188.453 61.2996 185.561C64.192 179.66 56.7906 178.603 56.0683 174.334C55.7986 172.74 54.1148 172.128 52.4371 172.637C50.223 173.309 47.9571 173.898 45.8582 174.843C41.1008 176.987 38.7729 181.802 40.332 187.092C40.332 187.092 40.332 187.092 40.332 187.092ZM42.5652 245.537C39.7177 246.337 36.9175 245.677 34.1948 245.022C29.8167 243.969 25.4736 242.795 20.919 243.358C18.1824 243.697 15.4568 244.188 13.8225 247.495C28.3136 247.495 42.2553 247.495 57.5755 247.495C51.0155 244.597 47.5359 244.177 42.5652 245.537C42.5652 245.537 42.5652 245.537 42.5652 245.537ZM35.6811 170.844C37.9481 168.961 38.0883 166.882 36.4628 164.507C33.7183 164.987 32.6487 166.793 32.4569 169.015C32.3209 170.59 33.5016 171.293 35.6811 170.844C35.6811 170.844 35.6811 170.844 35.6811 170.844ZM58.4669 169.238C60.7723 167.41 59.5441 165.668 58.5326 163.546C55.6567 165.418 55.3282 167.129 58.4669 169.238C58.4669 169.238 58.4669 169.238 58.4669 169.238ZM64.0475 164.966C64.1067 166.033 63.3607 167.294 64.9889 168.182C66.5168 166.901 68.1348 165.464 66.6371 163.359C65.5684 161.858 64.7106 163.205 64.0475 164.966C64.0475 164.966 64.0475 164.966 64.0475 164.966Z" fill="#000000" transform="translate(53.25 25.927)" />
    <path d="M32.5487 59.0945C23.2732 58.0441 15.3498 55.0093 8.81839 48.7899C-0.702011 39.7245 -2.24683 33.1435 2.8989 21.056C8.93678 6.87265 24.0039 -5.40546 42.9893 2.46245C52.2516 6.30089 57.3122 13.5205 60.3171 22.5301C61.3608 25.6597 62.0278 28.9944 62.3153 32.2836C63.8404 49.7327 52.0201 60.4945 32.5487 59.0945C32.5487 59.0945 32.5487 59.0945 32.5487 59.0945ZM11.7209 14.7969C12.2211 14.359 12.6983 13.8911 13.2248 13.4874C29.6542 0.888641 48.7977 6.57913 53.8386 25.5551C57.7052 40.1107 48.7641 52.5137 33.8027 53.3543C31.8991 53.4613 29.997 53.5947 28.0942 53.7159C33.125 55.9802 38.3067 56.783 43.5008 55.3131C51.0576 53.1744 57.0005 48.3761 58.4664 40.6908C61.0349 27.2258 55.3462 8.12381 35.4117 4.44182C25.5031 2.61165 15.2058 7.16971 10.6067 15.5399C5.73473 21.0554 3.76848 27.4513 4.64386 34.7105C4.263 27.3591 7.80016 21.283 11.7209 14.7969C11.7209 14.7969 11.7209 14.7969 11.7209 14.7969ZM17.6608 18.9739C15.4016 20.1821 13.8148 21.781 15.0099 24.5524C16.1066 27.0961 17.993 28.6685 20.9137 27.8246C23.6038 27.0474 25.2343 25.1066 24.7729 22.2331C24.18 18.5402 21.4611 18.1118 17.6608 18.9739C17.6608 18.9739 17.6608 18.9739 17.6608 18.9739Z" fill="#000000" transform="translate(220.845 137.84)" />
    <path d="M30.5275 22.5713C33.5028 23.5868 36.0403 20.8936 39.2611 22.8546C34.898 27.5655 34.4539 34.2539 30.1689 38.9905C24.5645 45.1854 12.2617 43.9267 6.24593 36.4931C3.67279 33.3136 2.12233 29.6238 1.35223 25.669C0.696732 22.3027 0.43248 18.8602 0 15.4893C1.49907 14.27 2.61424 15.1013 3.5495 16.0616C7.03957 19.6451 11.4099 19.1279 15.7399 18.7579C17.4865 18.6087 19.0519 17.9506 19.5308 16.0552C19.9776 14.2866 18.6874 13.3285 17.4954 12.3875C16.7119 11.769 15.9129 11.1691 15.1468 10.53C13.0485 8.77945 12.0779 6.56848 12.808 3.87421C13.536 1.18733 15.8528 0.435822 18.2086 0.140762C22.86 -0.441818 27.2 0.801361 30.894 3.54683C34.3611 6.12369 33.1096 10.6283 28.7501 13.228C26.8778 14.3445 22.9652 13.3812 23.5777 17.3125C24.1241 20.8198 27.0162 21.9351 30.5275 22.5713C30.5275 22.5713 30.5275 22.5713 30.5275 22.5713Z" fill="#000000" transform="translate(179.014 162.999)" />
    <path d="M0.00484467 36.7654C-0.259384 20.3162 10.3229 6.22184 24.2965 1.13976C36.3785 -3.25436 56.0784 5.44463 60.6962 20.5647C62.5825 26.7411 63.1415 33.0011 62.2449 39.3064C60.4301 52.0689 51.5633 59.7384 36.2435 60.9781C24.4918 61.9292 13.8027 58.5974 5.36196 49.8677C2.01017 46.4012 0.515785 41.9832 0.00484467 36.7654C0.00484467 36.7654 0.00484467 36.7654 0.00484467 36.7654ZM13.6272 52.2697C24.7603 58.9599 36.2331 59.4283 47.9868 54.0758C51.7371 52.3681 54.6737 49.5992 56.6256 46.0405C61.6471 36.8848 59.5167 20.3867 52.5643 13.1412C43.1997 3.3819 31.7499 0.906929 19.9255 7.47502C5.2477 15.6281 -5.65656 37.4137 13.6272 52.2697C13.6272 52.2697 13.6272 52.2697 13.6272 52.2697Z" fill="#000000" transform="translate(122.727 116.953)" />
    <path d="M9.08542 4.00475C6.02142 3.28357 3.67419 5.22227 0 5.13603C2.30513 0.126556 6.08569 -0.290909 9.92856 0.119041C17.5411 0.931114 24.0318 7.88757 23.4555 15.4962C18.5023 11.3904 16.3334 4.52225 9.08542 4.00475C9.08542 4.00475 9.08542 4.00475 9.08542 4.00475Z" fill="#000000" transform="translate(251.61 113.102)" />
    <path d="M17.0795 0.604927C20.4054 2.07642 23.6662 3.12722 24.0363 8.04648C19.4184 6.93865 16.1926 3.23634 11.5996 3.4543C6.78305 3.68285 4.25476 8.132 0.00479126 9.75152C-0.213211 2.22837 7.02245 -1.56109 17.0795 0.604927C17.0795 0.604927 17.0795 0.604927 17.0795 0.604927Z" fill="#000000" transform="translate(148.819 93.028)" />
    <path d="M8.9617 2.83404C9.86513 3.95791 11.0266 4.64975 10.1475 6.47079C6.00804 6.26462 3.5643 3.26981 0 0.460045C4.11264 -0.891663 6.37958 0.987801 8.9617 2.83404C8.9617 2.83404 8.9617 2.83404 8.9617 2.83404Z" fill="#000000" transform="translate(139.739 85.318)" />
    <path d="M2.15503 0.806992C3.59363 0.0574265 4.77399 -0.666199 6.0152 1.07896C5.02637 3.91201 2.80682 4.40411 0.127594 4.25674C-0.449677 2.30875 1.05643 1.85154 2.15503 0.806992C2.15503 0.806992 2.15503 0.806992 2.15503 0.806992Z" fill="#000000" transform="translate(281.26 115.524)" />
    <path d="M12.0241 4.2507C24.224 -2.78819 34.3455 -1.06495 43.0285 9.27029C50.4503 18.1044 50.6635 33.0991 43.4894 41.6951C37.486 48.8884 25.1712 50.3058 15.4558 44.8739C13.8615 43.9825 12.4925 42.6234 10.8325 41.9243C-4.3895 35.5133 -1.39633 17.8008 6.57684 9.16138C8.14684 7.46021 9.99869 6.01915 12.0241 4.2507C12.0241 4.2507 12.0241 4.2507 12.0241 4.2507ZM42.3831 22.3696C42.3093 18.928 40.5224 17.0908 37.1109 17.2476C34.3951 17.3724 32.9672 19.0993 32.8525 21.8035C32.7307 24.675 34.1142 26.6614 36.8791 27.2645C40.1011 27.9672 41.8863 26.3248 42.3831 22.3696C42.3831 22.3696 42.3831 22.3696 42.3831 22.3696Z" fill="#000000" transform="translate(130.481 123.113)" />
  </g>
</svg>