<svg version="1.1" id="Layer_1" xmlns="http://www.w3.org/2000/svg" xmlns:xlink="http://www.w3.org/1999/xlink" x="0px" y="0px"
	 width="100%" viewBox="0 0 384 320" enable-background="new 0 0 384 320" xml:space="preserve">
<path fill="#000000" opacity="1.000000" stroke="none" 
	d="
M82.125023,157.166550 
	C90.518829,151.870850 95.704865,143.998276 101.650276,136.849686 
	C102.652641,135.644470 102.575607,134.520599 101.610016,133.260712 
	C94.815887,124.395821 93.004425,113.776886 92.081444,103.186295 
	C89.783440,76.818291 95.600349,51.557858 103.784676,26.724346 
	C103.877274,26.443367 104.219666,26.244711 104.448303,26.013210 
	C105.404312,25.730131 106.108734,26.170553 106.547966,26.920267 
	C114.313156,40.174469 127.288498,47.802353 138.817169,57.032688 
	C146.330627,63.048286 154.012085,68.982193 159.411591,77.197159 
	C160.357727,78.636635 161.282455,79.858826 163.424896,79.196320 
	C181.514755,73.602394 199.793884,73.558105 218.193314,77.468513 
	C218.647781,77.565109 219.140747,77.480682 220.927292,77.480682 
	C213.290985,71.696266 206.292130,67.059204 198.714508,62.937950 
	C206.665024,60.868793 214.328781,61.982170 221.341293,65.180069 
	C230.209946,69.224403 238.358780,74.532455 241.404999,84.813179 
	C241.664948,85.690506 242.378235,86.685631 243.161224,87.115555 
	C248.861481,90.245483 254.557190,93.348442 259.287384,97.931648 
	C260.515930,99.122025 261.824341,98.464828 262.873535,97.557137 
	C276.105835,86.109612 292.545624,82.265244 308.847778,78.058441 
	C313.032196,76.978638 317.195709,75.778000 321.289337,74.397285 
	C325.437592,72.998161 329.331329,71.134796 331.434906,66.861343 
	C331.915527,65.885017 332.517212,64.706398 334.087982,65.008286 
	C335.508423,65.860153 335.152008,67.320099 335.091980,68.576126 
	C334.008575,91.251579 332.157928,113.843903 323.539581,135.160736 
	C318.570709,147.450912 312.049286,158.884460 300.740265,166.653885 
	C298.117218,168.455978 298.648926,170.253311 299.557281,172.628387 
	C304.342499,185.140518 309.538422,197.375427 319.980560,206.475311 
	C320.391418,206.833328 320.421082,207.628784 320.905396,209.011246 
	C315.587250,208.136887 311.773743,204.609192 306.404175,204.211716 
	C307.810028,206.670807 307.056885,208.475937 305.703613,210.661530 
	C297.478943,223.944626 284.813690,231.222351 271.003479,237.066040 
	C267.997620,238.337967 264.676147,238.942322 261.320862,241.629623 
	C270.298157,250.444260 281.612213,256.903625 285.211548,269.995331 
	C290.093170,267.496338 293.872253,265.098724 298.138916,263.685791 
	C307.871277,260.462921 317.756378,263.668121 322.692993,271.848358 
	C323.624329,273.391693 325.023621,275.235321 323.104614,276.739685 
	C321.381470,278.090454 319.628265,276.887054 318.218872,275.589233 
	C315.317139,272.917145 313.178925,269.135406 308.859894,268.465912 
	C303.593475,267.649567 298.725800,268.796417 293.933014,272.363373 
	C299.663513,274.635559 305.166656,273.268341 310.504059,273.709473 
	C312.129333,273.843781 314.689026,272.641296 314.839203,275.519531 
	C314.992065,278.448334 312.450989,278.201538 310.479401,278.210052 
	C296.980927,278.268494 283.482239,278.316956 269.983704,278.303558 
	C267.439178,278.301025 265.054321,278.499817 262.821838,279.942932 
	C258.469513,282.756378 253.187256,281.864746 248.712280,281.746460 
	C241.407272,281.553406 234.008179,283.318481 226.448669,279.292877 
	C221.019531,276.401733 213.490311,276.699158 206.850372,277.340820 
	C190.052399,278.964111 173.222000,278.185669 156.410400,278.289490 
	C124.254860,278.488159 92.097160,278.341003 59.940361,278.329041 
	C58.442192,278.328491 56.938202,278.313568 55.447681,278.182800 
	C54.167831,278.070465 53.190887,277.424347 53.253178,275.980499 
	C53.302864,274.828705 54.124134,274.073486 55.189953,274.057587 
	C58.497658,274.008240 59.907921,271.450256 61.926044,269.486176 
	C68.809135,262.787231 77.011803,261.659943 86.016197,264.230011 
	C88.641685,264.979370 91.254196,266.548065 94.416916,265.040894 
	C94.278038,264.408325 94.340118,263.639191 93.986000,263.232361 
	C85.694489,253.706741 82.104553,242.133179 79.903984,230.084808 
	C78.771744,223.885651 77.498604,217.634079 77.689552,211.259674 
	C77.774170,208.434464 76.705566,206.040573 75.225334,203.797119 
	C69.730957,195.469742 71.094078,187.772079 77.253319,180.478210 
	C77.897598,179.715240 78.590897,178.993683 79.235931,178.231308 
	C84.175667,172.393158 83.703728,170.552490 76.646210,168.108047 
	C74.917641,167.509338 73.206894,166.844437 71.448227,166.351776 
	C69.918785,165.923340 68.037613,166.510178 66.408669,163.776367 
	C71.928680,162.231216 76.848991,159.753433 82.125023,157.166550 
M232.198029,85.455124 
	C230.979004,86.646294 229.717911,85.849876 228.465256,85.536446 
	C218.958420,83.157684 209.630661,80.014465 199.655243,79.836456 
	C186.957779,79.609871 174.314667,79.528534 162.542984,85.303833 
	C159.827393,86.636131 158.684998,85.371407 157.453018,83.211662 
	C154.546082,78.115608 150.741653,73.767578 146.464798,69.708252 
	C133.798813,57.686455 117.786018,49.702072 106.229118,35.437874 
	C99.529434,58.632679 94.555183,81.254776 97.379356,104.849670 
	C98.475700,114.009148 100.640060,123.060722 105.783638,130.775314 
	C108.642799,135.063614 108.142952,137.896942 105.077484,141.283432 
	C98.108147,148.982635 92.366676,157.863419 83.178772,164.057693 
	C90.669792,164.176941 97.612297,166.569046 104.853729,167.093185 
	C105.160599,167.115402 105.484589,166.897903 105.800926,166.793076 
	C114.404739,163.941788 118.381882,165.518356 124.349815,172.443771 
	C132.526657,181.932510 137.511246,191.335190 129.999390,203.858246 
	C126.906509,209.014389 131.788849,219.010742 137.202148,221.628601 
	C139.745056,222.858368 142.236588,224.196838 144.727295,225.531052 
	C145.891266,226.154587 147.205154,226.763931 146.497620,228.546844 
	C144.972275,229.733841 143.307495,229.146744 141.706299,228.847565 
	C140.246078,228.574753 138.901932,228.662735 138.383728,230.210770 
	C137.079208,234.107803 134.502289,237.636917 134.946655,242.052078 
	C136.297836,255.476990 130.220566,265.143036 119.440544,272.510315 
	C122.279228,273.946228 125.303932,273.691467 128.270218,273.693329 
	C149.750198,273.706604 171.232025,273.849365 192.709305,273.604492 
	C201.663620,273.502411 210.588043,271.765198 219.576202,273.479950 
	C221.958893,273.934540 222.757736,272.227325 222.640381,270.044434 
	C222.029236,258.676788 227.384369,251.055374 237.439728,246.306961 
	C238.667526,245.727158 240.818619,245.260452 240.156189,243.324753 
	C238.747452,239.208374 241.665848,239.391159 244.085861,238.900177 
	C255.682693,236.547287 267.118927,233.800323 277.700928,228.132401 
	C279.950378,226.927551 280.536896,223.689926 282.093994,223.639511 
	C290.193481,223.377243 293.544861,217.036423 298.082703,212.150269 
	C299.872528,210.223068 301.123871,208.315262 299.493011,205.513794 
	C298.188812,203.273514 299.682098,201.841721 301.563202,200.672562 
	C303.065948,199.738571 305.110870,199.644730 306.311523,197.523117 
	C299.954803,189.340073 296.812714,179.468658 292.953735,169.929123 
	C292.142914,167.924744 291.521637,166.162872 294.044006,164.884720 
	C302.562988,160.567932 307.988068,153.293198 312.795319,145.365280 
	C323.464111,127.770760 326.678802,108.103180 328.610291,88.139366 
	C328.958435,84.541130 330.447754,80.787224 328.980194,76.712471 
	C322.306671,79.804504 315.424469,81.041840 308.680145,82.774467 
	C292.322449,86.976768 276.113831,91.503281 263.623383,103.951935 
	C261.620239,105.948341 259.847351,105.166519 257.981628,103.503319 
	C254.875351,100.734222 251.566483,98.193398 248.434372,95.451981 
	C246.005539,93.326126 243.511215,92.366447 240.470383,94.788612 
	C235.244537,85.564484 232.491760,74.804008 220.961960,70.397636 
	C224.069092,76.307915 229.493500,79.539711 232.198029,85.455124 
M90.720573,171.847427 
	C84.461136,176.870193 84.536171,182.741028 90.897224,185.669235 
	C93.477615,175.113998 97.442238,174.047867 106.346840,183.953751 
	C106.287430,181.593979 105.204445,178.856445 107.885887,178.090576 
	C110.650673,177.300873 112.553772,179.142197 113.961349,181.440308 
	C114.921898,183.008560 116.026047,184.195816 118.049385,184.763977 
	C124.054047,186.450150 125.695312,188.909760 124.351974,193.361252 
	C122.087234,200.866058 122.028099,200.895508 114.608284,198.832016 
	C114.453102,198.788879 114.176163,199.183548 113.949371,199.380737 
	C113.996979,200.517700 114.832458,201.169434 115.612900,201.730774 
	C119.503593,204.529221 120.866577,208.210190 118.982033,212.620758 
	C117.062683,217.112793 113.750175,219.852402 108.467834,219.375671 
	C105.463051,219.104492 102.518799,219.677155 99.540329,220.042694 
	C92.969666,220.849091 85.657616,212.946426 88.550568,207.645615 
	C91.774811,201.737747 94.761826,194.877747 102.878777,193.561523 
	C105.701645,193.103775 106.286972,191.449997 104.598343,188.596329 
	C100.659729,192.164185 94.582405,192.491318 93.033829,198.525284 
	C92.782906,199.503006 91.586372,200.344101 90.662010,201.024216 
	C87.020065,203.703857 83.627457,202.318314 82.475487,197.960159 
	C81.201004,193.138535 81.906189,189.102554 87.489975,186.531113 
	C83.514107,183.596176 80.938866,183.219971 78.910286,187.043686 
	C76.502937,191.581360 76.512718,196.294434 79.708817,200.213699 
	C83.633072,205.025909 84.160606,210.230759 83.876137,216.102982 
	C83.571655,222.388245 84.116386,228.725937 86.739998,234.927963 
	C87.975121,233.677704 86.158531,232.238251 87.939041,231.511658 
	C88.900970,233.428497 90.983223,235.995056 89.630714,237.339966 
	C86.783295,240.171387 88.437645,242.608612 89.386147,244.958832 
	C91.057495,249.100174 92.835098,253.243683 95.914207,256.661743 
	C101.854401,263.255859 109.174286,267.380859 118.000465,265.459320 
	C126.478859,263.613464 129.058426,256.117432 130.378281,248.423599 
	C130.679306,246.668869 130.527084,244.757858 130.205124,242.987595 
	C128.182938,231.868927 126.294479,220.716263 123.844147,209.689865 
	C122.833694,205.142883 123.417839,201.858978 126.715942,198.439713 
	C131.145035,193.847870 130.035172,186.852783 124.652405,183.437943 
	C122.358147,181.982483 121.260307,180.228333 120.549141,177.605896 
	C118.711838,170.830688 111.980324,168.536774 106.325218,172.627228 
	C104.623459,173.858154 103.267517,174.451523 101.453056,173.089600 
	C98.407501,170.803680 94.971504,170.767227 90.720573,171.847427 
M269.964020,271.725006 
	C272.929962,275.328278 276.094360,273.300995 279.070038,272.377930 
	C279.817047,270.859711 279.251129,269.776550 278.889740,268.687103 
	C274.389679,255.121063 262.793915,248.715057 249.823303,248.496475 
	C238.323792,248.302689 230.115799,254.895035 227.739273,264.990570 
	C226.485214,270.317871 228.852127,274.466156 233.977402,275.923584 
	C233.813965,267.199860 233.813965,267.199860 236.504868,265.133820 
	C239.245544,275.224487 240.135742,276.163727 246.926071,275.991241 
	C247.678574,273.029053 245.197388,269.157288 249.312256,266.544861 
	C249.677170,267.732544 249.965332,268.485657 250.139023,269.264313 
	C251.830414,276.847412 255.918518,278.575684 262.339600,274.336395 
	C263.718811,273.425873 264.915253,272.241516 266.218475,271.211945 
	C267.308746,270.350647 268.433075,269.562775 269.964020,271.725006 
M93.582314,213.018585 
	C95.052185,215.346100 97.412750,214.679062 99.466507,214.589874 
	C102.283447,214.467560 105.064674,214.214676 107.895927,214.627609 
	C110.704361,215.037231 113.132858,214.379471 114.549980,211.488220 
	C117.442390,205.586990 110.041000,204.529602 109.318680,200.261230 
	C109.048927,198.667175 107.365143,198.055115 105.687492,198.563965 
	C103.473343,199.235550 101.207451,199.824448 99.108513,200.770081 
	C94.351181,202.913422 92.023277,207.729034 93.582314,213.018585 
M95.815590,271.463959 
	C92.968094,272.264099 90.167877,271.603912 87.445190,270.948914 
	C83.067047,269.895721 78.723953,268.721283 74.169380,269.284851 
	C71.432800,269.623444 68.707153,270.114319 67.072884,273.422180 
	C81.563911,273.422180 95.505684,273.422180 110.825867,273.422180 
	C104.265900,270.523834 100.786270,270.103271 95.815590,271.463959 
M88.931412,196.770996 
	C91.198502,194.887436 91.338615,192.808640 89.713173,190.433487 
	C86.968674,190.913681 85.899071,192.719955 85.707268,194.941544 
	C85.571236,196.517105 86.751968,197.220062 88.931412,196.770996 
M111.717255,195.165176 
	C114.022705,193.337097 112.794464,191.595001 111.782974,189.473129 
	C108.907066,191.345016 108.578552,193.055679 111.717255,195.165176 
M117.297897,190.892914 
	C117.357079,191.959946 116.611046,193.220474 118.239227,194.108292 
	C119.767128,192.827698 121.385109,191.390549 119.887421,189.285934 
	C118.818802,187.784271 117.960915,189.131302 117.297897,190.892914 
z"/>
<path fill="#000000" opacity="1.000000" stroke="none" 
	d="
M253.394104,196.934494 
	C244.118622,195.884033 236.195251,192.849258 229.663818,186.629929 
	C220.143417,177.564468 218.598602,170.983521 223.744324,158.895935 
	C229.782211,144.712631 244.849304,132.434525 263.834778,140.302429 
	C273.097046,144.140869 278.157593,151.360474 281.162506,160.370117 
	C282.206268,163.499725 282.873260,166.834381 283.160736,170.123581 
	C284.685822,187.572662 272.865479,198.334457 253.394104,196.934494 
M232.566299,152.636902 
	C233.066498,152.198944 233.543747,151.731094 234.070206,151.327393 
	C250.499619,138.728622 269.643127,144.419113 274.684021,163.395126 
	C278.550659,177.950714 269.609497,190.353699 254.648178,191.194305 
	C252.744568,191.301239 250.842438,191.434723 248.939606,191.555908 
	C253.970413,193.820175 259.152130,194.623016 264.346191,193.153046 
	C271.903046,191.014374 277.845886,186.216034 279.311829,178.530762 
	C281.880310,165.065811 276.191650,145.963791 256.257111,142.281799 
	C246.348572,140.451630 236.051224,145.009689 231.452164,153.379929 
	C226.580154,158.895401 224.613907,165.291260 225.489288,172.550507 
	C225.108429,165.199127 228.645584,159.122971 232.566299,152.636902 
M238.506210,156.813843 
	C236.246979,158.022064 234.660278,159.620941 235.855286,162.392380 
	C236.952072,164.936035 238.838455,166.508469 241.759079,165.664597 
	C244.449188,164.887344 246.079742,162.946609 245.618347,160.073044 
	C245.025406,156.380188 242.306503,155.951813 238.506210,156.813843 
z"/>
<path fill="#000000" opacity="1.000000" stroke="none" 
	d="
M209.541809,185.570221 
	C212.517075,186.585739 215.054596,183.892593 218.275436,185.853577 
	C213.912292,190.564453 213.468231,197.252823 209.183212,201.989441 
	C203.578842,208.184402 191.276047,206.925659 185.260223,199.492081 
	C182.687088,196.312546 181.136627,192.622803 180.366531,188.667953 
	C179.711029,185.301636 179.446777,181.859131 179.014297,178.488266 
	C180.513367,177.268951 181.628540,178.100311 182.563797,179.060593 
	C186.053864,182.644043 190.424194,182.126892 194.754196,181.756897 
	C196.500763,181.607635 198.066238,180.949600 198.545074,179.054153 
	C198.991867,177.285583 197.701736,176.327469 196.509689,175.386459 
	C195.726196,174.768005 194.927246,174.168106 194.161057,173.528915 
	C192.062820,171.778412 191.092209,169.567444 191.822250,166.873169 
	C192.550323,164.186295 194.867142,163.434784 197.222916,163.139725 
	C201.874313,162.557144 206.214310,163.800323 209.908279,166.545792 
	C213.375412,169.122650 212.123947,173.627274 207.764435,176.226990 
	C205.892090,177.343506 201.979507,176.380188 202.591995,180.311432 
	C203.138443,183.818802 206.030487,184.934067 209.541809,185.570221 
z"/>
<path fill="#000000" opacity="1.000000" stroke="none" 
	d="
M122.731613,153.717865 
	C122.467384,137.268677 133.049622,123.174294 147.023300,118.092209 
	C159.105301,113.698097 178.805191,122.397079 183.423004,137.517166 
	C185.309296,143.693542 185.868301,149.953537 184.971695,156.258865 
	C183.156860,169.021378 174.290024,176.690842 158.970276,177.930603 
	C147.218552,178.881607 136.529510,175.549850 128.088730,166.820160 
	C124.736938,163.353638 123.242554,158.935608 122.731613,153.717865 
M136.353943,169.222183 
	C147.487106,175.912323 158.959900,176.380753 170.713608,171.028290 
	C174.463837,169.320511 177.400497,166.551651 179.352325,162.992920 
	C184.373901,153.837204 182.243500,137.339203 175.291031,130.093689 
	C165.926422,120.334358 154.476685,117.859383 142.652237,124.427475 
	C127.974464,132.580505 117.070213,154.366165 136.353943,169.222183 
z"/>
<path fill="#000000" opacity="1.000000" stroke="none" 
	d="
M270.654602,107.892090 
	C277.622040,101.321327 284.359192,94.991943 294.159393,93.472878 
	C294.699768,107.870209 282.529297,112.234833 271.874084,110.788490 
	C270.490906,110.600739 269.904968,109.638489 270.654602,107.892090 
z"/>
<path fill="#000000" opacity="1.000000" stroke="none" 
	d="
M260.695740,117.106361 
	C257.631744,116.385178 255.284515,118.323883 251.610321,118.237640 
	C253.915451,113.228165 257.696014,112.810699 261.538879,113.220650 
	C269.151428,114.032722 275.642151,120.989182 275.065796,128.597839 
	C270.112640,124.492004 267.943695,117.623856 260.695740,117.106361 
z"/>
<path fill="#000000" opacity="1.000000" stroke="none" 
	d="
M165.898468,93.632553 
	C169.224380,95.104042 172.485153,96.154846 172.855301,101.074104 
	C168.237381,99.966278 165.011612,96.263969 160.418579,96.481926 
	C155.602051,96.710472 153.073761,101.159622 148.823792,102.779144 
	C148.605789,95.255997 155.841446,91.466537 165.898468,93.632553 
z"/>
<path fill="#000000" opacity="1.000000" stroke="none" 
	d="
M148.701141,88.152496 
	C149.604568,89.276367 150.766068,89.968208 149.886963,91.789246 
	C145.747482,91.583076 143.303741,88.588264 139.739441,85.778503 
	C143.852081,84.426796 146.119019,86.306259 148.701141,88.152496 
z"/>
<path fill="#000000" opacity="1.000000" stroke="none" 
	d="
M283.414734,116.330750 
	C284.853333,115.581184 286.033691,114.857559 287.274902,116.602715 
	C286.286072,119.435768 284.066528,119.927872 281.387299,119.780502 
	C280.810028,117.832512 282.316132,117.375298 283.414734,116.330750 
z"/>
<path fill="#000000" opacity="1.000000" stroke="none" 
	d="
M142.505493,127.363373 
	C154.705444,120.324478 164.826859,122.047722 173.509857,132.382965 
	C180.931717,141.217087 181.144867,156.211792 173.970810,164.807785 
	C167.967377,172.001099 155.652649,173.418503 145.937225,167.986618 
	C144.342896,167.095215 142.973938,165.736115 141.313889,165.036942 
	C126.091904,158.625931 129.085068,140.913513 137.058243,132.274048 
	C138.628235,130.572876 140.480087,129.131821 142.505493,127.363373 
M172.864502,145.482285 
	C172.790741,142.040665 171.003784,140.203445 167.592255,140.360245 
	C164.876450,140.485062 163.448563,142.211945 163.333862,144.916168 
	C163.212051,147.787659 164.595581,149.774094 167.360474,150.377121 
	C170.582489,151.079849 172.367661,149.437439 172.864502,145.482285 
z"/>
</svg>