<?xml version="1.0" encoding="utf-8"?>
<svg width="384" height="320" viewBox="0 0 384 320" fill="none" xmlns="http://www.w3.org/2000/svg">
  <g>
    <path d="M20.6121 144.343C35.6227 138.48 43.5054 126.191 50.7643 113.268C51.5971 111.785 51.8659 110.615 50.6652 109.224C37.742 94.2492 34.4521 75.9775 33.431 57.1433C32.4272 38.6256 35.2102 20.3274 37.9419 2.06918C38.0543 1.31847 38.6135 0.634628 38.917 0.0164642C41.2119 -0.184605 42.1726 1.50019 43.1418 2.64892C51.635 12.7145 63.1535 18.5801 74.2694 24.8673C84.7401 30.7897 94.8935 36.9964 103.576 46.1626C118.092 37.8361 134.363 36.6432 150.696 35.021C143.983 32.3294 137.042 30.9166 129.907 30.7256C129.512 28.7804 130.947 28.6208 131.898 28.1606C148.536 20.1098 169.095 24.7311 180.682 39.1348C181.536 40.1967 182.405 41.0898 183.726 41.5899C189.962 43.9504 195.96 46.8356 201.777 50.0812C203.776 51.1966 205.34 51.3329 207.024 49.4263C218.259 36.7062 233.76 31.1614 248.769 24.8208C252.748 23.1398 256.801 21.6812 260.716 19.795C265.928 17.2843 269.373 13.383 271.747 7.89923C274.428 12.7499 274.968 17.8841 275.3 22.6972C276.614 41.8016 276.979 60.9554 272.483 79.7772C269.475 92.3704 264.909 104.323 255.443 113.679C252.39 116.696 253.029 119.489 255.018 122.531C261.842 132.963 268.192 143.796 279.029 150.831C279.961 151.437 281.127 151.996 280.881 153.919C276.059 154.403 271.773 151.697 266.547 151.235C267.823 153.637 267.46 155.583 266.31 157.97C258.765 173.63 246.818 184.661 231.478 192.345C230.347 192.912 228.866 193.108 228.3 195.148C233.132 197.714 238.023 200.39 242.992 202.912C244.863 203.862 246.038 202.094 247.404 201.274C256.056 196.074 264.708 194.621 273.569 200.891C280.215 205.594 284.125 216.668 281.938 224.51C281.362 226.575 280.329 227.321 278.409 227.032C276.502 226.746 275.939 225.697 275.718 223.618C275.128 218.078 274.458 212.436 270.975 207.73C266.358 201.494 256.638 200.983 251.237 206.53C249.686 208.122 250.063 209.326 251.182 210.865C253.339 213.829 255.312 216.859 255.896 220.655C256.417 224.031 259.36 222.87 261.504 223.302C263.816 223.768 268.033 221.358 268.034 225.335C268.035 229.437 263.655 227.728 261.173 227.772C250.513 227.961 239.848 227.854 229.184 227.875C223.893 227.885 218.853 228.273 213.595 230.065C208.478 231.808 202.32 230.24 196.916 231.451C187.253 233.616 179.082 227.857 169.873 227.371C162.493 226.982 155.262 228.176 148.033 227.737C138.641 227.167 129.991 228.833 121.793 233.273C119.018 234.776 116.146 235.186 113.118 234.171C112.96 234.118 112.786 234.015 112.639 234.042C104.137 235.623 96.1264 235.378 89.7325 228.324C89.2535 227.796 87.8207 228.074 86.8315 228.075C60.8536 228.106 34.8756 228.113 8.8984 228.266C6.91333 228.278 5.69724 227.836 4.92083 226.126C-0.233818 214.769 -2.23212 203.19 3.34838 191.425C9.97127 177.462 23.4493 175.614 33.9436 187.132C39.8319 193.595 43.3702 201.588 47.7925 209.003C49.1339 211.252 49.8443 213.943 52.5971 215.738C55.5802 210.128 58.4586 204.374 64.4763 201.518C69.9957 198.898 75.6508 196.565 81.7652 193.877C75.7511 190.141 70.0737 186.805 64.5934 183.172C52.7458 175.317 42.959 165.699 38.8257 151.548C38.2124 149.448 36.8199 148.573 34.9014 148.27C31.2907 147.699 27.6624 147.24 24.0506 146.675C22.6041 146.449 20.4315 147.39 20.6121 144.343C20.6121 144.343 20.6121 144.343 20.6121 144.343ZM48.9298 159.64C51.0104 163.209 54.9652 165.608 55.4879 170.149C60.8128 170.001 62.641 175.062 66.2495 177.473C78.5674 185.704 90.4657 194.885 106.813 190.721C107.747 190.483 108.807 190.683 109.803 190.753C123.76 191.736 135.964 203.839 135.744 216.465C135.625 223.28 135.629 223.44 142.711 223.242C152.5 222.967 162.25 221.313 172.088 223.091C175.178 223.649 175.42 221.074 175.076 218.702C174.539 215.001 174.868 211.439 176.512 208.025C181.985 196.66 193.89 190.598 208.862 192.573C213.818 193.227 217.96 192.549 222.25 190.492C236.989 183.423 250.456 174.848 258.921 160.199C259.662 158.916 261.171 157.395 260.348 156.147C256.667 150.568 259.737 147.689 264.741 145.477C257.303 137.266 252.432 127.935 246.935 119.015C245.668 116.96 244.999 115.256 247.398 113.445C258.177 105.307 263.288 93.7119 266.927 81.2092C270.699 68.2455 270.702 54.8784 271.035 41.5884C271.202 34.9125 270.244 28.2084 269.759 20.9953C260.064 26.2492 250.277 29.1476 241.082 33.4232C229.451 38.8318 217.643 44.1351 209.677 54.8472C206.986 58.4655 204.99 58.9739 201.314 55.9033C198.192 53.2957 194.103 51.8405 190.429 49.9005C187.742 48.4816 185.007 47.4082 182.293 49.4223C174.19 41.8185 168.714 31.1463 154.868 30.2518C161.381 34.2135 167.459 36.9561 172.152 41.9321C169.547 43.9271 167.608 42.6694 165.742 42.3773C145.507 39.2091 125.782 40.5822 107.43 50.2641C103.101 52.5479 101.263 51.9715 98.5169 48.6037C95.2757 44.6284 91.3075 41.3015 87.0828 38.3047C76.464 30.772 64.4186 25.6454 53.6558 18.3699C49.8918 15.8255 46.2308 13.1286 42.4304 10.436C42.0737 11.2686 41.884 11.5599 41.8228 11.8761C38.6738 28.1369 38.0097 44.4634 39.0853 61.0308C40.2192 78.4967 44.6007 94.4164 56.2812 107.837C57.9568 109.762 57.6733 111.621 56.5399 113.787C51.1274 124.128 45.4565 134.255 35.6277 141.779C37.8869 142.632 39.7538 143.212 41.5098 144.03C43.8513 145.121 46.5861 147.172 45.9346 149.422C44.7453 153.527 46.8559 156.078 48.9298 159.64C48.9298 159.64 48.9298 159.64 48.9298 159.64ZM108.767 227.442C112.141 224.285 110.741 219.844 111.31 215.37C116.725 219.125 115.616 224.146 115.521 228.799C120.037 228.681 121.23 225.354 123.098 222.666C125.245 219.578 122.099 216.272 123.498 213.149C126.056 213.42 126.562 215.329 127.171 216.976C127.812 218.708 128.168 220.546 128.789 222.864C131.032 216.569 130.573 212.235 127.676 207.526C122.036 198.356 113.293 195.161 103.287 196.134C93.2377 197.111 83.2381 199.154 73.7433 202.81C66.8633 205.46 61.1894 209.814 58.3603 216.919C56.5489 221.469 57.7954 223.248 62.4031 223.295C68.3968 223.355 74.3922 223.251 80.3858 223.316C83.7175 223.352 87.0507 223.599 89.1285 220.455C91.9263 221.247 92.8818 223.635 94.6557 225.068C98.6883 228.326 102.803 231.081 108.767 227.442C108.767 227.442 108.767 227.442 108.767 227.442ZM189.657 201.158C183.652 204.334 181.061 209.761 180.026 216.096C179.275 220.697 181.588 223.904 186.824 225.666C186.338 221.723 185.084 217.616 189 214.066C191.32 224.121 192.476 225.465 198.611 225.693C200.732 223.012 197.382 218.658 200.893 216.449C202.085 216.587 202.4 217.18 202.528 217.844C204.167 226.36 208.827 228.336 215.953 223.001C218.546 221.059 220.859 218.775 223.797 222.564C224.186 223.067 225.672 222.771 226.649 222.757C231.311 222.692 235.974 222.646 240.633 222.495C243.677 222.396 246.869 223.249 249.741 221.532C249.52 217.525 247.352 214.792 245.121 212.084C238.025 203.467 227.672 201.416 217.707 199.096C208.578 196.97 199.228 196.624 189.657 201.158C189.657 201.158 189.657 201.158 189.657 201.158ZM38.5742 205.036C36.0486 200.349 33.1892 195.873 29.8351 191.74C22.504 182.707 12.9755 184.332 8.64619 195.164C5.38721 203.318 5.74289 211.265 8.87461 219.349C9.92731 222.067 11.3281 223.271 14.3011 223.243C24.4292 223.147 34.5593 223.271 44.6887 223.28C45.8088 223.281 47.068 223.477 47.9181 221.979C45.9732 216.087 41.0934 211.614 38.5742 205.036C38.5742 205.036 38.5742 205.036 38.5742 205.036Z" fill="#000000" transform="translate(47.516 50.396)" />
    <path d="M20.2747 57.1471C15.1561 55.2517 10.8871 52.6321 7.27463 49.1469C-0.908768 41.252 -1.51143 32.039 2.13081 21.6424C11.3551 -4.68797 37.8365 -4.04248 50.7831 7.95717C60.4297 16.8983 65.2704 28.6598 61.7899 42.3506C59.751 50.371 48.9949 58.1439 38.8845 59.1825C32.6835 59.8195 26.5827 59.2917 20.2747 57.1471C20.2747 57.1471 20.2747 57.1471 20.2747 57.1471ZM27.7287 55.8393C31.5499 56.1073 35.3663 56.3911 39.1946 55.8692C50.9175 54.2709 60.8697 43.9411 59.5293 33.8266C58.4749 25.87 55.7289 18.3437 49.8566 12.3425C37.7887 0.00975037 16.5332 2.3508 9.54997 15.4348C10.8742 14.2776 11.5835 13.6585 12.292 13.0385C24.4579 2.39149 40.4951 4.43015 49.3271 17.9028C56.327 28.5807 55.8187 47.7882 36.8579 53.1497C33.6893 54.0458 30.4915 54.8386 27.7287 55.8393C27.7287 55.8393 27.7287 55.8393 27.7287 55.8393ZM14.0998 21.0188C11.5174 23.4016 11.6697 25.9856 13.8548 28.4171C15.3129 30.0397 17.2602 30.4645 19.2111 29.0939C21.1269 27.7479 22.3419 25.8888 21.3533 23.5747C20.1114 20.6675 17.955 19.1408 14.0998 21.0188C14.0998 21.0188 14.0998 21.0188 14.0998 21.0188Z" fill="#000000" transform="translate(222.977 142.893)" />
    <path d="M5.45741 16.2996C16.3823 -5.23486 46.3115 -4.78894 57.6623 13.8471C68.1958 31.1412 67.4798 54.818 39.868 61.1037C29.5356 63.4558 19.7152 62.5495 11.0147 55.8661C0.930527 48.1198 -2.43439 36.8645 1.77042 24.872C2.75767 22.0563 4.07822 19.3574 5.45741 16.2996C5.45741 16.2996 5.45741 16.2996 5.45741 16.2996ZM56.3087 47.4015C60.9054 42.0133 60.4328 35.5877 59.6168 29.3067C56.9028 8.41673 36.1264 -2.30742 17.8084 7.80617C9.94363 12.1484 7.0929 20.2426 4.44814 28.1811C1.53259 36.9326 4.90714 47.13 12.2811 52.7142C25.8491 62.9891 44.3345 60.9916 56.3087 47.4015C56.3087 47.4015 56.3087 47.4015 56.3087 47.4015Z" fill="#000000" transform="translate(121.033 136.36)" />
    <path d="M35.5673 23.434C21.3818 21.4437 9.40033 24.2682 0.996719 37.0758C-1.2851 33.4051 0.832932 31.145 2.54933 29.1928C6.99159 24.1401 12.668 21.2977 19.3779 20.2753C22.4938 19.8005 26.3217 19.8121 27.0066 15.1925C25.6225 13.1788 23.1019 12.8239 21.3118 11.3982C19.0759 9.61749 17.643 7.44189 18.1324 4.54318C18.6397 1.53847 21.1103 1.04947 23.6754 0.415985C27.0721 -0.422852 30.3051 0.171143 33.5633 0.759933C36.0382 1.20721 37.8508 2.71921 38.3939 5.24748C38.9353 7.76801 37.8625 9.7887 35.8434 11.3122C35.1798 11.8128 34.4354 12.2084 33.7853 12.7242C32.5654 13.692 30.342 13.987 30.8483 16.2235C31.4171 18.7353 33.5255 19.5311 35.7838 19.6894C41.9031 20.1184 47.5908 21.8056 52.5663 25.4353C55.1464 27.3175 58.1997 29.0647 57.5878 34.3341C51.0699 28.2253 44.4391 23.8069 35.5673 23.434C35.5673 23.434 35.5673 23.434 35.5673 23.434Z" fill="#000000" transform="translate(175.229 176.085)" />
    <path d="M22.3293 5.18536C24.0041 7.21754 25.8259 8.87909 24.0377 12.1947C17.3827 5.44743 10.0598 0.959 0 6.81369C3.03482 -1.84032 13.2019 -2.10322 22.3293 5.18536C22.3293 5.18536 22.3293 5.18536 22.3293 5.18536Z" fill="#000000" transform="translate(244.394 119.049)" />
    <path d="M0.920105 6.45434C5.70024 -0.0988312 11.9775 -0.972481 18.9122 0.801437C20.9386 1.31979 23.6587 1.82083 22.7671 6.0061C14.0867 1.43176 7.086 4.31071 1.31873 10.9333C-0.943817 9.41003 0.248291 8.07046 0.920105 6.45434C0.920105 6.45434 0.920105 6.45434 0.920105 6.45434Z" fill="#000000" transform="translate(137.987 113.609)" />
    <path d="M28.5181 0.0629425C43.941 1.97221 50.5957 16.0688 49.1652 30.1626C48.0272 41.375 35.3623 50.7614 23.3626 48.3777C8.15536 45.3569 -1.12306 38.9142 0.109276 22.6192C1.13555 9.0488 13.6399 -0.888306 28.5181 0.0629425C28.5181 0.0629425 28.5181 0.0629425 28.5181 0.0629425ZM41.7102 20.8837C41.9328 17.8593 40.9312 15.611 37.68 15.0753C35.1468 14.6578 33.6575 15.9538 32.8718 18.3387C32.0609 20.8003 32.8517 22.5888 35.0091 23.7493C37.8564 25.2808 40.1077 24.6025 41.7102 20.8837C41.7102 20.8837 41.7102 20.8837 41.7102 20.8837Z" fill="#000000" transform="translate(127.943 142.328)" />
  </g>
</svg>