<svg version="1.1" id="Layer_1" xmlns="http://www.w3.org/2000/svg" xmlns:xlink="http://www.w3.org/1999/xlink" x="0px" y="0px"
	 width="100%" viewBox="0 0 384 320" enable-background="new 0 0 384 320" xml:space="preserve">
<path fill="#000000" opacity="1.000000" stroke="none" 
	d="
M100.004738,221.017212 
	C98.139442,221.272293 96.700768,220.444977 95.712555,219.002457 
	C91.955032,213.517548 87.752953,208.221024 86.185608,201.593781 
	C85.624512,199.221329 84.517250,198.259415 82.267731,197.914200 
	C77.615990,197.200333 72.988419,196.328934 68.419540,195.534271 
	C68.561401,193.487030 69.778755,193.194260 70.818771,192.755051 
	C84.650337,186.913757 91.610443,174.599030 99.088890,162.770798 
	C100.120331,161.139450 99.233421,159.905426 98.211189,158.756729 
	C87.387939,146.594345 83.601288,131.603027 81.944077,116.088043 
	C79.664268,94.744141 82.535378,73.592598 85.916321,52.533867 
	C86.075172,51.544464 86.282768,50.553329 87.282181,50.002640 
	C88.435707,49.868992 89.187584,50.608112 89.805244,51.352024 
	C99.650185,63.209435 113.203850,69.803185 126.205353,77.233299 
	C134.449371,81.944611 142.348938,87.218193 149.013336,94.107101 
	C150.194366,95.327927 151.153854,96.463379 153.237198,95.433220 
	C168.066696,88.100380 183.998169,86.306541 200.362122,86.088531 
	C193.034073,82.827446 185.267776,81.523071 175.995636,81.007874 
	C181.373138,76.965843 186.618576,75.942619 191.628540,75.250412 
	C206.439804,73.203995 218.838501,77.903786 228.129990,89.916405 
	C229.068680,91.129997 229.961914,92.310844 231.505295,92.720451 
	C238.179718,94.491867 244.170258,97.759041 250.041840,101.255913 
	C251.794113,102.299484 253.113953,102.096153 254.429016,100.626732 
	C266.930969,86.657463 284.154114,80.872993 300.736053,74.003250 
	C305.360168,72.087524 309.830872,70.034523 313.973969,67.114311 
	C317.029510,64.960663 316.936127,60.884598 320.457672,58.159660 
	C321.395203,63.542686 322.660706,68.295502 322.985779,73.111778 
	C324.367554,93.585754 324.667480,114.045143 319.149933,134.078979 
	C315.931183,145.766098 311.086884,156.679932 302.188354,165.289444 
	C299.850769,167.551086 300.327332,169.562958 301.750702,171.932526 
	C308.708496,183.515656 315.545227,195.188202 327.618805,202.437302 
	C327.991119,202.660843 328.162506,203.219055 328.842438,204.250748 
	C323.425262,205.543854 319.015289,202.077332 313.790070,202.312759 
	C315.001495,204.417847 315.138672,206.138947 313.892273,208.524918 
	C305.757568,224.096832 294.281128,236.049942 278.096954,243.245346 
	C277.495758,243.512634 276.935791,243.897339 276.409302,244.296799 
	C276.170807,244.477753 276.061523,244.828995 275.509399,245.729858 
	C280.625061,248.351761 285.641113,251.084290 290.810608,253.486572 
	C292.682617,254.356476 294.218781,252.575729 295.735077,251.626480 
	C303.506439,246.761200 311.597809,245.092026 319.650330,250.485184 
	C327.538971,255.768616 330.255829,263.849548 330.071960,273.033966 
	C330.029175,275.169525 330.019714,277.726593 326.708008,277.352692 
	C323.739990,277.017609 323.223969,275.329865 323.530792,272.417053 
	C324.192444,266.135620 320.491364,261.231842 317.191162,256.445892 
	C315.041351,253.328217 311.413696,252.877457 307.731110,253.083878 
	C305.461792,253.211075 303.593048,254.203156 301.644592,255.135880 
	C298.054718,256.854340 296.154755,258.789215 299.678772,262.580780 
	C301.088440,264.097473 302.257507,266.307556 302.514923,268.331879 
	C303.133057,273.193268 305.862549,274.317383 310.117615,273.704987 
	C311.099182,273.563721 312.114441,273.667725 313.113281,273.632599 
	C314.429779,273.586334 315.459503,273.983948 315.614563,275.446503 
	C315.788971,277.091400 314.851685,277.938660 313.315674,278.087646 
	C311.993042,278.215912 310.654938,278.213196 309.323517,278.216553 
	C298.993866,278.242676 288.663666,278.196899 278.334808,278.296509 
	C272.412750,278.353607 266.631866,278.069519 260.770355,280.647034 
	C256.764893,282.408386 251.584915,282.194000 247.016068,281.817963 
	C239.956390,281.236908 233.065964,282.012268 225.755630,279.061035 
	C218.665939,276.198853 209.796585,276.332092 201.613312,277.700134 
	C199.652390,278.028015 197.609222,278.441040 195.670013,278.223969 
	C186.115128,277.154358 177.268478,279.157440 168.913605,283.784271 
	C166.497986,285.122009 163.861191,285.402527 161.156570,284.692932 
	C160.834290,284.608368 160.490585,284.415100 160.189880,284.466339 
	C151.676422,285.916779 143.759109,285.360718 137.111145,278.781158 
	C136.135956,277.815979 133.582626,278.345093 131.760071,278.351532 
	C106.621605,278.440277 81.483101,278.540558 56.345066,278.705994 
	C54.465599,278.718353 52.963459,278.371674 52.351566,276.510498 
	C49.172451,266.840729 45.925926,257.188873 48.769299,246.759872 
	C49.889263,242.652039 51.697887,238.959045 54.517036,235.811050 
	C62.888706,226.462921 75.115402,227.689072 83.343056,239.221542 
	C87.867714,245.563644 91.390602,252.621750 95.343422,259.369751 
	C96.523239,261.383911 97.706825,263.381256 99.870369,265.134125 
	C103.755997,260.515320 106.341675,254.808212 112.040398,251.772263 
	C117.483528,248.872467 123.427185,247.194061 129.315918,244.351196 
	C127.747231,241.987030 125.409546,241.375427 123.463158,240.378479 
	C116.294640,236.706757 109.923981,231.888550 103.720360,226.842575 
	C102.093681,225.519440 100.323463,224.078278 100.347778,221.231384 
	C104.091499,218.675156 106.329086,220.881348 108.530289,222.959824 
	C114.385658,228.488739 120.960457,233.066681 128.155472,236.548248 
	C134.045135,239.398193 139.839844,243.413849 147.014038,241.648712 
	C151.864227,240.455383 156.670685,241.144714 161.396820,241.991943 
	C173.095856,244.089157 183.052414,255.277100 183.218369,266.136383 
	C183.334518,273.736298 183.334839,273.762634 191.014999,273.668945 
	C193.007126,273.644623 195.003754,273.463623 196.985931,273.243225 
	C203.298111,272.541534 209.642197,272.288910 215.938660,272.988464 
	C222.726776,273.742676 222.730286,273.952209 222.627396,267.443756 
	C222.521317,260.734283 224.855820,255.136658 229.848389,250.581848 
	C237.896606,243.239334 247.442795,241.672394 257.783783,243.190491 
	C259.773621,243.482605 261.736877,244.072357 263.690308,243.362930 
	C281.631256,236.847336 297.216034,227.239670 307.049286,210.136414 
	C307.629181,209.127838 308.636200,207.892090 307.920959,206.922073 
	C303.867676,201.424896 308.211700,199.021286 312.089630,196.394852 
	C305.126740,187.994949 300.043793,178.822098 294.653961,169.842911 
	C293.425140,167.795731 292.562653,166.083603 295.143494,164.360367 
	C302.525726,159.431183 306.313904,151.860641 310.102661,144.187592 
	C316.155701,131.928970 317.652435,118.684364 318.501495,105.413544 
	C319.207306,94.381958 319.186035,83.254570 317.220367,71.578316 
	C307.891876,77.095184 298.041138,80.144547 288.669464,84.312294 
	C276.454041,89.744675 264.462402,95.608818 256.274109,106.827499 
	C254.130432,109.764534 252.371689,108.520302 249.982620,107.146629 
	C243.899551,103.648949 238.600616,97.877022 230.414810,99.829865 
	C229.862991,99.961502 228.936478,99.163834 228.396484,98.596382 
	C225.533173,95.587273 222.441528,92.733025 219.983154,89.414581 
	C215.470428,83.323067 209.078049,81.501961 201.558624,80.057480 
	C207.875305,84.634758 214.998856,86.801781 219.733353,92.717445 
	C217.261978,94.370758 215.548782,93.145599 213.831055,92.848663 
	C195.373276,89.657906 177.135208,90.604568 159.974106,98.206726 
	C153.046860,101.275391 148.839569,102.546623 143.160614,95.849022 
	C134.079315,85.138771 120.824448,79.862671 108.845680,73.039200 
	C102.526329,69.439507 96.729034,65.075966 91.059982,60.431957 
	C90.514755,61.074924 90.204308,61.290260 90.112595,61.575840 
	C89.759064,62.676598 89.373016,63.782486 89.181061,64.917244 
	C85.999603,83.724937 84.685036,102.662178 87.712433,121.547798 
	C89.557045,133.054962 93.063896,144.222565 100.583740,153.631775 
	C106.025330,160.440567 106.090271,160.537598 101.833351,167.961609 
	C96.745903,176.834045 91.747131,185.811966 82.000450,192.401199 
	C88.449036,192.773804 91.823288,195.857208 95.346504,199.513306 
	C91.903290,200.935898 91.951920,202.976974 93.799126,205.495728 
	C95.960724,208.443146 97.714645,211.732086 100.134247,214.435349 
	C102.384598,216.949570 102.672821,218.867630 100.004738,221.017212 
M119.466583,273.691620 
	C125.335663,272.965668 131.724274,275.639679 137.112228,270.818756 
	C140.540863,272.884033 142.621689,276.565063 146.233490,278.390442 
	C149.233612,279.906677 152.124344,280.607391 155.184372,278.609344 
	C158.198792,276.640991 159.026413,273.791107 158.756088,270.401520 
	C158.650528,269.078003 157.371735,267.455933 159.528549,266.568848 
	C162.967102,269.945679 162.967102,269.945679 163.413101,279.409058 
	C170.815674,276.386627 172.679779,270.841614 170.307831,262.819580 
	C174.992081,265.283752 174.927063,269.164917 176.528687,272.663147 
	C178.195114,269.427856 178.090805,266.525665 177.436981,263.625946 
	C175.110947,253.309692 165.322693,245.825043 153.492432,246.473969 
	C141.884628,247.110687 130.383362,249.227921 119.614754,253.884506 
	C113.548340,256.507782 108.418945,260.594421 105.829971,266.976593 
	C103.917686,271.690582 105.233849,273.618347 109.997841,273.695038 
	C112.826515,273.740601 115.656654,273.694611 119.466583,273.691620 
M240.221069,274.313782 
	C242.194427,275.879974 244.231003,277.197327 246.901764,276.267822 
	C246.956253,268.474487 246.956253,268.474487 249.115158,266.397461 
	C253.628708,278.574341 253.843399,278.655457 265.265961,272.425049 
	C266.273926,271.875275 267.371094,270.829498 268.458160,271.629272 
	C272.427124,274.549347 276.841400,272.766602 281.007782,272.845856 
	C286.383667,272.948090 291.848877,273.403442 297.321442,272.443176 
	C297.362610,268.054413 294.997284,265.481781 292.964020,262.663818 
	C285.396881,252.176437 253.810471,244.876465 240.898087,249.879440 
	C233.486053,252.751236 229.127182,257.749115 227.670288,265.356262 
	C226.615738,270.862488 228.855545,274.338837 234.326477,276.347260 
	C233.111862,268.623840 233.360123,267.413452 236.861053,265.043732 
	C237.735855,268.041046 237.169266,271.476990 240.221069,274.313782 
M90.382248,263.036438 
	C88.476677,259.525909 86.620499,255.987427 84.653389,252.511734 
	C82.030006,247.876480 79.408768,243.224640 75.440987,239.541702 
	C69.320221,233.860352 64.101387,234.133499 58.915703,240.560242 
	C51.919495,249.230850 53.081657,258.717010 56.194851,268.445892 
	C57.385693,272.167328 59.517155,273.796906 63.492249,273.728180 
	C72.813545,273.567017 82.140083,273.731384 91.463974,273.675537 
	C93.019363,273.666229 94.824562,274.276520 96.249451,272.435608 
	C94.442169,269.542633 92.604256,266.600647 90.382248,263.036438 
z"/>
<path fill="#000000" opacity="1.000000" stroke="none" 
	d="
M275.404663,152.616394 
	C281.387634,159.696320 284.658478,167.572205 285.767212,176.378586 
	C286.937073,185.670547 281.387421,194.670319 271.556519,199.427704 
	C258.423889,205.782867 239.582306,202.093903 229.465134,191.601608 
	C221.345978,183.181442 221.636459,173.873474 225.454987,163.867844 
	C233.878754,141.795059 257.821136,136.235641 275.404663,152.616394 
M268.979980,191.558609 
	C263.058319,195.702698 256.360474,197.675034 248.599319,198.637985 
	C257.224518,200.632477 264.810242,199.498993 271.796722,195.433960 
	C278.350006,191.620972 283.407654,185.823990 282.439850,178.087173 
	C279.949310,158.176910 268.040894,143.479813 244.760239,148.479919 
	C241.295929,149.223953 238.453064,151.122849 236.387360,153.961044 
	C251.678406,146.564728 262.868713,148.398849 271.562836,160.034637 
	C278.543579,169.377274 277.670044,183.042007 268.979980,191.558609 
M243.917786,165.642334 
	C241.804504,163.037750 239.306396,162.298172 236.624054,164.608749 
	C234.495270,166.442490 234.898926,168.794983 236.214752,170.938141 
	C237.319565,172.737610 238.957184,174.114380 241.175034,173.152328 
	C244.142838,171.864975 245.351028,169.508682 243.917786,165.642334 
M260.698914,185.914612 
	C258.899933,185.124283 257.758881,185.751801 257.565186,187.641708 
	C257.453552,188.730743 258.284546,189.658203 259.382599,189.501495 
	C261.129517,189.252197 261.980316,188.185730 260.698914,185.914612 
z"/>
<path fill="#000000" opacity="1.000000" stroke="none" 
	d="
M129.701782,147.786652 
	C138.667908,137.170120 149.648514,133.454239 162.569916,137.532791 
	C175.335785,141.562241 183.049667,153.166718 184.384018,167.001801 
	C186.218842,186.025925 174.984589,194.857742 157.947464,198.056549 
	C139.999023,201.426437 123.585808,190.741119 121.354561,174.161041 
	C120.051071,164.474991 124.101448,155.941147 129.701782,147.786652 
M161.507492,194.165848 
	C177.388626,188.553772 182.671829,180.883026 180.809372,166.141174 
	C178.258606,145.951126 159.682861,134.517914 141.919510,142.455902 
	C131.885712,146.939743 127.607689,155.937332 125.242142,165.976395 
	C123.041435,175.315887 126.067909,183.030380 133.455078,188.987061 
	C141.564041,195.525833 150.798080,196.864410 161.507492,194.165848 
z"/>
<path fill="#000000" opacity="1.000000" stroke="none" 
	d="
M293.212646,100.287231 
	C288.337097,102.818626 284.134857,105.538910 280.083435,108.828156 
	C275.319611,112.695801 268.942780,113.291107 262.899536,113.080238 
	C261.811768,110.854240 263.180328,109.804642 264.193848,108.854538 
	C271.324127,102.170135 278.497223,95.448868 287.175995,90.823738 
	C293.651611,87.372711 300.970459,86.570534 308.185089,85.737961 
	C309.640228,85.570038 310.356598,86.564224 310.639282,87.738434 
	C311.379883,90.814682 311.854401,93.907547 309.611938,96.943222 
	C302.749451,90.964317 298.524109,97.284950 293.212646,100.287231 
z"/>
<path fill="#000000" opacity="1.000000" stroke="none" 
	d="
M180.476990,207.454956 
	C178.572098,210.661621 178.572098,210.661621 176.064728,212.149124 
	C173.920654,210.199753 175.519730,208.478302 176.560837,206.941116 
	C180.423187,201.238312 186.132996,198.383255 192.658096,196.906937 
	C193.790588,196.650696 194.998413,196.684708 196.102295,196.353882 
	C198.210205,195.722198 201.100555,196.229019 201.760895,193.197891 
	C202.443939,190.062653 199.654053,189.333649 197.762527,188.238739 
	C194.552109,186.380371 192.436584,183.761276 193.442795,180.132248 
	C194.420776,176.604980 197.994400,176.750641 200.961914,176.584091 
	C202.946823,176.472656 204.950058,176.632568 206.942596,176.724823 
	C209.839844,176.858917 212.291809,178.037506 213.163071,180.872772 
	C214.095215,183.906052 212.658966,186.263855 210.167999,188.188766 
	C208.610748,189.392120 205.454178,189.509354 206.116394,192.487930 
	C206.787140,195.505020 209.638565,195.663284 212.105896,196.017776 
	C218.608521,196.952087 224.883667,198.448837 229.825104,203.186981 
	C231.698135,204.982971 233.799561,206.750854 233.116776,210.069046 
	C216.136017,196.564529 198.816162,194.141068 180.476990,207.454956 
z"/>
<path fill="#000000" opacity="1.000000" stroke="none" 
	d="
M267.414734,130.994965 
	C261.353760,123.501808 254.298737,120.713432 245.740311,125.298935 
	C244.454971,123.730392 245.058609,122.901764 245.805740,122.211182 
	C252.155380,116.342117 266.169189,119.800659 269.078613,127.962074 
	C269.577942,129.362778 270.234802,130.986862 267.414734,130.994965 
z"/>
<path fill="#000000" opacity="1.000000" stroke="none" 
	d="
M143.836548,115.445724 
	C152.095901,111.905479 159.139679,113.207275 162.690247,119.569046 
	C157.832016,118.652313 153.802170,116.360451 149.315811,117.469521 
	C144.957123,118.547028 142.288361,122.038040 138.544800,125.062889 
	C137.215942,119.531647 140.928223,117.914299 143.836548,115.445724 
z"/>
<path fill="#000000" opacity="1.000000" stroke="none" 
	d="
M273.526947,122.152771 
	C274.160004,118.053230 277.254425,115.535072 282.358643,115.070038 
	C281.007935,119.572853 277.652283,121.164413 273.526947,122.152771 
z"/>
<path fill="#000000" opacity="1.000000" stroke="none" 
	d="
M138.151337,106.610504 
	C139.188660,107.534462 140.527252,107.980560 139.677032,109.758530 
	C136.934708,109.879517 134.480316,109.308968 132.653519,106.663330 
	C134.454544,104.296692 136.176010,105.637077 138.151337,106.610504 
z"/>
<path fill="#000000" opacity="1.000000" stroke="none" 
	d="
M135.824860,184.310486 
	C122.635490,172.881042 127.326653,150.854263 144.038345,144.123184 
	C160.433441,137.519623 175.542908,147.604279 177.378113,165.685043 
	C179.044006,182.097672 164.289825,195.237320 145.186951,188.646530 
	C142.063965,187.569061 139.140213,185.914093 135.824860,184.310486 
M165.414474,157.298035 
	C161.669006,157.309921 160.354218,159.705154 160.752914,162.855713 
	C161.071884,165.376266 162.984161,166.890152 165.739899,166.786224 
	C167.826126,166.707550 169.196243,165.570358 169.677383,163.581787 
	C170.429123,160.474686 169.129959,158.430344 165.414474,157.298035 
z"/>
</svg>