<svg version="1.1" id="Layer_1" xmlns="http://www.w3.org/2000/svg" xmlns:xlink="http://www.w3.org/1999/xlink" x="0px" y="0px"
	 width="100%" viewBox="0 0 384 320" enable-background="new 0 0 384 320" xml:space="preserve">
<path fill="#000000" opacity="1.000000" stroke="none" 
	d="
M132.000031,278.002563 
	C108.671478,278.012177 85.842934,278.026672 63.014393,278.032562 
	C61.515415,278.032959 60.011856,278.028412 58.518715,277.916077 
	C57.000477,277.801727 55.292484,277.607391 55.204639,275.633331 
	C55.104404,273.380798 56.849148,272.964661 58.619350,272.944916 
	C64.450592,272.879822 70.282516,272.874969 76.114197,272.852386 
	C78.244354,272.844116 80.374580,272.851044 82.779732,272.851044 
	C81.689514,263.172668 80.572403,254.152832 79.696999,245.109604 
	C79.252441,240.517136 79.330246,236.102661 75.893341,232.142014 
	C73.289017,229.140839 73.067459,224.652908 73.022064,220.696548 
	C72.981133,217.129059 71.573273,215.382584 68.480240,213.906708 
	C63.981148,211.759872 60.180672,208.525833 56.886547,204.805084 
	C57.324017,204.239227 57.550053,203.748352 57.709324,203.769135 
	C70.036224,205.377640 76.348679,196.875153 82.795982,188.753876 
	C89.227852,180.652008 89.044281,180.646164 84.238983,171.790878 
	C79.242462,162.583176 76.507011,152.602829 75.788727,142.214264 
	C74.223091,119.570335 77.456665,97.404282 83.271957,75.562294 
	C83.547684,74.526695 83.535400,73.151909 84.971817,72.729012 
	C86.431786,72.678055 86.925888,73.932587 87.520172,74.823517 
	C94.257233,84.923401 103.750198,91.910278 113.895325,98.108253 
	C124.191696,104.398613 133.810959,111.472443 141.532257,120.857811 
	C143.081177,122.740562 144.533249,123.469833 147.084946,122.408600 
	C170.532089,112.657120 194.003006,115.048454 217.332947,122.815880 
	C226.365768,125.823265 234.964844,129.894104 242.328781,136.138977 
	C244.439896,137.929276 246.213120,137.911194 248.479584,136.095810 
	C260.298889,126.628853 274.205078,121.625954 288.583588,117.646317 
	C293.231293,116.359932 297.784424,114.733971 302.390472,113.294273 
	C308.144562,111.495750 312.458588,107.915985 314.661163,102.364632 
	C317.079346,103.460327 316.958160,104.872902 316.951630,106.173531 
	C316.839386,128.551498 315.851044,150.863174 308.120972,172.166138 
	C303.663269,184.450790 297.855988,196.139053 287.208649,204.457840 
	C283.603760,207.274368 284.010651,210.205338 285.617126,213.667801 
	C290.733673,224.695419 295.925049,235.677948 303.384613,245.392334 
	C303.876343,246.032700 304.513733,246.636230 303.889709,247.886032 
	C299.960358,247.397842 297.314087,243.649017 292.717773,243.214127 
	C294.542755,245.296646 293.619476,246.931122 292.433014,248.591293 
	C290.016296,251.972961 288.096466,255.720016 285.075134,258.655060 
	C281.987640,261.654388 281.425171,264.887390 283.136108,268.982239 
	C284.299194,271.765808 285.757629,272.828857 288.683990,272.754517 
	C295.512268,272.581024 302.346375,272.623505 309.178192,272.613556 
	C310.960297,272.610962 313.201721,272.198059 313.069794,275.064514 
	C312.959320,277.465790 310.954590,277.276886 309.322754,277.286102 
	C297.006836,277.355591 284.688995,277.525970 272.375336,277.373291 
	C265.199982,277.284302 258.160675,278.172028 251.119324,279.271973 
	C246.096970,280.056549 240.907486,279.325073 235.980087,281.242645 
	C234.344681,281.879059 232.162186,281.549438 230.672806,280.439484 
	C224.502594,275.841003 217.170013,276.951141 210.442200,276.937836 
	C184.462280,276.886353 158.480881,277.585815 132.000031,278.002563 
M132.270660,256.361237 
	C132.927444,259.789856 133.840973,263.193481 134.178177,266.653259 
	C134.634232,271.332550 136.627350,273.051849 141.556808,272.937744 
	C166.453827,272.361481 191.359543,272.167725 216.261414,271.788361 
	C220.159348,271.728973 222.436279,270.485107 222.885513,265.702362 
	C223.686966,257.170135 227.761719,250.281815 235.932404,246.368271 
	C245.819443,241.632660 255.534149,242.380859 265.314575,246.739197 
	C270.909302,249.232285 274.922058,253.579010 278.901764,258.470398 
	C280.715393,256.275665 282.084351,254.623749 283.448029,252.967529 
	C284.926086,251.172348 287.725800,248.856445 286.942352,247.231186 
	C284.313232,241.777161 287.523926,239.272171 291.064819,236.891129 
	C291.069489,234.610977 289.811890,233.188690 288.968140,231.590042 
	C285.158173,224.371506 281.690063,216.997131 278.641846,209.419418 
	C277.636505,206.920181 277.611725,204.903885 280.176270,203.439285 
	C288.344879,198.774261 293.049408,191.080170 297.709686,183.358322 
	C306.476440,168.832291 308.546082,152.458878 310.736877,136.111069 
	C311.657104,129.244202 312.070282,122.392265 311.446747,115.054588 
	C304.593048,117.944801 298.094879,119.941353 291.575714,121.890686 
	C276.070709,126.526939 260.522736,131.091095 248.554779,142.984146 
	C246.376877,145.148422 244.202896,144.819031 242.060791,142.613754 
	C235.161301,135.510773 226.581970,131.065186 217.377182,127.917053 
	C193.199738,119.648132 168.982849,117.140045 145.037277,128.762192 
	C142.313797,130.084061 141.131790,129.121521 139.826492,127.039642 
	C135.694824,120.449890 130.204803,115.123734 123.898277,110.676796 
	C116.825890,105.689827 109.645599,100.851250 102.422333,96.084381 
	C96.774010,92.356873 92.090050,87.456909 86.895409,82.805069 
	C82.426727,96.753891 81.597961,110.480812 80.680748,124.290268 
	C79.403976,143.513382 82.185104,161.453400 93.937622,177.265366 
	C95.350220,179.165909 95.545067,180.749756 94.019447,182.622406 
	C91.184105,186.102722 88.326828,189.574585 85.680916,193.197662 
	C81.464584,198.971146 75.853836,203.386002 70.442139,208.092072 
	C78.395714,214.492538 79.186729,214.356796 83.097794,206.512405 
	C86.708961,199.269531 93.607155,196.225601 101.534210,198.936356 
	C105.170647,200.179886 108.182838,200.186554 111.256554,197.643707 
	C109.839790,191.080948 110.185905,184.843872 113.782539,178.862885 
	C120.154953,168.265945 128.115891,159.839874 141.247803,158.882202 
	C159.158142,157.576065 173.442047,172.379501 173.105682,191.469543 
	C172.847916,206.097610 165.680710,213.613205 151.146957,215.462677 
	C145.537384,216.176498 140.010941,215.413513 134.019043,215.313599 
	C138.288208,223.827866 137.227631,231.048096 130.986603,237.325165 
	C129.482941,238.837524 129.173248,240.413025 129.540375,242.300308 
	C130.397598,246.706985 131.289948,251.106827 132.270660,256.361237 
M92.114975,272.785065 
	C102.944466,272.826263 113.777672,272.715057 124.601753,272.978516 
	C129.387222,273.095001 130.226624,271.194458 129.383041,266.914307 
	C127.679398,258.270477 126.360565,249.550751 124.888611,240.861389 
	C124.373276,237.819138 124.449646,235.470398 127.607437,233.221634 
	C133.445694,229.063995 133.221710,221.316803 127.438507,217.345474 
	C125.015182,215.681381 124.621361,213.458633 123.943649,211.076172 
	C121.957527,204.094086 114.418968,201.116150 108.584351,205.240585 
	C106.550308,206.678467 105.335175,206.783218 103.425453,205.267288 
	C99.738686,202.340805 95.783882,202.685562 91.707199,204.715317 
	C86.905029,207.106277 87.211388,211.549194 87.324326,215.974106 
	C83.417725,216.228333 80.165207,217.250763 79.481689,221.235794 
	C78.758698,225.450943 78.810371,229.648300 83.194214,232.235352 
	C84.690437,233.118332 84.986450,234.358521 84.882072,236.034470 
	C84.226006,246.567810 85.688179,256.934265 87.717705,267.221771 
	C88.139297,269.358826 88.259880,272.060120 92.114975,272.785065 
M277.097961,267.447021 
	C272.745209,253.019318 260.884949,247.940765 247.833359,248.543442 
	C236.506058,249.066483 229.244614,255.711014 227.527908,265.193115 
	C226.457901,271.103241 229.573532,275.411285 235.212357,275.663147 
	C233.876862,272.100708 232.637146,268.541351 236.449860,264.623657 
	C237.708099,268.674316 238.549896,272.363831 242.436996,273.873169 
	C246.299194,275.372803 247.504898,274.619202 247.670395,270.550232 
	C247.738571,268.873627 246.928665,266.889282 248.828613,265.670776 
	C249.115936,265.759552 249.351440,265.759613 249.407501,265.859955 
	C255.117981,276.079102 255.867767,276.203857 264.528107,268.362091 
	C266.469421,266.604248 267.846344,267.447205 268.843964,269.400848 
	C269.330688,270.353943 268.341309,271.800537 270.203644,272.681183 
	C272.331879,271.092987 278.594879,276.218384 277.097961,267.447021 
M168.656174,182.966599 
	C166.892593,175.923325 163.611206,169.992950 156.989059,166.297958 
	C137.487457,155.416550 119.826538,168.826370 114.398636,186.832657 
	C112.034721,194.674637 115.159317,199.173172 121.564720,199.944427 
	C117.006363,185.753983 121.391724,172.971848 132.521744,168.007675 
	C144.227570,162.786682 156.073853,166.318726 162.603989,176.761398 
	C166.242371,182.579681 167.106857,188.912643 166.420456,195.475082 
	C165.706207,202.303818 161.906052,207.240433 154.313339,210.791138 
	C163.521378,209.014053 167.440735,205.234512 168.938309,198.129440 
	C169.952362,193.318283 170.056900,188.551987 168.656174,182.966599 
M153.125641,182.786713 
	C150.542664,185.190079 150.709641,187.672852 152.987869,190.140060 
	C154.545090,191.826416 156.407928,192.156006 158.325989,190.821747 
	C160.480988,189.322693 161.357925,187.250717 160.102676,184.790314 
	C158.750687,182.140274 156.795853,180.612686 153.125641,182.786713 
M127.794762,207.019791 
	C128.278732,208.711288 129.215256,210.256256 130.980988,210.474731 
	C136.874130,211.203888 142.747055,212.767578 148.783157,211.310669 
	C141.420151,211.308304 134.967056,207.495483 127.794762,207.019791 
z"/>
<path fill="#000000" opacity="1.000000" stroke="none" 
	d="
M264.384583,230.330536 
	C259.642670,235.480484 253.918930,237.235947 247.481033,237.057739 
	C236.732712,236.760208 226.833557,233.676941 218.046371,227.467545 
	C208.290375,220.573578 205.874451,212.664917 209.737411,201.383606 
	C215.477463,184.620544 229.804962,175.899841 245.635284,179.567734 
	C253.899490,181.482544 260.042419,186.363449 264.151489,193.633408 
	C269.518646,203.129196 274.239655,220.012405 264.384583,230.330536 
M225.428436,227.442505 
	C233.271561,231.519470 241.544815,233.463516 250.433441,232.843552 
	C260.327393,232.153458 267.912079,223.295517 266.686035,213.464539 
	C266.026306,208.174652 264.781769,203.004898 262.670441,198.077011 
	C257.514709,186.043579 244.500626,179.934143 231.788605,183.207504 
	C221.542755,185.845810 216.693787,193.436691 213.193420,202.406952 
	C209.694427,211.373672 210.847687,215.852280 218.558624,222.656174 
	C220.668579,224.096512 222.778549,225.536835 225.428436,227.442505 
z"/>
<path fill="#000000" opacity="1.000000" stroke="none" 
	d="
M254.856735,150.836914 
	C255.195114,148.149109 257.208099,146.584930 258.814331,144.681152 
	C269.349701,132.194275 283.565216,127.992821 299.058990,126.618546 
	C302.455994,126.317230 303.942566,128.185379 304.072723,131.360565 
	C304.251465,135.721756 303.458466,139.924744 301.862244,144.561142 
	C299.670105,141.519073 298.139404,138.243164 294.069885,138.176041 
	C290.493805,138.117065 286.973450,138.613434 283.926849,140.336929 
	C280.353668,142.358322 276.622986,144.175034 273.692352,147.300095 
	C270.683716,150.508347 266.180939,149.179703 262.424896,150.214523 
	C260.374908,150.779297 258.159454,150.743408 255.532654,150.987732 
	C255.046707,150.997055 254.856735,150.836914 254.856735,150.836914 
z"/>
<path fill="#000000" opacity="1.000000" stroke="none" 
	d="
M170.641266,228.099213 
	C170.246445,224.782959 169.914322,221.864960 169.462540,217.895538 
	C176.234344,222.726929 182.397919,223.591476 188.946243,218.192856 
	C191.609161,225.336456 196.505463,226.266785 203.116562,223.711502 
	C198.549377,228.348358 198.534332,234.446152 195.178329,238.868408 
	C190.914795,244.486526 181.439270,244.578903 176.157425,239.014999 
	C173.342590,236.049866 171.621948,232.470062 170.641266,228.099213 
z"/>
<path fill="#000000" opacity="1.000000" stroke="none" 
	d="
M186.196503,216.186920 
	C182.382202,213.980591 178.105362,211.746185 180.113403,207.038956 
	C182.012634,202.586838 186.774063,203.402924 190.677094,204.268677 
	C194.507385,205.118256 199.042923,205.887070 198.746017,211.275436 
	C198.525421,215.278534 192.947189,217.738251 187.492340,216.666107 
	C187.171234,216.603012 186.869171,216.443069 186.196503,216.186920 
z"/>
<path fill="#000000" opacity="1.000000" stroke="none" 
	d="
M95.212784,103.404236 
	C99.078362,104.036728 100.612083,106.914703 102.152115,109.576569 
	C103.214920,111.413567 103.160210,113.841965 101.136971,114.851112 
	C98.531975,116.150429 96.545235,119.808517 92.938057,117.970528 
	C90.569092,116.763443 88.530609,114.971207 89.283981,111.685417 
	C89.724884,109.762474 89.880005,107.775276 90.286964,105.842949 
	C90.829498,103.266891 92.234421,102.079704 95.212784,103.404236 
z"/>
<path fill="#000000" opacity="1.000000" stroke="none" 
	d="
M255.145660,151.072174 
	C257.252319,154.801575 260.149902,158.094604 259.794220,163.207718 
	C253.489456,156.207855 247.072037,149.733856 235.638748,153.544662 
	C238.044769,147.817902 241.408035,147.149429 245.134567,147.909882 
	C248.200775,148.535583 251.145996,149.754227 254.500793,150.773499 
	C254.856735,150.836914 255.046707,150.997055 255.145660,151.072174 
z"/>
<path fill="#000000" opacity="1.000000" stroke="none" 
	d="
M151.688217,132.920135 
	C154.486618,134.679672 157.091339,136.185287 156.929306,139.790634 
	C156.549362,139.740311 133.873230,142.501938 133.730179,142.560898 
	C132.169357,135.066177 141.394470,129.940323 151.688217,132.920135 
z"/>
<path fill="#000000" opacity="1.000000" stroke="none" 
	d="
M266.880676,155.777649 
	C268.854156,154.425446 270.083801,152.249832 272.580963,152.805161 
	C273.476929,153.004425 273.774597,153.972733 273.617371,154.805573 
	C273.112274,157.481750 270.717621,158.162903 268.703491,159.159790 
	C267.706512,159.653259 266.599365,160.129684 265.289520,159.622345 
	C264.201538,157.908859 265.834229,157.097000 266.880676,155.777649 
z"/>
<path fill="#000000" opacity="1.000000" stroke="none" 
	d="
M128.303894,132.211349 
	C128.993973,132.843048 129.423553,133.301590 129.957031,133.871048 
	C125.787460,134.424759 124.255455,133.836227 120.846786,130.366440 
	C124.058693,127.858788 125.792610,131.192825 128.303894,132.211349 
z"/>
<path fill="#000000" opacity="1.000000" stroke="none" 
	d="
M95.025208,141.856049 
	C93.478806,139.369980 93.878067,137.026428 95.256767,134.657730 
	C95.991714,137.055710 98.555893,139.326660 95.025208,141.856049 
z"/>
<path fill="#000000" opacity="1.000000" stroke="none" 
	d="
M114.972458,228.950348 
	C115.272530,231.002716 116.147072,232.713318 117.748459,234.095657 
	C120.844559,236.768280 122.088776,240.001678 120.116203,243.866592 
	C118.062523,247.890411 114.475639,249.627121 110.186974,249.073807 
	C106.701012,248.624039 103.371895,248.498947 99.855339,248.944733 
	C95.686531,249.473190 92.364708,247.256470 90.563881,243.510361 
	C88.692162,239.616760 89.517326,236.093140 93.056808,233.308441 
	C94.083366,232.500824 94.903603,231.393402 95.696449,230.332275 
	C101.525497,222.530853 106.982925,222.019501 114.737366,228.799042 
	C114.997421,228.987747 114.972458,228.950348 114.972458,228.950348 
z"/>
<path fill="#000000" opacity="1.000000" stroke="none" 
	d="
M116.989220,220.008743 
	C111.865501,225.065918 110.998657,225.122192 105.153145,220.588516 
	C102.305107,222.045456 99.514725,224.816208 95.224922,222.112244 
	C94.083969,220.682007 93.493767,219.722412 92.903549,218.762817 
	C93.117599,218.141098 93.486694,217.527435 93.519470,216.896317 
	C93.680382,213.798172 94.140083,210.784012 97.584808,209.704620 
	C101.165497,208.582626 102.921928,211.395966 105.146370,213.993103 
	C106.972191,211.212479 109.220490,208.651550 112.729103,210.020844 
	C116.777534,211.600815 116.949348,215.489288 117.065659,219.584122 
	C116.999985,219.999710 116.989220,220.008743 116.989220,220.008743 
z"/>
<path fill="#000000" opacity="1.000000" stroke="none" 
	d="
M117.003860,219.993668 
	C119.602974,217.870392 122.247536,217.068832 124.811317,219.961151 
	C127.194275,222.649475 127.369095,228.273865 125.096184,230.483734 
	C121.519005,233.961746 118.507408,231.787155 115.275284,229.148514 
	C114.972458,228.950348 114.997421,228.987747 115.011650,229.004959 
	C114.870255,226.101929 115.429550,223.331833 116.878845,220.367126 
	C116.989220,220.008743 116.999985,219.999710 117.003860,219.993668 
z"/>
<path fill="#000000" opacity="1.000000" stroke="none" 
	d="
M92.557175,218.631226 
	C93.493767,219.722412 94.083969,220.682007 94.904205,221.900269 
	C95.173447,222.656631 95.181541,223.159119 95.256844,223.651306 
	C95.789108,227.130203 95.072998,229.943268 91.367790,231.281647 
	C89.161507,232.078598 87.198746,232.171021 85.516464,230.130173 
	C83.037949,227.123367 83.191299,223.973541 85.029015,220.852676 
	C86.663788,218.076477 89.044960,216.925140 92.557175,218.631226 
M91.101151,222.613007 
	C90.159012,221.352203 88.997459,220.817612 87.881599,222.227875 
	C86.807838,223.584930 87.503090,225.051224 88.181778,226.394135 
	C88.589973,227.201843 89.338623,227.748901 90.185928,227.409973 
	C92.258415,226.580948 91.878952,224.894760 91.101151,222.613007 
z"/>
<path fill="#000000" opacity="1.000000" stroke="none" 
	d="
M224.888504,226.977173 
	C222.778549,225.536835 220.668579,224.096512 218.194519,222.090622 
	C212.433670,212.719849 214.023956,204.264496 219.506302,196.290741 
	C225.200623,188.008682 233.422180,184.059509 243.257019,185.916855 
	C252.571533,187.675949 259.352692,193.694595 261.454071,203.116348 
	C265.008087,219.051147 259.731201,229.623703 241.448883,230.132538 
	C235.664902,230.293533 230.334610,228.410629 224.888504,226.977173 
M232.155014,198.964905 
	C229.992783,196.774857 227.500198,196.251831 225.115356,198.292419 
	C223.275391,199.866760 223.186234,202.041641 224.613571,204.109406 
	C225.813171,205.847244 227.347244,207.352478 229.549377,206.213486 
	C232.171402,204.857315 234.228088,202.923721 232.155014,198.964905 
M246.153229,221.429352 
	C244.544632,219.861710 243.567657,220.591080 242.941605,222.352127 
	C242.571655,223.392700 242.717194,224.512009 243.929718,224.664795 
	C245.750793,224.894226 246.651047,223.871338 246.153229,221.429352 
z"/>
</svg>