<svg version="1.1" id="Layer_1" xmlns="http://www.w3.org/2000/svg" xmlns:xlink="http://www.w3.org/1999/xlink" x="0px" y="0px"
	 width="100%" viewBox="0 0 384 320" enable-background="new 0 0 384 320" xml:space="preserve">
<path fill="#000000" opacity="1.000000" stroke="none" 
	d="
M184.708069,115.984421 
	C201.287643,117.283791 216.767761,120.855415 230.960068,128.878387 
	C234.717651,131.002563 238.243622,133.544632 241.820984,135.975677 
	C243.443390,137.078201 244.691910,137.761902 246.628204,136.151917 
	C259.640045,125.332954 275.290192,120.191238 291.235992,115.709343 
	C294.917603,114.674561 298.523499,113.373634 302.188293,112.275284 
	C307.731384,110.613998 311.032318,106.322243 313.805023,101.510841 
	C314.613129,102.248306 315.034271,102.448433 315.044983,102.668541 
	C316.389130,130.270523 313.607544,157.208954 301.759674,182.601089 
	C297.774872,191.141220 292.578552,198.878326 284.801025,204.489471 
	C282.521515,206.134048 282.654755,207.732849 283.557617,210.026978 
	C288.460266,222.484009 294.680725,234.197357 302.741852,244.909958 
	C303.117615,245.409302 303.367523,246.003296 304.113403,247.332672 
	C298.794952,246.965286 296.141266,242.100174 290.850525,242.049011 
	C294.047943,244.394974 292.608032,246.478287 291.117889,248.499893 
	C288.352203,252.252029 285.648865,256.059692 282.693573,259.658630 
	C281.141174,261.549103 280.837677,263.250458 281.539795,265.578491 
	C283.672241,272.649292 283.583679,272.708160 291.092590,272.572296 
	C296.753052,272.469910 302.411346,272.196838 308.071594,272.163452 
	C309.749512,272.153534 312.133789,271.698975 312.264984,274.451263 
	C312.409393,277.479797 310.043671,277.237091 308.043335,277.241516 
	C295.878418,277.268402 283.707703,277.046478 271.550293,277.355865 
	C260.119995,277.646759 248.692230,278.371796 237.482849,280.966003 
	C235.327911,281.464691 232.993851,281.634430 231.134048,280.452606 
	C223.630341,275.684296 215.049652,276.103912 207.019821,276.578613 
	C193.352905,277.386627 179.713684,277.123871 166.069931,277.206757 
	C131.242737,277.418335 96.413651,277.321991 61.585323,277.346130 
	C60.752373,277.346710 59.917755,277.342773 59.086807,277.292877 
	C57.721901,277.210907 56.254978,277.084137 56.125000,275.319519 
	C55.976528,273.303772 57.429901,272.792603 59.065865,272.779572 
	C64.897827,272.733063 70.730858,272.788086 76.562126,272.706726 
	C78.680321,272.677216 80.887253,273.150116 83.315750,271.811554 
	C81.302444,260.637573 80.681984,249.199951 79.454842,237.838425 
	C78.972778,233.375244 73.925774,229.658508 74.231689,224.689331 
	C74.709862,216.922028 69.957802,213.448044 64.251724,210.139084 
	C61.556190,208.575928 59.131290,206.455063 57.291611,203.638397 
	C57.701645,203.296982 58.093208,202.715210 58.391594,202.759598 
	C67.516991,204.117523 73.519516,199.124054 78.875359,192.780014 
	C79.305077,192.271011 79.803261,191.817352 80.210007,191.291824 
	C82.859856,187.868118 86.245255,184.762711 87.939255,180.914536 
	C89.998177,176.237381 84.823082,173.426315 83.159973,169.649826 
	C77.693367,157.236542 75.529884,144.339828 75.426857,130.791901 
	C75.282387,111.793633 78.507561,93.381332 83.234344,75.126747 
	C83.479073,74.181618 83.941315,73.292824 84.238373,72.539825 
	C85.665009,71.997131 86.466896,72.703598 86.996902,73.535995 
	C93.625504,83.946526 103.324661,91.016617 113.472229,97.459679 
	C124.639183,104.549973 135.265869,112.169098 143.212158,123.422760 
	C156.350708,117.066902 170.098709,115.344658 184.708069,115.984421 
M124.011673,200.994598 
	C124.011673,200.994598 123.978943,200.960831 124.311958,201.557068 
	C127.404716,203.901230 127.741417,208.823471 132.496857,209.742294 
	C138.939362,210.987076 145.400436,211.343765 151.851868,210.523361 
	C160.995651,209.360550 167.281525,204.134598 168.605347,197.147263 
	C169.479004,192.535904 169.530380,187.951080 168.618088,183.311234 
	C165.885574,169.414154 154.092224,160.595276 139.974472,162.037048 
	C128.688446,163.189636 122.100388,170.460754 116.643089,179.536606 
	C113.500900,184.762299 112.447708,190.032822 114.522820,195.697998 
	C116.101265,200.007294 120.999901,198.995728 124.011673,200.994598 
M134.035904,233.340347 
	C129.239151,237.476807 129.463577,242.412537 130.991348,248.066437 
	C132.808502,254.791229 133.966980,261.714203 135.051056,268.607910 
	C135.552658,271.797607 136.998322,272.755646 140.012314,272.722046 
	C155.324783,272.551270 170.667221,273.210419 185.857162,270.418976 
	C189.121902,269.819061 192.472549,269.797699 195.811752,270.262909 
	C203.335785,271.311127 210.832993,270.709198 218.313049,269.709015 
	C221.208115,269.321869 222.385071,267.821014 222.710266,264.737732 
	C223.597366,256.326508 228.200989,250.218445 235.697449,246.415390 
	C248.533417,239.903549 265.371857,243.131638 275.043854,253.821091 
	C276.006317,254.884796 276.599915,256.480652 278.739258,256.307922 
	C281.610046,253.332169 286.678070,249.470200 285.756683,246.259384 
	C284.115875,240.541290 286.464020,238.330383 290.595001,235.869202 
	C285.757690,226.854050 281.178040,218.014023 277.791687,208.606216 
	C276.718933,205.625992 276.969330,203.815445 279.660248,201.844315 
	C290.613281,193.821182 297.514923,182.770874 301.939453,170.177597 
	C307.500336,154.350006 309.525269,137.829285 310.604462,121.182579 
	C310.737244,119.134132 311.290161,116.896820 309.720642,114.696121 
	C301.698822,117.401230 293.655182,120.005806 285.606873,122.544716 
	C271.657837,126.945068 257.529816,131.387085 247.152496,142.733582 
	C245.450043,144.595032 244.021545,144.597839 242.111786,142.847748 
	C229.541687,131.328690 214.439560,125.128441 197.808670,122.572777 
	C179.640976,119.780945 161.611237,119.275894 144.720306,128.392303 
	C142.074112,129.820526 140.783432,128.538452 139.450104,126.538734 
	C134.672394,119.373215 128.506149,113.583771 121.452530,108.713875 
	C109.821129,100.683441 97.595589,93.438698 87.710510,83.103439 
	C87.559425,82.945480 87.098671,83.083710 86.483505,83.083710 
	C80.908333,102.971687 79.639427,123.246925 80.998634,143.777496 
	C81.205879,146.907776 82.199333,149.433777 84.788681,151.529648 
	C87.313271,153.573105 88.398361,156.067856 83.808777,157.213455 
	C86.374550,164.184357 88.988441,170.654846 93.554482,176.118362 
	C94.935966,177.771393 95.864014,179.443192 94.248253,181.463821 
	C87.710426,189.639893 81.899834,198.471466 73.219650,204.714645 
	C72.027817,205.571854 70.634369,206.352112 70.778137,208.286942 
	C71.621368,209.903458 73.451988,210.000900 74.898506,210.719604 
	C80.120117,213.314072 80.988373,212.960327 83.266006,207.311966 
	C86.257118,199.894211 93.349808,196.258133 101.058014,198.456680 
	C104.506172,199.440155 107.775810,200.400085 111.292351,197.536957 
	C107.968063,186.602036 112.421165,177.537170 119.549179,169.449814 
	C127.538376,160.385361 137.561539,156.227570 149.551697,159.250870 
	C161.479080,162.258362 169.417831,169.565933 171.893356,182.138657 
	C175.990341,202.946472 166.626389,214.402145 145.410599,214.328323 
	C141.394669,214.314346 137.378632,214.326324 133.284805,214.326324 
	C137.208435,220.270096 138.070694,226.346451 134.035904,233.340347 
M81.407883,229.899261 
	C82.872574,231.501541 86.235947,231.617401 85.719170,234.741348 
	C83.888931,245.805496 86.866028,256.478058 88.062874,267.306519 
	C88.529579,271.529053 90.445137,272.876862 94.551788,272.794830 
	C105.025032,272.585541 115.505341,272.745361 125.982597,272.702637 
	C127.405121,272.696838 129.017868,273.148682 130.312393,271.497681 
	C128.585342,261.900513 126.795670,252.144516 125.089066,242.374008 
	C124.451759,238.725372 124.300720,235.566925 127.976860,232.693024 
	C133.463852,228.403442 133.008087,221.586533 127.608841,216.927017 
	C126.189247,215.701889 125.138107,214.447052 124.561111,212.557846 
	C121.600266,202.863419 114.895256,200.623474 106.511566,206.389786 
	C93.547775,200.081207 88.549911,202.475174 87.271240,215.605881 
	C80.120903,217.697205 78.550095,221.108017 81.407883,229.899261 
M233.751678,271.065948 
	C233.714340,268.808502 233.509888,266.493408 236.419891,264.211578 
	C237.708145,270.428162 240.216064,275.001495 247.177658,274.141998 
	C248.249268,271.164978 246.044983,267.920013 248.698395,265.231323 
	C249.167938,265.732452 249.711319,266.120087 249.998260,266.647278 
	C254.798630,275.467102 257.232269,275.746246 263.982330,268.447235 
	C266.712494,265.494995 267.969269,266.653351 268.750366,270.200562 
	C269.721191,274.609619 273.503845,272.196686 275.789276,272.173218 
	C278.682648,272.143585 277.333313,269.661072 276.856506,267.975952 
	C273.937012,257.657593 266.412201,252.305618 256.715668,249.334763 
	C244.226151,245.508179 230.990387,252.023438 227.768906,263.538818 
	C226.051743,269.676910 228.556595,274.269745 234.336868,275.528870 
	C235.255829,274.140625 233.829895,273.059998 233.751678,271.065948 
z"/>
<path fill="#000000" opacity="1.000000" stroke="none" 
	d="
M298.557495,125.916336 
	C302.889740,126.181389 304.279694,128.338440 303.552399,132.001968 
	C302.795715,135.813751 303.546234,140.072144 300.249634,143.516586 
	C291.172577,135.624130 283.110565,141.791321 275.367004,145.732239 
	C268.294037,149.331879 261.249512,149.444168 253.643021,148.368973 
	C265.654358,135.253235 279.014984,124.966583 298.557495,125.916336 
z"/>
<path fill="#000000" opacity="1.000000" stroke="none" 
	d="
M207.067444,207.379395 
	C208.198822,202.405533 209.803864,198.040497 211.959534,193.887024 
	C217.489319,183.232437 226.509827,177.892395 238.276398,178.079941 
	C249.762680,178.263016 258.668854,183.547714 264.045654,194.035721 
	C267.601624,200.972031 269.530273,208.359894 269.191833,216.149979 
	C268.640594,228.838730 256.688507,237.673035 242.459229,236.013840 
	C232.839218,234.892120 224.057831,231.394028 216.310272,225.621536 
	C210.433731,221.243073 206.760239,215.480133 207.067444,207.379395 
M263.703949,202.827789 
	C263.444855,202.037689 263.175171,201.250870 262.928253,200.456985 
	C258.768616,187.083252 247.026291,179.989349 233.250076,182.051788 
	C220.576736,183.949097 215.522705,193.095795 211.529877,203.599106 
	C209.327652,209.392181 210.489868,214.418518 214.557541,218.808487 
	C223.460556,228.416901 234.844223,232.556778 247.626282,232.552109 
	C255.418869,232.549255 261.070923,228.316833 264.383911,221.146347 
	C267.125793,215.212006 265.342621,209.420746 263.703949,202.827789 
z"/>
<path fill="#000000" opacity="1.000000" stroke="none" 
	d="
M181.498138,221.355057 
	C183.303543,220.484436 184.747452,219.697937 186.200989,218.929626 
	C187.084839,218.462433 188.396255,217.752197 188.915604,218.683136 
	C191.958069,224.136902 196.837967,224.476532 202.744415,223.610825 
	C199.339127,226.790573 198.149475,230.578293 196.676056,234.306580 
	C194.946640,238.682663 191.812180,242.026749 186.697510,242.095108 
	C181.276382,242.167587 176.708328,240.218002 173.588165,235.420883 
	C170.087463,230.038666 169.997101,223.894791 168.806839,217.046646 
	C173.351364,218.776901 176.667557,222.017395 181.498138,221.355057 
z"/>
<path fill="#000000" opacity="1.000000" stroke="none" 
	d="
M181.338882,203.938080 
	C186.223846,201.908783 190.586472,202.790466 194.729752,204.829132 
	C199.093552,206.976273 199.365585,211.537003 195.476028,214.405029 
	C191.599823,217.263214 185.951401,216.796875 182.239914,213.053436 
	C179.702011,210.493698 177.329529,207.664841 181.338882,203.938080 
z"/>
<path fill="#000000" opacity="1.000000" stroke="none" 
	d="
M94.125534,157.739502 
	C93.123672,154.888428 92.230026,152.396759 91.481163,149.862305 
	C90.614822,146.930267 93.332230,140.393295 95.913963,139.888565 
	C99.542908,139.179153 101.605927,141.932098 103.641678,144.337662 
	C104.897858,145.822037 105.072685,147.877762 103.358315,148.657944 
	C95.771729,152.110382 96.063568,157.915558 98.216156,164.615341 
	C95.839287,162.941742 95.483810,160.257797 94.125534,157.739502 
z"/>
<path fill="#000000" opacity="1.000000" stroke="none" 
	d="
M96.842804,115.733482 
	C92.607048,118.020645 89.230942,116.266701 89.205597,112.083176 
	C89.199715,111.112236 89.418015,110.112030 89.694511,109.172798 
	C90.374115,106.864212 90.449921,103.640297 93.508293,103.492477 
	C96.784920,103.334099 99.587242,105.317230 100.960876,108.345230 
	C102.201790,111.080673 100.370232,112.999573 98.218689,114.528099 
	C97.817871,114.812859 97.469116,115.170898 96.842804,115.733482 
z"/>
<path fill="#000000" opacity="1.000000" stroke="none" 
	d="
M128.850586,135.127121 
	C125.357986,133.498749 122.105591,132.178070 119.094307,130.439743 
	C116.670639,129.040649 115.521942,126.189384 117.117889,124.072258 
	C118.828651,121.802856 121.185890,123.320526 123.099251,125.024445 
	C125.701401,127.341743 128.525894,129.407715 131.214066,131.630981 
	C132.106110,132.368744 133.145401,133.297348 132.639252,134.559250 
	C131.941574,136.298737 130.455688,135.529633 128.850586,135.127121 
z"/>
<path fill="#000000" opacity="1.000000" stroke="none" 
	d="
M265.370575,159.126892 
	C263.728485,159.645706 262.497742,160.934799 260.684723,159.479996 
	C263.465607,154.874588 268.168671,153.047043 272.508240,150.485199 
	C273.928802,154.984604 273.326843,155.683640 265.370575,159.126892 
z"/>
<path fill="#000000" opacity="1.000000" stroke="none" 
	d="
M117.315575,139.980835 
	C116.437843,138.392166 116.537636,137.207108 118.342010,137.872650 
	C120.375496,138.622726 121.830864,140.218704 122.211594,142.848053 
	C119.600273,143.608963 118.930122,141.180313 117.315575,139.980835 
z"/>
<path fill="#000000" opacity="1.000000" stroke="none" 
	d="
M114.801224,229.205719 
	C115.685448,231.284119 117.101509,232.463516 118.348366,233.804443 
	C121.053535,236.713593 122.278656,240.010834 120.194839,243.795456 
	C118.146568,247.515533 114.869789,249.399200 110.689178,248.790848 
	C107.390251,248.310806 104.226028,247.948761 100.854851,248.418411 
	C96.587204,249.012970 92.813202,247.413773 90.794373,243.445190 
	C88.680115,239.289032 90.155060,235.755249 93.609306,232.834732 
	C94.732986,231.884674 95.662483,230.654373 96.505737,229.431549 
	C101.459541,222.247879 108.918564,222.006256 114.801224,229.205719 
z"/>
<path fill="#000000" opacity="1.000000" stroke="none" 
	d="
M116.944992,220.044418 
	C111.814369,224.650162 110.585159,224.687195 105.354599,220.151962 
	C102.657204,222.038956 99.850266,224.234055 96.127365,222.901947 
	C95.343544,229.141739 92.644432,232.353561 88.788857,231.886581 
	C86.077377,231.558182 83.623489,227.388199 84.166840,224.032242 
	C84.964867,219.103363 87.827339,217.309311 93.072670,218.450531 
	C95.360313,207.906036 98.124870,206.589661 105.262741,213.049164 
	C107.668152,211.367798 109.658447,207.512527 113.490829,209.895126 
	C116.861099,211.990417 117.298645,215.492401 117.063263,219.554718 
	C116.992958,219.994812 116.944992,220.044418 116.944992,220.044418 
M87.463127,224.430222 
	C87.981445,226.028473 88.636467,227.988144 90.706169,226.904388 
	C92.637215,225.893219 91.169136,224.383194 90.343254,223.244675 
	C89.011009,221.408066 88.024597,221.737396 87.463127,224.430222 
z"/>
<path fill="#000000" opacity="1.000000" stroke="none" 
	d="
M117.014732,219.968048 
	C120.095032,217.109573 122.934685,217.080551 125.367470,220.700729 
	C127.684097,224.148087 126.908562,229.614929 123.907974,231.537811 
	C120.844788,233.500809 116.789299,231.729736 115.637970,227.930542 
	C114.857803,225.356110 115.515343,222.998901 116.827530,220.382141 
	C116.944992,220.044418 116.992958,219.994812 117.014732,219.968048 
z"/>
<path fill="#000000" opacity="1.000000" stroke="none" 
	d="
M124.031143,201.007828 
	C117.712151,193.940247 117.084450,186.387207 122.060272,177.070969 
	C126.596130,168.578461 135.566513,163.940338 144.843399,164.912888 
	C163.347305,166.852783 170.469391,187.903885 163.952408,201.392761 
	C161.225296,207.037384 155.778473,209.152084 149.816177,209.160278 
	C140.649384,209.172867 132.041962,206.972885 124.298965,201.096207 
	C123.978943,200.960831 124.011673,200.994598 124.031143,201.007828 
M152.197586,182.460037 
	C149.654465,185.367966 150.303940,188.006760 153.256653,189.957077 
	C155.996994,191.767105 157.902100,189.889145 159.401123,187.750870 
	C160.602951,186.036499 160.280884,184.291779 158.931778,182.778671 
	C157.123596,180.750671 155.020889,180.574692 152.197586,182.460037 
z"/>
<path fill="#000000" opacity="1.000000" stroke="none" 
	d="
M238.153046,228.239136 
	C232.243637,228.079086 227.191849,226.479279 222.446152,223.928879 
	C217.449036,221.243408 214.307343,217.228104 213.775146,211.374023 
	C212.781555,200.444275 221.904160,187.885437 232.922714,185.123734 
	C243.337952,182.513260 255.408371,188.905838 259.793182,199.396805 
	C262.134338,204.998215 261.985260,210.911530 260.761322,216.586517 
	C259.237762,223.650848 253.146042,227.801346 245.113861,228.206818 
	C242.954254,228.315857 240.785339,228.240601 238.153046,228.239136 
M226.799057,205.466324 
	C228.217300,205.773376 229.434021,205.271118 230.444824,204.365616 
	C232.324921,202.681366 233.490707,200.683731 231.620361,198.353760 
	C230.025696,196.367233 228.033554,194.590134 225.291916,196.295380 
	C222.798553,197.846176 222.481812,200.279175 223.755646,202.773056 
	C224.248489,203.737930 225.326462,204.403900 226.799057,205.466324 
M245.556046,221.473297 
	C245.174713,219.626694 244.165771,218.854126 242.483932,220.012543 
	C241.676300,220.568817 241.239746,221.668564 242.017075,222.575943 
	C243.327438,224.105530 244.518402,223.690399 245.556046,221.473297 
z"/>
</svg>