<?xml version="1.0" encoding="utf-8"?>
<svg width="384" height="320" viewBox="0 0 384 320" fill="none" xmlns="http://www.w3.org/2000/svg">
  <g>
    <path d="M52.3279 171.03C50.4626 171.285 49.0239 170.458 48.0357 169.016C44.2782 163.531 40.0761 158.234 38.5088 151.607C37.9477 149.234 36.8404 148.273 34.5909 147.927C29.9392 147.213 25.3116 146.342 20.7427 145.547C20.8846 143.5 22.1019 143.207 23.1419 142.768C36.9735 136.927 43.9336 124.612 51.4121 112.784C52.4435 111.153 51.5566 109.919 50.5344 108.77C39.7111 96.6075 35.9245 81.6161 34.2672 66.1012C31.9874 44.7573 34.8585 23.6057 38.2395 2.54699C38.3983 1.55759 38.6059 0.566452 39.6054 0.0157623C40.7589 -0.117886 41.5108 0.621235 42.1284 1.36515C51.9734 13.2226 65.527 19.8163 78.5285 27.2464C86.7725 31.9577 94.6721 37.2313 101.337 44.1202C102.518 45.341 103.477 46.4765 105.56 45.4464C120.39 38.1135 136.321 36.3197 152.685 36.1017C145.357 32.8406 137.591 31.5362 128.319 31.021C133.696 26.979 138.942 25.9557 143.952 25.2635C158.763 23.2171 171.162 27.9169 180.453 39.9295C181.392 41.1431 182.285 42.324 183.828 42.7336C190.503 44.505 196.493 47.7722 202.365 51.269C204.117 52.3126 205.437 52.1093 206.752 50.6399C219.254 36.6706 236.477 30.8861 253.059 24.0164C257.683 22.1006 262.154 20.0476 266.297 17.1274C269.353 14.9738 269.259 10.8977 272.781 8.17278C273.718 13.5558 274.984 18.3086 275.309 23.1249C276.691 43.5989 276.991 64.0583 271.473 84.0921C268.254 95.7792 263.41 106.693 254.512 115.303C252.174 117.564 252.65 119.576 254.074 121.946C261.032 133.529 267.868 145.201 279.942 152.45C280.314 152.674 280.486 153.232 281.166 154.264C275.748 155.557 271.338 152.09 266.113 152.326C267.325 154.431 267.462 156.152 266.215 158.538C258.081 174.11 246.604 186.063 230.42 193.258C229.819 193.526 229.259 193.91 228.732 194.31C228.494 194.491 228.385 194.842 227.833 195.743C232.948 198.365 237.964 201.097 243.134 203.5C245.006 204.37 246.542 202.589 248.058 201.64C255.83 196.774 263.921 195.105 271.974 200.498C279.862 205.782 282.579 213.863 282.395 223.047C282.352 225.183 282.343 227.74 279.031 227.366C276.063 227.031 275.547 225.343 275.854 222.43C276.516 216.149 272.815 211.245 269.514 206.459C267.365 203.341 263.737 202.891 260.054 203.097C257.785 203.224 255.916 204.216 253.968 205.149C250.378 206.867 248.478 208.802 252.002 212.594C253.412 214.111 254.581 216.321 254.838 218.345C255.456 223.206 258.186 224.331 262.441 223.718C263.422 223.577 264.438 223.681 265.436 223.646C266.753 223.599 267.783 223.997 267.938 225.46C268.112 227.105 267.175 227.952 265.639 228.101C264.316 228.229 262.978 228.226 261.647 228.23C251.317 228.256 240.987 228.21 230.658 228.31C224.736 228.367 218.955 228.083 213.094 230.66C209.088 232.422 203.908 232.207 199.339 231.831C192.28 231.25 185.389 232.025 178.079 229.074C170.989 226.212 162.12 226.345 153.936 227.713C151.976 228.041 149.932 228.454 147.993 228.237C138.438 227.167 129.592 229.171 121.237 233.797C118.821 235.135 116.184 235.416 113.48 234.706C113.157 234.622 112.814 234.428 112.513 234.479C104 235.93 96.0823 235.374 89.4343 228.794C88.4591 227.829 85.9058 228.358 84.0832 228.365C58.9448 228.453 33.8063 228.554 8.66824 228.719C6.78877 228.732 5.28663 228.385 4.67474 226.524C1.49562 216.854 -1.7509 207.202 1.09247 196.773C2.21243 192.665 4.02106 188.972 6.84021 185.824C15.2119 176.476 27.4386 177.702 35.6662 189.235C40.1909 195.577 43.7138 202.635 47.6666 209.383C48.8464 211.397 50.03 213.394 52.1935 215.147C56.0792 210.528 58.6648 204.821 64.3636 201.785C69.8067 198.886 75.7504 197.207 81.6391 194.364C80.0704 192 77.7327 191.389 75.7863 190.392C68.6178 186.72 62.2472 181.902 56.0435 176.856C54.4169 175.533 52.6466 174.091 52.6709 171.245C56.4147 168.688 58.6523 170.894 60.8535 172.973C66.7088 178.502 73.2836 183.08 80.4786 186.561C86.3683 189.411 92.163 193.427 99.3372 191.662C104.187 190.469 108.994 191.158 113.72 192.005C125.419 194.102 135.376 205.29 135.542 216.15C135.658 223.749 135.658 223.776 143.338 223.682C145.33 223.658 147.327 223.477 149.309 223.256C155.621 222.555 161.965 222.302 168.262 223.002C175.05 223.756 175.053 223.965 174.951 217.457C174.844 210.747 177.179 205.15 182.172 200.595C190.22 193.252 199.766 191.686 210.107 193.204C212.097 193.496 214.06 194.085 216.013 193.376C233.954 186.86 249.539 177.253 259.372 160.15C259.952 159.141 260.959 157.905 260.244 156.935C256.191 151.438 260.535 149.034 264.413 146.408C257.45 138.008 252.367 128.835 246.977 119.856C245.748 117.809 244.886 116.097 247.467 114.374C254.849 109.444 258.637 101.874 262.426 94.2007C268.479 81.9421 269.976 68.6975 270.825 55.4267C271.53 44.3951 271.509 33.2677 269.544 21.5914C260.215 27.1083 250.364 30.1577 240.993 34.3254C228.777 39.7578 216.786 45.6219 208.597 56.8406C206.454 59.7777 204.695 58.5334 202.306 57.1598C196.223 53.6621 190.924 47.8901 182.738 49.843C182.186 49.9746 181.26 49.177 180.72 48.6095C177.856 45.6004 174.765 42.7462 172.306 39.4277C167.794 33.3362 161.401 31.5151 153.882 30.0706C160.198 34.6479 167.322 36.8149 172.057 42.7306C169.585 44.3839 167.872 43.1587 166.154 42.8618C147.696 39.671 129.458 40.6177 112.297 48.2198C105.37 51.2885 101.163 52.5598 95.4838 45.8622C86.4025 35.1519 73.1476 29.8758 61.1688 23.0523C54.8495 19.4526 49.0522 15.0891 43.3832 10.4451C42.8379 11.088 42.5275 11.3034 42.4358 11.589C42.0822 12.6897 41.6962 13.7956 41.5042 14.9304C38.3228 33.7381 37.0082 52.6753 40.0356 71.5609C41.8802 83.0681 45.3871 94.2357 52.9069 103.645C58.3485 110.454 58.4134 110.551 54.1565 117.975C49.0691 126.847 44.0703 135.825 34.3236 142.414C40.7722 142.787 44.1465 145.87 47.6697 149.526C44.2265 150.949 44.2751 152.99 46.1223 155.509C48.2839 158.456 50.0378 161.745 52.4574 164.448C54.7078 166.963 54.996 168.881 52.3279 171.03C52.3279 171.03 52.3279 171.03 52.3279 171.03ZM71.7897 223.705C77.6588 222.979 84.0474 225.653 89.4354 220.832C92.864 222.897 94.9449 226.578 98.5567 228.404C101.557 229.92 104.448 230.621 107.508 228.622C110.522 226.654 111.35 223.804 111.079 220.415C110.974 219.091 109.695 217.469 111.852 216.582C115.29 219.959 115.29 219.959 115.736 229.422C123.139 226.4 125.003 220.855 122.631 212.833C127.315 215.297 127.25 219.178 128.852 222.676C130.518 219.441 130.414 216.539 129.76 213.639C127.434 203.323 117.646 195.838 105.816 196.487C94.2078 197.124 82.7065 199.241 71.9379 203.898C65.8715 206.521 60.7421 210.608 58.1531 216.99C56.2409 221.704 57.557 223.631 62.321 223.708C65.1497 223.754 67.9798 223.708 71.7897 223.705C71.7897 223.705 71.7897 223.705 71.7897 223.705ZM192.544 224.327C194.518 225.893 196.554 227.21 199.225 226.281C199.279 218.488 199.279 218.488 201.438 216.411C205.952 228.587 206.167 228.669 217.589 222.438C218.597 221.888 219.694 220.843 220.781 221.642C224.75 224.562 229.165 222.78 233.331 222.859C238.707 222.961 244.172 223.417 249.645 222.456C249.686 218.068 247.32 215.495 245.287 212.677C237.72 202.19 206.134 194.89 193.221 199.893C185.809 202.764 181.45 207.762 179.993 215.369C178.939 220.876 181.179 224.352 186.65 226.36C185.435 218.637 185.683 217.427 189.184 215.057C190.059 218.054 189.492 221.49 192.544 224.327C192.544 224.327 192.544 224.327 192.544 224.327ZM42.7054 213.05C40.7998 209.539 38.9437 206.001 36.9766 202.525C34.3532 197.89 31.7319 193.238 27.7642 189.555C21.6434 183.873 16.4246 184.147 11.2389 190.573C4.24266 199.244 5.40483 208.73 8.51802 218.459C9.70886 222.18 11.8403 223.81 15.8154 223.741C25.1367 223.58 34.4633 223.745 43.7871 223.689C45.3425 223.679 47.1477 224.29 48.5726 222.449C46.7653 219.556 44.9274 216.614 42.7054 213.05C42.7054 213.05 42.7054 213.05 42.7054 213.05Z" fill="#000000" transform="translate(47.677 49.987)" />
    <path d="M52.5323 9.47643C58.5153 16.5564 61.7861 24.4322 62.8949 33.2386C64.0647 42.5306 58.5151 51.5303 48.6842 56.2877C35.5515 62.6429 16.71 58.9539 6.59279 48.4616C-1.52637 40.0415 -1.23589 30.7335 2.58264 20.7279C11.0064 -1.34491 34.9488 -6.90433 52.5323 9.47643C52.5323 9.47643 52.5323 9.47643 52.5323 9.47643ZM46.1076 48.4186C40.186 52.5627 33.4881 54.5351 25.727 55.498C34.3522 57.4925 41.9379 56.359 48.9244 52.294C55.4777 48.481 60.5353 42.684 59.5675 34.9472C57.077 15.0369 45.1685 0.339844 21.8879 5.33995C18.4236 6.08398 15.5807 7.98288 13.515 10.8211C28.8061 3.42476 39.9964 5.25888 48.6905 16.8947C55.6712 26.2373 54.7977 39.902 46.1076 48.4186C46.1076 48.4186 46.1076 48.4186 46.1076 48.4186ZM21.0454 22.5024C18.9322 19.8978 16.4341 19.1582 13.7517 21.4688C11.6229 23.3025 12.0266 25.655 13.3424 27.7982C14.4472 29.5976 16.0848 30.9744 18.3027 30.0124C21.2705 28.725 22.4787 26.3687 21.0454 22.5024C21.0454 22.5024 21.0454 22.5024 21.0454 22.5024ZM37.8266 42.7746C36.0276 41.9843 34.8865 42.6118 34.6928 44.5017C34.5812 45.5908 35.4122 46.5182 36.5103 46.3615C38.2572 46.1122 39.108 45.0458 37.8266 42.7746C37.8266 42.7746 37.8266 42.7746 37.8266 42.7746Z" fill="#000000" transform="translate(222.872 143.14)" />
    <path d="M8.59259 11.8709C17.5587 1.25433 28.5393 -2.46155 41.4607 1.617C54.2266 5.64645 61.9405 17.2509 63.2748 31.086C65.1096 50.1101 53.8754 58.942 36.8383 62.1408C18.8898 65.5107 2.47662 54.8253 0.245369 38.2453C-1.05812 28.5592 2.99226 20.0254 8.59259 11.8709C8.59259 11.8709 8.59259 11.8709 8.59259 11.8709ZM40.3983 58.2501C56.2794 52.638 61.5626 44.9672 59.7002 30.2254C57.1494 10.0353 38.5737 -1.39787 20.8103 6.54012C10.7765 11.024 6.4985 20.0215 4.13295 30.0606C1.93224 39.4001 4.95872 47.1146 12.3459 53.0713C20.4548 59.61 29.6889 60.9486 40.3983 58.2501C40.3983 58.2501 40.3983 58.2501 40.3983 58.2501Z" fill="#000000" transform="translate(121.109 135.916)" />
    <path d="M5.47321 30.9089C3.56831 34.1156 3.56831 34.1156 1.06094 35.6031C-1.08313 33.6537 0.515945 31.9323 1.55705 30.3951C5.4194 24.6923 11.1292 21.8372 17.6543 20.3609C18.7868 20.1046 19.9946 20.1387 21.0985 19.8078C23.2064 19.1761 26.0968 19.683 26.7571 16.6518C27.4402 13.5166 24.6503 12.7876 22.7587 11.6927C19.5483 9.83432 17.4328 7.21523 18.439 3.5862C19.417 0.0589294 22.9906 0.20459 25.9581 0.0380402C27.943 -0.0733948 29.9463 0.0865173 31.9388 0.178772C34.8361 0.312866 37.288 1.49146 38.1593 4.32672C39.0914 7.36 37.6552 9.7178 35.1642 11.6427C33.607 12.8461 30.4504 12.9633 31.1126 15.9419C31.7834 18.959 34.6348 19.1172 37.1021 19.4717C43.6047 20.406 49.8799 21.9028 54.8213 26.6409C56.6944 28.4369 58.7958 30.2048 58.113 33.523C41.1322 20.0185 23.8124 17.595 5.47321 30.9089C5.47321 30.9089 5.47321 30.9089 5.47321 30.9089Z" fill="#000000" transform="translate(175.004 176.546)" />
    <path d="M22.4236 11.7175C16.3627 4.22439 9.30765 1.43601 0.749222 6.02151C-0.536118 4.45297 0.0675201 3.62434 0.814651 2.93376C7.16429 -2.9353 21.1781 0.523239 24.0875 8.68465C24.5869 10.0854 25.2437 11.7094 22.4236 11.7175C22.4236 11.7175 22.4236 11.7175 22.4236 11.7175Z" fill="#000000" transform="translate(244.991 119.277)" />
    <path d="M5.56967 1.93081C13.829 -1.60944 20.8728 -0.30764 24.4234 6.05413C19.5651 5.1374 15.5353 2.84554 11.0489 3.95461C6.69025 5.03211 4.02148 8.52312 0.277924 11.548C-1.05093 6.01673 2.66135 4.39938 5.56967 1.93081C5.56967 1.93081 5.56967 1.93081 5.56967 1.93081Z" fill="#000000" transform="translate(138.267 113.515)" />
    <path d="M7.62115 42.2202C-5.56821 30.7908 -0.877052 8.76399 15.8346 2.03291C32.2297 -4.57065 47.3392 5.51401 49.1744 23.5948C50.8403 40.0074 36.0861 53.147 16.9832 46.5563C13.8603 45.4788 10.9365 43.8238 7.62115 42.2202C7.62115 42.2202 7.62115 42.2202 7.62115 42.2202ZM37.2108 15.2078C33.4653 15.2197 32.1505 17.6149 32.5492 20.7654C32.8682 23.286 34.7805 24.7999 37.5362 24.696C39.6224 24.6173 40.9925 23.4801 41.4737 21.4915C42.2254 18.3844 40.9263 16.3401 37.2108 15.2078C37.2108 15.2078 37.2108 15.2078 37.2108 15.2078Z" fill="#000000" transform="translate(128.204 142.09)" />
  </g>
</svg>